<svg xmlns="http://www.w3.org/2000/svg" version="1.1" xmlns:xlink="http://www.w3.org/1999/xlink" xmlns:svgjs="http://svgjs.dev/svgjs" width="150" height="150"><svg id="SvgjsSvg1017" xmlns="http://www.w3.org/2000/svg" version="1.1" viewBox="0 0 150 150">
  <!-- Generator: Adobe Illustrator 29.3.1, SVG Export Plug-In . SVG Version: 2.1.0 Build 151)  -->
  <defs>
    <style>
      .st0 {
        fill: #fd1d86;
      }
    </style>
  </defs>
  <path class="st0" d="M91.9980413,58.6570946L105.6755442,0h36.2577558v.5299256c-8.2579661,2.8265985-11.7421653,8.4802884-11.7421653,18.020921v66.7844279c0,11.1309023,1.9353376,20.3185798,11.7421653,22.9687007v.5294326h-48.2572431v-.5294326c8.3861342-1.5902697,12.7734252-9.364155,12.7734252-22.0853271V2.8265985h-.129154l-25.1603744,107.0666605h-.6457698L52.2575652,9.8940806h-.2583079l2.4519534,38.5154853c.7739378,11.8373054,2.5801215,31.4489891,2.5801215,44.1701612,0,15.7242481-2.0644915,23.8510884-6.4517825,33.0387659-6.8382585,14.3104559-19.0960537,24.381507-32.6444027,24.381507-9.4193659,0-17.935147-6.5375565-17.935147-19.4352061,0-9.010214,5.5481978-16.0772032,12.1286413-16.0772032,6.1939676,0,11.2260424,7.0669892,11.2260424,15.7242481,0,10.6004838-6.7100904,12.367231-6.7100904,15.371293,0,1.5902697,2.1936455,2.8265985,4.1289831,2.8265985,9.1610579,0,18.3231018-9.8935877,23.4833447-26.3247318,5.4195368-16.9615627,8.0006441-39.9292775,8.0006441-63.2514263v-14.3109488c0-25.7948062-4.6455989-42.9328465-16.2586103-42.9328465-14.9670707,0-22.57976,14.1344713-22.57976,32.5088403,0,13.4275752,4.2576441,26.6781799,11.9999803,26.6781799,2.4509675,0,1.8061836-2.2966729,1.0322458-3.003076-3.4841992-3.357017-6.0643206-7.4204372-6.0643206-13.7810232,0-9.8940806,5.5477048-17.4909954,12.3869492-17.4909954,6.7091045,0,12.1286413,7.7738853,12.1286413,16.9610698,0,12.1907535-8.1288122,19.0812651-16.7742402,19.0812651-12.5161032,0-23.0963758-10.4240062-23.0963758-28.4454201C5.0320749,13.4275752,18.5799309,0,33.9344634,0h42.3225694l15.6118546,58.6570946h.129154Z"></path>
  <g>
    <path class="st0" d="M150,136.6916902c0,7.4953671-5.6597235,13.3083098-13.1550906,13.3083098s-13.1550906-5.8129427-13.1550906-13.3083098,5.6597235-13.4611023,13.1550906-13.4611023,13.1550906,5.9657352,13.1550906,13.4611023Z"></path>
    <path class="st0" d="M118.954191,136.6916902c0,7.4953671-5.6597235,13.3083098-13.1550906,13.3083098s-13.1550906-5.8129427-13.1550906-13.3083098,5.6597235-13.4611023,13.1550906-13.4611023,13.1550906,5.9657352,13.1550906,13.4611023Z"></path>
  </g>
</svg><style>@media (prefers-color-scheme: light) { :root { filter: none; } }
@media (prefers-color-scheme: dark) { :root { filter: none; } }
</style></svg>