<?xml version="1.0" encoding="utf-8"?>
<!-- Generator: Adobe Illustrator 27.5.0, SVG Export Plug-In . SVG Version: 6.00 Build 0)  -->
<svg version="1.1" id="katman_1" xmlns="http://www.w3.org/2000/svg" xmlns:xlink="http://www.w3.org/1999/xlink" x="0px" y="0px"
	 viewBox="0 0 237.4 237.4" style="enable-background:new 0 0 237.4 237.4;" xml:space="preserve">
<style type="text/css">
	.st0{fill:#010202;}
</style>
<g>
	<path class="st0" d="M118.7,0C53.1,0,0,53.1,0,118.7s53.1,118.7,118.7,118.7s118.7-53.1,118.7-118.7S184.2,0,118.7,0z M153.6,72
		c0,0-11.8,0-16.5,0c-5.8,0-7,2.4-7,8.4c0,5,0,14.5,0,14.5h23.5l-2.3,25.5H130v76.3H99.5v-76H83.6V94.8h15.9c0,0,0-3.7,0-20.4
		c0-19.1,10.3-29.1,32.9-29.1c3.7,0,21.1,0,21.1,0L153.6,72L153.6,72z"/>
</g>
</svg>
