<?xml version="1.0" encoding="utf-8"?>
<!-- Generator: Adobe Illustrator 27.5.0, SVG Export Plug-In . SVG Version: 6.00 Build 0)  -->
<svg version="1.1" id="Layer_1" xmlns="http://www.w3.org/2000/svg" xmlns:xlink="http://www.w3.org/1999/xlink" x="0px" y="0px"
	 viewBox="0 0 1136.4 406.3" style="enable-background:new 0 0 1136.4 406.3;" xml:space="preserve">
<style type="text/css">
	.st0{fill:#FFDCD9;}
</style>
<g>
	<path class="st0" d="M1097.6,125.4c11.7-6.6,22.5-14.4,30.5-25.4c6.1-8.4,9.3-17.6,8-28.1c-1.4-11.5-7.8-20.1-17.1-25.8
		c-10.5-6.3-21.5-12.3-33.1-16.1c-43.2-14.2-88.1-18.8-133.3-19.9c-30.7-0.8-61.3,0.8-91.7,4.6c-30,3.7-59.4,9.9-87.6,21
		c-10.5,4.1-18.4,11.6-23.8,21.1c-1.8,3.2-2.6,8.7-1,11.5c2.2,3.9,7,0.9,10.4-0.5c57.9-23.5,118.1-36.5,180.5-39.8
		c39.8-2.1,79.2-0.5,118.3,7.3c15.8,3.2,31.6,6.9,45.4,16c13.5,9,16,20.5,5.6,32.9c-7.3,8.7-15.9,16.8-25.2,23.2
		c-30.5,21-65.5,30.5-101.4,37.2c-10.5,2-21.1,2.9-31.5,5.2c-4,0.9-8.4,3.8-11,7c-4.4,5.5-1.4,10.8,5.6,11.3c2,0.1,4,0.1,6,0
		c23.1-0.6,45.9,1.3,68.3,7.2c22.7,5.9,44.6,13.8,62.9,29.2c19.3,16.2,26.5,36.6,19.8,61.2c-3.5,12.7-10.1,23.7-18.2,34.2
		c-1.4-1-2.4-1.6-3.3-2.4c-18.9-16-40.2-27.8-63.2-36.8c-38.1-14.8-77.9-21.3-118.4-24c-9.6-0.6-19.2-1-29.9-1.5
		c1-2.2,1.5-3.8,2.3-5.2c13-24.2,25.5-48.7,39-72.6c20.5-36.3,43.4-71.1,68-104.7c4.7-6.4,3.7-10.4-3.2-10.7
		c-14.4-0.7-27.6,2.4-36,15.8c-6.7,10.7-13.7,21.3-19.9,32.3C894,136.1,870.9,183,850,231c-1.4,3.2-2.9,4.9-6.8,5.2
		c-18.8,1.7-37.2,5.8-54.4,13.7c-21.9,10.1-41.6,23.2-52.8,45.4c-16.6,32.9-11.9,64.7,22.7,85.2c1,0.6,2,1.2,3,1.8
		c29.1,15.8,60.4,23.7,93.3,24c41.2,0.5,81.7-4.8,121.4-16.1c41.2-11.7,79.3-29.4,111.2-58.6c0.6-0.5,1.3-0.8,2.4-1.4
		c2,2.5,4.2,4.6,5.8,7.1c3.9,6,7.4,12.3,11.6,18c1.4,1.9,4.4,3.7,6.7,3.7c3.4,0,5.3-3.2,4.7-6.4c-0.8-4.7-1.5-9.6-3.8-13.7
		c-4-7.2-9.1-13.9-14-21.2c1.2-1.4,2.5-3.1,3.9-4.7c8.6-10.3,16.1-21.2,21.2-33.7c9.1-22.2,8.5-43.9-6.4-63.3
		c-6.6-8.6-14.9-16.3-23.7-22.6c-24.1-17.3-51.7-27.3-80.3-34.5c-1.6-0.4-3.1-0.9-4.7-1.4c1.6-1.3,3.1-1.7,4.5-2
		C1044.6,150.1,1071.9,140,1097.6,125.4z M1067.8,319.8c-32.4,32.9-72.1,52.5-116.5,63.2c-33.7,8.1-68,11.2-102.6,9.8
		c-24.1-1-47-7.5-67.9-19.8c-13.1-7.7-24.1-17.8-25.8-33.7c-2.6-25,5.2-46.4,25.5-62.2c15.2-11.9,33.1-17.6,51.6-21.5
		c2.4-0.5,4.8-0.7,7.9-1.2c-1,2.9-1.7,4.9-2.5,6.9c-10.8,27.6-21.9,55.1-27.7,84.3c-1.5,7.7-1.5,15.8-1.5,23.8
		c0,4.3,1.9,8.2,6.5,9.8c5,1.8,9-1,9.1-6.5c0.1-5.8-1.1-11.7-0.4-17.3c2.4-19.5,9.6-37.7,17-55.7c6-14.6,12.7-29,18.9-43.5
		c1.4-3.4,3.5-5,7.1-4.9c16.1,0.5,32.4,0.1,48.4,1.7c40.6,4.2,79.3,15.2,115.8,33.8c14.9,7.6,28.8,16.6,42.1,27.8
		C1070.8,316.4,1069.4,318.2,1067.8,319.8z"/>
	<path class="st0" d="M714.1,98c-8.7,1.5-17.9,4-25.1,8.8c-16.2,10.5-32.1,21.6-46.7,34.2c-44.4,38-85.1,79.7-124.4,122.9
		c-2.4,2.7-4.9,5.3-7.3,8c-0.3-2.2,0.2-3.9,0.8-5.5c4.4-11.5,9.1-22.9,13.2-34.5c11.2-31.7,21.3-63.8,23-97.8
		c0.7-14.1-0.1-28-5.6-41.3c-6.6-16-20.6-23.6-37.7-21c-10.5,1.6-19.7,6-28.4,11.6c-18,11.5-33.5,25.9-47.4,42
		c-24.5,28.4-48.3,57.3-72.5,86c-1.1,1.3-2.3,2.6-3.5,4c-0.3-0.2-0.6-0.4-0.9-0.6c0.7-1.6,1.4-3.1,2.1-4.7
		c9-20.8,18.8-41.2,26.8-62.3c9.8-25.8,15.9-52.5,15.5-80.4c-0.5-28.2-14.7-48.9-40.7-58.8c-4.6-1.8-9.5-3.2-14.3-4.3
		c-31.2-6.8-62.4-4.3-93.3,1.6c-42.8,8-83.5,22.4-122.6,41.5c-33.4,16.3-64.8,35.7-92.2,61c-11.4,10.4-21.3,22-27.8,36.3
		c-11.4,25.3-3.7,48.7,20.5,62.2c4.2,2.3,8.6,4.5,13.1,6c34.8,11.4,70.1,11.5,105.5,4.2c8.9-1.9,17.3-6.5,25.8-10.3
		c1.4-0.6,1.9-3.1,2.9-4.7c-1.6-0.6-3.2-1.8-4.7-1.7c-10,0.7-20,1.2-29.8,2.6c-24.9,3.7-49.8,7.5-75,4.4
		c-11.1-1.3-22.1-3.4-31.9-9.1c-11.2-6.5-17-16.3-15-29.1c1-6.4,3.5-13.1,7.3-18.3c6.3-8.7,13.2-17.3,21.3-24.3
		C98.3,80.4,158.8,46.9,225.8,25.6c28.4-9,57.4-14.5,87.5-11.1c29.8,3.4,48,20.4,52.5,50c2.6,16.9,0.1,33.5-3.8,50
		c-8,34.5-20.8,67.4-35,99.7c-22.7,51.7-46.4,103-81.5,147.9c-3.2,4.1-2.7,11.9,0.4,16c4.2,5.4,11.5,6,15.7,0.7
		c4.7-5.8,9-12,13-18.3c17.3-27.3,33.7-55.2,51.6-82c35.1-52.5,74-101.9,119-146.3c11.7-11.5,24.6-22,37.7-32
		c6.5-4.9,14.5-8.3,22.3-10.8c10.8-3.5,18.8,1.5,21.2,12.8c1.2,5.6,1.6,11.6,1.4,17.3c-0.6,19.8-5.2,38.9-11,57.7
		c-19.4,62.8-47.9,121.6-77.5,180c-1,1.9-1.7,4-1.9,6.1c-0.5,7.8,3.1,12.6,10.8,14.5c9.6,2.4,11.7,1.7,17.2-6.1
		c3-4.2,5.5-8.8,8.3-13.1c48.4-74.4,105.6-141.5,169.8-202.6c12.1-11.5,25.9-21.4,39.7-31c6.5-4.5,14.6-7.1,22.3-9.4
		c7.1-2.1,10,0.4,8.9,7.9c-1.4,9.3-3.3,18.8-6.8,27.4c-7.6,19-16.3,37.5-24.7,56.2c-16.2,36-31.4,72.4-40.9,110.8
		c-4.6,18.5-8.3,37-5.7,56.3c2.4,17.2,11.7,27.5,28.7,29.5c18.8,2.2,34.9-4.9,48.8-17.2c23.6-20.8,23.3-28.8,24.9-32.6
		c0.5-1.2-0.1-3.4-1-4.4c-0.5-0.6-2.9-0.1-4,0.6c-5.7,3.5-15.7,20.7-36,32.5c-5.6,3.2-11.3,6.7-17.3,8.6
		c-10.5,3.3-19.7-1.9-21.2-12.8c-1.2-9.2-0.9-19,0.5-28.2c4.2-27.6,13.6-53.8,24.1-79.6c14-34.5,28.6-68.9,42.6-103.4
		c6.5-16.1,11.1-32.8,9.8-50.5C735.2,103.2,727.3,95.8,714.1,98z"/>
</g>
</svg>
