<?xml version="1.0" encoding="utf-8"?>
<!-- Generator: Adobe Illustrator 27.4.0, SVG Export Plug-In . SVG Version: 6.00 Build 0)  -->
<svg version="1.1" id="Layer_1" xmlns="http://www.w3.org/2000/svg" xmlns:xlink="http://www.w3.org/1999/xlink" x="0px" y="0px"
	 viewBox="0 0 2899.6 618.5" style="enable-background:new 0 0 2899.6 618.5;" xml:space="preserve">
<style type="text/css">
	.st0{fill:#FAF9F6;}
</style>
<g>
	<path class="st0" d="M2859.9,2.8c-8.6,3.3-17.1,8.8-23.7,15.2c-9.2,9-17.4,19.3-24.6,30c-17.7,26.4-31.2,55.1-42.1,84.8
		c-9.8,26.5-18.2,53.5-27.2,80.4c-0.8,2.3-0.9,5-4.5,4.8c-17.1-0.7-31.6,6.3-44.3,16.9c-29.5,24.7-51.4,55.1-67.1,90.2
		c-1.1,2.5-2.3,5.2-4.2,7.3c-7.9,8.8-15.6,17.9-24.1,26c-10.2,9.8-21.6,17.9-35.7,21c-14.1,3.1-24.8-2.7-27.2-14.8
		c-0.6-2.9-0.6-6-0.5-8.9c0.5-16.2,6-31.1,12.8-45.4c9.4-19.8,19.7-39.3,29.8-58.8c2.2-4.2,2.2-7.9,0-11.8c-4.5-8-12.7-9.5-19.4-3.3
		c-5.1,4.8-9.4,10.4-14.9,14.8c-13.8,11.1-30.5,6.5-37.1-9.7c-1.3-3.1-0.9-5.3,1.2-8.1c6.5-8.9,12.8-17.9,18.6-27.2
		c6.7-10.7,6.1-21.9,0.5-32.8c-2.6-5.1-5-11.3-12-11.3c-7,0-9.7,5.9-12,11.2c-7.9,18.3-11.8,37.4-9.8,57.5c0.2,1.9,0.1,4.1-0.8,5.7
		c-12.6,23.2-25.1,46.6-38.3,69.5c-7.1,12.3-18.4,21-30.6,28.1c-8.5,5-17.9,7.3-27.8,6.8c-7.1-0.4-14-1.7-19.1-5.6
		c7.1-17.8,14.3-34.6,20.4-51.8c6.6-18.7,9.3-38.2,5.6-58c-3.4-18.2-16.9-28.3-34.2-26.2c-11.5,1.4-21.1,6.3-28.4,15
		c-14.5,17.2-22.8,36.7-20,59.8c0.5,4-0.4,7.2-2.5,10.8c-5.7,9.6-10.8,19.5-16.1,29.3c-0.9,1.8-1.6,3.8-3,5.1
		c-8.8,8.4-17.3,17.1-26.7,24.9c-14.1,11.8-29.7,12.8-46.1,4.5c-5.1-2.6-8-5.6-9.2-11.7c-3.1-16.5-7-32.9-15.3-47.8
		c-2.4-4.4-5.8-9.2-10-11.4c-3.9-2.1-9.5-1.1-14.4-1.4c0.4-0.8,1.2-2.5,2.3-4.2c20.3-32.4,40.2-65.2,61.2-97.2
		c22.4-34.1,45.8-67.6,68.6-101.4c2-3,3.9-6.3,5.1-9.7c2.4-6.7-0.8-13.7-7.1-15.4c-3.7-1-7.9-1.2-11.8-0.7
		c-8.3,1-14.1,6.2-19.3,12.3c-13.5,15.6-23.9,33.3-33.4,51.4c-34.7,65.8-69.1,131.8-103.7,197.7c-1.4,2.6-2.9,5.4-4.9,7.4
		c-14.1,14-28,28.1-42.6,41.5c-10.7,9.8-22.8,17.9-36.4,23.3c-7.5,3-15.4,4.7-23.4,3.1c-12.1-2.4-18.6-11-22.7-21.8
		c-5.6-14.7-6.8-30.1-6.7-45.7c0-1.8,1.5-4,3-5.3c32.8-31.2,63.3-64.4,92.2-99.1c29.5-35.5,58.4-71.5,82.3-111.2
		c10.6-17.6,20.1-35.7,24.9-55.9c2.8-11.9,1.8-22.8-7-32.1c-4.8-5.1-10.6-7.9-17.5-5.8c-6.6,2-13.9,3.8-19.2,7.8
		c-11.4,8.5-23,17.4-32.5,27.9c-51.4,57.4-94.2,120.8-126,191.2c-10.5,23.3-18.8,47.3-21.5,73c-0.2,1.7-0.8,3.7-1.8,5
		c-17.2,21.1-37.8,38-62.2,50.1c-11.1,5.5-22.9,9-35.6,8.4c-10.7-0.5-18-6.2-20.3-16.6c-2.7-12.1-0.5-23.8,3.1-35.4
		c0.5-1.5,2.7-2.7,4.3-3.5c26.2-12.7,47.7-31,65.1-54.2c4-5.3,7-11.8,9-18.2c4.9-14.9-8-28-21.5-24.7c-12.7,3.1-23.9,8.3-33.5,16.8
		c-18.8,16.6-32.5,37-42.7,59.7c-7.7,17.1-10.2,35-7.5,53.7c2.7,18.4,12.9,30.8,28.5,33.8c11.3,2.2,22.3,0.8,33.1-2.5
		c30.5-9.3,55.2-27.5,76.5-50.8c1.3-1.4,2.6-2.8,3.9-4.2c0.6,0.8,0.9,1.1,0.9,1.4c0.1,1.3,0.1,2.7,0.2,4c1.1,15.3,2.8,30.5,10,44.5
		c8.8,16.9,24.7,24.8,43.6,22.3c11.8-1.6,22.6-5.5,32.9-11.1c18.6-10,35.1-22.9,50.4-37.5c1.3-1.2,2.7-2.4,4.1-3.6
		c0,2.7-0.7,4.7-1.6,6.6c-16.3,39.6-31.2,79.6-42,121.1c-8,30.9-14.3,62-10.5,94.2c1.5,12.6,4.4,25,10.8,36.1
		c7.9,13.5,19.4,18.5,34.3,13.8c6.1-1.9,12.1-4.9,17.2-8.7c7.2-5.5,14-11.8,20.2-18.5c18.9-20.5,32.2-44.5,43.2-69.8
		c20.5-47,33.1-95.6,27.8-147.5c-0.1-1,0.1-2.1,0.2-3.4c15.8,8.8,26.2,9,41.3-1c8.5-5.7,15.9-13.1,23.6-19.9
		c1.5-1.3,2.3-3.5,3.5-5.2c0.5,10.1-0.4,18.9-0.1,27.6c0.5,15.2,10.8,23,25.9,20.9c10.2-1.4,19.1-5.7,27-12
		c10.6-8.4,18.8-18.9,26.2-30c1-1.5,2-2.8,3-4.1c4.3,1.7,7.9,3.7,11.7,4.5c25.7,5.1,47.6-2.3,65-21.4c8.9-9.8,16.4-21,23.7-32.1
		c9.9-15,18.9-30.5,28.1-45.3c8,15.4,21.7,21,39.3,19.3c-4.6,9.3-9.4,18-13.3,27.1c-9.4,21.8-15,44.4-11.7,68.5
		c2.3,16.5,11.4,26.4,28.1,28.1c7.7,0.8,16,0,23.6-2c20.1-5.2,35.1-18.4,48.9-33.2c1.3-1.4,1.9-3.4,2.8-5.1c0.6,0.5,1.2,1.1,1.9,1.7
		c0.2,4.4,0.2,8.9,0.7,13.3c0.9,8.1,5.6,12.8,13.6,14.5c9,2,17.2-0.6,24-5.8c8.8-6.8,17.9-13.8,24.5-22.5c13-17,24.4-35.3,36.4-53.1
		c1.1-1.6,2-3.2,3-4.8c0.8,1.2,0.8,2,0.6,2.8c-2.5,17.7-4.5,35.3-1.2,53.2c4.5,24.8,22,35.7,45.7,27.2c8.4-3,16.6-7.9,23.6-13.5
		c17.4-13.7,29.6-32,40.8-50.7c1.4-2.3,1.3-5.5,1.9-8.2c-0.6-0.3-1.3-0.5-1.9-0.8c-1.7,1.5-3.5,2.9-5,4.6
		c-7.2,8.3-14.1,16.9-21.6,25c-7.8,8.4-15.5,17.1-24.3,24.4c-16.3,13.5-28.8,9-33.8-11.5c-5.2-21.3-3-42.7-0.6-64.1
		c0.7-6,3.4-10.4,7.1-14.9c22.3-27.6,44.9-55,66.5-83.1c24.4-31.9,47.1-65,64.7-101.4c7.9-16.4,14.3-33.3,16-51.7
		C2901.8,7.9,2884.2-6.4,2859.9,2.8z M2009.5,275.7c13.5-40.4,32.8-78.2,52.7-115.7c18.3-34.6,37.2-68.9,60.8-100.3
		c7.4-9.8,15.9-18.8,24.8-27.2c4.4-4.2,10.5-7,16.4-9.1c8.5-3,14,1,13.7,10.1c-0.2,7.2-1.6,14.5-3.4,21.6
		c-5.8,22.4-17,42.3-29.1,61.6c-36.1,57.6-75.7,112.5-121.3,162.9c-5.2,5.8-11,11.1-16.6,16.6c-1.1,1.1-2.4,2-3.6,3
		c-0.4-0.2-0.8-0.5-1.2-0.7C2005,290.9,2007,283.2,2009.5,275.7z M1873.2,290c8.1-13.7,16.4-27.4,25.2-40.7c3-4.6,7.7-8.3,12-11.8
		c3.1-2.6,7.7-3.4,10.6-0.3c2,2.2,3.3,6.5,2.7,9.3c-1.4,5.9-3.4,12-6.8,16.9c-11.4,16.1-25.8,29.1-43.1,38.8
		c-1.5,0.9-3.2,1.4-4.8,2.2c-0.4-0.3-0.8-0.7-1.1-1C1869.5,298.8,1870.8,294.1,1873.2,290z M2193.6,488.6
		c-10.4,31.3-24.5,60.5-47.5,84.7c-4.9,5.2-10.4,9.9-15.9,14.5c-2.8,2.3-6.1,4.2-9.4,5.6c-10.1,4.4-19.8,1.3-23.4-9.1
		c-3.1-8.8-5-18.4-5.3-27.7c-1.1-31.7,5.1-62.6,13-93.1c15-57.9,37.1-113.2,61-167.8c0.4-0.8,0.9-1.6,2-3.3
		c0.7,4.9,0.9,8.9,1.8,12.7c4.3,18.2,15.4,31.9,29.5,43.4c3.5,2.9,5.1,6,5.9,10.3C2213.7,403.2,2207.6,446.3,2193.6,488.6z
		 M2359.9,342.5c-8.1,12.2-18,22.7-30,31c-1.9,1.3-4.1,2.3-6.3,3c-6.6,2.1-12.1-0.7-12.8-7.6c-0.6-5.6-0.1-11.6,1-17.2
		c3.4-16,10.2-30.8,17.5-45.9c1,1.1,1.8,1.8,2.3,2.6c7,10.9,16.2,19.8,26.8,27.2C2361.4,337.7,2362,339.4,2359.9,342.5z
		 M2366.9,329.3c-14.1-10.1-23.4-22.8-29.1-38.2c-0.4-1.1-0.4-2.8,0.2-3.7c4.4-6.2,8.5-12.8,13.7-18.3c2.5-2.7,7.4-3.1,11.1-4.6
		c1.9-0.8,4.9-1.2,5.4-2.6c0.6-1.5-0.6-4.2-1.7-5.9c-4.1-6.1-14-7.8-21.7-3.5c-4.1,2.3-7.7,5.7-12.6,9.4c0.2-4.9,0.1-9.1,0.7-13.2
		c1.3-9,4.2-17.6,9.9-24.8c2.7-3.4,6.3-6.6,10.1-8.5c8.3-4.2,15.6-2.2,21.1,5.4c6.9,9.5,9.4,20.5,10.1,31.9
		c1.6,23.5-5.5,45.4-13.5,67C2369.6,322.7,2368.4,325.6,2366.9,329.3z M2733.3,250.2c-0.6,2.1-1.1,4.2-2,6.2
		c-14.5,29.8-29.9,59.1-50.7,85.2c-4.1,5.2-9.1,9.7-13.9,14.3c-2.3,2.1-5,3.9-7.8,5.4c-12.3,6.8-20.1,2-20-16.5
		c1.3-4.5,2.8-13.5,6.3-21.6c10.7-24.8,26.3-46.3,46.2-64.5c9-8.2,19.1-14.6,31.8-15.2c1.8-0.1,3.7-0.1,5.5,0.2
		C2732.5,244.1,2734.4,246.2,2733.3,250.2z M2875.2,34c-0.5,14.3-5,27.8-10.3,41c-12.9,32-30.1,61.7-49,90.3
		c-19.8,29.9-40.6,59-61,88.4c-0.9,1.3-2,2.4-3,3.6c-0.4-0.2-0.8-0.4-1.1-0.6c2.7-10.8,5.2-21.5,8.1-32.2
		c13.3-49.1,29.2-97.2,50.2-143.5c5.7-12.5,12.8-24.5,19.9-36.3c3.6-5.9,8.3-11.2,13.2-16.3c3.2-3.3,7.1-6.1,11.2-8.2
		C2866.7,13.3,2875.7,19,2875.2,34z"/>
	<path class="st0" d="M1786.7,139.6c11.7-6.6,22.5-14.4,30.5-25.4c6.1-8.4,9.3-17.6,8-28.1c-1.4-11.5-7.8-20.1-17.1-25.8
		c-10.5-6.3-21.5-12.3-33.1-16.1c-43.2-14.3-88.1-18.8-133.3-19.9c-30.7-0.8-61.3,0.8-91.7,4.6c-30,3.7-59.4,9.9-87.6,21
		c-10.5,4.1-18.4,11.6-23.8,21.1c-1.8,3.2-2.6,8.7-1,11.5c2.2,3.9,7,0.9,10.4-0.5c57.9-23.5,118.1-36.5,180.5-39.8
		c39.8-2.1,79.2-0.5,118.3,7.3c15.8,3.2,31.6,6.9,45.4,16c13.5,9,16,20.5,5.6,32.9c-7.3,8.7-15.9,16.8-25.2,23.2
		c-30.5,21-65.5,30.5-101.4,37.2c-10.5,2-21.1,2.9-31.5,5.2c-4,0.9-8.3,3.8-11,7c-4.4,5.5-1.4,10.8,5.6,11.3c2,0.1,4,0.1,6,0
		c23.1-0.6,45.9,1.3,68.3,7.2c22.7,5.9,44.6,13.8,62.9,29.2c19.3,16.2,26.5,36.6,19.8,61.2c-3.5,12.7-10.1,23.7-18.2,34.2
		c-1.4-1-2.4-1.6-3.3-2.4c-18.9-16-40.2-27.8-63.2-36.8c-38.1-14.8-77.8-21.3-118.4-24c-9.6-0.6-19.2-1-29.9-1.5
		c1-2.2,1.5-3.8,2.3-5.2c13-24.2,25.6-48.7,39-72.6c20.5-36.3,43.4-71.1,68-104.7c4.7-6.4,3.7-10.4-3.2-10.7
		c-14.4-0.7-27.6,2.4-36,15.8c-6.7,10.8-13.7,21.3-19.9,32.3c-25.5,45.7-48.6,92.6-69.4,140.5c-1.4,3.2-2.9,4.9-6.8,5.2
		c-18.8,1.7-37.2,5.8-54.4,13.7c-21.9,10.1-41.6,23.2-52.8,45.4c-16.6,32.9-11.9,64.7,22.7,85.2c1,0.6,2,1.2,3,1.8
		c29.1,15.8,60.4,23.7,93.3,24c41.2,0.5,81.7-4.8,121.4-16.1c41.2-11.7,79.2-29.4,111.2-58.6c0.6-0.5,1.3-0.8,2.4-1.4
		c2,2.5,4.2,4.6,5.8,7.1c3.9,6,7.4,12.3,11.6,18c1.4,1.9,4.4,3.7,6.7,3.7c3.4,0,5.3-3.2,4.7-6.4c-0.8-4.7-1.5-9.6-3.8-13.7
		c-4-7.2-9.1-13.9-14-21.2c1.2-1.4,2.5-3.1,3.9-4.7c8.6-10.3,16.1-21.2,21.2-33.7c9.1-22.2,8.5-43.9-6.4-63.3
		c-6.6-8.6-14.9-16.3-23.7-22.6c-24.1-17.3-51.7-27.3-80.3-34.5c-1.6-0.4-3.1-0.9-4.7-1.4c1.6-1.3,3.1-1.7,4.5-2
		C1733.6,164.2,1761,154.2,1786.7,139.6z M1756.9,333.9c-32.4,32.9-72.1,52.5-116.5,63.2c-33.7,8.1-68,11.2-102.6,9.8
		c-24.1-1-47-7.5-67.9-19.8c-13.1-7.7-24.1-17.8-25.8-33.7c-2.6-25,5.2-46.4,25.5-62.2c15.2-11.9,33.1-17.6,51.6-21.5
		c2.4-0.5,4.8-0.7,7.9-1.2c-1,2.9-1.7,4.9-2.5,6.9c-10.8,27.6-21.9,55.1-27.7,84.3c-1.5,7.7-1.5,15.8-1.5,23.8
		c0,4.3,1.9,8.2,6.5,9.8c5,1.8,9-1,9.1-6.5c0.1-5.8-1.1-11.7-0.4-17.3c2.4-19.5,9.6-37.7,17-55.7c6-14.6,12.7-29,18.9-43.5
		c1.4-3.4,3.5-5,7.1-4.9c16.1,0.5,32.4,0.1,48.4,1.7c40.6,4.2,79.3,15.2,115.8,33.8c14.9,7.6,28.8,16.6,42.1,27.8
		C1759.9,330.5,1758.4,332.3,1756.9,333.9z"/>
	<path class="st0" d="M1373.8,7.5c-5.9-1.7-12.5-2.3-18.7-1.7c-16.1,1.6-28.8,10.7-40.8,20.7c-17.2,14.4-31.6,31.5-44.9,49.5
		c-37.2,50.6-68.5,104.8-96.6,160.9c-10.6,21.2-20.8,42.6-30.3,64.4c0,0,0,0,0,0c-1.4,1.6-2.8,3.2-4.1,4.8
		c-15,17.2-29.5,34.8-45.1,51.5c-10,10.6-22.1,18.8-36.8,22c-14,3.1-24.7-2.8-27.1-15c-0.5-2.8-0.5-5.6-0.5-8.5
		c0.4-16.3,6-31.4,12.8-45.8c9.4-19.8,19.7-39.3,29.7-58.8c2.1-4,2.1-7.6,0.2-11.4c-4.3-8.3-12.8-9.9-19.7-3.5
		c-5.1,4.8-9.4,10.4-14.9,14.8c-13.7,10.9-30.2,6.4-36.9-9.5c-1.4-3.3-1.1-5.6,1.1-8.6c6.5-8.8,12.8-17.9,18.6-27.2
		c6.6-10.5,6-21.6,0.6-32.4c-2.6-5.2-5-11.3-11.8-11.6c-7.3-0.3-10.1,5.9-12.4,11.3c-7.8,18.2-11.7,37.1-9.9,57
		c0.2,2.3-0.1,5-1.2,7.1c-8.8,17.2-17.3,34.5-27,51.2c-13.3,22.9-28.2,44.9-47.5,63.4c-5.5,5.2-11.7,10-18.2,13.8
		c-8.9,5-17.2,2.1-21.7-7.1c-2.3-4.9-3.9-10.3-4.8-15.6c-2.7-17.6-1.8-35.2,0.2-52.8c1.7-14.4,4.9-28.6,12.4-41.3
		c1.7-2.8,4.5-5.4,7.4-6.8c4.7-2.3,5.2-2.5,2.3-6.8c-9.1-12.9-22.3-16.7-36.9-14.7c-19.1,2.6-35.1,12.1-48.7,25.6
		c-23.3,23.2-41.1,50.2-53.9,80.4c-5.3,12.5-8.4,25.6-7.4,39.4c0.6,9.5,5.4,15.1,14.7,16.9c8.3,1.6,16.2-0.6,22.7-5.4
		c8.2-6.1,16.8-12.4,23.1-20.4c11.2-14,20.8-29.3,31.1-44c1-1.4,1.8-2.9,2.7-4.3c0.8,4.7,0.5,9,0.4,13.3
		c-0.3,13.7,0.2,27.4,6.4,40.1c5.1,10.5,13.3,16.7,25,18.5c13.8,2.2,26.4-1.3,37.2-9.6c8.7-6.6,17-14.2,23.7-22.8
		c22.2-28.5,42.1-58.8,60.1-90.2c1.6-2.8,2.9-5.7,4.4-8.7c8.5,16.6,22.3,21.9,40.1,20.4c-2.7,5-5.2,9.6-7.7,14.2
		c-11.9,22.9-19.4,47-18.7,73.2c0.7,26.6,16.5,39.9,42.7,36.5c14.5-1.9,27.1-8,38.5-16.7c17.1-13,30.7-29,42.6-46.4
		c-3.3,8.4-6.5,17-9.5,25.5c-2.1,5.9-3.3,12.2-4.7,18.3c-1,4.7,1.5,7.7,6,7.8c5.9,0.2,11.8-0.4,17.7-0.9c3-0.3,4.3-2.3,4.9-5.3
		c3.6-16.4,10.5-31.2,21.4-44c8-9.3,16.1-18.7,24.1-28c0.8-0.9,1.9-1.6,3-2.5c7.8,28.7,16.5,45.9,34.2,65.1
		c5.9,6.4,12.9,12.1,20.3,16.7c10,6.3,21.1,6.8,32,1.5c5.1-2.5,10.2-5,14.8-8.3c25.5-18.5,48.2-40,66.7-65.6c1.9-2.6,5.7-6.2,1.8-9
		c-3.9-2.8-6.3,1.8-8.6,4.5c-7,8.2-13.7,16.8-21.1,24.7c-11.7,12.5-24.6,23.5-40.8,29.9c-23.7,9.3-44.2,2.8-57.1-19.1
		c-4.8-8.2-7.8-17.6-11.3-26.5c-1.4-3.6-2-7.5-3-11.5c1.4-0.2,2-0.4,2.6-0.5c33.5-2.8,58.9-20.2,80.3-44.6c1.8-2.1,3.2-4.7,4.5-7.2
		c5.3-10.1,6-20.7,2.6-31.5c-2.2-6.8-7.3-10.8-14.3-10c-5.8,0.6-12.1,1.8-17.1,4.7c-10.9,6.3-22.1,12.8-31.3,21.2
		c-22.8,20.8-44.5,42.6-66.7,64.1c-5.6,5.4-11,11-16.5,16.6c-0.4-0.2-0.8-0.4-1.2-0.6c0.6-1.8,1-3.8,1.7-5.5
		c5.1-12.5,10.3-24.9,15.2-37.5c2.1-5.3,5.5-9.2,10.1-12.6c44.6-33.8,87-69.9,125.4-110.7c21.8-23.1,42.4-47,57.9-75
		c7.1-12.9,12.6-26.4,13.6-41.4C1389.2,20.6,1384.3,10.5,1373.8,7.5z M855.2,255.1c-12.3,27.8-27.1,54.2-45.6,78.4
		c-6.8,8.9-15.1,16.8-23.2,24.7c-2.7,2.7-6.6,4.5-10.2,6c-7,2.7-12.5,0-13.1-7.3c-0.6-7.1,0.1-14.6,1.8-21.6
		c1.7-7,4.7-13.9,8.1-20.3c11.6-21.9,26.3-41.7,44.8-58.4c10.5-9.4,22.5-16.1,37.2-16c1.6,0,3.3,0.2,6.1,0.4
		C858.9,246.3,857.1,250.8,855.2,255.1z M1212.6,285.7c14.8-14.4,29.5-28.8,44.7-42.8c4.7-4.3,10.4-7.8,16.1-10.8
		c6.7-3.5,11.6-0.4,12.9,7.1c1.2,6.7,0.2,13.2-3.3,18.8c-14.5,22.7-36.1,33.9-62,38.2c-1.7-0.1-3.5,0.2-4.9-0.4
		c-2.5-1.1-4.8-2.7-7.2-4.1C1210.1,289.7,1211,287.3,1212.6,285.7z M1374.1,39.6c-0.7,8.1-2.5,16.5-5.7,24
		c-8.1,19.4-20.9,36-34.7,51.6c-38.1,43.5-79,83.9-126.5,117.2c-2.3,1.6-4.7,3-7.9,5c0.4-2.4,0.4-3.9,0.9-5.2
		c21.9-60.2,50.4-116.5,96.5-162.1c13.1-12.9,28.3-23.6,43.2-34.6c5.3-3.9,12.1-6.4,18.5-8.3C1368.3,24.3,1374.9,29.3,1374.1,39.6z"
		/>
	<path class="st0" d="M714.1,123c-8.7,1.5-17.9,4-25.1,8.8c-16.2,10.5-32.1,21.6-46.7,34.2c-44.4,38-85.1,79.7-124.4,122.9
		c-2.4,2.7-4.9,5.3-7.3,8c-0.3-2.2,0.2-3.9,0.8-5.5c4.4-11.5,9.1-22.9,13.2-34.5c11.2-31.7,21.3-63.8,23-97.8
		c0.7-14.1-0.1-28-5.6-41.3c-6.6-16-20.6-23.6-37.7-21c-10.5,1.6-19.7,6-28.4,11.6c-18,11.5-33.5,25.9-47.4,42
		c-24.5,28.4-48.3,57.3-72.5,86c-1.1,1.3-2.3,2.6-3.5,4c-0.3-0.2-0.6-0.4-0.9-0.6c0.7-1.6,1.4-3.1,2.1-4.7
		c9-20.8,18.8-41.2,26.8-62.3c9.8-25.8,15.9-52.5,15.5-80.4c-0.5-28.2-14.7-48.9-40.7-58.8c-4.6-1.8-9.5-3.2-14.3-4.3
		c-31.2-6.8-62.4-4.3-93.3,1.6c-42.8,8-83.5,22.4-122.6,41.5c-33.4,16.3-64.8,35.7-92.2,61c-11.4,10.4-21.3,22-27.8,36.3
		c-11.4,25.3-3.7,48.7,20.5,62.2c4.2,2.3,8.6,4.5,13.1,6c34.8,11.4,70.1,11.5,105.5,4.2c8.9-1.9,17.3-6.5,25.8-10.3
		c1.4-0.6,1.9-3.1,2.9-4.7c-1.6-0.6-3.2-1.8-4.7-1.7c-10,0.7-20,1.2-29.8,2.6c-24.9,3.7-49.8,7.5-75,4.4
		c-11.1-1.3-22.1-3.4-31.9-9.1c-11.2-6.5-17-16.3-15-29.1c1-6.4,3.5-13.1,7.3-18.3c6.3-8.7,13.2-17.3,21.3-24.3
		C98.3,105.4,158.8,72,225.8,50.6c28.4-9,57.4-14.5,87.5-11.1c29.8,3.4,48,20.4,52.5,50c2.6,16.9,0.1,33.5-3.8,50
		c-8,34.5-20.8,67.4-35,99.7c-22.7,51.7-46.4,103-81.5,147.9c-3.2,4.1-2.7,11.9,0.4,16c4.2,5.4,11.5,6,15.7,0.7
		c4.7-5.8,9-12,13-18.3c17.3-27.3,33.7-55.2,51.6-82c35.1-52.5,74-101.9,119-146.3c11.7-11.5,24.6-22,37.7-32
		c6.5-4.9,14.5-8.3,22.3-10.8c10.8-3.5,18.8,1.5,21.2,12.8c1.2,5.6,1.6,11.6,1.4,17.3c-0.6,19.8-5.2,38.9-11,57.7
		c-19.4,62.8-47.9,121.6-77.5,180c-1,1.9-1.7,4-1.9,6.1c-0.5,7.8,3.1,12.6,10.8,14.5c9.6,2.4,11.7,1.7,17.2-6.1
		c3-4.2,5.5-8.8,8.3-13.1c48.4-74.4,105.6-141.5,169.8-202.6c12.1-11.5,25.9-21.4,39.7-31c6.5-4.5,14.6-7.1,22.3-9.4
		c7.1-2.1,10,0.4,8.9,7.9c-1.4,9.3-3.3,18.8-6.8,27.4c-7.6,19-16.3,37.5-24.7,56.2c-16.2,36-31.4,72.4-40.9,110.8
		c-4.6,18.5-8.3,37-5.7,56.3c2.4,17.2,11.7,27.5,28.7,29.5c18.8,2.2,35-4.7,48.8-17.2c2.8-2.6,4.1-7.1,5.6-10.8
		c0.5-1.2-0.1-3.4-1-4.4c-0.5-0.6-2.9-0.1-4,0.6c-5.7,3.5-11.1,7.5-16.8,10.8c-5.6,3.2-11.3,6.7-17.3,8.6
		c-10.5,3.3-19.7-1.9-21.2-12.8c-1.2-9.2-0.9-19,0.5-28.2c4.2-27.6,13.6-53.8,24.1-79.6c14-34.5,28.6-68.9,42.6-103.4
		c6.5-16.1,11.1-32.8,9.8-50.5C735.2,128.2,727.3,120.8,714.1,123z"/>
</g>
</svg>
