<?xml version="1.0" encoding="UTF-8"?>
<svg id="Layer_1" xmlns="http://www.w3.org/2000/svg" version="1.1" viewBox="0 0 301.4959717 382.2197571">
  <!-- Generator: Adobe Illustrator 29.3.1, SVG Export Plug-In . SVG Version: 2.1.0 Build 151)  -->
  <defs>
    <style>
      .st0 {
        fill: #8e3265;
      }

      .st1 {
        fill: #562942;
      }
    </style>
  </defs>
  <path class="st0" d="M66.2557983,5.8218737l-3.5273285-1.1147308-.6073723,7.7108078-8.2715263,10.7960997-1.4862442,7.9156399-7.9367714-3.8568974-19.7106419-4.8487549-12.9608021-5.187397,6.9212494,14.3815231-11.014329-7.1060333-.5834761,9.4664917c-.0365772.0502052-.0707493.0931435-.1117907.1568146-1.3061085,2.0243759-4.8061385,10.7098236-6.9091272,16.0535355L-.0000009,50.3342667l4.0530157,17.3226242,3.680377,2.3744431.0891485,1.8208084-1.9484491-1.2626038-5.140965-1.312027.2133298,1.06633,4.4544406,1.1304932,18.7121463,12.0724411,8.3261929,12.9311218,2.7042122,17.3038406-19.5149498,8.3058319-4.1965408.6682587.1954651.9770355,4.219799-.6674347,22.2132797-9.4385376.2320061,4.9075699-4.5518913,29.2913895-9.1193542,6.9290924-8.3439598-30.0359955-3.3987074,5.2679291.2816744,1.407959,2.7496929-4.2619934,9.4152527,33.889679-1.5992031,4.3647766.9380703.3437195,1.7100639-4.6662445-.4906902-1.7663727,2.2950764,1.4806366,6.9680328,12.5522614,19.0630379,20.1155701.7253647-.688385-18.9454117-19.9681854-7.0587978-12.7159729-3.2504234-2.0970764-.114542.177597-.656641-2.3637695,17.4288998-13.2574158,26.087677-11.9292297,20.2382126-2.7961044-13.9452057,17.0070877-.0893478.1096802-3.9762573,29.4238892-.0452652.3403168,25.8711319,14.2250671c-1.6987534,1.7449646-8.5710831,7.7207031-13.3060074,11.7614594l-14.6570892.778244-13.5166168-14.4172516.0631828,12.2539062,5.9259911,31.1118011c-5.4273491-.5111542-15.9894257-1.6528931-17.7238922-2.3720093-.4988594-.2067566-.7330017.0733795-.7965317.1717987l-.0026588.0041351c-.2844276.4515991-.6069069.9640808,16.7579422,16.5335693l.0787888.0705719,7.4659233,2.4261627.294075-.9049225,1.3618011,2.5675354-22.2646713,9.1365509c-2.4881058-.4685669-5.1901169-.9802551-7.9651146-1.5089111l.2122154,1.0607605c2.3882866.4534302,4.9395714.9360352,7.7136688,1.458313l.1458664.027832,22.6286316-9.2870331,6.6105652,12.4642487,3.9916763,3.2049255c-1.655983.2637024-3.372345.67453-3.8939667,1.2964478-1.1947937.2018738-9.2524338-1.458374-16.547493-3.2252808l-.3455887-.0840454-6.9370422,10.7523193-4.7920265,14.6906433-2.0215263,1.4557495.2155571,1.0774536,2.6561241-1.9127197,4.8174057-14.8235779,6.5166473-10.1007996c16.6352921,4.0169373,17.0363083,3.1693115,17.2253418,2.7781982.2514801-.3191528,2.0545349-.7590332,4.1745682-1.0469055l10.3504791,8.3103943.6248398-.7811279-9.8867569-7.9040222-.0781326-.7552185c-.2357483.0244446-.4921188.0531311-.7594986.0856018l-4.4760284-3.5784302-13.0522308-24.5633392-7.2336426-37.9322052-.0435677-9.6182861,14.0954704,15.0238495,15.1032257,11.3164978.5996475-.7996826-15.0381622-11.2588654-1.3600616-1.450592,14.1545258-.7508392.1283569-.1107025c.496109-.4230499,2.4146729-2.0621033,4.6795502-4.024765l2.5616684,1.6526947,7.4823608-4.8346558-.8039932,4.172699,6.9218826,7.3490601-7.6763458,11.8536377-1.0617065,5.5570984-4.2016983-12.5805969-5.5486069,2.8754883,5.6487732,48.4975891,2.3154984,24.0283203,2.913559,5.000885-.4638672.4600525,2.915123,2.936554-8.0833206,8.5804443-24.85466,5.3995972-17.9585037-.5348511.2014275,1.0068359,17.7883568.5296936,25.3384857-5.4901428,8.9594193-9.5097351-2.5772095-2.5959473.2588577-.1531677-3.4530334-5.8369141-2.3060989-23.9275208-5.5696259-47.8213196,3.8971329-2.0198822,6.9085159,20.6839142,12.4561539,5.6660614,14.7792969,36.7401886c-1.2111359,1.8488464-9.106636,13.9068909-10.544632,16.3385925l-17.7768021,7.1896362.3758621.927002,17.8818359-7.256073,28.4797363-2.4385071,27.0267487,12.2384033,17.4076691,20.3683777c-2.988205.9345093-14.334137,4.4493713-16.7049561,4.6915588-2.8732758.2933655-8.3479919,11.764801-9.6299438,14.5381165l-27.786087,11.0194702c-5.7956543-2.6660767-15.9082336-7.3573608-19.6545868-9.2183838l1.8215103-23.7440491-.162941-.1626587c-.548233-.5471802-13.4522705-13.4089355-15.325264-14.6173706l-.54216.840332c1.4114456.910614,10.3306198,9.6702881,14.9977951,14.3224182l-1.7531281,22.8702698c-.1874466-.0993652-.3289566-.1782532-.4079285-.229187l-.542099.840332c.1397171.0901184.4332886.2486267.8511505.4621277l-5.3094788,36.3478088-5.5972748-3.6112366-7.5710754-27.3649597-9.8081894-10.5133972-2.8597336-15.7433777,5.7133179-14.4902344-.9302673-.3666382-5.8179932,14.755127,2.9634018,16.3122864,9.8412018,10.5486755,7.607132,27.4963684,7.2246017,4.6610413,5.4850769-37.5608521c5.1027679,2.515564,18.8673706,8.848114,19.5535431,9.1638489l.1944885.089447,28.5558014-11.3253174.0836792-.1819458c2.651413-5.7650146,7.16716-13.9660034,8.9070892-14.1427307,2.0684052-.2115173,10.2348633-2.6705322,14.6959229-4.0466919l14.6337585,29.8265381.0452271.09198,21.9820709,18.9155579.0581818.050293,14.5521545,6.2396545-10.4503632-10.5006409-2.7479858-17.1315613-3.4943542-13.2379761,5.2612457,4.6854553,23.148941,5.5097961,12.5343933,13.0491638,4.4711609-34.7523804,12.7859802-1.1728821,22.6119385-3.3554077-24.0403137-15.5100098-7.1998291-13.6088562-6.0702209-5.9660034,9.4870605-4.1828613,16.358429-11.2436523-12.341095-7.9620667,8.0404663-4.4789124,2.5932007-5.9757233-6.9789734,1.2937012-8.2311401-5.3093109-13.5665283-7.6290131c1.9784546-4.3029022,3.6895752-8.0818787,3.8509216-8.4454803l3.2095642-11.9189606,10.9734802-10.3951416-14.8278198-9.566452-12.5369568-2.8976898,4.0142212-2.3748169,1.2648773-6.8548431-19.414444,2.0961914c2.0577087-3.5209656,5.0294495-9.4069061,5.0617523-9.4710083l.5227966-1.0363922-29.5484161,8.8307037-2.6852264,4.7665405-2.8123474-4.5752258,2.8070221-8.8943787-3.257782-8.4640961-1.0214691-11.1504974-10.008194,5.7471771-8.0262146-12.8545074-2.1700439-8.3271637-.9710083,2.0061951-8.6767883-13.4627075-.2763062-8.3796768,6.2769318,4.0496597-5.4502563-26.3063965-15.3994904-15.1510696,15.362442,8.2750397,6.9862518,19.2377243,3.2227936,2.8108215-6.7951508-1.5122833-.2172089.9761276,10.6317291,2.365715-5.660202-4.9360352,5.6635742-5.045929,9.4705505-3.2605057,3.0145874-2.7055283,8.9364777-1.4410629-6.1999512-3.9997025,8.3305054-4.9236679,6.4924469-12.6859589,8.2503052-9.8318558-20.1272888,5.2954407-11.7738495-4.0404816-8.4077911,4.4315262c-.211441-3.1178589-.4199982-6.3920288-.5871277-9.1533127l-.0157013-.2529984-4.4271698-2.8562622.6251068-9.1613541,4.2163849-10.1687012-20.1298218,8.8156967-6.5338593,7.4734802.3498688-14.340065-9.4299164-16.1668854.3450165,2.5004959c.728241,5.2875786,1.4149475,11.2700844,1.2768707,11.8875999-.365509.6962547-4.5140686,15.3603859-5.3075409,18.2042351l-4.8337708,9.6345978-4.2566681-.0856323-.177536-.0041351-13.2237473,10.3067856-3.5055923-3.6976852,2.6201553-26.3311691-.11586-.0116158,2.5753784-3.9933319,7.6314774-17.7659874-13.7915497,11.7666054-5.5509796,1.7012253,4.3128662-6.6849403-13.2674255,2.0933228-5.2580032,2.1622925-12.8085556-1.0425491-9.6770096,5.6683464.5054092.8629951,9.4047623-5.5093117,10.5380707.8584023-7.6991272,3.1662331-10.3420029,6.4335442-3.3231964-7.7550507,3.4961929-8.9569397-7.6658936-31.2781715-.0302811-.1224151L68.1292114-.0000796l-.0768356,4.3522649-1.7965393,1.4696088-.0000381.0000796ZM62.3191681,237.3889465l4.7102966,8.8812256-7.2168083-2.3446045c-5.2363091-4.6967316-13.1571007-11.9587402-15.6754951-14.6265869,4.3331146.9250793,16.2812386,2.0546112,16.8509445,2.1083374l.063488-.6733093s1.2675819,6.6549377,1.2675743,6.6549377ZM8.8561268,72.5217667l-.1489611-3.0522385-3.7722859-2.4337387-3.8892627-16.6254425c2.0661864-5.2464027,5.3658624-13.3082886,6.5203204-15.3856735l2.9709287,4.2770882.9539852,31.7777824,7.0333509,4.5376434-.6291637,2.7613068s-9.0389128-5.8567352-9.0389118-5.8567276ZM34.638649,104.0779037l-1.2280998-7.8589249-7.6483593-11.9501877,4.1158161-3.1818542.7488346,3.6453629,5.7381458,6.7254105.0799751.0435028c3.3718567,1.8493881,11.4145813,6.2654572,13.8875847,7.6435852l-7.0887527,4.2125778s-8.6051407.72052-8.6051445.7205276ZM90.9333572,197.9837952l-1.7740021-1.1445007c3.7372589-3.2480469,8.0532303-7.0697174,8.5210342-7.7947845l.2909012-.4509583-26.2810669-14.4506073,1.6630096-12.3079376,5.4243317.2400055,14.1120224-8.3470764,8.5495148-9.7705841,1.9114304,3.6945038-.3091507.3834076.8714752.7034302,7.5007858,14.4980621,6.9094543,27.988678-18.1100998.7639465-9.2796326,5.9944305-.0000076-.0000153ZM102.0020447,143.3139496l2.1550522-2.4627991,8.6616745-5.9172363,14.4156113.2082062.4413223.6369171.8912048-.6176758,4.6023407.066452,16.8969269,9.7234802,22.2328796,1.7291412-6.2525177,4.205307-9.8531647,6.2205963.5341492.8454742,9.8652802-6.2285004,3.7824707-2.5441895,7.4415894,1.5005341c.0867462,3.9951172.0514679,8.2956238-.1627502,8.8302765l.4594421.1976471.1907196.0824738-2.2792816,4.7092285.5881958,5.1995087-.8103638-.4228516,3.7028351,14.615509-10.2544861-6.6158752-16.6142731-23.2644958-4.361084,20.4616547-7.7409363-6.5997314-9.1829071-2.770401-6.4609375-5.470993,6.4239807,1.6283112,19.2748566-1.896347-.099472-.9950562-19.0149841,1.9006805-17.0358276-4.3183746-9.7415237-7.8631744-2.5143356-4.8674469-.1816788.0937347-.0000076.0000153ZM106.7919159,137.8400269l5.6564407-6.4642487,16.6972733-3.8556442-14.6892853-9.4770126,12.8964615-2.7870789,20.9827347-1.1093979-7.1151733,11.0284195-12.9588318,8.9816895-15.7455597-.2270355-5.7240753,3.9103088h.0000153ZM152.8460693,270.7868652l16.1403351-5.0935669,10.1605682,5.6564331-11.1174316,6.7680664-20.657959-3.9444275-4.4393768-3.1531677c.656601-.9384766,1.7988892-2.5716858,3.1947021-4.5683289l6.7191772,4.3349609-.0000153.0000305ZM146.7002258,265.6317139c2.8960419-4.1433716,6.6748199-9.553833,9.5724945-13.7176361l5.0078278,1.4645233,10.7370453.4777374-6.60289,11.9155121-12.4212494,3.920105-6.2932281-4.0602112v-.0000305ZM169.0960846,264.6100159l-2.2953796.7243652,6.8750458-12.4072113-12.1724854-.5251923-4.6281433-1.3537445c1.9914093-2.8636017,3.4608765-4.9880066,3.7399445-5.4206696.2951965-.457489.5196686-1.7277374.693222-3.3468323,3.062912.2556152,17.1229248.7973938,19.3513184.8825226l11.2253876,6.1399078,2.8677521-.385376c-.3935852,1.2018127-.6506348,1.9894104-.7139587,2.1834564l-.0687561.210144,9.5262604,16.7561188-5.6348877,4.4531555-4.7130127,14.27948-4.1992493-7.5971069-4.8299561-3.1160889.9131012-8.3200989-4.9031372,2.9849548-11.0330505-6.1417847h-.0000153ZM194.8756866,247.8919983l-2.7985077.3764954-11.1445007-6.0959015-.1175079-.0043182c-6.9426575-.2639008-17.1773682-.6915131-19.4102173-.878891.3575287-4.0683746.4462128-9.6274414.463913-11.1493835l.0068665-.5888977-.5824432.0885773c-6.4053955.9792023-13.5081787,1.6630707-14.3072662,1.1121063.0003662.0002441.0191345.0135345.0400696.0450134l-.8289032.5588379c.7858734,1.1659698,8.2742462.321167,14.6637115-.6387177-.0785675,5.2592621-.4277496,13.3480988-1.0860748,14.3685303-.8941193,1.3858643-14.636795,21.0372314-17.6578369,25.3556824l-5.2963104-3.7617798-8.9466476,5.9237061c1.7613907-3.0248413,8.048027-12.5121765,12.4078598-18.984787l.0732269-.1090698,1.4517365-18.3280487,10.9193878-16.9248505-18.5187836-2.6204376,8.0760193-8.1803741-8.1792145-.044281-5.9086609-.9967194-.8697052.3315277,2.0491333-14.4393768,6.0681305,7.5874023,27.5001221,4.6072998,20.6897583,15.4263,12.7392731,24.059967c-.5599213,1.6995697-1.0500946,3.1923981-1.4346466,4.3656006l-.0619659-.4612274-.0000153.0000153ZM127.9890442,216.9732513l-7.321373-6.6188812,7.6302719-2.9086456,5.7199707.9586029,5.8876953.0366211-7.0748444,7.1665955-4.8417282,1.3656921.0000076.0000153ZM135.9851685,198.9711761l-7.2745819-9.0967865-1.7194443,12.113266-4.5847549-2.9579468-.2177963-18.3063202,5.0656967.5929108,5.5764008-3.401413-11.1786804-19.1042938,1.4295502.3623505-.1164398.1376343,7.8986359,6.6892548,9.1821136,2.7698822,7.9929199,6.8151703-1.0145264,4.7600098,1.8098602,20.7790527-12.8489685-2.1527557.0000153-.0000153ZM98.6910553,198.1995392l.8888702-4.6111908.9466934-.6116028,19.0606155-.8032837-7.2172546-29.2338104-6.5335846-12.6481934,8.1450806,6.5748444,6.3099594,1.5993958,11.1797104,19.1066284-4.4428406,2.7108612-5.8523865-.6849365.2370453,19.9805908,5.4234467,3.499054-.5784683,4.0753632-6.4226379,2.4486389-1.5228882-1.3768005-1.2638397-13.2714081-10.8755798,8.378067-1.0787125,1.6657257-6.4032211-6.7978821-.0000076-.000061ZM98.7354813,232.07164l-2.2907944-6.8589325,1.359314-7.1186066,9.0470352-14.0228271,9.3733368-7.2204742,1.1293259,11.8551178,9.4984283,8.5879669-20.9575424,5.9113159-6.0467682,9.372406-1.1123276-.5059814-.0000076.0000153ZM171.2186584,301.3882751l-27.3486176-12.3843994-.1188812-.0534668-27.8340988,2.3826599c2.3346176-3.7618408,10.137001-15.6643677,10.222847-15.7949524l.143219-.2184448-15.1236877-37.5970001-10.3915405-4.7266541,5.7626038-8.9319458,26.6579285-7.5623322,17.8503571,2.5253601-10.2088318,15.8236389-1.4510651,18.3180237c-4.8626862,7.2200012-12.9290771,19.3274536-12.9628372,20.2255554l.226593.0240784-.4805374.3182373.5521164.8338623,10.0866928-6.6789246,4.7429962,3.3687134c-.0042572.006073-.0171204.0245361-.0186768.0267029l.8188019.5736084c.0029602-.0042114.0114746-.0163574.0149689-.0213623l4.089859,2.9048157-.0498352.2614441.5715179.1091919,4.4081573,3.1308899-1.3236389,13.3819885.9953461.0982666,1.3799438-13.9592896-3.098938-2.2010803,18.8894958,3.6066895,15.5959778-9.4943237-2.7769928,25.3007812-6.5811768,10.2007446-3.2400513-3.7910156-.0000153-.000061ZM175.1368256,305.9727783l6.8714905-10.6506348,1.9889374-18.1238098,4.1980438,2.7084656,4.5258789,8.1878052-2.2352295,6.7722778,2.9510193,7.7412415-5.7196045,11.850647-3.275177,2.4016724-9.3053741-10.8876953.0000153.0000305ZM223.1996918,351.9138184l2.788681,17.4018555,7.0368958,7.071167-9.6670837-4.1455078-21.7677002-18.730835-11.2031097-22.888092-3.3151855-6.706665c1.0995941-.3414307,1.8343353-.5731812,1.96138-.6133118l.7198181-.2276611-4.6598206-5.45224,3.4165802-2.5047302,5.416748-11.2244873,6.2034149,16.2733459,19.200531,17.0991516,3.868866,14.6480408-.0000153-.0000305ZM260.9012146,359.5151672l-11.2911072-11.7554932-23.1892242-5.5194702-25.4431152-22.6575623-9.4302979-24.7398071,7.1691895-21.723877,5.2795715-4.1719971,3.0242004,5.3193665,3.6537476-1.884613,13.1742554,14.5509644,4.3939819.3239441,23.8472595,15.8881226,13.3548737,21.0588684-4.543335,35.3115845v-.0000305ZM211.5936127,271.9074097l25.4581146-13.1315308,5.206543-11.0475006c3.1857605,2.1655884,19.1426697,12.3492584,22.5821533,14.5428314l5.3603821,1.0061951c-4.0766296,5.3406372-9.9011841,12.8761902-10.4758301,13.3544006-.6077271.4771729-11.7891541,6.5282898-19.2405701,10.5248718l-16.1637421-1.1919556-12.7270508-14.0573425v.0000305ZM269.8381958,265.4381409l6.0831909-.4932861.778656-.4337769,11.5276184,7.4371948-15.0397339,10.347168-9.7201843,4.276123.0552368.1255188-6.8414917-6.7241516-.7000732.7140198,13.4269104,13.1636658,7.2852173,13.7709045,22.0290222,14.2123718-19.9572449,2.9622803-12.5365906,1.1494446.2538757-1.9730225-13.6620483-21.5429077-22.5498962-15.0235291,10.4305573.769043.1278992-.0685425c1.9109497-1.0246582,18.6946259-10.0317078,19.5211334-10.6948853.6582336-.5277405,6.4929504-8.1034851,9.4849243-12.010437l.0030212.0368042ZM272.5973511,250.3453217l8.5391541,5.5091705,5.5219727-1.0239258-1.7111816,3.9438782-9.2160034,5.1825562-5.1078186.4139709c.4157715-.5439758.7227173-.9464111.8683777-1.1374512l.4952698-.6496887-6.691803-1.2085266c-3.4910278-2.226593-7.6669006-4.8965149-11.4934845-7.3520813,1.067215-2.0731964,3.2873383-6.8264771,5.3258209-11.2514343l13.4696655,7.5735779.0000305-.0000458ZM262.2848816,202.422348l13.6839294,8.8284454-10.2532654,9.7128143-3.2558289,12.1150665c-.07547.1662903-7.2695312,16.0370026-9.5038147,20.401474-4.9306183-3.1659241-9.1264191-5.8781281-10.268692-6.6620178l7.2807312-15.4486694-3.2840881-30.6429901,2.2850647-1.3518524,13.3159637,3.0477142v.0000153ZM254.2679901,190.545639l-.9382324,5.0875397-7.7081299,4.5601959,3.3222351,31.00354-12.6521149,26.8457794-28.8763428,14.8943787-12.357254-21.7359924c3.2849731-10.0706329,11.7849579-35.7990417,12.7770996-37.3368378.9603577-1.4885559,13.8557129-14.0124054,20.6534729-20.5354156l25.7792664-2.7831879ZM212.7903137,190.6688538l26.931015-8.0485687c-1.0309601,2.0136414-3.3406982,6.4673615-4.8831635,9.0171204l-6.7961426.7338257-.1226196.1179047c-.8021088.7695923-19.6538544,18.8635406-20.924469,20.8329468-.7574768,1.1740875-5.0284729,13.7987518-8.4659119,24.1454926l-1.2241364-3.2356262,2.9735107-8.6817017,1.8318939-15.9234619,10.6800385-18.9579315h-.0000153ZM208.8117828,195.4945831l.1716309-.1056671-7.7939758,13.8349457-1.8744812,16.0534821-3.0730286,8.9720001,1.7874756,4.7238617c-.4289398,1.2936096-.8375854,2.5299988-1.2228851,3.6976624l-12.3955231-23.4104309-20.9671021-15.6331024-.0971222-.0719452-13.4944305-2.2608948-1.8343506-20.8146667,5.1234589-24.040863,15.3510742,21.4954529,11.3733673,7.3789825.4693451,1.8525543-4.7302551,25.1254883.9822845.1851654,4.7509613-25.2342072-4.0173035-16.0467834,24.3718567,12.7173767,7.118988,11.581604.0000153-.0000153ZM186.1644897,154.7276154l8.2135162,13.1977234-5.2442474,8.1284943.8403168.542099,5.3502808-8.292923,8.9693756-5.1505127.8855133,9.6669464,3.1882935,8.3367615-2.4411316,7.7342682-3.5263824-5.7368317-24.7172852-12.8968048-.6317139-5.5825653,7.6085815-15.7202301,1.5048676,5.7735748h.0000153ZM174.927536,104.4818192l4.9046478,23.6718674-4.8536072-3.1313477-.3383331-10.2600021-11.5964813-16.9283524-13.7643585-4.2066269-15.0104828,3.9590607-.0404968-3.9235153-5.85495-6.175827,8.2111359-3.622406,20.7729645,3.3300858,17.5699768,17.2870483-.0000153.0000153ZM196.1183777,74.4949112l11.6510925,3.998436,17.3770294-4.5723114-6.3001556,7.5081482-6.411911,12.5287476-8.5125275,5.0306015-15.3688812-9.9148254c-.1731567-.8636703-.5101776-5.1785812-.8523865-10.143219l8.4177551-4.4355698-.0000153-.0000076ZM167.8127136,55.9338074l17.7487793-7.7731056-3.2957611,7.947319-.7074127,9.9897423,4.4977112,2.9017792c.1991272,3.2802887.9532928,15.4343567,1.3994751,19.3661652l-1.3188782-.8508224-22.777298-12.8525085-7.507782-.1510315,4.8121185-7.4588013.072113-2.9533691,7.0769501-8.1653671h-.0000153ZM148.9356232,64.9818954c1.958786-6.9359589,4.9774017-17.4817581,5.2657928-18.0998993.3041534-.5794716-.223175-5.3301125-.8376312-10.0050583l6.7534943,11.5787888-.4463654,18.2909927-4.8177948,7.4674683.4432526.2859726-11.0152435-.2215347s4.6544952-9.2967224,4.6544952-9.29673ZM139.0755463,75.1743927l24.0115509.4826355,22.5325623,12.7132416,22.710495,14.6520462-6.6598053,1.0736694-2.9838409,2.73349-9.4669189,3.2593384-5.7798157,5.1020508-6.8217926-18.7856216-18.7236633-10.0852203-.0627136-.0617752-21.3795776-3.4273911-8.8095245,3.8851547-1.4354401-1.514061s12.8684845-10.027565,12.8684845-10.0275574ZM120.9700775,81.131546l12.2616119,12.9342499.065506,6.2482681-3.8211365,5.9226608.140152,7.251091,1.0003815-.0193787-.1350555-6.9456177,3.8184662-5.9185791-.0204773-1.9868622,14.9797211-3.9501114,13.1569519,4.0204697,11.2337341,16.3991394.6550293,19.8406296,9.1562958,14.2077637-4.714859,9.7414093c.192215-2.2008972.1006012-6.9649353.0610657-8.6201477l-.0097656-.3991547-7.2558594-1.4629364,3.6997986-2.4885101-24.8733215-1.9346313-16.925827-9.7397919-3.4618988-.0499878,11.8908386-8.2412567,8.3648529-12.8951721-23.0153503,1.2228699-5.1806259,1.1172256-.0421219-10.3347549,3.0852203-4.782074-6.7953644-4.3841476-14.7849884,9.4370956-7.0799866-1.8747635,10.5194855-14.4410248.1321716-7.5292206,16.3897247-25.4142151s-2.4943695,25.069458-2.4943695,25.0694656ZM113.2686691,117.2768555l-8.5309372-5.5039062-13.4137421-1.3264999,4.4673615-6.1326752,7.8801346,2.0866013,14.6143265-9.3275146,5.4151535,3.4936829-2.7040329,4.1912384.0441895,10.8428802s-7.7724533,1.6762009-7.7724533,1.6761932ZM132.1143188,36.212822l-5.9033737,13.7580414-20.1311035,31.2029037-.131012,7.4986115-10.5624619,14.4996719-.1754837-.0464325-.1198044.4518356-4.9207001,6.7548828-12.8938675-1.2751465-.1494827-.0150986-2.4955444,1.3127975.1369781-.5032043.1972809-.3346329c-.3910751-.2314301-5.1690979-3.9398422-8.2850876-6.3767166l-.1516037-.1181259-1.4681702.1051178-11.3698158-7.3400345-2.2999878,9.8013077,2.4142647,15.8106461-15.3603897,8.4653625.482872.8763428,18.8998108-10.41642,19.4992752-10.2574921,27.0722122,2.6774979,22.2169342,14.3336258-14.7084198,3.3955765-8.3861618,9.6005402-.2735367.1868134.0484085.0708618-10.9852448,12.5758667-13.7870865,8.1552124-5.0363693-.2226257,2.0943985-15.5005646,15.4736633-18.8717957-22.8399963,3.1559601-26.3435974,12.0233154-6.9837151,5.306366,4.4003105-28.3151245-.2969856-6.4946289-2.8997993,1.2341995-1.2983894-8.3092117,8.6490479-.7244492,8.835537-5.1925735-.6786766-.4378738c-.4127388-.2663116-12.8006783-7.0621185-14.5929527-8.0453033l-5.4524975-6.3899841-1.0188923-4.9632111-5.3142929,4.1073685-.3255157-.5085831-6.1067333-3.9568558.8669605-3.8003769-7.1810894-4.6330109-.9461441-31.5484886-3.4506645-4.9660149.4767075-7.7317238,10.1065273,6.520359.3341484-.5179367,3.7428684,7.7772217,5.142292,5.7052917,8.1848469,13.2728043,5.2423744,4.4775391-16.8285046-10.8571892-8.6355858,6.9434166,8.2243595,1.3262596,16.5446205,12.2364922,16.8081131,9.2612076,15.8643532-.2516708-11.4034195-10.3735275-17.4939117-6.9690399-7.5127335-6.3856392-8.1976185-13.2781563-5.0701084-5.6064491-9.8352432-20.4383698,10.6393871,4.2533684,19.6268024,4.8220177,8.1340523,3.953186-1.5172615,8.0807571,4.0126534,16.9438515,9.6497803,12.0865173,1.8097763,6.3294144.9607544-.2749939-1.8370056-6.4259872-9.6366272-12.0565338-3.9567566-16.5225601,3.1309586-16.6769562,8.2165909-10.7234859.0906181-.1170359.530735-6.7525945,2.8436279.8990827,1.559433-1.2758369-.2733383,15.487361-7.3513374,24.8540688-.04562.1518555,5.8348465,17.1799011,5.7646484,7.4409637,1.5462112,6.3470383.0840073.1797028c.9231491,1.2423325,2.9307785,1.9367523,3.0157471,1.9653854l.3694763.1262589,3.6268005-5.6215515,4.8917923-1.3008881-.3898392-5.1218567,10.4468384-6.6223259,11.8402634-11.0928955,13.9324875-4.2698021s10.7921066-9.1530533,10.7921066-9.1530609ZM74.5272141,110.409668l-17.1738663,9.0341949-2.6161957,1.4418106-2.350235-15.1636047,1.9535637-8.3257675,10.4588814,6.7523727,1.4173355-.1019211c6.9143677,5.4055481,8.0515976,6.2201996,8.3105164,6.362915ZM41.2112846,64.6301422l20.130394,8.0296326,9.4013252,8.5518723-13.0722466.2074814-16.5190659-9.0966949-16.6854897-12.3460579-6.2437172-1.0060081,6.3206367-5.0828972s16.6681595,10.7426796,16.6681633,10.742672ZM91.8847427,48.6025543l14.7539597-6.0745392,11.0014648-1.7352905-3.744072,5.8032341-6.9097672,2.1175957-.1110535.0335464-11.9357529,11.1939735-9.9228592,6.2807198-.2688446-3.5326233-3.2610168-7.6097641s10.3979492-6.4768524,10.3979416-6.4768524ZM72.6541748,6.5197659l7.5611954,30.8497105-3.5312653,9.0436287,7.0730133,16.43536.3027954,3.9789124-.1912766.121048.22789.3597412.3357239,4.4120178-4.4622421,1.1863861-3.4044495,5.2768631c-.6117249-.2569351-1.5961075-.7630539-2.1146851-1.4003296l-1.5462875-6.3470917-5.7914658-7.5018921-5.7046051-16.798317,7.3255539-24.7673092.350174-18.8138351s3.5699234,3.9651036,3.569931,3.965107Z"/>
  <polygon class="st1" points="15.8468809 144.8239288 20.955637 170.3601379 22.0422421 170.4541016 16.0309143 144.9426575 15.8468809 144.8239288"/>
  <path class="st1" d="M30.7932358,219.5335693l2.032711,3.0029755-1.0930023,1.6941681.281662,1.4078979,3.1556778-4.8912811c3.0492096,1.2705078,21.9107628,9.0818024,25.0526505,9.2412567l.0516052-.998703c-2.5408745-.1290588-17.5323982-6.157074-25.104557-9.3264771l-.3862801-.1614227-1.3683815,2.1209869-3.1287003-4.6217346s.5066185,2.5323334.5066147,2.5323334Z"/>
</svg>