<?xml version="1.0" encoding="UTF-8"?>
<svg id="Layer_1" xmlns="http://www.w3.org/2000/svg" xmlns:xlink="http://www.w3.org/1999/xlink" version="1.1" viewBox="0 0 3040 792">
  <!-- Generator: Adobe Illustrator 29.4.0, SVG Export Plug-In . SVG Version: 2.1.0 Build 152)  -->
  <defs>
    <style>
      .st0 {
        fill: #fd1d86;
      }
    </style>
  </defs>
  <image width="3040" height="790" transform="translate(0 1)" xlink:href="mark-belford-logo-full-1.png"/>
  <g>
    <path class="st0" d="M725.0297852,636.9902344c-1.9140625-3.0322266-4.2480469-5.5761719-7-7.6298828-2.7539062-2.0517578-5.7880859-3.6162109-9.0996094-4.6904297-3.3144531-1.0722656-6.7900391-1.6103516-10.4301758-1.6103516-6.6279297,0-12.3198242,1.2607422-17.0800781,3.7802734-4.7597656,2.5205078-8.6582031,5.8583984-11.6899414,10.0097656-3.0341797,4.1542969-5.2739258,8.8447266-6.7202148,14.0703125-1.4477539,5.2285156-2.1699219,10.59375-2.1699219,16.0996094,0,5.4140625.722168,10.7587891,2.1699219,16.0302734,1.4462891,5.2744141,3.6860352,9.9882812,6.7202148,14.140625,3.0317383,4.1533203,6.9301758,7.4892578,11.6899414,10.0097656,4.7602539,2.5195312,10.4521484,3.7802734,17.0800781,3.7802734,4.6660156,0,8.8657227-.8408203,12.6000977-2.5205078,3.7319336-1.6796875,6.9516602-3.9658203,9.659668-6.8603516,2.7060547-2.8916016,4.9003906-6.2753906,6.5800781-10.1494141,1.6801758-3.8720703,2.7519531-8.0498047,3.2202148-12.5302734h9.5200195c-.6542969,6.1601562-2.1000977,11.7138672-4.3398438,16.6601562-2.2402344,4.9482422-5.1342773,9.1484375-8.6801758,12.5996094-3.5483398,3.4541016-7.7241211,6.1142578-12.5302734,7.9804688-4.8081055,1.8662109-10.1499023,2.7998047-16.0297852,2.7998047-7.8398438,0-14.7241211-1.4238281-20.6499023-4.2695312-5.9282227-2.8466797-10.8500977-6.6503906-14.7700195-11.4101562-3.9199219-4.7607422-6.8598633-10.2666016-8.8203125-16.5205078-1.9599609-6.2519531-2.9399414-12.8320312-2.9399414-19.7402344,0-6.9052734.9799805-13.4853516,2.9399414-19.7392578,1.9604492-6.2519531,4.9003906-11.7822266,8.8203125-16.5898438,3.9199219-4.8066406,8.8417969-8.6318359,14.7700195-11.4804688,5.9257812-2.8457031,12.8100586-4.2695312,20.6499023-4.2695312,4.7597656,0,9.4018555.6992188,13.9301758,2.0996094,4.5258789,1.4003906,8.6318359,3.4785156,12.3198242,6.2294922,3.6860352,2.7548828,6.7661133,6.1386719,9.2402344,10.1503906,2.4716797,4.0136719,4.0356445,8.6337891,4.6899414,13.8603516h-9.5200195c-.840332-3.8261719-2.2182617-7.2558594-4.1303711-10.2900391Z"/>
    <path class="st0" d="M865.659668,647.2802734c1.9599609-6.2519531,4.8999023-11.7822266,8.8198242-16.5898438,3.9199219-4.8066406,8.8417969-8.6318359,14.7700195-11.4804688,5.9257812-2.8457031,12.8100586-4.2695312,20.6499023-4.2695312s14.7001953,1.4238281,20.5800781,4.2695312c5.8798828,2.8486328,10.7797852,6.6738281,14.7001953,11.4804688,3.9199219,4.8076172,6.8598633,10.3378906,8.8198242,16.5898438,1.9599609,6.2539062,2.9399414,12.8339844,2.9399414,19.7392578,0,6.9082031-.9799805,13.4882812-2.9399414,19.7402344-1.9599609,6.2539062-4.8999023,11.7597656-8.8198242,16.5205078-3.9204102,4.7597656-8.8203125,8.5634766-14.7001953,11.4101562-5.8798828,2.8457031-12.7402344,4.2695312-20.5800781,4.2695312s-14.7241211-1.4238281-20.6499023-4.2695312c-5.9282227-2.8466797-10.8500977-6.6503906-14.7700195-11.4101562-3.9199219-4.7607422-6.8598633-10.2666016-8.8198242-16.5205078-1.9599609-6.2519531-2.9404297-12.8320312-2.9404297-19.7402344,0-6.9052734.9804688-13.4853516,2.9404297-19.7392578ZM874.409668,683.0498047c1.4458008,5.2744141,3.6855469,9.9882812,6.7197266,14.140625,3.0317383,4.1533203,6.9301758,7.4892578,11.6899414,10.0097656,4.7602539,2.5195312,10.4521484,3.7802734,17.0800781,3.7802734,6.6259766,0,12.2958984-1.2607422,17.0102539-3.7802734,4.7119141-2.5205078,8.5859375-5.8564453,11.6196289-10.0097656,3.0322266-4.1523438,5.2719727-8.8662109,6.7202148-14.140625,1.4458008-5.2714844,2.1699219-10.6162109,2.1699219-16.0302734,0-5.5058594-.7241211-10.8710938-2.1699219-16.0996094-1.4482422-5.2255859-3.6879883-9.9160156-6.7202148-14.0703125-3.0336914-4.1513672-6.9077148-7.4892578-11.6196289-10.0097656-4.7143555-2.5195312-10.3842773-3.7802734-17.0102539-3.7802734-6.6279297,0-12.3198242,1.2607422-17.0800781,3.7802734-4.7597656,2.5205078-8.6582031,5.8583984-11.6899414,10.0097656-3.0341797,4.1542969-5.2739258,8.8447266-6.7197266,14.0703125-1.4482422,5.2285156-2.1704102,10.59375-2.1704102,16.0996094,0,5.4140625.722168,10.7587891,2.1704102,16.0302734Z"/>
    <path class="st0" d="M1093.71875,617.0400391v61.8798828c0,5.7880859.6518555,10.7099609,1.9599609,14.7705078,1.3056641,4.0595703,3.2197266,7.3740234,5.7397461,9.9394531,2.5200195,2.5683594,5.6000977,4.4345703,9.2402344,5.6005859,3.6401367,1.1679688,7.7460938,1.75,12.3198242,1.75,4.6660156,0,8.8203125-.5820312,12.4599609-1.75,3.6401367-1.1660156,6.7202148-3.0322266,9.2402344-5.6005859,2.5200195-2.5654297,4.4316406-5.8798828,5.7397461-9.9394531,1.3061523-4.0605469,1.9599609-8.9824219,1.9599609-14.7705078v-61.8798828h9.5200195v63.9794922c0,5.1347656-.7236328,10.0107422-2.1699219,14.6308594-1.4482422,4.6191406-3.7338867,8.6582031-6.8598633,12.109375-3.1279297,3.4541016-7.1401367,6.1845703-12.0400391,8.1904297s-10.8500977,3.0097656-17.8500977,3.0097656c-6.9082031,0-12.8100586-1.0039062-17.7099609-3.0097656s-8.9140625-4.7363281-12.0400391-8.1904297c-3.1279297-3.4511719-5.4140625-7.4902344-6.8598633-12.109375-1.4482422-4.6201172-2.1699219-9.4960938-2.1699219-14.6308594v-63.9794922h9.5200195Z"/>
    <path class="st0" d="M1362.9384766,617.0400391v8.1201172h-34.8598633v91.8398438h-9.5200195v-91.8398438h-34.7202148v-8.1201172h79.1000977Z"/>
    <path class="st0" d="M1494.2587891,617.0400391v61.8798828c0,5.7880859.6513672,10.7099609,1.9599609,14.7705078,1.3056641,4.0595703,3.2197266,7.3740234,5.7402344,9.9394531,2.5195312,2.5683594,5.5996094,4.4345703,9.2392578,5.6005859,3.640625,1.1679688,7.7460938,1.75,12.3203125,1.75,4.6660156,0,8.8203125-.5820312,12.4599609-1.75,3.640625-1.1660156,6.7197266-3.0322266,9.2402344-5.6005859,2.5195312-2.5654297,4.4316406-5.8798828,5.7402344-9.9394531,1.3056641-4.0605469,1.9599609-8.9824219,1.9599609-14.7705078v-61.8798828h9.5195312v63.9794922c0,5.1347656-.7236328,10.0107422-2.1699219,14.6308594-1.4482422,4.6191406-3.734375,8.6582031-6.8603516,12.109375-3.1279297,3.4541016-7.1396484,6.1845703-12.0390625,8.1904297-4.9003906,2.0058594-10.8505859,3.0097656-17.8505859,3.0097656-6.9082031,0-12.8095703-1.0039062-17.7099609-3.0097656s-8.9140625-4.7363281-12.0400391-8.1904297c-3.1279297-3.4511719-5.4140625-7.4902344-6.8603516-12.109375-1.4472656-4.6201172-2.1699219-9.4960938-2.1699219-14.6308594v-63.9794922h9.5205078Z"/>
    <path class="st0" d="M1740.7988281,617.0400391c4.1054688,0,8.0019531.5136719,11.6894531,1.5400391,3.6865234,1.0283203,6.90625,2.5898438,9.6601562,4.6894531,2.7519531,2.1005859,4.9462891,4.8085938,6.5800781,8.1201172,1.6318359,3.3144531,2.4501953,7.2099609,2.4501953,11.6904297,0,6.3476562-1.6347656,11.8535156-4.9003906,16.5195312-3.2675781,4.6689453-8.1201172,7.6542969-14.5595703,8.9599609v.2802734c3.265625.46875,5.9716797,1.3300781,8.1201172,2.5898438,2.1455078,1.2607422,3.8955078,2.8701172,5.25,4.8300781,1.3515625,1.9599609,2.3310547,4.2246094,2.9394531,6.7900391.6064453,2.5683594,1.0019531,5.3447266,1.1904297,8.3300781.0917969,1.6796875.1855469,3.734375.2792969,6.1601562.0927734,2.4277344.2802734,4.8779297.5605469,7.3496094.2802734,2.4746094.7216797,4.8085938,1.3300781,7,.6054688,2.1943359,1.421875,3.8984375,2.4501953,5.1103516h-10.5c-.5605469-.9316406-1.0048828-2.0761719-1.3300781-3.4296875-.328125-1.3525391-.5605469-2.7519531-.7001953-4.2001953-.1396484-1.4462891-.2578125-2.8701172-.3505859-4.2705078-.09375-1.3994141-.1875-2.6113281-.2792969-3.6396484-.1884766-3.5458984-.4902344-7.0703125-.9101562-10.5703125s-1.3085938-6.6259766-2.6601562-9.3798828c-1.3535156-2.7519531-3.3144531-4.9697266-5.8798828-6.6494141-2.5683594-1.6806641-6.0898438-2.4267578-10.5703125-2.2402344h-36.1201172v44.3798828h-9.5195312v-99.9599609h45.7802734ZM1740.0986328,664.5c2.8916016,0,5.6455078-.4414062,8.2597656-1.3300781,2.6123047-.8857422,4.9003906-2.1699219,6.8603516-3.8496094,1.9599609-1.6806641,3.5214844-3.7099609,4.6894531-6.0898438,1.1660156-2.3808594,1.75-5.1103516,1.75-8.1904297,0-6.1601562-1.7734375-11.0117188-5.3193359-14.5595703-3.5488281-3.546875-8.9599609-5.3203125-16.2402344-5.3203125h-35.5605469v39.3398438h35.5605469Z"/>
    <path class="st0" d="M1970.8164062,617.0400391v8.1201172h-59.5v36.1201172h55.7207031v8.1201172h-55.7207031v39.4794922h60.2001953v8.1201172h-69.7197266v-99.9599609h69.0195312Z"/>
  </g>
</svg>