<?xml version="1.0" encoding="utf-8"?>
<!-- Generator: Adobe Illustrator 27.2.0, SVG Export Plug-In . SVG Version: 6.00 Build 0)  -->
<svg version="1.1" id="Layer_1" xmlns="http://www.w3.org/2000/svg" xmlns:xlink="http://www.w3.org/1999/xlink" x="0px" y="0px"
	 viewBox="0 0 2935.1 620.5" style="enable-background:new 0 0 2935.1 620.5;" xml:space="preserve">
<g id="XMLID_00000070830000268699820560000009317305860447560884_">
	<path d="M2895.3,3.8c24.4-9.3,41.9,5.1,39.6,31c-1.6,18.4-8.1,35.3-16,51.7c-17.6,36.3-40.2,69.5-64.7,101.4
		c-21.6,28.2-44.2,55.6-66.5,83.1c-3.7,4.5-6.4,8.9-7.1,14.9c-2.5,21.4-4.6,42.8,0.6,64.1c5,20.5,17.5,25,33.8,11.5
		c8.8-7.3,16.5-16,24.3-24.4c7.4-8.1,14.3-16.7,21.6-25c1.5-1.7,3.3-3.1,5-4.6c0.6,0.3,1.3,0.5,1.9,0.8c-0.6,2.8-0.5,5.9-1.9,8.2
		c-11.3,18.8-23.5,37-40.8,50.7c-7.1,5.6-15.2,10.5-23.6,13.5c-23.8,8.5-41.2-2.5-45.7-27.2c-3.2-17.8-1.3-35.5,1.2-53.2
		c0.1-0.8,0.2-1.6-0.6-2.8c-1,1.6-1.9,3.2-3,4.8c-12,17.8-23.4,36-36.4,53.1c-6.6,8.7-15.7,15.8-24.5,22.5c-6.8,5.2-15.1,7.8-24,5.8
		c-8-1.7-12.6-6.5-13.6-14.5c-0.5-4.4-0.5-8.9-0.7-13.3c-0.6-0.6-1.2-1.1-1.9-1.7c-0.9,1.7-1.6,3.7-2.9,5.1
		c-13.8,14.8-28.9,28-48.9,33.2c-7.6,2-15.9,2.8-23.6,2c-16.7-1.7-25.8-11.6-28.1-28.1c-3.3-24.1,2.2-46.7,11.7-68.5
		c3.9-9.1,8.8-17.9,13.4-27.1c-17.6,1.8-31.3-3.9-39.3-19.3c-9.2,14.9-18.2,30.4-28.1,45.3c-7.3,11.1-14.8,22.3-23.7,32.1
		c-17.4,19.2-39.3,26.6-65,21.4c-3.8-0.8-7.4-2.8-11.7-4.5c-0.9,1.3-2,2.7-3,4.1c-7.5,11.1-15.7,21.6-26.2,30
		c-8,6.3-16.8,10.6-27,12c-15.1,2.2-25.4-5.7-25.9-20.9c-0.3-8.7,0.7-17.5,0.1-27.6c-1.1,1.8-2,3.9-3.5,5.2
		c-7.7,6.8-15.1,14.2-23.6,19.9c-15.1,10-25.5,9.8-41.3,1c-0.1,1.3-0.3,2.4-0.2,3.4c5.3,51.9-7.3,100.4-27.8,147.5
		c-11,25.3-24.4,49.3-43.2,69.8c-6.2,6.7-12.9,13-20.2,18.5c-5.1,3.8-11.1,6.8-17.2,8.7c-14.9,4.7-26.4-0.2-34.3-13.8
		c-6.5-11.2-9.4-23.5-10.8-36.1c-3.7-32.2,2.6-63.4,10.5-94.2c10.7-41.5,25.7-81.6,42-121.1c0.8-2,1.6-3.9,1.6-6.6
		c-1.4,1.2-2.8,2.3-4.1,3.6c-15.2,14.6-31.7,27.5-50.4,37.5c-10.3,5.5-21.2,9.5-32.9,11.1c-18.9,2.5-34.8-5.4-43.6-22.3
		c-7.2-13.9-8.9-29.2-10.1-44.5c-0.1-1.3-0.1-2.7-0.2-4c0-0.3-0.3-0.5-0.9-1.4c-1.4,1.5-2.7,2.9-3.9,4.2
		c-21.3,23.2-45.9,41.5-76.5,50.8c-10.8,3.3-21.8,4.6-33.1,2.5c-15.6-3-25.9-15.4-28.5-33.8c-2.7-18.7-0.2-36.5,7.5-53.7
		c10.2-22.8,23.9-43.1,42.7-59.7c9.6-8.5,20.8-13.7,33.5-16.8c13.5-3.3,26.3,9.8,21.5,24.7c-2.1,6.4-5,12.8-9,18.2
		c-17.3,23.2-38.9,41.5-65.1,54.1c-1.7,0.8-3.9,2-4.3,3.5c-3.6,11.5-5.8,23.3-3.1,35.4c2.3,10.4,9.6,16.1,20.3,16.6
		c12.7,0.6,24.4-2.9,35.6-8.4c24.4-12.1,45-29,62.2-50.1c1.1-1.3,1.7-3.3,1.8-5c2.7-25.6,11-49.7,21.5-73
		c31.9-70.4,74.6-133.7,126-191.2c9.4-10.6,21-19.4,32.5-27.9c5.4-4,12.6-5.7,19.2-7.8c6.9-2.1,12.7,0.7,17.5,5.8
		c8.8,9.3,9.8,20.2,7,32.1c-4.8,20.2-14.3,38.3-24.9,55.9c-23.9,39.7-52.8,75.7-82.3,111.2c-28.9,34.8-59.5,68-92.2,99.1
		c-1.4,1.4-2.9,3.5-3,5.3c-0.2,15.5,1.1,31,6.7,45.7c4.1,10.8,10.7,19.4,22.7,21.8c8.1,1.6,15.9-0.1,23.4-3.1
		c13.6-5.4,25.8-13.5,36.4-23.3c14.6-13.4,28.5-27.5,42.6-41.5c2.1-2.1,3.6-4.8,4.9-7.4c34.6-65.9,69-131.9,103.7-197.7
		c9.6-18.1,19.9-35.8,33.4-51.4c5.2-6,11.1-11.3,19.3-12.3c3.9-0.5,8-0.2,11.8,0.7c6.4,1.7,9.5,8.6,7.1,15.4
		c-1.2,3.4-3.1,6.7-5.1,9.7c-22.9,33.8-46.3,67.2-68.6,101.4c-21,32-40.9,64.8-61.2,97.2c-1,1.6-1.9,3.4-2.3,4.2
		c4.9,0.4,10.5-0.7,14.4,1.4c4.2,2.2,7.5,7,10,11.4c8.2,14.9,12.2,31.3,15.3,47.8c1.1,6,4.1,9.1,9.2,11.7c16.4,8.3,32,7.3,46.1-4.5
		c9.3-7.8,17.9-16.5,26.7-24.9c1.4-1.3,2.1-3.4,3-5.1c5.3-9.8,10.4-19.7,16.1-29.3c2.1-3.5,2.9-6.8,2.5-10.8
		c-2.8-23.1,5.5-42.5,20-59.8c7.4-8.8,17-13.7,28.4-15.1c17.2-2.1,30.8,8,34.2,26.2c3.7,19.8,1,39.3-5.6,58
		c-6.1,17.2-13.4,34-20.4,51.8c5.1,3.9,12,5.3,19.1,5.6c9.9,0.5,19.3-1.8,27.8-6.8c12.2-7.1,23.5-15.8,30.6-28.1
		c13.3-22.9,25.7-46.3,38.3-69.5c0.9-1.6,0.9-3.8,0.8-5.7c-2-20.1,1.9-39.1,9.8-57.4c2.3-5.3,5.1-11.2,12-11.2c7,0,9.4,6.1,12,11.3
		c5.6,11,6.2,22.2-0.5,32.8c-5.9,9.3-12.2,18.3-18.6,27.1c-2.1,2.8-2.5,5-1.2,8.1c6.6,16.2,23.3,20.8,37.1,9.7
		c5.4-4.3,9.8-10,14.9-14.8c6.7-6.2,14.9-4.8,19.4,3.3c2.2,3.9,2.1,7.6,0,11.8c-10.1,19.5-20.3,39-29.8,58.8
		c-6.8,14.3-12.3,29.2-12.8,45.4c-0.1,3-0.1,6,0.5,9c2.4,12.1,13.1,17.9,27.2,14.8c14.1-3.1,25.6-11.3,35.7-21
		c8.5-8.2,16.2-17.2,24.1-26c1.8-2,3-4.7,4.2-7.3c15.6-35.1,37.6-65.6,67.1-90.2c12.6-10.6,27.1-17.6,44.3-16.9
		c3.7,0.1,3.8-2.5,4.5-4.8c9-26.8,17.4-53.8,27.2-80.4c11-29.7,24.4-58.5,42.1-84.8c7.2-10.7,15.4-21,24.6-30
		C2878.3,12.6,2886.7,7.1,2895.3,3.8z M2910.6,35c0.5-15-8.5-20.8-21.9-13.9c-4.1,2.1-8,4.9-11.2,8.2c-4.8,5-9.6,10.3-13.2,16.3
		c-7.1,11.8-14.1,23.8-19.9,36.3c-21.1,46.3-37,94.5-50.2,143.5c-2.9,10.7-5.4,21.5-8.1,32.2c0.4,0.2,0.8,0.4,1.1,0.6
		c1-1.2,2.1-2.3,3-3.6c20.4-29.4,41.2-58.6,61-88.4c19-28.6,36.2-58.3,49-90.3C2905.7,62.8,2910.2,49.4,2910.6,35z M2768.8,251.2
		c1.1-4-0.8-6.1-4.6-6.6c-1.8-0.3-3.6-0.3-5.5-0.2c-12.7,0.7-22.8,7.1-31.8,15.2c-19.9,18.2-35.6,39.7-46.2,64.5
		c-3.5,8.1-5,17.1-6.3,21.6c-0.1,18.5,7.6,23.2,19.9,16.5c2.8-1.5,5.5-3.3,7.8-5.4c4.8-4.6,9.8-9.1,13.9-14.3
		c20.8-26.1,36.2-55.3,50.7-85.2C2767.7,255.4,2768.2,253.3,2768.8,251.2z M2406.2,320.8c8-21.6,15.1-43.5,13.5-67
		c-0.8-11.4-3.2-22.5-10.1-31.9c-5.5-7.6-12.7-9.6-21.1-5.4c-3.9,2-7.5,5.1-10.1,8.5c-5.6,7.2-8.6,15.8-9.9,24.8
		c-0.6,4.1-0.4,8.3-0.7,13.2c4.9-3.7,8.4-7.1,12.6-9.4c7.6-4.3,17.6-2.6,21.7,3.5c1.1,1.7,2.3,4.4,1.7,5.9c-0.5,1.4-3.5,1.8-5.4,2.6
		c-3.8,1.5-8.6,1.9-11.1,4.6c-5.2,5.5-9.3,12-13.7,18.3c-0.6,0.9-0.6,2.6-0.2,3.7c5.7,15.4,15,28,29.1,38.2
		C2403.8,326.6,2405.1,323.7,2406.2,320.8z M2395.4,343.5c2-3,1.4-4.8-1.5-6.9c-10.6-7.4-19.8-16.3-26.8-27.2
		c-0.5-0.8-1.3-1.4-2.3-2.6c-7.3,15.1-14,29.9-17.5,45.9c-1.2,5.6-1.6,11.5-1,17.2c0.7,6.9,6.2,9.7,12.8,7.6c2.2-0.7,4.4-1.7,6.3-3
		C2377.4,366.1,2387.3,355.6,2395.4,343.5z M2229,489.6c14.1-42.3,20.1-85.4,11.8-129.8c-0.8-4.3-2.4-7.4-5.9-10.3
		c-14.1-11.5-25.2-25.2-29.5-43.4c-0.9-3.8-1.1-7.8-1.8-12.7c-1,1.7-1.6,2.5-2,3.3c-23.9,54.6-46,109.9-61,167.8
		c-7.9,30.5-14.1,61.4-13,93.1c0.3,9.3,2.2,18.9,5.3,27.7c3.6,10.3,13.3,13.5,23.4,9.1c3.3-1.4,6.6-3.3,9.4-5.6
		c5.5-4.6,10.9-9.3,15.9-14.5C2204.5,550.1,2218.6,520.9,2229,489.6z M2213.4,34.5c0.3-9.1-5.2-13.1-13.7-10.1
		c-5.8,2.1-12,4.9-16.4,9.1c-8.9,8.4-17.5,17.5-24.8,27.2c-23.6,31.3-42.5,65.7-60.8,100.3c-19.9,37.5-39.2,75.3-52.7,115.7
		c-2.5,7.5-4.5,15.1-6.8,22.7c0.4,0.2,0.8,0.5,1.2,0.7c1.2-1,2.5-1.9,3.6-3c5.6-5.5,11.3-10.8,16.6-16.6
		c45.6-50.4,85.3-105.4,121.3-162.9c12.1-19.3,23.4-39.3,29.1-61.6C2211.9,49,2213.2,41.7,2213.4,34.5z M1959,247.5
		c0.7-2.8-0.7-7.2-2.7-9.3c-2.9-3-7.4-2.2-10.6,0.3c-4.3,3.6-8.9,7.2-12,11.8c-8.8,13.3-17.1,27-25.2,40.7
		c-2.4,4.1-3.7,8.8-5.5,13.2c0.4,0.3,0.8,0.7,1.1,1c1.6-0.7,3.3-1.3,4.8-2.2c17.3-9.6,31.7-22.7,43.1-38.8
		C1955.6,259.5,1957.6,253.4,1959,247.5z"/>
	<path d="M1860.6,87.1c1.3,10.5-1.9,19.7-8,28.1c-8,11-18.8,18.8-30.5,25.4c-25.7,14.6-53.1,24.7-82.1,30.2c-1.4,0.3-2.9,0.8-4.5,2
		c1.6,0.5,3.1,1,4.7,1.4c28.6,7.2,56.1,17.2,80.3,34.5c8.8,6.3,17.1,14,23.7,22.6c14.9,19.4,15.5,41.1,6.4,63.3
		c-5.1,12.5-12.7,23.4-21.2,33.7c-1.4,1.6-2.7,3.3-3.9,4.7c4.9,7.3,10,13.9,14,21.2c2.2,4,3,9,3.8,13.7c0.5,3.2-1.3,6.4-4.7,6.4
		c-2.3,0-5.3-1.8-6.7-3.7c-4.2-5.8-7.7-12.1-11.6-18c-1.6-2.5-3.7-4.6-5.8-7.1c-1,0.6-1.8,0.9-2.4,1.4
		c-32,29.2-70.1,46.9-111.2,58.6c-39.7,11.3-80.2,16.5-121.3,16.1c-33-0.4-64.2-8.2-93.3-24c-1-0.6-2-1.2-3-1.8
		c-34.6-20.5-39.2-52.3-22.7-85.2c11.2-22.2,30.9-35.3,52.8-45.4c17.3-7.9,35.6-12,54.4-13.7c3.9-0.4,5.4-2.1,6.8-5.2
		c20.8-48,44-94.9,69.4-140.5c6.2-11,13.2-21.6,19.9-32.3c8.4-13.5,21.6-16.5,36-15.8c6.9,0.3,7.9,4.3,3.2,10.7
		c-24.7,33.6-47.6,68.4-68,104.7c-13.5,23.9-26.1,48.4-39,72.6c-0.8,1.4-1.3,2.9-2.3,5.2c10.6,0.5,20.3,0.9,29.9,1.5
		c40.5,2.6,80.3,9.1,118.4,24c23,9,44.3,20.8,63.2,36.8c0.9,0.8,1.8,1.4,3.3,2.4c8.1-10.4,14.7-21.5,18.2-34.2
		c6.8-24.6-0.4-45-19.8-61.2c-18.3-15.3-40.2-23.2-62.9-29.2c-22.4-5.9-45.2-7.8-68.3-7.2c-2,0.1-4,0.1-6,0
		c-7.1-0.5-10.1-5.8-5.6-11.3c2.6-3.2,6.9-6.1,11-7c10.3-2.4,21-3.3,31.4-5.2c35.9-6.8,70.9-16.2,101.4-37.2
		c9.3-6.4,17.9-14.5,25.2-23.2c10.4-12.3,7.9-23.9-5.6-32.9c-13.7-9.1-29.5-12.8-45.4-16c-39.1-7.9-78.6-9.4-118.3-7.3
		c-62.4,3.3-122.6,16.3-180.4,39.8c-3.4,1.4-8.1,4.4-10.4,0.5c-1.6-2.8-0.8-8.4,1-11.5c5.5-9.6,13.4-17,23.8-21.1
		c28.2-11.1,57.6-17.3,87.6-21c30.5-3.8,61.1-5.4,91.7-4.6c45.2,1.1,90.1,5.7,133.3,19.9c11.6,3.8,22.6,9.8,33.1,16.1
		C1852.8,66.9,1859.2,75.6,1860.6,87.1z M1792.3,334.9c1.6-1.6,3-3.4,4.7-5.3c-13.2-11.2-27.2-20.2-42.1-27.8
		c-36.4-18.6-75.2-29.6-115.8-33.8c-16-1.6-32.2-1.2-48.4-1.7c-3.6-0.1-5.6,1.5-7.1,4.9c-6.2,14.6-12.9,28.9-18.9,43.5
		c-7.4,18-14.6,36.2-17,55.7c-0.7,5.7,0.5,11.6,0.4,17.3c-0.1,5.5-4.1,8.3-9.1,6.5c-4.6-1.6-6.5-5.5-6.5-9.8c0-7.9,0-16.1,1.5-23.8
		c5.8-29.2,16.9-56.7,27.7-84.3c0.8-2,1.5-4,2.5-6.9c-3.2,0.5-5.6,0.7-7.9,1.2c-18.6,3.9-36.4,9.5-51.6,21.5
		c-20.3,15.9-28.1,37.3-25.5,62.2c1.7,15.9,12.7,26,25.8,33.7c20.9,12.3,43.8,18.9,67.9,19.8c34.6,1.4,68.8-1.7,102.6-9.8
		C1720.2,387.4,1759.9,367.7,1792.3,334.9z"/>
	<path d="M1409.3,8.5c10.5,3,15.4,13,14.6,26.1c-1,15-6.5,28.5-13.6,41.4c-15.4,28-36.1,51.9-57.8,75
		c-38.4,40.7-80.9,76.9-125.4,110.7c-4.5,3.4-8,7.3-10.1,12.6c-4.9,12.5-10.2,25-15.2,37.5c-0.7,1.8-1.2,3.7-1.7,5.5
		c0.4,0.2,0.8,0.4,1.2,0.6c5.5-5.5,10.9-11.2,16.5-16.6c22.1-21.5,43.9-43.3,66.7-64.1c9.2-8.4,20.4-14.9,31.3-21.2
		c4.9-2.9,11.2-4.1,17.1-4.7c7-0.8,12.2,3.2,14.3,10c3.4,10.8,2.7,21.4-2.6,31.5c-1.3,2.5-2.6,5.1-4.5,7.2
		c-21.4,24.4-46.8,41.9-80.3,44.6c-0.6,0-1.3,0.2-2.6,0.5c1,4,1.6,7.9,3,11.5c3.5,9,6.4,18.3,11.3,26.5
		c12.9,21.9,33.4,28.4,57.1,19.1c16.2-6.4,29.1-17.4,40.8-29.9c7.4-7.9,14-16.5,21.1-24.7c2.3-2.7,4.7-7.3,8.6-4.5
		c3.9,2.8,0.1,6.4-1.8,9c-18.5,25.6-41.2,47.1-66.7,65.6c-4.6,3.3-9.7,5.9-14.8,8.3c-10.9,5.2-22,4.8-32-1.5
		c-7.4-4.7-14.4-10.3-20.3-16.7c-17.8-19.2-26.4-36.4-34.2-65.1c-1.1,0.9-2.2,1.6-3,2.5c-8.1,9.3-16.1,18.7-24.1,28
		c-11,12.8-17.8,27.6-21.4,44c-0.7,3-1.9,5.1-4.9,5.3c-5.9,0.5-11.8,1.1-17.7,0.9c-4.5-0.1-7-3.1-6-7.8c1.3-6.2,2.6-12.4,4.7-18.3
		c14.3-41.1,32.5-80.6,51.9-119.4c28.1-56.1,59.4-110.3,96.6-160.9c13.2-18,27.7-35.1,44.9-49.5c12-10,24.7-19.1,40.8-20.7
		C1396.8,6.2,1403.3,6.8,1409.3,8.5z M1409.5,40.6c0.9-10.3-5.8-15.3-15.7-12.4c-6.4,1.9-13.2,4.4-18.5,8.4
		c-14.8,11-30.1,21.7-43.2,34.6c-46.1,45.5-74.6,101.9-96.5,162.1c-0.5,1.3-0.5,2.8-0.9,5.2c3.2-2,5.7-3.4,7.9-5
		c47.5-33.3,88.4-73.8,126.5-117.2c13.7-15.7,26.6-32.2,34.7-51.6C1407,57.1,1408.9,48.7,1409.5,40.6z M1318.5,259
		c3.6-5.6,4.5-12.1,3.3-18.8c-1.3-7.5-6.2-10.6-12.9-7.1c-5.7,2.9-11.4,6.5-16.1,10.8c-15.2,14-29.9,28.4-44.7,42.8
		c-1.6,1.6-2.5,3.9-3.7,5.9c2.4,1.4,4.7,3,7.2,4.1c1.4,0.6,3.3,0.3,4.9,0.4C1282.4,292.9,1304,281.6,1318.5,259z"/>
	<path d="M1163.7,302.3c0.7,0.3,1.5,0.5,2.2,0.8c-0.8,3.4-0.8,7.2-2.5,10c-14.8,24.5-31.5,47.5-54.6,65.1
		c-11.4,8.7-24,14.8-38.5,16.7c-26.2,3.4-42-9.9-42.7-36.5c-0.7-26.2,6.8-50.2,18.7-73.2c2.4-4.7,5-9.3,7.7-14.2
		c-17.8,1.5-31.6-3.8-40.1-20.4c-1.5,3-2.8,5.9-4.4,8.7c-18,31.4-37.8,61.6-60.1,90.2c-6.7,8.5-15,16.1-23.7,22.8
		c-10.7,8.2-23.3,11.8-37.2,9.6c-11.7-1.8-19.9-8-25-18.5c-6.1-12.7-6.6-26.3-6.3-40.1c0.1-4.3,0.4-8.6-0.4-13.3
		c-0.9,1.5-1.7,3-2.7,4.3c-10.3,14.8-19.9,30-31.1,44c-6.3,7.9-14.8,14.3-23.1,20.4c-6.5,4.8-14.4,7-22.7,5.4
		c-9.2-1.8-14-7.4-14.7-16.9c-0.9-13.8,2.2-26.9,7.5-39.4c12.8-30.2,30.6-57.2,53.9-80.4c13.5-13.5,29.6-23,48.7-25.6
		c14.7-2,27.8,1.8,36.9,14.7c3,4.2,2.5,4.5-2.3,6.8c-2.9,1.4-5.8,4-7.4,6.8c-7.5,12.7-10.7,26.9-12.4,41.3
		c-2.1,17.6-3,35.2-0.2,52.8c0.8,5.4,2.4,10.8,4.8,15.6c4.4,9.2,12.8,12.1,21.7,7.1c6.6-3.7,12.8-8.5,18.2-13.8
		c19.3-18.4,34.2-40.4,47.5-63.4c9.7-16.7,18.2-34.1,27-51.2c1-2,1.4-4.8,1.2-7.1c-1.8-19.9,2-38.8,9.8-57
		c2.4-5.5,5.2-11.6,12.4-11.3c6.9,0.3,9.3,6.4,11.8,11.6c5.3,10.8,6,21.9-0.6,32.4c-5.8,9.3-12.1,18.3-18.6,27.2
		c-2.2,3-2.5,5.3-1.1,8.6c6.7,15.9,23.2,20.4,36.9,9.5c5.4-4.3,9.8-10,14.9-14.8c6.8-6.4,15.3-4.8,19.7,3.5c2,3.8,1.9,7.4-0.2,11.4
		c-10.1,19.5-20.3,39-29.7,58.8c-6.9,14.5-12.4,29.5-12.8,45.8c-0.1,2.8-0.1,5.7,0.4,8.5c2.4,12.1,13.1,18.1,27.1,15
		c14.7-3.3,26.8-11.4,36.8-22c15.6-16.6,30.1-34.3,45.1-51.5C1161,305.5,1162.4,303.9,1163.7,302.3z M876.4,256.1
		c1.9-4.4,3.7-8.8,5.9-14.1c-2.9-0.2-4.5-0.4-6.1-0.4c-14.7-0.1-26.7,6.5-37.2,16c-18.5,16.6-33.1,36.4-44.8,58.4
		c-3.4,6.4-6.4,13.3-8.1,20.3c-1.7,7-2.3,14.5-1.8,21.6c0.6,7.4,6.1,10,13.1,7.4c3.7-1.4,7.5-3.3,10.2-6c8-7.9,16.3-15.8,23.2-24.7
		C849.2,310.4,864.1,284,876.4,256.1z"/>
	<path d="M741.4,142.8c1.3,17.8-3.3,34.4-9.8,50.6c-14,34.6-28.5,68.9-42.6,103.4c-10.5,25.8-19.9,52-24.1,79.6
		c-1.4,9.2-1.7,19-0.5,28.2c1.4,10.9,10.7,16.1,21.2,12.8c6.1-1.9,11.8-5.4,17.3-8.6c5.8-3.3,11.2-7.3,16.8-10.8
		c1.1-0.7,3.5-1.2,4-0.6c0.9,1,1.5,3.2,1,4.4c-1.5,3.8-2.8,8.3-5.6,10.8c-13.8,12.4-30,19.3-48.8,17.2c-17.1-2-26.3-12.3-28.7-29.5
		c-2.7-19.2,1.1-37.8,5.7-56.3c9.5-38.5,24.7-74.8,40.9-110.8c8.4-18.7,17.1-37.2,24.7-56.2c3.5-8.7,5.4-18.1,6.8-27.4
		c1.2-7.5-1.8-10-8.9-7.9c-7.7,2.3-15.8,4.8-22.3,9.4c-13.8,9.6-27.6,19.5-39.7,31c-64.2,61.1-121.4,128.1-169.8,202.6
		c-2.8,4.3-5.3,8.9-8.3,13.1c-5.5,7.9-7.6,8.5-17.2,6.1c-7.6-1.9-11.3-6.6-10.8-14.5c0.1-2.1,0.9-4.2,1.9-6.1
		c29.6-58.4,58.1-117.2,77.5-180c5.8-18.8,10.5-37.9,11-57.7c0.2-5.8-0.2-11.7-1.4-17.3c-2.5-11.2-10.3-16.2-21.2-12.8
		c-7.8,2.5-15.8,5.9-22.3,10.8c-13.1,9.9-26,20.4-37.7,32c-45,44.4-84,93.9-119,146.4c-18,26.8-34.4,54.7-51.6,82
		c-4,6.3-8.4,12.5-13,18.3c-4.2,5.3-11.5,4.8-15.7-0.7c-3.1-4.1-3.6-11.9-0.4-16c35.1-44.9,58.8-96.2,81.5-147.9
		c14.2-32.3,27-65.2,35-99.7c3.8-16.4,6.3-33.1,3.8-50c-4.5-29.6-22.7-46.6-52.5-50c-30.1-3.4-59.1,2-87.5,11.1
		c-67,21.3-127.4,54.7-180.8,100.6c-8.1,7-15.1,15.6-21.3,24.3c-3.7,5.2-6.3,11.9-7.3,18.3c-2,12.8,3.8,22.6,15,29.1
		c9.9,5.7,20.8,7.8,31.9,9.1c25.3,3,50.1-0.8,75-4.4c9.9-1.4,19.9-1.9,29.8-2.6c1.5-0.1,3.1,1.1,4.7,1.7c-0.9,1.6-1.5,4.1-2.9,4.7
		c-8.5,3.7-16.9,8.4-25.8,10.3c-35.4,7.4-70.8,7.2-105.5-4.2c-4.5-1.5-9-3.6-13.1-6C6.6,219-1,195.6,10.3,170.3
		c6.4-14.2,16.4-25.9,27.8-36.3c27.5-25.2,58.9-44.7,92.2-61c39.1-19.1,79.9-33.4,122.6-41.5c30.9-5.8,62.1-8.3,93.3-1.5
		c4.9,1.1,9.7,2.5,14.3,4.3c26,10,40.3,30.7,40.7,58.8c0.5,27.9-5.7,54.7-15.5,80.4c-8,21.1-17.8,41.6-26.8,62.4
		c-0.7,1.6-1.4,3.2-2.1,4.7c0.3,0.2,0.6,0.4,0.9,0.6c1.2-1.3,2.4-2.6,3.5-4c24.1-28.7,48-57.6,72.5-86c13.8-16.1,29.4-30.5,47.4-42
		c8.7-5.6,18-10,28.4-11.6c17.1-2.6,31.2,5,37.7,21c5.4,13.2,6.2,27.2,5.5,41.3c-1.7,34-11.7,66.1-23,97.8
		c-4.1,11.6-8.8,23-13.2,34.5c-0.6,1.6-1.1,3.3-0.8,5.5c2.4-2.7,4.9-5.3,7.3-8c39.3-43.2,80-84.9,124.4-122.9
		c14.6-12.5,30.5-23.7,46.7-34.1c7.3-4.7,16.5-7.3,25.1-8.8C732.5,121.8,740.3,129.2,741.4,142.8z"/>
</g>
</svg>
