<?xml version="1.0" encoding="UTF-8"?>
<svg id="Layer_1" xmlns="http://www.w3.org/2000/svg" version="1.1" viewBox="0 0 405.170105 245.8622437">
  <!-- Generator: Adobe Illustrator 29.3.1, SVG Export Plug-In . SVG Version: 2.1.0 Build 151)  -->
  <defs>
    <style>
      .st0 {
        fill: red;
      }

      .st1 {
        fill: #8e3265;
      }
    </style>
  </defs>
  <path class="st1" d="M5.3412476,169.1644897l-1.7850342,3.2401123,7.4418335,2.1082153,8.9636841,10.2286987,7.4702759,3.0101929-5.3389282,7.0259399-8.6212158,18.3764648-7.6291504,11.6913452,15.4598389-3.9655151-9.1286621,9.406311,9.1680908,2.4291992c.0420532.0457153.0774536.0876465.1318359.1403809,1.7288208,1.6778564,9.5588989,6.8137207,14.3862305,9.9241333l.1311646.085022,17.7811279-.5760498,3.050293-3.1430664,1.8029175.2697754-1.6203003,1.6629028-2.2950439,4.7836914h1.0874634l1.9823608-4.1461182,15.508667-15.9802856,14.3132324-5.6276855,17.4981079.7428589,4.3161621,20.7651367-.1679688,4.2460938h.9963989l.1733398-4.2687378-4.897522-23.6332397,4.8577271.7352295,27.8292847,10.2095947,5.0054932,10.3014526-31.0892334,2.2896118,4.4988403,4.3660889h1.4358521l-3.6397705-3.5323486,35.078186-2.5841064,3.9662476,2.4243774.5210571-.852417-4.2401123-2.5922241-1.8283081.1346436,1.9020996-1.960022,13.675293-4.3702393,23.4643555-14.746521-.5327148-.8463135-23.2967529,14.6600952-13.8536377,4.427124-2.6939697,2.7758789.1516724.1471558-2.4466553.1801758-9.5807495-19.690979-6.5797729-27.9209595,1.2283936-20.3934937,13.940979,17.0105591.0900269.1091309,28.0721436,9.6711426.3248291.111145,19.0238647-22.5778809c1.3778076,2.0080566,5.8892822,9.9191284,8.9226685,15.3547363l-2.1121826,14.5249634-16.7886963,10.4257202,12.0281982,2.3419189,31.6697998.2924194c-1.565918,5.2216187-4.7574463,15.3544922-5.8028564,16.9141846-.3005981.4486084-.0718384.7331543.012207.8147583l.00354.003418c.3870239.3674927.8262939.7842407,19.4997559-13.1889038l.0846558-.0634155,3.8436279-6.8449097-.8296509-.4658813,2.78479-.831665,4.5913086,23.6243896c-.9475708,2.3478394-1.9793701,4.8969727-3.0421143,7.5143433h1.0817871c.913147-2.2529297,1.8868408-4.6599731,2.9431763-7.27771l.0559082-.1375732-4.6674805-24.0108032,13.5188599-4.0369873,3.9257202-3.2854004c-.0662842,1.6755371-.0001221,3.4391479.5073853,4.0726318-.036438,1.2111816-3.2451172,8.7865601-6.4087524,15.5932617l-.1502075.3223877,9.1825562,8.9115601,13.4651489,7.5808105,1.0308838,2.2678223h1.0988159l-1.3544922-2.9797363-13.5905151-7.6317749-8.6261597-8.371521c7.2022705-15.5240479,6.4497681-16.0835571,6.1033325-16.3456421-.2636108-.3092041-.3412476-2.1635132-.2076416-4.2988281l10.1793823-8.519104-.6433716-.7659302-9.6899414,8.144104-.7558594-.0715332c-.0222778.2359619-.0444336.492981-.0650635.7615356l-4.3869629,3.6870728-26.6465454,7.9799805-38.6141968-.3481445-9.4399414-1.8441162,17.4970703-10.8743286,14.0594482-12.5897827-.6665039-.744873-13.9901733,12.5372925-1.689209,1.0490723,2.0404663-14.0267944-.083374-.147583c-.3175049-.569458-1.5483398-2.7722778-3.0285645-5.3781738l2.1231079-2.1876831-3.2728882-8.2854004,3.9338989,1.6069336,8.5641479-5.3457031,10.1174316,9.8525391,5.2408447,2.1312256-13.1604004,1.6520996,1.7311401,6.0048828,48.6633911,3.9748535,24.015686,2.4431763,5.4752808-1.8759155.3601074.545105,3.451355-2.2824097,6.8280029,9.6094971.4188843,25.4309692-4.0474243,17.5046387h1.0267944l4.0089722-17.3388062-.4127808-25.9231567-7.5673828-10.6508789-3.0510864,2.0178833-.0994263-.2838745-6.4008789,2.2409058-23.914978-2.4326172-47.9847412-3.9197998-1.2161255-4.2176514,21.6372681-2.7166748,7.9995117-11.1026001,38.9255981-7.284729c1.5753174,1.550293,11.8502197,11.6578369,13.9525757,13.5449219l3.5626221,18.8417969.9827271-.1867065-3.6071777-18.9578247,3.1958008-28.4047241,17.3024902-24.100769,23.3875122-13.0737305c.3301392,3.1134644,1.5509644,14.9284668,1.3233643,17.3007202-.276001,2.875,9.8985596,10.4937134,12.3665161,12.2947998l5.3544922,29.4078979c-3.7512207,5.1600342-10.335144,14.1558228-12.8949585,17.4642944l-22.925354-6.4440308-.1914673.1278687c-.644104.4302368-15.7873535,10.5604248-17.3397217,12.1599731l.7176514.6964722c1.1697998-1.2053833,11.5089722-8.2328491,16.9862671-11.8967285l22.0819702,6.2055664c-.1342163.1643066-.2393188.2875977-.3047485.3550415l.7176514.6964111c.1157837-.1193237.3287964-.3760986.6201172-.7439575l34.5999756,12.336731-4.6390991,4.7800903-28.3184814,2.0557251-12.2332153,7.5551758-15.9984741-.2842407-13.0878906-8.4448853-.5419922.840271,13.3270874,8.5994873,16.5766602.2941895,12.274292-7.5806274,28.4544067-2.0653076,5.9877319-6.1698608-35.7550049-12.7468872c3.4677124-4.5101318,12.3774414-16.7650146,12.8216553-17.3759155l.1258545-.1731567-5.503418-30.2226562-.1619873-.1177368c-5.1328735-3.730835-12.2886353-9.7676392-12.1206055-11.5084229.1983643-2.0697021-.6108398-10.5598755-1.085144-15.2042236l32.1177368-8.498291.0990601-.0263062,22.8602905-17.8442383.06073-.0471802,8.9731445-13.0453491-12.3466797,8.1873779-17.3377686-.6661377-13.6662598.8295288,5.6265259-4.2398682,9.9439087-21.6182861,15.2545166-9.730957-33.2000122-11.2017212,1.3581543-12.7676392,1.1456299-22.8308105-19.9246826,20.5305786-14.7568359,4.3902588-7.0408936,4.7819214-2.2404785-10.123291-7.8161011-18.2462769-10.2283325,10.5393677-2.8145752-8.7628784-5.3508911-3.7150879-.1005249,7.097168-6.8208618,7.0296631-10.1421509,11.8063354c-3.8311768-2.7841187-7.2010498-5.2033081-7.5259399-5.4328613l-11.0577393-5.4853516-8.0404663-12.7994995-12.2893677,12.6630249-5.3007812,11.7249146-1.5411987-4.4020996-6.4735107-2.585022-1.7531128,19.4484253c-3.0488892-2.7084351-8.2374878-6.7770996-8.2940063-6.8213501l-.9136963-.7159424,2.8625488,30.706604,4.1471558,3.5681152-5.0380249,1.8601685-8.1708984-4.4973145-8.9387207,1.5340576-11.1342163-1.185791,3.6721802,10.9411621-14.1792603,5.3485718-8.5910645.4943237,1.7767334,1.3457031-14.9032593,5.8671875-8.2710571-1.3729248,5.2023315-5.3605347-26.8644409.1837769-17.8776245,12.1280518,11.1279297-13.4406128,20.234436-3.0765991,3.3884277-2.6087646-2.815918,6.3664551.9145508.40448,4.4053955-9.9610596-5.9505005,4.5819092-3.836853-6.543396-1.3392944-9.9261475-2.0615845-3.4867554.3400269-9.0455322-5.1382446,5.2948608-3.1937866-9.1345215-11.1658325-8.8549194-8.0223389-10.0187378,1.2441406,20.7750244-6.2716675,10.7524414,2.6960449,9.1137695c-3.0987549-.4042969-6.3502197-.8421021-9.0906372-1.2199097l-.2511597-.0342407-3.6692505,3.7808228-8.8607178-2.4101562-9.1439819-6.1292725,4.6954956,21.4680786,6.0465088,7.8729858-13.9927979-3.156189-17.7026367,6.0751953,2.5195923.1522217c5.3276978.3231812,11.3286743.8234253,11.9071045,1.0799561.6110229.4949951,14.1763916,7.4396362,16.8093262,8.7755737l8.4991455,6.6298828-.9190063,4.1571655-.0388794.1732788,7.5123901,14.9887085-4.3135376,2.7120972-25.305542-7.7346802-.0341187.1113281-3.4105225-3.3087158-15.9237061-10.9683838,8.8324585,15.8318481.5792236,5.7768555-5.7089844-5.5404663-.5500488,13.4202881,1.0888062,5.5800171-3.5349731,12.3551636,3.6598511,10.6009521.9453735-.3262939-3.557312-10.3027954,2.9089966-10.164917,1.5943604,8.1706543,4.2797241,11.4031372-8.2562866,1.7373047-8.0970459-5.1853638-32.1742554,1.3810425-.1259766.0056763-6.9862671,4.1461182,4.2526245.9291382,1.088623,2.0499268ZM231.6365967,218.4515991l9.6326904-2.8765259-3.7147827,6.6166382c-5.6326904,4.2131958-14.3074341,10.555481-17.4174805,12.5015869,1.7571411-4.0674438,5.2086182-15.5618286,5.3730469-16.1099243l-.6477661-.1943359,6.774292.062561ZM59.4849243,238.5335083l-3.0221558-.4526978-3.1264648,3.2215576-17.0653687.5522461c-4.7391357-3.0552368-11.9970703-7.8723145-13.8076172-9.4118652l4.7767944-2.0741577,31.3474731,5.2984619,5.8292236-6.0065308,2.5842285,1.1586304-7.5161133,7.7143555ZM95.4857178,219.4423828l-7.9471436-.3374634-13.2183838,5.1554565-2.3126221-4.6600342,3.7214355-.019165,7.7203979-4.307312.0583496-.0698853c2.4749146-2.9435425,8.3829346-9.9636841,10.2194214-12.1182861l2.7401123,7.7774048-.9815674,8.5792847ZM198.6104126,182.663208l-1.4702759,1.5150146c-2.4517822-4.3018188-5.3525391-9.2836304-5.9717407-9.8845825l-.3851318-.3737183-19.3254395,22.9356079-11.7425537-4.045166,1.2994385-5.2718506-5.4165039-15.4752808-7.9035645-10.3001099,3.9976807-1.1495361.3153076.3783569.8607178-.7165527,15.6878052-4.5109253,28.800293-1.2846069-2.8035889,17.9080811,4.0575562,10.2752686ZM147.1741943,161.0848999l-1.9921875-2.5963135-4.1030884-9.6541748,3.0321045-14.0946655.7111206-.3078003-.4308472-.9950562.9680176-4.4998779,12.8492432-14.6611328,6.0570068-21.4616699,2.8970337,6.9559937,4.1668091,10.882019.9338379-.3579102-4.1721802-10.8954468-1.7527466-4.2080688,2.9312134-7.0026245c3.9345093.6986694,8.1445312,1.5769043,8.62677,1.8918457l.2839355-.4117432.1182861-.1708374,4.1705933,3.1588135,5.2138672.4432373-.5736084.7116699,15.0579224-.7637329-8.4989624,8.7573853-26.0717163,11.7276001,19.2085571,8.2903442-7.9900513,6.2958374-4.5180054,8.4609985-6.6321411,5.262146,2.8568726-5.9797363,1.9216919-19.2723389-.9952393-.0976562-1.8664551,19.0183716-7.576416,15.857666-9.6213989,8.0097046-5.2661133,1.5106201.0562744.1965332ZM142.7462769,155.31427l-5.2290039-6.8146362-.505188-17.1292114-12.1744995,12.5447388-.2030029-13.192627,3.0283813-20.7926636,9.418335,9.1403809,6.2650146,14.4689941-3.3114624,15.3950806,2.7114258,6.3799438ZM282.1444092,136.2354126l-1.8283081-16.8259277,7.5397339-8.8535156,4.4556274,12.229126-7.9202881,19.4827881-3.9627686,3.7345581c-.7914429-.8279419-2.1688232-2.2684326-3.8528442-4.0288086l5.5688477-5.7382202ZM275.8837891,141.2505493c-3.494751-3.6525879-8.0587769-8.4193115-11.5732422-12.0775146l2.418457-4.62323,2.5747681-10.4346924,10.3886719,8.8120728,1.4072266,12.9489136-5.2158813,5.3744507ZM279.2753906,119.0894165l.2600098,2.3928833-10.8174438-9.175415-2.9028931,11.8329468-2.2353516,4.272644c-2.4172974-2.5144653-4.2121582-4.3721313-4.581665-4.7306519-.390686-.3792114-1.5922241-.8485107-3.145813-1.3363037.8515015-2.9532471,4.1409302-16.6337891,4.6615601-18.8021851l8.2227173-9.8027954.1846924-2.8876343c1.1012573.6217041,1.8231201,1.0282593,2.0009766,1.128418l.1925659.1086426,18.2993164-6.0540771,3.2612305,6.3989868,13.0774536,7.4226685-8.2732544,2.6273193-4.0030518,4.1248169-7.9793091-2.5275269,1.9650879,5.3934326-8.1868286,9.6138306ZM267.9394531,90.5311279l-.1798096,2.8179932-8.1636963,9.7321167-.0272827.1143799c-1.6207275,6.7559814-4.0477905,16.7079468-4.6695557,18.8606567-3.9191895-1.1486816-9.3528442-2.3261719-10.8417358-2.6420898l-.5761108-.1222534-.0274048.588501c-.2963867,6.4730225-1.019165,13.5719604-1.7161865,14.2474365.0003052-.0003052.0170288-.0161133.052002-.0304565l.385376.9224243c1.2974854-.5418701,1.9381104-8.0504761,2.2503052-14.5040894,5.1416626,1.1087646,13.0048218,3.0379639,13.8762817,3.883667,1.1835327,1.1486206,17.7571411,18.4793091,21.3990479,22.2888184l-4.7276611,4.4554443,4.0535278,9.9348755c-2.6205444-2.3205566-10.6902466-10.3461914-16.1818237-15.8910522l-.0925903-.0932007-17.6871338-5.0189819-14.4539185-14.0274048-6.2023926,17.6448975-6.4371338-9.5238647-1.6479492,8.0115967-2.1364746,5.5983276.15448.9178467-13.7568359-4.8419189,8.6303711-4.461792,9.9125366-26.0619507,19.1853027-17.2615356,26.0915527-7.7718506c1.5567017.8824463,2.9243774,1.6559448,3.9993286,2.2631836l-.4644165-.0297241ZM224.5001831,150.0527344l-7.9265137,5.8806763-1.3552856-8.0526123,2.0620728-5.4207764,1.190918-5.7661133,5.6394653,8.3432617.3893433,5.015564ZM208.4165039,138.680481l-10.3471069,5.3486938,11.5405884,4.0623169-3.7998657,3.9154053-17.9933472-3.3776245,1.5751343-4.8509521-2.241394-6.1353149-20.9260254,7.2137451.6357422-1.3306885.1121216.1411743,8.1087646-6.4329224,4.517334-8.4603271,8.2507324-6.5006714,4.4685059,1.9285889,20.7303467,2.3015747-4.6315308,12.177002ZM200.343811,175.0985718l-4.347229-1.7761841-.4140015-1.0482788,2.9514771-18.8478394-30.081604,1.3421631-13.6841431,3.925415,8.0449219-6.6970215,2.8061523-5.8735962,20.9285278-7.2142944,1.7866211,4.8883057-1.8197021,5.6043091,19.638855,3.6871948,4.4949951-4.6316528,3.8826904,1.3666992,1.1411133,6.7781982-1.6488037,1.2232056-13.2614746-1.3641968,6.0817871,12.3078003,1.4217529,1.3845215-7.921936,4.9452515ZM233.5664673,181.6997681l-7.1750488.9007568-6.713623-2.7293701-11.9755859-11.6221313-5.241394-10.607666,11.8463135,1.2182617,10.2844238-7.6291504,1.6851807,21.7099609,8.0040894,7.7678833-.7143555.9914551ZM315.7554321,124.2229614l-17.5087891,24.3877563-.0757446.1060791-3.1239014,27.7606812c-3.2307739-3.0272217-13.3713989-13.0129395-13.482605-13.1227417l-.1860962-.1832886-39.833313,7.4543457-6.6733398,9.2623901-7.6279297-7.402832-2.1858521-27.6234741,5.9780273-17.0081177,13.5134888,13.114624,17.6774292,5.0163574c6.1257935,6.1845703,16.4155884,16.4693604,17.2896118,16.6786499l.0680542-.2174683.2177734.5336304.9259644-.3778076-4.5704346-11.2009277,4.2337036-3.9899902c.005127.0053711.0206909.0216064.022522.0235596l.7230835-.6903687c-.00354-.0037231-.0137939-.0144653-.0180054-.0188599l3.6506958-3.4405518.246582.1001587.2191772-.5390015,3.9348145-3.708313,12.8623047,3.9230957.291626-.9567261-13.4173584-4.0915527-2.7662354,2.6069336,7.2421875-17.8149414-6.2503662-17.1554565,24.2644043,7.6863403,8.7114868,8.4544067-4.3529663,2.4334106ZM321.0194702,121.2802734l-9.0957031-8.8273315-17.3814697-5.5056763,3.4793701-3.585144,8.9165649-2.8317261,6.2022095,3.5203247,8.1697388-1.375061,10.4983521,7.9332275,1.7125244,3.6826782-12.5015869,6.9887085ZM375.49646,83.1636353l17.6107788.6792603,8.314209-5.5130005-5.9613647,8.6660156-22.637085,17.6702881-24.6411133,6.4954224-7.2266846,1.9351196c-.1190796-1.1452026-.2022095-1.9111328-.2166138-2.0435791l-.0820312-.7504883-6.260437,3.4996948-1.7858276-3.8415527-9.9437866-7.5134277,17.1740723-2.8905029,20.5335083-15.4730835,15.1223755-.920166ZM390.3460693,47.6858521l-13.7420654,8.765625-9.9613037,21.6558838-27.2085571,20.5039673-26.1090698,4.3937988-19.8953857-11.2915039-3.0552368-5.9954224,5.8092651-1.921936-1.1312256-3.9524536,16.8526611-10.0637817,1.1796265-4.2450562,20.2575684-20.2670898,23.2695312-8.9642334,33.7341919,11.3822021ZM294.7678223,78.8491821l-7.8822021-27.5394897-9.8114624-7.272583c2.7484741-2.6990356,15.864563-16.3481445,18.6902466-19.2904663l2.038208-5.0588379c4.4371338,5.045105,10.6836548,12.2347412,11.039856,12.8920288.3486938.6895142,4.0887451,12.8407593,6.5458984,20.9313965l-4.3396606,15.6158447-16.2808838,9.7221069ZM299.8502197,20.4672241l.7096558-6.0617676-.272583-.8486328,9.5540771-9.8446655,7.1957397,16.7773438,2.2861938,10.3701782.1339111-.029541-7.9356079,5.3894653.5628052.8265381,15.5418701-10.5836792,14.9324951-4.4421997,18.2576904-18.8129272-1.0103149,20.1505737-1.3322144,12.5184937-1.8848877-.6359863-23.8044434,9.1704712-19.1552734,19.1645508,2.800293-10.0770264-.0421143-.138855c-.6298828-2.0748291-6.1694336-20.2993164-6.6575928-21.2398682-.3883667-.7489624-6.6723022-7.9564819-9.9163818-11.6567383l.0366821.0042725ZM285.5919189,14.8009033l7.0772705-7.2924805.0792236-5.6155396,3.5315552,2.4515991,3.2739258,10.0535889-.5960693,5.0897827c-.4518433-.5144043-.7862549-.8943481-.9450073-1.074646l-.539917-.6130981-2.4978027,6.324707c-2.8681641,2.9863892-6.3054199,6.557373-9.4639282,9.8278809-1.8235474-1.453186-6.0489502-4.5626221-9.9880371-7.4295654l10.0687866-11.722229ZM236.5770874,15.5118408l11.3413086-11.6861572,7.5126953,11.9594116,11.2409668,5.5692139c.1482544.1066284,14.2993164,10.274292,18.140686,13.3213501-4.0716553,4.2137451-7.5542603,7.7959595-8.5469971,8.7622681l-13.7202148-10.1698608-30.6918335-2.7910156-.8773193-2.5058594,5.600708-12.4593506ZM223.3584595,21.0430908l4.8046265,1.9180298,2.9594727,8.4529419,31.0528564,2.8243408,23.8421631,17.6726685,8.9402466,31.2371216-23.737793,7.8531494c-9.2305298-5.1967163-32.7915649-18.5787354-34.1048584-19.8532715-1.2712402-1.2337036-11.0220337-16.3353271-16.0847778-24.2806396l2.328064-25.8243408ZM215.3425293,61.7390137l-2.6090698-27.9866333c1.7722778,1.4059448,5.6863403,4.5444946,7.8839722,6.5571899l-.6136475,6.8080444.0915527.1433716c.59729.9375,14.6414795,22.9724731,16.3233643,24.6047363,1.0026855.9730835,12.5441895,7.6376953,22.015564,13.0380859l-3.4129028.5656128-7.9296875-4.6188354-15.2546997-4.9200439-16.4944458-14.1915283ZM219.2940063,66.5869141l-.0699463-.1890259,12.0371704,10.3565674,15.3738403,4.9873047,8.1948242,4.7733765,4.9827271-.8260498c1.1843262.6743774,2.3165283,1.317627,3.3859253,1.9244995l-25.387207,7.5621948-19.4425049,17.4929199-.0895996.0811157-4.8641968,12.7886963-20.7700806-2.2845459-22.5686646-9.7400513,24.0892334-10.8359985,9.4667358-9.704834,1.9086304-.0968018,23.7093506,9.5672607.3742676-.9268799-23.8118896-9.6088867-16.5230713.7913208,17.2513428-21.4035034,12.7531128-4.7086792ZM174.8764038,80.796814l14.5525513-5.4649048,6.9417725,6.7369385.6964111-.7176514-7.0822144-6.8731689-3.2908936-9.805481,9.652832,1.0280762,8.8002319-1.4909058,7.1051025,3.9109497-6.3171387,2.3324585-17.4950562,21.7070312-5.5980225-.475708-13.9221802-10.5446167,5.956604-.3430176ZM123.4025269,81.9586182l24.1740723-.1655884-4.022644,4.1450195-10.1270142-1.6809692-18.8743286,8.050293-6.8250732,12.6716919.9375,15.4954834-3.8552246-.7299805-7.2044067,4.5296631-1.9412231-8.762207,7.3404541-19.7160645,20.3978882-13.8373413ZM98.1553345,55.296936l6.2063599-10.6403198-1.074585-17.9363403,6.1263428,7.6506348,11.0274658,8.7451172,3.2629395,9.3339844-12.7371216,13.1252441c-.8808594.0003662-5.1780396-.515625-10.1133423-1.1539917l-2.6980591-9.1243286ZM74.4020996,79.411438l-4.1402588-18.928772,7.1463623,4.7907715,9.6568604,2.6533813,3.7277222-3.8410645c3.2556152.4482422,15.3214722,2.0930176,19.2644043,2.4268188l-1.0930176,1.1263428-17.0710449,19.8134155-1.6209106,7.3322754-6.369873-6.1818237-2.8818359-.6500854-6.6184082-8.5412598ZM79.571228,99.6967163c-6.4169312-3.2813721-16.1656494-8.3101196-16.71521-8.7141724-.5085449-.4119263-5.2703247-.8267822-9.9749756-1.1413574l12.6786499-4.3508301,17.8480225,4.0258789,6.3772583,6.1890869.3673706-.37854-2.3781128,10.7577515-8.2030029-6.3878174ZM87.6314087,111.3646851l5.1836548-23.4503174,16.8864746-19.600769,18.8225098-19.3948975-.2536621,6.7410278,2.0950317,3.4620972,1.3388672,9.9223633,3.8690796,6.668396-19.7588501,3.0040283-13.5623169,16.3814087-.072876.0493774-7.5548706,20.2918091,2.0814819,9.4005127-1.7662354,1.1105347-7.3082886-14.5855713ZM89.9210205,130.2869873l15.0883179-9.4860229,6.1397095,1.161499,5.0579834,4.9087524,7.1376953,1.2850342.1772461-.9847412-6.8371582-1.2301025-5.0545044-4.9053345-1.9522705-.3696899-.9347534-15.463562,6.5233765-12.1126099,18.2842407-7.7984009,19.5836182,3.2498779,15.7279053-6.1912231,8.6271973,6.5342407c-2.1204224-.6202393-6.8098755-1.4649658-8.4406738-1.7509155l-.3933105-.0687256-2.8579102,6.8278809-1.7143555-4.1160889-6.7764893,24.010498-12.8709106,14.6862793-.7281494,3.3848267-5.7484741-13.2764893-11.0036621-10.7319946-3.3158569,22.8080444.0792236,5.2991333-10.1422119-1.986084-4.0839233-3.9633789-5.632019,5.8032837,6.3533325,16.348999-3.2272339,6.574646-12.0968018-13.1480103-7.3569946-1.6066284-21.7052002-21.0568237,24.0930176,7.3638306ZM123.8532104,144.9294434l-7.0704956,7.2854614-3.9321289,12.8928833-5.137146-5.5836182,3.5919189-7.317688-6.2793579-16.1601562,4.4880981-4.6245728,3.5793457,3.4736938,10.6408691,2.0837402.1188965,7.9502563ZM48.0612793,110.5474854l12.3326416,8.4876099,26.6474609,25.861084,7.3272095,1.5994873,12.145874,13.2016602-.0799561.1629639.4195557.2061157,5.6583252,6.1502075-3.7797852,12.3931885-.0441284.1436157.7977295,2.7045898-.4665527-.2330322-.2894287-.2590942c-.3036499.3380737-4.8773193,4.2957764-7.8781128,6.8731689l-.1455688.1254883-.1849365,1.4602661-9.4278564,9.7089844,9.159668,4.1780396,15.9770508.7342529,5.2875977,16.7225952.9540405-.3015747-6.5064087-20.5759888-6.2329712-21.1326294,7.9362793-26.0209351,18.4134521-18.9733887.4442139,15.0887451,7.7688599,10.1065674.1295166.3048706.0789795-.0335693,10.1765137,13.2388306,5.2921143,15.1190186-1.2062988,4.8948364-14.7885132-5.0944824-15.4696045-18.8751221-1.3859253,23.0153198,6.6218262,28.1903687,3.833252,7.8889771-26.9017334-9.8694458-6.4266968-.9828491.6413574,3.0855713-8.4024658-.3568726.9863281-8.6231079-3.3583984-9.6824951-.5625.5795898c-.3421021.352478-9.4360352,11.1665649-10.751709,12.7311401l-7.3354492,4.0930176-5.0666504.0254517,2.9850464,6.0167847-.562561.2194214-5.0779419,5.211853-3.5564575-1.5956421-5.9517212,6.1326904-31.1210938-5.2611694-5.5464478,2.4094238-7.4879761-1.9841919,8.3762817-8.6310425-.4423218-.4292603,8.3603516-2.1444702,6.6032104-3.9231567,14.6205444-5.4220581,5.4189453-4.262146-13.9475098,14.3716431,5.1144409,9.829895,2.9138794-7.8043823,15.2443237-13.8226929,12.37854-14.6647339,2.8653564-15.6054688-12.4089966,9.1468506-10.2654419,15.7868652-7.7353516,6.1140747-14.6282959,5.4335327-6.4921265,3.8717651-21.9706421,5.6347046,6.2578735-9.5982666,8.5785522-18.2994995,5.4720459-7.2005005,7.6260986,3.072998,17.4017944-.6107788,13.7446899-7.0912476,6.5614624-.532959-.0811768-.9960327-6.661499.5407104-13.7127075,7.0842285-16.9777222.6386108-15.7387085-6.3416748-8.9032593-10.1605835-.0969849-.1118164-6.5172729-1.8450928,1.4394531-2.6119995-.9451294-1.7794189,15.1328125,3.3062134,22.9290161,12.0841675.1399536.0745239,17.9907227-2.3512573,8.4272461-4.1929321,6.5270386-.2710571.192688-.0471191c1.399292-.661499,2.4740601-2.4938965,2.5187988-2.5715942l.1962891-.3375244-4.8008423-4.6591187-.315979-5.0519409-5.0988159-.6224976-4.4442749-11.5429688-8.5546265-13.7863159-1.4536743-14.4993896-6.8580933-12.3779907ZM109.5194702,181.5709839l5.489624,18.6124268.9005737,2.8482056-15.3300171-.670105-7.7807617-3.5488892,8.6729126-8.9310303.1781006-1.40979c6.6569214-5.7196045,7.678833-6.6749268,7.8695679-6.9008179ZM58.093811,205.2589111l11.8226318-18.1640625,10.2299805-7.5410156-2.3609619,12.8589478-12.1605225,14.4135742-15.3793945,13.9393311-2.2113037,5.9250488-3.7442017-7.1949463,13.803772-14.2368774ZM52.3183594,152.4259033l-3.0621948-15.6589355.456604-11.1281128,4.9559937,4.8097534.7209473,7.190918.0111084.1154785,8.6350098,13.8997803,4.2120972,10.9621582-3.5167236-.4293823-8.1016235,1.704834-4.3112183-11.4664917ZM7.2807617,163.0273438l31.7335815-1.3624268,8.1751709,5.2367554,17.50354-3.7114258,3.9609985.4836426.0811768.2113037.3974609-.1528931,4.3921509.5363159.2879639,4.6082764,4.5064697,4.3734741c-.3719482.5494385-1.0613403,1.4154053-1.7879639,1.7988892l-6.5270996.2711182-8.4922485,4.2072754-17.5910034,2.2984009-22.848999-12.0418701-18.3795776-4.0341187,4.5883789-2.7227173Z"/>
  <polygon class="st0" points="131.7536011 245.8622437 157.7958374 245.8622437 158.1011353 244.8151855 131.9061279 245.7050781 131.7536011 245.8622437"/>
  <path class="st1" d="M207.9436646,245.8622437l3.3433838-1.4041138,1.4468384,1.4041138h1.435791l-4.1771851-4.053894c1.8439941-2.7407227,13.2036133-19.7034302,13.9763184-22.7529907l-.9691772-.246521c-.625,2.4661865-9.4768066,15.9838867-14.0700684,22.7871704l-.2340698.3471069,1.8113403,1.7578735-5.1456909,2.1612549h2.5825195Z"/>
</svg>