<?xml version="1.0" encoding="utf-8"?>
<!-- Generator: Adobe Illustrator 27.5.0, SVG Export Plug-In . SVG Version: 6.00 Build 0)  -->
<svg version="1.1" id="palm-tree_xA0_Image_00000029029577507558557800000012243726517653616564_"
	 xmlns="http://www.w3.org/2000/svg" xmlns:xlink="http://www.w3.org/1999/xlink" x="0px" y="0px" viewBox="0 0 1199.2 1684.6"
	 style="enable-background:new 0 0 1199.2 1684.6;" xml:space="preserve">
<style type="text/css">
	.st0{fill:#FD1D86;}
</style>
<g>
	<path class="st0" d="M814,1528.8c-8.6,0-17.2-1.9-26.2-3.9c-1.2-0.3-2.4-0.5-3.7-0.8c-2.8-0.6-3.3-1.1-3.3-1.2
		c-0.5-0.7-0.8-3.9-0.9-5.2c-0.6-5.9,2.2-9.8,6.9-15.7c1-1.2,1.9-2.4,2.9-3.7c6.5-8.8,14.7-17.3,25.9-26.9c10-8.5,19.1-18.2,28-27.5
		l1.2-1.3c3.4-3.6,4.6-8.8,4.9-12.7c0.5-4.7,1.5-5.9,4.6-7.1l1.2-0.5c3.3-1.3,6.8-2.6,9.9-3c12.6-1.7,21.9-8.3,28.3-20.4
		c2.9-5.4,6-10.8,9-16.1c6-10.5,12.3-21.4,17.3-32.8c6.1-13.9,13.1-29.6,9.9-47.7c-0.7-4.3,1.5-8.1,5.4-12.9
		c6.3-7.8,8.8-17,6.9-25.9c-4.1-19-0.3-37.3,4-52.8c4.4-16,9.7-32.1,14.8-47.6l1.4-4.3c5.6-17,7.4-32.6,5.8-47.7
		c-1.1-9.5-5.4-17.3-12.4-22.4c-2.1-1.5-4-3-6.1-4.6c-2.4-1.9-4.9-3.8-7.5-5.6c-9.4-6.4-12.4-15.2-9.9-28.7
		c1.8-9.5,5.3-18.6,10.9-27.9c11.4-19.1,14.5-38.2,9.3-56.8c-3.7-13.3-11.3-24-18.3-32.8c-2.3-2.9-4.7-5.9-7-8.9
		c-6.4-8.2-13-16.7-20.1-24.7c-12.9-14.4-24.7-25.1-37.2-33.7c-5.7-3.9-10.8-8.8-16.2-13.9c-2.3-2.2-4.7-4.4-7.1-6.6
		c-3.1-2.8-6.2-5.6-9.2-8.4c-5.1-4.7-10.3-9.5-15.7-14c-3.8-3.3-8.2-5.7-12.4-8.1l-1.2-0.7c-3.9-2.1-6.3-6-5.6-7.9
		c1.8-4.8,2.6-4.8,4.2-4.8c0.6,0,1.3,0.1,2.2,0.2c12,1.7,21.6,8.5,30.2,15.7c3.5,2.9,7,5.9,10.4,8.8c18.4,15.5,37.3,31.5,55.1,48.2
		c9.7,9.2,18.7,19.9,27.4,30.2c3.6,4.2,7.3,8.6,11,12.8c9.5,10.8,16.7,21.8,22,33.9c0.5,1.1,0.9,2.2,1.4,3.4
		c0.7,1.8,1.5,3.7,2.4,5.5c0.3,0.6,0.7,1.2,1.2,1.7l0,0v4.7c0,0.6,0,1.2-0.1,1.9c-0.1,1.9-0.3,4.3,0.4,6.8c2.9,12.9,1.6,25.9-4,39.8
		c-3.6,8.9-7.3,18-10.3,27.3c-3.2,10.1-4.8,19.1,8.2,27.6c12.6,8.4,17.6,21.3,21.1,38.1c2,9.2,3,16.9,1.7,24.3
		c-1.7,9.6-4.2,18.9-6.9,28.7l-0.2,0.8c-1.5,5.7-3.2,11.5-4.9,17.1c-1.7,5.7-3.4,11.5-5,17.3c-1.4,5-3,11.6-4,18.7
		c-0.2,1.4-0.7,5.6,2,8.8c0,0,0,0,0,0c-5.8,7.2-5.2,15.5-4.8,21.7c0.5,7.7,0,15.4-0.5,23.5c-0.1,2.2-0.2,4.4-0.4,6.6
		c-0.2,5,1,8.9,3.7,11.7c2.5,2.6,6,4,10.4,4c0.7,0,1.4,0,2.1-0.1c2.4-0.2,4.8-0.6,7.1-0.9c4.3-0.6,8.4-1.1,12.4-1.1
		c0.4,0,0.8,0,1.1,0c12.5,0.3,24.9,1.5,35.3,2.7c0.7,0.1,1.3,0.3,1.6,0.8c0.2,0.2,0.3,0.5,0.3,0.8c-0.9,1.2-3.8,3-5,3
		c-2.2,0-4.3-0.1-6.5-0.2c-6.6-0.2-13.3-0.3-20.1-0.3c-3.6,0-7,0.8-9.8,1.5l-0.2,0c-4.1,1.2-8.2,2.5-12.2,3.7
		c-5.8,1.8-11.7,3.7-17.5,5.2c-11.2,2.8-14.4,12.2-15.5,15.2c-0.8,2.6-1.4,5-2,7.4c-0.8,3.2-1.5,6.2-2.6,8.9
		c-5.7,13.2-11.9,26.5-17.9,39.4c-1.4,3.1-2.8,6.1-4.2,9.1c0,0,0,0.1-0.1,0.1c-0.5,0.6-1.2,1.7-1.7,3.1l-0.1,0.3l-0.1,0.3
		c-0.1,0.5-0.3,1.2-0.5,1.9c-0.9,3-2.1,7.5,0.9,10.9c3.1,3.6,8.4,4.4,12.4,4.4l0.1,0c5-0.1,10-0.3,14.8-0.6c5.9-0.3,12-0.6,18-0.6
		c1.8,0,4.3,0.9,7,2.5c0,0,0.1,0.1,0.1,0.1c0,0.2-0.2,0.7-0.7,1.4c-1.5,2-3.4,2.9-5.8,2.9c-0.4,0-0.8,0-1.2-0.1
		c-2.2-0.3-4.4-0.4-6.7-0.4c-11.1,0-20.9,3.6-28.2,6.8c-1.4,0.6-3,1.3-4.3,1.4c-23.9,1.6-42.8,14-58.2,25.8
		c-5.9,4.6-11.2,9.7-16.5,14.6c-2,1.9-4,3.8-6,5.6l-1.9,1.7c-4.8,4.3-9.7,8.8-14.3,13.5c-2.5,2.6-5.9,6.6-8.2,11.6
		c-2.8,6-1.2,10.2,0,12.1c1.9,3,5.4,4.8,9.4,4.8c0.7,0,1.5-0.1,2.3-0.2c6.7-0.8,14-2.5,22.2-5.1c13.5-4.4,27.6-7.4,42.1-9
		c0.8-0.1,1.9-0.2,2.9-0.2c2.7,0,3.2,0.8,3.6,1.4c0.5,0.8,0.1,1.9-0.1,2.3c-0.4,0.9-1.4,2-2.8,2.3c-12.2,2.2-25,5.1-36.8,11.5
		c-2.8,1.6-5.6,3.2-8.2,4.9c-2.2,1.4-4.3,2.7-6.4,3.9c-5.5,3.1-11.9,4-18.7,5c-2.7,0.4-5.5,0.8-8.3,1.3
		C820.1,1528.5,817.2,1528.8,814,1528.8z M1011.5,1232.2c-5.5,0-11.1-0.9-17-1.8c-4-0.6-8.2-1.3-12.5-1.7c-0.4,0-0.6-0.1-0.7-0.1
		c-0.1-0.3-0.3-1.2-0.3-3.3c10.3,0,19.8-2.6,29.1-5.1c2.6-0.7,5.3-1.4,7.9-2.1c11.6-2.9,23.5-5.5,35.1-7.9c8-1.7,16.4-3.5,24.5-5.4
		c0.6-0.1,1.3-0.2,2-0.2c3.4,0,5.6,2,5.8,5.4c-0.6,1.7-3.5,5-4.8,5.5l-5.2,1.7c-9.5,3.2-19.4,6.4-29.1,9.1c-2.4,0.6-5.2,0.9-8.1,1.1
		c-4.3,0.4-8.7,0.7-13.1,2.5C1021,1231.4,1016.5,1232.2,1011.5,1232.2z M1114.5,1193.3c-3.8-6.1-7.1-12.3-7.8-19.4
		c-1.4-14.2-5.5-27.8-12.5-41.4c-3.3-6.5-6.5-13.3-9.5-19.9c-3.5-7.7-7.2-15.7-11.2-23.3c-3.3-6.2-7.1-12-10.8-17.7
		c-3.2-4.9-6.2-9.6-9-14.5c-6.3-11.2-15-20.3-23.3-29l-1.1-1.1c-2.5-2.7-5.1-5.4-7.6-8.1c-5-5.4-10.2-11-15.6-16.3
		c-8.6-8.3-13.6-18.5-19-32.3c-0.8-2.1-1.9-4-2.9-5.7c-0.4-0.8-0.9-1.5-1.3-2.3l-0.5-0.9c1.1-1.5,1.8-3.2,2-4.6l0.7-4.7
		c1.5-9.4,3-19.2,4-28.8c2.3-21.1-5-38.5-21.7-51.8c-13.9-11.1-30.2-19.2-49.8-25c-19-5.5-32-16.4-38.6-32.4
		c-1.5-3.8-2-8.4-2.6-13.2c-0.1-0.9-0.2-1.8-0.3-2.7c-0.7-5.3-0.8-9.4-0.3-12.9c0.3-2.6,1.5-5.8,3.3-8.8l0.1-0.1
		c0.2-0.3,1-1.1,1.5-1.6c2.1-2.1,7.6-7.5,3.2-14.7c-4.5-7.4-11.5-11.6-19.3-11.6c-0.2,0-0.5,0-0.7,0c-2.2,0.1-4.3,0.4-6.3,0.7
		c-1.5,0.2-2.9,0.4-4.3,0.5c-2.2,0.2-4.5,0.2-6.7,0.2c-11.3,0-23.4-1.9-38.1-5.9c-12.7-3.5-22.1-8.4-29.7-15.5c-2.8-2.6-6-4.3-9.1-6
		c-1.6-0.8-3-1.6-4.3-2.5c-2.3-1.5-4.4-3-6.7-4.7c-3.3-2.3-6.7-4.8-10.3-6.9c-5.6-3.2-9.3-4.9-13.1-4.9c-7.8,0-11.2,7.2-14,13
		c-3.4,7.3-6.2,15.2-7.9,22.8c-3.1,13.2,1.7,18.5,11.7,23.7c9.8,5.1,16.2,13.7,19.6,26.4c2.4,9.2-3.5,15.8-7.2,18.9
		c-7,5.8-15.4,10.7-23.6,15.3l-1.4,0.8c-4,2.3-8.4,4.2-13,6.2c-2.2,1-4.5,1.9-6.8,3c-1.9,0.9-3.9,1.8-5.8,2.7
		c-5,2.4-9.8,4.6-14.7,6.4c-9.2,3.4-17,8.7-24.5,13.8c-3.6,2.5-7.1,4.8-10.7,7c-4.4,2.6-9.6,5.4-14.9,7.1
		c-11.1,3.5-19,10.6-26.6,17.5l-1.3,1.1l-0.7,0.6c-1.1,1-3,2.8-4,3.2l-0.1,0c-9.3,0-15.2,4.9-20.4,9.3c-0.6,0.5-1.1,0.9-1.7,1.4
		c-17.7,14.5-33.8,23.8-50.7,29.2c-10.1,3.3-19.9,7.5-29.4,11.6c-3.6,1.5-7.2,3.1-10.8,4.6c-1.7,0.7-3.1,1.8-4.1,2.6
		c-0.5,0.4-1.1,0.9-1.4,1c-2,0.9-3.9,1.9-5.8,2.9c-4.3,2.3-8.4,4.4-12.4,5.2c-12.2,2.3-21.5,8.1-29,13.5
		c-11.4,8.3-23,15.3-34.4,20.9c-16.2,7.9-31.3,18.4-46.2,32.3c-8.8,8.2-15.9,12.3-24,13.8c-0.1,0-0.4,0-0.6,0c-2.2,0-5-1.3-6.7-3
		c-0.8-0.9-1.1-1.6-1.1-2c0.1-4,1.3-8.1,3-10.3c10.7-13.8,24.5-25.3,42.1-35.3c11.4-6.5,23.2-14.1,36-23.3
		c7.5-5.4,14.7-11.3,21.6-17.1c3-2.5,6.2-5.1,9.3-7.6c2.5-2,5.2-4.1,7.7-6.1c5.6-4.3,11.4-8.8,16.8-13.8
		c12.1-11.1,20.9-23,26.8-36.3c4.3-10,12.8-16.9,21.4-22.9c6.5-4.5,11.4-10,16.2-15.3c2.1-2.3,4-4.5,6.1-6.6
		c5.5-5.5,11.2-11,16.9-16.3c8.8-8.2,17.9-16.5,26.7-24.5c3.1-2.8,6.1-5.6,9.2-8.4c1.7-1.6,3.5-3.1,5.4-4.7c3.4-2.9,6.9-5.9,10-9.3
		c4.2-4.4,8.1-9.1,11.9-13.6c2-2.4,4.1-4.9,6.1-7.3c0.8-0.9,1.7-1.8,2.7-2.6l0.1-0.1c1.9-1.6,7-5.7,6.2-11.5
		c-0.8-5.8-6.9-8.3-9.1-9.3c-1.9-0.8-4-1.3-6.2-1.5c-4.3-0.3-8.6-0.6-12.9-0.9c-11.5-0.9-23.4-1.7-35.1-2.2
		c-3.3-0.1-6.9-0.2-10.8-0.2c-5.6,0-11.3,0.1-16.8,0.2c-4.5,0.1-9.1,0.2-13.6,0.2c-3,0-6.1-0.1-9.2-0.2c-3.1-0.1-6.3-0.2-9.5-0.2
		c-1.3,0-2.6,0-3.9,0c-7,0.3-13.9,0.5-20.9,0.8c-22.8,0.9-46.4,1.7-69.6,3.2c-23.5,1.5-48.8,3.8-77.2,7.1
		c-18.6,2.2-33.7,6.1-47.4,12.5c-6,2.8-12.4,4.6-19.2,6.6c-4.5,1.3-9.2,2.7-13.8,4.3c-7.8,2.8-15.5,5.9-23.1,8.8
		c-5.8,2.3-11.8,4.7-17.8,6.9c-3.5,1.3-7.1,2.4-10.9,3.6c-3.4,1-6.9,2.1-10.3,3.3c-3.6,1.3-7,2.8-10.3,4.2c-2.7,1.2-5.5,2.4-8.3,3.4
		c-4.3,1.7-8.8,3.3-13.1,4.9c-4.4,1.6-8.9,3.2-13.4,4.9c-6.1,2.4-12.2,5-18.1,7.5c-4.8,2-9.7,4.1-14.5,6l-4,1.6
		c-14.8,6.1-28.8,11.9-44.3,13.9c-6.5,0.8-12.7,3-18.6,5.2c-4.2,1.5-8.1,2.9-12.1,3.8c-2.3,0.5-5.2,1.1-7.9,1.1
		c-3.9,0-6.7-1.2-9.3-4.1c-2.7-3-2.3-5.8-0.6-12l0.1-0.3c0.4-1.3,1.9-2,4.6-2l0.7,0c14.5,0,26.4-6.1,37.9-12l1.8-0.9
		c8.5-4.5,17.7-7.7,28.8-11.2c10.9-3.4,22.2-6.8,33-10c12.5-3.7,25.4-7.5,38-11.5c7.3-2.4,14.6-5.2,21.5-7.9
		c5.4-2.1,10.9-4.3,16.4-6.2c9.9-3.4,20.1-6.6,30-9.6c4.5-1.4,9-2.8,13.4-4.2c2.9-0.9,5.8-1.9,8.6-2.9c6.4-2.2,12.5-4.3,18.8-5.5
		c14.3-2.7,27.4-8.4,40.1-13.9c6.6-2.8,13.3-5.8,20.1-8.2c7.2-2.6,14.2-5.9,20.9-9.2c4.7-2.3,9.6-4.6,14.4-6.6
		c8.6-3.6,17.4-7.1,25.9-10.5c6.8-2.7,13.9-5.5,20.8-8.3c3.8-1.5,7.6-3.3,11.3-5c5.5-2.6,10.8-5,16.3-6.8
		c24.5-8.1,50.6-16.7,77-24.2c16.9-4.9,34-8.3,50.2-11.5c4-0.8,8.2-0.9,12.6-1.1c4.7-0.2,9.6-0.4,14.4-1.3c20.4-4,41.6-4.7,62.1-5.3
		c4.3-0.1,8.6-0.3,12.9-0.5c4.5-0.2,9-0.5,13.4-0.8c5.5-0.4,11.2-0.8,16.7-0.9c0.5,0,0.9,0,1.4,0c5.3,0,10.6,0.5,15.7,1.4
		c1.6,0.3,3,0.4,4.4,0.4c9.9,0,16.4-6.7,16.5-17c0-2.2,0.6-4.7,1.2-7.3c0.6-2.8,1.2-5.6,1.4-8.7c1.2-18.6-3.3-36-8-50.6
		c-1.1-3.6-2.2-7.2-3.2-10.8c-1.7-5.7-3.4-11.7-5.5-17.5l-1-2.7c-4.1-11-8.3-22.3-14.1-32.8c-5.2-9.3-11.2-18.3-16.9-27
		c-3-4.6-6.2-9.3-9.1-14c-2.5-3.8-4.9-7.8-7.2-11.7c-4.1-6.9-8.4-14-13.3-20.7c-6.4-8.7-13.3-17.1-20.1-25.2
		c-3.9-4.7-8-9.6-11.9-14.5c-3-3.9-6.1-7.9-9-11.9c-3.5-4.7-7.1-9.7-11-14.4c-5.8-7.2-12-14.2-17.9-21c-1.5-1.7-3-3.4-4.5-5.1
		c-5.9-6.8-11.9-13.6-17.7-20.2l-0.9-1c-2.1-2.4-4.3-4.9-6.9-7.2c-8.6-7.4-17.4-14.9-25.8-22.1c-8.5-7.2-17.2-14.6-25.7-22
		c-18.9-16.2-33.9-32.3-45.7-49.2c-5.3-7.6-12.1-13.8-18.8-19.8c-2.2-2-4.5-4.1-6.7-6.1c-4.7-4.4-9.5-8.7-14.2-12.8
		c-6.4-5.7-13.1-11.6-19.2-17.6c-12.4-12.2-24.2-24.8-35.2-37.4c-15-17.2-31.2-36.3-49.3-58.5c-4.1-5-7.8-10.3-11.6-15.9
		c-2.4-3.4-4.8-7-7.4-10.5c-2.9-4-3.7-8.9-2.6-15.5c0.2-1.1,2.5-2.6,5.2-2.6c1,0,1.9,0.2,2.6,0.6l2,1.1c5.9,3.2,11.9,6.4,16.3,10.6
		c16.5,15.7,34.5,30.5,54.9,45c6.1,4.3,12.5,8.3,18.6,12.1c5,3.1,10.1,6.3,15,9.6c17.7,12.2,31.2,27.7,39.9,46.1
		c6,12.6,11.1,25.7,15.1,39c7.4,24.4,18.9,41.8,36.1,54.9c6.1,4.6,11.5,9.9,17.3,15.5c3.9,3.8,8,7.7,12.3,11.4
		c8.6,7.6,18,15.1,28.6,23.2c4.3,3.3,9.8,5.8,15.3,7c6.8,1.6,13.2,4.6,19.9,7.8c2.2,1.1,4.6,2.2,6.9,3.3c13.3,6,27,11.8,40.1,17.3
		c7.5,3.1,15.2,6.4,22.8,9.6c21.2,9.2,42.6,18.7,63.8,28.2l1.6,0.7c9,4,18.3,8.1,27,12.6c15.2,7.8,30.5,16.1,45.4,24.5
		c18.7,10.6,38.3,22.6,54.5,38.8c12,12,22.3,22.8,31.4,33c2,2.2,3.6,5.1,5.4,8.1c1.4,2.4,2.8,4.9,4.6,7.3
		c8.3,11.3,14.4,24.1,18.7,39.2c3,10.3,1.7,19-4.1,27.2c-9.7,13.8-23,24.1-35.9,33.5c-4.5,3.3-8.6,6.9-12.6,10.3
		c-0.9,0.8-1.8,1.5-2.6,2.3c-1.5,1.3-2.2,2.8-2.6,3.8c-0.1,0.2-0.2,0.4-0.3,0.6l-3.1,5.6l5.8,2.7c2.1,1,4.3,1.4,6.5,1.4
		c3.3,0,6.1-1.1,8.4-1.9c0.9-0.3,1.7-0.6,2.4-0.8c2.4-0.7,4.9-1.3,7.3-2c5.4-1.5,11.1-3.1,16.6-4.4c8.4-1.8,17-3.5,25.4-5.2
		c7-1.4,14.3-2.8,21.5-4.3c4.2-0.9,8.5-2,12.6-3c3.3-0.8,6.8-1.7,10.1-2.5c2-0.4,4.2-0.6,6.5-0.8c1.6-0.1,3.2-0.2,4.8-0.5
		c6.1-0.8,12.2-1.7,18.2-2.6c12.8-1.8,25.9-3.8,38.9-5.1c13-1.4,26.3-2.4,39.1-3.4c10.8-0.8,21.9-1.7,32.8-2.7
		c16.8-1.7,31.8-3.7,45.9-6.4c5.1-0.9,8.9-4.7,12.2-8.1c0.6-0.6,1.1-1.1,1.6-1.7c1.9-1.8,3.3-3.7,4.8-5.5c1.1-1.5,2.2-2.9,3.4-4
		c1.6-1.5,3.1-2.3,4.8-2.3c1.5,0,3.1,0.6,4.9,1.8c8.2,5.6,14.5,13.6,19.7,25.4c0.5,1.1,0.7,1.8-0.9,3.2c-5.1,4.4-10.4,6.6-16.1,6.6
		c-0.7,0-1.5,0-2.2-0.1c-1.7-0.2-3.3-0.3-4.8-0.3c-13.4,0-19.9,7.1-26,18.6c-2.7,5-5.8,10.1-8.8,14.9c-1.3,2-2.5,4.1-3.8,6.1
		c-0.1,0.2-0.3,0.4-0.5,0.7c-0.7,0.9-1.5,2.2-2.1,3.8c-0.8,2.3-2.7,7.5,0.3,11.7c3,4.2,8.6,4.2,11,4.2l0.2,0c2.5,0,5,1.1,6.2,2.9
		c0.8,1.1,0.9,2.2,0.5,3.5c-0.3,0.9-2.5,2.9-5.6,4.4c-7.3,3.3-15,6.4-22.4,9.5c-5.6,2.3-11.5,4.7-17.2,7.2c-3.4,1.4-5.9,4-8.1,6.2
		l-0.6,0.6c-2.9,2.8-5.8,5.8-8.5,8.7c-5.4,5.6-11.1,11.4-17,16.6c-20.9,18.3-38.2,30-56,38c-7.2,3.2-14.9,5.2-23,7.4
		c-2.1,0.6-4.3,1.1-6.4,1.7c-7.1,1.9-13.4,3.3-19.2,4c-9.9,1.4-20,2.5-29.8,3.5l-6,0.6c-2.2,0.2-4.5,0.4-6.8,0.6
		c-3.5,0.3-7.1,0.5-10.8,1c-5.4,0.7-7.7,3.4-8.7,5.5c-1,2.1-1.6,5.7,1.3,10.5c0.5,0.9,1.1,1.7,1.7,2.6c0.7,1.1,1.4,2.1,1.9,3
		c2.3,4.1,2,6.8-1.2,10.3c-1.9,2.1-4.1,4.2-6.1,6.2c-0.7,0.7-1.4,1.4-2.1,2.1c-9.9,10-10.1,25.9-0.6,37c7.8,9.1,17.9,12.9,27.6,15.7
		c21.4,6.1,40.9,18,61.6,37.6c8.2,7.8,13.9,18.1,17.9,32.5c3.4,12,3.6,23.2,0.7,35.2c-2.5,10.4-4.9,25.8,3,39.9
		c5.4,9.6,12.4,18.1,19.2,26c5.1,6.1,10.5,12,15.7,17.8c4.1,4.5,8.4,9.2,12.4,13.9c7.3,8.5,13.2,16.1,18.2,23.4
		c3,4.3,5.3,9.1,7.9,14.2c0.6,1.3,1.3,2.6,1.9,3.9c6.2,12.3,11.8,23.4,17.1,34.2c0.7,1.4,1.4,2.7,2,4.1c3,6,5.8,11.6,8,17.5
		c2.7,6.9,5.2,14.1,7.6,20.9c1.7,4.9,3.5,9.9,5.3,14.9c0.8,2.2,1.9,4.6,3.3,6.9c1.9,3.1,1.7,5.5-0.7,8.3
		C1125.4,1188.4,1120.5,1191.5,1114.5,1193.3z M704.2,682.7c-2.2,0-4.1,0.6-5.6,1.7l-0.1,0.1c-3.3,2.7-5.8,6-8.2,9.1l-0.8,1.1
		c-1.3,1.8-2.5,3.6-3.6,5.3c-1.9,3-3.8,5.8-5.9,7.9c-11.8,11.8-24.3,23.5-36.3,34.7l-0.3,0.3c-2.1,2-4.7,3.8-7.3,5.7
		c-1.3,0.9-2.7,1.9-4.1,2.9c-0.7,0.5-1.4,1-2.2,1.5c-1.8,1.2-3.8,2.5-5.6,4.4c-4.1,4.3-8.3,8.7-12.2,13c-7.1,7.6-14.5,15.5-22,22.9
		c-11.6,11.3-23.7,22.6-35.3,33.4c-5.9,5.5-12,11.2-17.9,16.8c-6.3,6-12.6,12.1-18.7,18c-3.1,3-6.2,6-9.3,9
		c-1.7,1.6-3.5,3.2-5.4,4.9c-4.4,3.8-8.9,7.7-12.4,12.7c-7.2,10.2-14.3,20.1-23,28.6c-2.6,2.6-3.9,5.8-5,8.6c-0.4,1.1-0.8,2.1-1.3,3
		l-2.2,4.3l3.8,3c0.2,0.2,0.5,0.4,0.9,0.8l2.1,2.1l2.9-0.4c0.4,0,0.8-0.1,1.1-0.1c1.3-0.1,3-0.2,4.7-0.8l0.1-0.1
		c7.7-2.9,13.9-5.5,19.7-8c2.8-1.2,5.6-2.6,8.2-3.9c4.1-2,8-3.9,12-5.3c15.5-5.5,28.3-12.5,39.2-21.4l3.3-2.7
		c7.9-6.6,16.1-13.3,24.5-19.2c11.6-8,19.8-18.6,27.8-28.9l1.4-1.9c4.8-6.1,9.2-12.6,13.5-18.8c2.7-3.9,5.4-7.9,8.2-11.7
		c1.4-2,2.8-3.9,4.3-5.9c5.8-8,11.3-15.6,17.4-22.9c5.3-6.2,11.5-12.1,17.4-17.8c1.8-1.8,3.7-3.5,5.5-5.3c1.9-1.8,4-3.5,6.2-5.3
		c3.5-2.9,7.2-5.8,10.3-9.6c11.2-13.4,15.1-29.5,18.9-45c0.6-2.6,1.3-5.2,2-7.8c0.6-2.4,1.2-9.7-4.2-11.9
		C710,683.8,707.2,682.7,704.2,682.7z M694.6,767.2c-0.7,0.4-1.6,0.8-2.5,1.2c-2.4,1.1-5.2,2.4-7.6,4.7
		c-12.5,12-22.5,26.1-32.3,39.7c-1.9,2.6-3.8,5.2-5.7,7.9c-1.4,1.9-2.4,4.1-2.9,6.3c-0.4,1.8-0.3,3.4-0.2,4.7c0,0.4,0.1,0.8,0.1,1.2
		v7.2l7.1-1.3c0.4-0.1,0.7-0.1,1.1-0.1c1.4-0.1,3.2-0.3,5.1-1.3c10.1-4.9,20.6-10,30.8-15.2c10.2-5.2,20.2-10.8,28.6-15.5
		c3-1.7,6-4.1,8.8-7.2c4.8-5.2,6.2-12.2,3.8-19.1c-1.3-4-4.9-9.2-14.1-10.5c-4.2-0.6-8.5-1.2-12.9-1.8l-1.9-3.8L694.6,767.2z
		 M1040.7,665.5c-3.7,0-7.3,0.8-10.8,2.3c-12.5,5.4-27.5,11-43.9,12.1c-5.3,0.3-10.4,1.4-15.3,2.5c-1.2,0.2-2.3,0.5-3.5,0.7
		c-5.1,1.1-10.2,2.2-15.1,3.3c-4.9,1.1-10,2.2-14.9,3.3c-1.6,0.3-3.4,0.6-5.3,0.8c-1.6,0.2-3.2,0.4-4.9,0.7c-5.8,1-11.7,2-17.5,3
		c-12.4,2.1-25.3,4.3-37.9,6.6c-6.9,1.2-12.6,2.5-17.7,4.1c-2.8,0.8-4.6,2.8-5.9,4.3c-0.4,0.4-0.7,0.8-1,1l-5.5,5.2l6.3,4.2
		c0.3,0.2,0.7,0.5,1.1,0.8c1.3,1,2.8,2.3,5,2.9l0.1,0c12,3.5,25.2,5.2,40.2,5.2c3.5,0,7.2-0.1,11-0.3c16.1-0.7,32-2.3,46.9-3.8
		c17.9-1.9,35.3-6.5,51.6-13.9c11.7-5.3,22.8-12.4,32.7-18.7c4.4-2.9,8-6.2,11.9-9.8c1.6-1.5,3.3-3,5.1-4.5l8.1-7l-10.2-3.2
		C1047.4,666.1,1043.9,665.5,1040.7,665.5z M358.5,712.2c-1.9,0.9-3.1,2.1-4.2,3.3c-0.5,0.5-1,1-1.7,1.6l-12.3,10.6h16.2
		c1,0,1.7,0,2.4,0c0.5,0,1,0,1.4,0c0.7,0,1.2,0,1.8-0.1c13.2-1,26.5-2,39.7-3c13.2-1,26.5-2,39.7-3c1.7-0.1,3.5-0.3,5.1-0.5
		c2.4-0.3,4.7-0.5,6.9-0.6c1.3,0,2.6,0,4,0c4.1,0,8.2,0.1,12.3,0.1c4.1,0.1,8.3,0.1,12.4,0.1c12.1,0,24.4-0.1,36.3-0.2
		c7.5,0.1,15,0.1,22.3,0.1h4.2l1.5-3.9c0.1-0.3,0.2-0.6,0.4-0.9c0.2-0.5,0.4-1,0.6-1.5l1.5-4l-3.3-2.7c-1.2-1-2.4-2-3.5-3
		c-1.2-1-2.4-2.1-3.7-3.1c-1.7-1.4-2.5-2.3-2.9-2.9c0.3-0.2,0.7-0.5,1.2-0.7c6.8-3.8,14.8-3.8,22.6-3.8h1.1c1.6,0,3.2,0.1,4.9,0.2
		c1.8,0.1,3.6,0.2,5.5,0.2c0.8,0,1.6,0,2.4-0.1c6.9-0.3,14-0.6,21-1.4c5.9-0.7,12.2-1.7,20.5-3.2c8.6-1.5,17.1-3.1,25.7-4.7
		c6.9-1.3,13.8-2.6,20.7-3.8c1.8-0.3,3.6-0.6,5.5-0.9c2.4-0.4,4.9-0.7,7.4-1.3c2.6-0.5,5.3-1.2,7.8-1.8c4.6-1.1,9-2.2,13.4-2.7
		c7.9-0.9,14.2-4.7,18.4-11c2.8-4.4,2.8-10.3,1.8-14.4l-0.1-0.2c-1.6-5.9-9.9-7.3-11.5-7.5l-0.1,0c-4.5-0.5-9.4-0.8-14.4-0.8
		c-0.9,0-1.9,0-2.8,0l-9.7,0.2c-19.1,0.3-38.8,0.7-58.3,1.4c-28.6,1.2-59.2,5.3-96.2,12.9c-26.2,5.4-54,11.9-80.6,22.4
		c-7.1,2.8-14.5,5.5-21.7,8.1c-8.4,3-17.1,6.2-25.6,9.7c-10.2,4.2-20.2,9.2-29.9,14C362.6,710.2,360.6,711.2,358.5,712.2z
		 M602,722.9c1.7,0.2,3.4,0.4,5.1,0.7c4.9,0.7,9.9,1.4,15,1.4c0.3,0,0.6,0,0.8,0c9.4-0.2,21.2-13,21.3-23.2l0.1-8.7l-8.2,3
		c-4.1,1.5-8.4,2.5-13,3.6c-9,2.1-18.3,4.2-27,10.6l-7.1,5.2l7.4,4.7c0.1,0.1,0.3,0.2,0.4,0.4C597.9,721.2,599.5,722.6,602,722.9z
		 M744.5,668.8c-11.3,3.4-14.7,7.6-15.2,18.9c-0.5,9.3,3.7,14.1,13.2,15c1.1,0.1,2.3,0.2,3.4,0.2c0,0,0,0,0,0
		c5.7,0,10.8-1.6,15.6-4.9c0.3-0.2,1.3-0.7,4.6-0.9c0.5,0,1-0.1,1.6-0.1c1.1,0,2.2,0.1,3.4,0.1c1.3,0.1,2.7,0.2,4.1,0.2
		c0.3,0,0.6,0,0.9,0c1.5,0,6.1-0.3,8.6-3.6l0.1-0.1c2.4-3.2,1.2-6.9,0.6-8.8l-0.1-0.4c-0.4-1.4-0.9-2.7-1.3-3.9
		c-0.6-1.7-1.3-3.3-1.3-4.6c-0.7-10-4.8-15.1-12.1-15.1c-2.1,0-4.5,0.5-7.4,1.4c-3,1-5.9,2.1-8.8,3.2
		C750.9,666.6,747.7,667.7,744.5,668.8z M835.1,641.6c-9.4,5.7-19.2,11.5-28.4,18c-4.6,3.1-10.6,8.2-10,15c0.6,6.7,7,10.5,13.2,13.4
		c1.1,0.5,2,0.8,2.9,1.1l0.8,0.3l0.3,0.1c2.6,0.6,5.2,1.2,7.9,1.8c6.8,1.6,13.9,3.3,20.9,4.7c1.3,0.3,3.4,0.6,5.6,0.6
		c3.3,0,6-0.8,8-2.3c3.7-2.8,3.1-7.3,2.6-10.9c-0.1-0.9-0.2-1.7-0.2-2.3c0-1.3-0.5-2.3-0.8-2.9c-1.2-3.2-0.9-6.2,1-9.4
		c4.5-7.9,11.7-12.8,22-18.2c11.1-5.8,22.9-11.2,34.2-16.4l3.5-1.6c4.3-2,8.8-3.8,13.2-5.6c3.9-1.6,8-3.2,12-5
		c1.4-0.6,2.8-1.2,4.2-1.9c6.9-3,14.1-6.2,21-9.8c5.4-2.9,10.6-6.2,15.6-9.4c2.8-1.8,5.6-3.6,8.4-5.3c2.4-1.5,4.9-2.8,7.5-4.1
		c0.8-0.4,1.5-0.8,2.3-1.2l4-2.1l-0.9-4.4l0-0.2c0-0.4-0.1-0.9-0.2-1.3l-0.8-4.1l-4.1-0.7c-0.6-0.1-1.3-0.2-1.9-0.4
		c-1.7-0.3-3.6-0.7-5.8-0.7c-0.4,0-0.9,0-1.3,0.1l-0.2,0c-4.1,0.4-8.2,1-12.2,1.5c-5.3,0.7-10.3,1.4-15.4,1.8
		c-7.8,0.6-15,2.8-22.6,6.8c-2,1-5.3,1.6-9.2,1.6c-0.3,0-0.6,0-0.9,0c-1.3,0-2.6-0.1-4-0.1c-7.3,0-15.7,0.7-22.8,5.8
		c-3.9,2.7-7.9,3.7-13.1,4.9l-0.8,0.2c-4.8,1.2-9.7,2.9-14.3,4.5c-2.1,0.7-4.2,1.4-6.3,2.1l-4.7,1.5l0.6,4.9c0,0.3,0,0.5,0.1,0.8
		c0,0.5,0.1,1,0.1,1.5l0.4,3.1l2.2,1.1c-5.7,2-8.8,6.8-10.5,9.4c-0.7,1-2.9,2.3-4.1,3l-0.1,0.1c-2.1,1.2-4.2,2.3-6.4,3.5
		c-2.8,1.5-5.6,3-8.4,4.7L835.1,641.6z M885.4,678.8c0.5,0.2,1.5,0.6,2.8,0.6h0.2l0.2,0c4.6-0.3,9.2-0.5,13.8-0.7
		c12.5-0.6,25.4-1.3,38.1-2.6c8.3-0.8,16.5-2.6,24.4-4.4c3-0.6,6-1.3,9-1.9c9.1-1.9,18.4-3.8,27.3-5.8c8.3-1.8,16.9-3.6,25.3-5.3
		c3.4-0.7,6.9-1.3,10.2-1.9c4-0.7,8.2-1.4,12.3-2.4c12.1-2.8,21.8-5.3,30.5-7.9c6.4-2,11.1-4.9,14.1-8.5c6-7.2,11.9-15.4,18.1-25.2
		c5.7-8.9,11.1-18.1,16.2-27.1l2-3.5c1.3-2.3,2-4.6,2.6-6.6c0.3-0.9,0.5-1.8,0.8-2.6l2.5-6.9l-7.2-1.1c-0.7-0.1-1.5-0.3-2.3-0.5
		c-1.7-0.4-3.7-0.8-5.9-0.8c-0.4,0-0.8,0-1.2,0c-7.1,0.6-14.2,1.3-21.1,2c-5.1,0.5-10.4,1-15.6,1.5c-6.3,0.6-12.8,1.1-19.1,1.6
		c-7.8,0.6-15.8,1.2-23.7,2c-12.3,1.2-18.3,10.1-23.2,17.4c-0.6,0.8-1.1,1.7-1.7,2.5c-1.6,2.2-3.7,4.3-6.3,6
		c-1.9,1.2-4.1,2.3-6.4,3.5c-2.5,1.2-5,2.5-7.5,4.1c-3.2,2.1-6.2,4.4-9.2,6.6c-4.3,3.2-8.3,6.2-12.6,8.5
		c-10.3,5.6-21.1,10.9-31.5,15.9c-4.5,2.2-9.1,4.4-13.6,6.6c-3.2,1.6-6.5,3.2-9.7,4.7c-6.9,3.4-14.1,6.8-21.1,10.5
		c-3.9,1.8-7.4,4.3-10.8,6.7c-1.2,0.8-2.4,1.7-3.6,2.5l-4.7,3.2l2.9,4.9c0.2,0.3,0.4,0.6,0.6,0.9c0.1,0.1,0.2,0.3,0.3,0.5l1.4,2.3
		L885.4,678.8z M715.3,498l0.5,3c0.1,0.6,0.1,1.3,0.2,2c0.1,2.2,0.3,5,1.8,7.6c7.1,13.2,10.6,27.4,14.3,42.5
		c0.4,1.6,0.8,3.1,1.2,4.7c0.6,2.4,1.3,4.8,1.9,7.1c1.5,5.1,2.8,9.8,2.9,14.3c0.1,10.1-0.6,20.5-1.2,30.6c-0.3,3.9-0.5,7.8-0.7,11.6
		c-0.1,1.7-0.3,3.4-0.4,5.1c-0.3,3.5-0.7,7.1-0.6,10.8c0.1,3.3,2.1,10.4,7.4,12.1l0.1,0c1,0.3,2.1,0.4,3.2,0.4
		c3.4,0,6.7-1.3,9.1-2.5l0.2-0.1c2.7-1.4,4.2-3.8,5.2-5.5c0.2-0.3,0.4-0.7,0.6-1c0.9-1.3,1.7-2.5,2.5-3.7c1.5-2.2,2.9-4.3,4.5-6.1
		c2.7-3,5.6-6,8.5-8.9c4.6-4.8,9.4-9.7,13.7-15c7.8-9.6,15.6-17.1,23.9-22.9c4.8-3.4,9.9-6.8,14.8-10.5c2-1.4,4-2.9,6.1-4.4
		c8.5-6.1,17.2-12.5,25.7-19.1c7.3-5.7,14.7-12.1,22.5-19.5c6-5.7,11.8-15.6,5.5-30.9c-7.2-17.8-18.6-34.6-34.6-51.5
		c-5.2-5.5-10.7-10.9-16-16.1c-2.4-2.3-4.7-4.6-7-7c-0.6-0.6-1.1-1.2-1.7-1.7c-4.3-4.4-9.2-9.4-16.6-11.6c-0.4-0.1-1.4-0.9-2-1.4
		c-0.6-0.5-1.3-1-2.1-1.6c-3.7-2.5-7.3-5.1-11-7.7c-8.4-5.9-17.1-12-25.9-17.6c-6.8-4.4-14.1-8.1-21.1-11.6
		c-1.8-0.9-3.6-1.8-5.4-2.8c-4.3-2.2-8.7-4.3-12.9-6.2c-3.3-1.5-6.8-3.1-10.1-4.8c-9.3-4.8-18.6-9.3-29.1-12
		c-4.9-1.3-10-4.6-14.9-7.7l-0.5-0.3c-5.6-3.7-12-7.9-20.6-8.3c-2.5-0.2-5.2-0.8-7.2-1.8c-8.7-4.4-17.5-8.9-26.1-13.3
		c-8.6-4.4-17.4-8.9-26.2-13.3c-1.4-0.7-3-1.1-4.9-1.1c-0.6,0-1.2,0-1.8,0.1c-0.3,0-0.7,0-1,0h-7.7l1.9,7.5c0.1,0.2,0.1,0.7,0.2,1
		c0.3,1.7,0.6,4,2.3,6c4.5,5.5,9.1,11.2,13.6,16.6c5.9,7.2,12,14.6,17.8,21.9c4.2,5.2,8.5,10.5,12.7,15.5
		c10.5,12.7,21.4,25.7,30.4,39.7c5.9,9.2,12.5,18.3,18.8,27c1.6,2.2,3.2,4.4,4.8,6.6l0.1,0.1c1.3,1.7,2.9,2.7,4.1,3.4
		c0.3,0.2,0.6,0.4,0.8,0.6l5.1,3.8l3.5-5.3c0.2-0.3,0.4-0.6,0.7-1c0.6-0.9,1.4-1.9,2-3.2l0.1-0.2l0.1-0.2c0.7-1.7,0.9-3.3,1.1-4.6
		c0-0.2,0.1-0.5,0.1-0.7c0.4-2.4,0.6-4.9,0.8-7.2c0.5-4.8,0.9-9.2,2.3-13.1c1.1-2.9,2.7-5.8,4.5-8.6c-0.2,1.7-0.3,3.4-0.1,5.3
		c0.3,4.2,0.9,8.4,1.4,12.5c0.4,3.4,0.9,6.9,1.2,10.3c1.3,14.7,5.9,26.4,13.9,35.8c10.7,12.6,21.7,25.7,33.2,38
		c7,7.5,14.4,14.9,21.5,22c5.7,5.7,11.6,11.6,17.3,17.6c3.6,3.8,5.1,7.6,4.6,11.8c-0.1,0.6-0.2,1-0.3,1.3c-0.1,0-0.2-0.1-0.3-0.1
		c-3.3-1.5-6.8-3.9-10.7-7.2c-2.7-2.3-5.2-4.8-7.9-7.5c-3.5-3.5-7.1-7.1-11.2-10.3c-15.3-11.8-27.4-23.4-37.1-35.4l-0.1-0.1
		c-2-2.4-4.4-4-6.6-5.4c-0.6-0.4-1.3-0.9-1.9-1.3l-4.1-3L715.3,498z M338.3,68c5.2,11.1,35.8,42.3,41.9,48.4
		c13.8,13.9,38.3,37.7,46.6,39.9l10.2,2.7l-2.9-10.2c-0.2-0.8-0.4-1.5-0.6-2.3c-0.5-2.1-1-4.2-2.2-6.3c-1.2-2.1-2.4-4.4-3.6-6.6
		c-3.5-6.4-7.1-13-11.5-19.2C411,107.2,404.5,98,396,91.6c-10.6-7.9-22-15.1-33-22c-4.8-3-9.8-6.2-14.6-9.3c-1-0.7-2.3-1-3.6-1
		c-0.7,0-1.2,0.1-1.6,0.2h-9L338.3,68z"/>
	<path class="st0" d="M1056.7,1684.6c-4.2,0-5-5.2-5-8.3c0-0.9,0-1.9-0.1-2.9c-0.1-5.1-0.2-9.9,0.4-14.5c0.4-3,1.1-5.9,2-9.1
		c0.6-2.4,1.3-4.9,1.8-7.5c1.4-7.4,2.4-13.6,3.2-19.3c0.7-5.5,1.4-11.2,2-16.7c1-9,2.1-18.3,3.5-27.3c0.4-2.9,1.6-6,2.9-9.2
		c1.1-2.9,2.3-5.9,3.1-9.2c2.3-9.3,4.3-18.8,6.3-28c0.7-3.4,1.5-6.8,2.2-10.2c0.4-2.1,0.9-4.2,1.4-6.2c1.3-5.9,2.6-12.1,3.7-18.2
		c0.8-4.7,1.3-9.3,1.7-13.8c0.2-2.2,0.5-4.4,0.7-6.6c0.1-1,0.1-1.9,0.2-2.6c0-0.8,0.1-1.6,0.2-2.1c4.9-19.9,6.4-40.4,7.8-60.1
		l0.4-4.7c0.2-2.3,0.4-4.5,0.5-6.8c1-11.8,2-24,1.9-36.2c0-8.9-0.6-17.8-1.3-26.4c-0.5-6.2-0.9-12.6-1.1-18.8
		c-0.2-6.8,0.1-13.8,0.4-20.7c0.1-2.8,0.2-5.7,0.3-8.5c0.1-3.3,0.2-6.7,0.3-10.1c0.2-7.6,0.4-15.5,1-23.1l0.3-3.7
		c0.7-10.2,1.4-19.9,3.3-29.2c2-9.6,4.9-12.6,12.7-12.6c0.7,0,1.4,0,2.1,0.1c0.3,0,0.6,0.1,1,0.1c1.6,0,3-0.4,3.9-0.8
		c0.6-0.2,1.1-0.3,1.5-0.3c0.7,0,0.9,0.2,1,0.3c0.4,0.5,0.9,1.8,0.9,4c-0.4,2.3-0.8,4.8-1.3,7.3c-1,5.4-1.9,11-2.7,16.7
		c-1.2,8.5-2.2,17.2-3.2,25.6c-0.5,4.4-1,8.7-1.6,13.1l-0.1,0.5v0.1c0,0.4-0.1,0.9-0.1,1.4v0.4l0.1,0.4c1.1,9.5,0.7,18.9,0.2,29
		c-0.6,12.1-1.2,24.6,1.1,37.4c3.1,17.1,2.3,36-2.3,56.2c-0.9,4-0.9,7.9-0.9,11.7c0,2.4,0,4.6-0.2,6.7l-0.5,4.7
		c-1.5,14.2-3,28.9-5.4,43c-1,6.6-2.6,13-4.2,19.7c-1.1,4.6-2.3,9.3-3.2,14.1c-0.9,4.4-1.6,8.8-2.2,13.1c-1,6.5-1.9,12.7-3.6,18.5
		c-3.4,11.6-5.4,21.5-6.3,31.4c-0.2,1.9-1,4.2-1.8,6.7c-0.8,2.3-1.6,4.6-2.1,7.2l-0.3,1.3c-1.4,6.4-2.8,13-3,19.9
		c-0.1,3.2-0.1,6.3-0.2,9.4c-0.1,11.4-0.3,22.2-2.6,32.8c-1.3,5.7-0.8,11.7-0.1,16.8c1.1,8.3,0.6,11.1-2.5,13.3
		c-1.1,0.9-2.2,1.7-3.3,2.5c-4.1,3.3-8.1,6.3-12,7.7C1058.5,1684.4,1057.5,1684.6,1056.7,1684.6z"/>
	<path class="st0" d="M816.4,1618.1c-21.4-2.1-33.9-8.9-41.5-22.6c-3-5.3-3.5-9.2-1.9-12.5c0.1-0.2,0.2-0.3,0.3-0.4
		c0.2,0.1,0.5,0.2,0.8,0.6c1.2,1.1,2.3,2.2,3.4,3.3c2.3,2.3,4.7,4.6,7.3,6.8c6.8,5.8,14.9,8.8,23.6,8.8c0.9,0,1.9,0,2.8-0.1
		c3-0.2,6-0.4,9-0.5c11.9-0.7,24.2-1.4,36.3-2.4c4.7-0.4,9.2-1.5,13.5-2.7c1-0.3,2-0.5,3.1-0.8c0.5-0.1,0.8-0.2,0.9-0.2
		c0.5,0,1.3,1.2,1.8,2.2l0.1,0.1c0.2,0.3,0.2,0.6,0.3,0.7c-0.1,0.1-0.3,0.3-0.6,0.5c-2.3,1.4-5.1,2.9-8.5,4.4
		c-0.9,0.4-2,0.8-3.1,1.2c-2.6,0.9-5.6,1.9-8.2,4.1c-5.8,4.8-12.8,6.2-19.5,7c-5.1,0.7-10.2,1.3-15.6,2L816.4,1618.1z"/>
</g>
</svg>
