<?xml version="1.0" encoding="utf-8"?>
<!-- Generator: Adobe Illustrator 27.5.0, SVG Export Plug-In . SVG Version: 6.00 Build 0)  -->
<svg version="1.1" id="palm-tree_xA0_Image_00000029029577507558557800000012243726517653616564_"
	 xmlns="http://www.w3.org/2000/svg" xmlns:xlink="http://www.w3.org/1999/xlink" x="0px" y="0px" viewBox="0 0 1211 1651.2"
	 style="enable-background:new 0 0 1211 1651.2;" xml:space="preserve">
<style type="text/css">
	.st0{fill:#FD1D86;}
</style>
<g>
	<path class="st0" d="M982.1,972c0,2.4-0.5,5,0.1,7.3c3.4,15,1.4,29.4-4.3,43.5c-3.6,8.9-7.2,17.8-10.1,26.9
		c-3.1,9.8-3.3,14.8,5.8,20.8c15.1,10,20.2,25.3,23.7,41.9c1.9,8.9,3.3,17.7,1.7,26.6c-1.8,10.1-4.5,20-7.2,30
		c-3.1,11.5-6.8,22.9-9.9,34.4c-1.6,5.9-3,11.8-3.8,17.9c-0.6,4.5,1.2,5.6,5.6,4.5c0.3-0.1,0.6-0.3,0.9-0.3c13.2,0.6,25.5-3.9,38-7
		c19.8-4.9,39.8-8.8,59.7-13.4c8.1-1.8,14.9,3,15.2,11.2c0.1,3.1-5,9.7-9,11c-11.5,3.8-22.9,7.7-34.5,10.9
		c-6.7,1.8-14.2,0.9-20.6,3.4c-15.6,6-30.6,0.6-45.8-0.7c-6.1-0.5-6.6-5.2-6.5-10.1c-6.3,5.6-6.2,12.3-5.7,19.9
		c0.6,10.2-0.3,20.5-0.8,30.8c-0.3,6.7,2.8,9.9,9.6,9.3c7.1-0.7,14.2-2.2,21.3-2c11.9,0.3,23.9,1.4,35.8,2.7
		c4.9,0.5,7.8,4.6,7.2,8.7c-0.5,3.4-7,7.9-11.1,7.8c-8.8-0.2-17.6-0.5-26.5-0.5c-2.8,0-5.6,0.6-8.3,1.3c-10,2.9-19.9,6.4-29.9,9
		c-6.4,1.6-9.4,5.9-11.3,11.4c-1.8,5.5-2.5,11.4-4.8,16.7c-7.1,16.4-14.8,32.7-22.3,48.9c-0.3,0.7-1.1,1.4-1.3,2.1
		c-0.5,2.6-2.2,6.4-1,7.7c1.5,1.8,5.2,2.3,7.9,2.3c11-0.2,21.9-1.2,32.9-1.2c3.4,0,7.1,1.6,10.1,3.4c3.8,2.3,3.9,6.8,1,10.4
		c-3.2,4.1-7.7,5.6-12.4,5c-11.3-1.5-21.6,1.5-31.8,5.9c-2,0.9-4.1,1.7-6.2,1.9c-21.4,1.4-38.7,12-55,24.6
		c-7.8,6.1-14.8,13.2-22.1,19.9c-5.4,4.9-10.9,9.8-16,15c-2.8,2.9-5.4,6.4-7.1,10c-2.5,5.3-0.2,9,5.5,8.2c7.2-0.9,14.3-2.7,21.2-4.9
		c14.2-4.6,28.6-7.6,43.3-9.2c4.5-0.5,9.3-0.6,12.2,3.9c3.2,5.1-0.5,12.6-6.9,13.7c-12.1,2.2-24.1,5-35,10.9
		c-4.9,2.7-9.6,5.9-14.5,8.7c-8.9,5.1-19.2,5.1-28.9,7c-14.2,2.6-27.7-1-41.3-4c-7.4-1.6-8.2-4.2-8.9-11.6
		c-1.1-10.4,5.8-16.6,11-23.6c7.7-10.4,16.9-19.4,26.8-27.9c10.2-8.7,19.5-18.6,28.8-28.4c2.1-2.2,3-6,3.3-9.1
		c0.6-6.2,2.6-9.9,8.4-12.1c4-1.5,8.2-3.2,12.4-3.8c11.3-1.5,18.7-7.6,23.9-17.3c8.7-16.2,18.7-31.8,26.1-48.5
		c6.1-13.8,12.3-28.1,9.5-44.2c-1.2-7,2.5-12.6,6.6-17.7c5.1-6.3,7.2-13.7,5.7-20.9c-4.1-19.1-0.9-37.5,4.1-55.6
		c4.8-17.6,10.6-34.9,16.3-52.2c4.8-14.7,7.2-29.8,5.5-45.2c-0.8-7.1-3.8-13.7-10-18.2c-4.6-3.3-8.9-7-13.5-10.2
		c-12.6-8.6-15-20.7-12.4-34.7c2-10.7,6-20.5,11.6-29.9c9.6-16.1,13.9-33.4,8.7-52.1c-3.2-11.6-9.8-21.4-17.2-30.7
		c-8.9-11.2-17.4-22.6-26.9-33.3c-10.8-12.1-22.5-23.4-36.1-32.7c-8.7-6-16-13.9-23.9-21c-8.3-7.4-16.3-15.1-24.8-22.3
		c-3.7-3.2-8.2-5.6-12.5-8c-6.1-3.2-10.4-9.9-8.4-15.3c2.8-7.5,5.8-9.5,12.8-8.5c13.1,1.8,23.5,8.9,33.2,17
		c22.2,18.8,44.6,37.3,65.8,57.3c14,13.3,26,28.8,38.8,43.4c9.4,10.7,17.2,22.4,23,35.4c1.3,2.9,2.3,5.9,3.7,8.7
		c0.4,0.8,1.8,1.7,2.6,1.6c0.7-0.1,1.6-1.5,1.7-2.5c1.7-11.1,3.5-22.2,4.7-33.3c2.1-19-4.3-34.4-19.5-46.4
		c-14.3-11.4-30.3-18.8-47.8-23.9c-19.3-5.6-34.6-16.8-42.5-35.9c-2.2-5.4-2.6-11.6-3.3-17.5c-0.6-4.8-0.9-9.7-0.3-14.4
		c0.5-3.8,2.1-7.7,4.1-11.1c1.9-3.4,7.6-5.7,4.8-10.3c-3.1-5.1-8.1-8.9-14.7-8.7c-3.5,0.1-6.9,1-10.4,1.2c-16,1.1-31.5-1.7-46.8-5.9
		c-12-3.3-23-8.3-32.2-16.9c-3.5-3.3-8.5-5.2-12.6-7.9c-5.7-3.7-11-8-16.8-11.4c-11.1-6.4-13.2-5.9-18.6,5.5
		c-3.2,6.8-5.8,14.2-7.5,21.6c-2.2,9.3-0.1,12.5,8.6,17c12.4,6.4,19.2,17.3,22.6,30.2c2.6,10-1.9,18.9-9.2,25
		c-7.8,6.5-16.9,11.6-25.8,16.7c-6.4,3.7-13.5,6.3-20.2,9.4c-7,3.2-13.8,6.7-20.9,9.3c-12.7,4.7-22.8,13.5-34.2,20.3
		c-5.1,3-10.5,5.9-16.2,7.7c-10.4,3.3-17.9,10.4-25.7,17.4c-2.5,2.3-5.7,5.5-8.5,5.4c-8.1-0.1-13,4.8-18.5,9.3
		c-15.9,13-32.9,23.9-52.7,30.3c-13.6,4.4-26.6,10.6-39.8,16.1c-1.9,0.8-3.4,2.7-5.4,3.6c-6.4,3-12.7,7.2-19.5,8.5
		c-10.2,1.9-18.3,6.5-26.6,12.5c-11.1,8.1-22.9,15.4-35.3,21.4c-16.7,8.1-31.2,18.7-44.7,31.3c-7.6,7.1-16.1,13.3-27,15.3
		c-6.4,1.1-15.7-4.5-15.5-11c0.1-4.7,1.5-10.2,4.3-13.8c11.9-15.3,26.9-27.2,43.9-36.8c12.2-6.9,24-14.7,35.4-22.9
		c10.6-7.6,20.5-16.3,30.7-24.5c8.1-6.5,16.6-12.6,24.3-19.6c10.6-9.7,19.4-20.9,25.3-34.3c4.8-11.1,14-18.8,23.4-25.4
		c8.6-6,14.4-14.1,21.4-21.2c5.6-5.6,11.3-11.1,17.1-16.5c11.9-11.1,23.9-22,35.9-33c5-4.6,10.5-8.8,15.1-13.7
		c6.3-6.6,11.9-13.8,17.9-20.7c1.1-1.3,2.3-2.4,3.6-3.4c5.8-4.7,5.4-7.7-1.5-10.6c-1.4-0.6-2.9-0.9-4.3-1
		c-15.9-1.1-31.9-2.5-47.8-3.1c-13.6-0.5-27.2,0.2-40.9,0.3c-7.5,0-15-0.5-22.4-0.3c-30.1,1.2-60.2,2.1-90.2,4
		c-25.7,1.6-51.3,4.1-76.9,7.1c-15.6,1.8-31,5.2-45.6,12c-10.6,4.9-22.4,7.1-33.5,11.1c-13.7,4.9-27.1,10.6-40.8,15.7
		c-7,2.6-14.3,4.4-21.3,6.9c-6.2,2.3-12.2,5.2-18.4,7.6c-8.8,3.4-17.7,6.4-26.5,9.8c-10.9,4.3-21.7,9.1-32.6,13.5
		c-16.1,6.6-32,13.6-49.7,15.9c-10.2,1.3-19.9,6.5-30.1,8.9c-8.1,1.9-16.3,2.7-23-4.8c-5.2-5.8-3.4-12-1.8-17.9
		c1.3-4.9,6-6.5,10.8-6.4c13.9,0.1,25.4-6.2,37.3-12.3c9.4-4.9,19.6-8.4,29.7-11.6c23.6-7.4,47.5-14,71-21.5
		c12.8-4.1,25.1-9.6,37.8-14c14.4-4.9,29.1-9.3,43.6-13.9c9.3-2.9,18.5-6.7,28.1-8.5c21-4,39.4-14.7,59.2-21.8
		c12-4.3,23.2-10.8,35-15.7c15.5-6.5,31.2-12.4,46.8-18.8c9.4-3.8,18.3-8.7,27.9-11.9c25.6-8.5,51.3-16.9,77.3-24.3
		c16.6-4.8,33.7-8.3,50.7-11.6c8.9-1.7,18.2-0.7,27.1-2.4c25.1-4.9,50.5-4.9,75.9-5.9c10.1-0.4,20.2-1.5,30.3-1.7
		c6.1-0.1,12.3,0.4,18.3,1.5c8.1,1.4,13.8-2,13.9-10.8c0.1-5.4,2.3-10.8,2.6-16.2c1.1-16.7-2.7-32.7-7.7-48.4
		c-3-9.3-5.3-18.8-8.7-28c-4.4-11.8-8.7-23.8-14.7-34.7c-7.8-14-17.3-27.1-25.9-40.7c-6.8-10.6-12.8-21.9-20.2-32
		c-10-13.6-21.3-26.3-31.8-39.5c-6.8-8.6-13-17.7-19.9-26.2c-7.2-8.9-14.8-17.4-22.3-26c-5.9-6.8-11.8-13.5-17.7-20.2
		c-2.3-2.6-4.6-5.3-7.2-7.6c-17.1-14.7-34.4-29.3-51.5-44c-17.5-15-33.4-31.3-46.7-50.3c-6.6-9.5-16.2-16.9-24.7-25
		c-11-10.3-22.8-19.9-33.5-30.5c-12.3-12.1-24.2-24.7-35.5-37.7c-16.8-19.2-33.2-38.8-49.4-58.6c-6.9-8.4-12.7-17.8-19.2-26.6
		c-4.5-6.1-4.9-13.1-3.7-20.1c1-6.1,10.2-9.7,16.5-6.3c6.8,3.7,14.1,7.4,19.6,12.6c17,16.2,35.2,30.9,54.3,44.5
		c10.8,7.7,22.5,14.1,33.5,21.6c18.2,12.5,32.5,28.6,41.9,48.5c6.1,12.8,11.3,26.2,15.4,39.8c6.3,20.8,16.3,38.4,34,51.8
		c10.7,8.1,19.7,18.3,29.9,27.1c9.1,8,18.6,15.6,28.3,22.9c3.7,2.8,8.4,4.9,13,5.9c10,2.3,18.7,7.3,28,11.5
		c20.8,9.4,41.9,17.9,62.8,26.9c21.3,9.3,42.6,18.7,63.9,28.2c9.7,4.3,19.5,8.6,28.9,13.5c15.3,7.9,30.5,16.1,45.6,24.6
		c20,11.3,39.4,23.4,55.8,39.8c10.8,10.8,21.4,21.8,31.6,33.2c4.1,4.6,6.6,10.7,10.3,15.8c9.2,12.5,15.4,26.3,19.6,41.1
		c3.3,11.5,2.1,22.2-4.9,32.3c-10,14.3-23.4,24.8-37.3,34.9c-5.2,3.8-10,8.1-14.9,12.3c-0.7,0.6-0.9,1.6-1.5,2.7
		c5,2.3,9-0.4,13.2-1.6c8.1-2.2,16.1-4.7,24.3-6.5c15.6-3.4,31.3-6.2,46.9-9.5c7.6-1.6,15.1-3.8,22.7-5.5c3.9-0.8,7.9-0.8,11.8-1.3
		c19.1-2.6,38.1-5.7,57.2-7.7c24-2.5,48-3.8,72-6.1c15.2-1.5,30.4-3.5,45.4-6.3c4-0.7,7.5-5,10.8-8.2c3-2.8,5.1-6.6,8.1-9.5
		c5.2-5,11.3-5.1,17.2-1.1c10.3,7,16.9,16.9,21.8,27.9c1.7,3.7,1,7.2-2.5,10.2c-6.6,5.7-14,8.7-22.8,7.9c-12.5-1.3-18.2,2.5-25,15.2
		c-3.9,7.3-8.5,14.3-12.8,21.4c-0.7,1.1-1.6,2.1-2,3.3c-2.2,6.1-0.9,7.9,5.6,7.9c8.5-0.1,15.2,7,12.5,14.4c-1.2,3.3-5.3,6.2-8.7,7.8
		c-13.1,5.9-26.6,11-39.8,16.7c-2.6,1.1-4.8,3.5-6.9,5.6c-8.6,8.5-16.7,17.5-25.8,25.5c-17.5,15.3-36.2,29.4-57.5,39
		c-9.6,4.3-20.1,6.6-30.3,9.4c-6.6,1.8-13.3,3.3-20,4.2c-12,1.7-24,2.9-36,4.2c-5.8,0.6-11.6,0.8-17.4,1.6c-4.6,0.6-5.5,3-3.1,6.9
		c1.2,2,2.6,3.9,3.7,5.9c3.6,6.4,2.9,11.9-2.1,17.3c-2.7,2.9-5.6,5.7-8.4,8.5c-7.9,8-7.7,20.2-0.3,28.8c6.7,7.8,15.4,11.2,24.7,13.9
		c25,7.1,45.6,21.5,64.1,39c10.1,9.6,15.8,21.7,19.6,35.2c3.7,13,3.9,25.4,0.7,38.3c-2.9,12-3.8,24.5,2.4,35.5
		c5.1,9,11.8,17.2,18.5,25.1c9,10.8,18.9,21,28.1,31.7c6.6,7.7,12.9,15.6,18.6,23.9c4,5.8,7,12.4,10.2,18.7
		c5.8,11.4,11.5,22.8,17.1,34.3c3.6,7.3,7.4,14.5,10.3,22.1c4.6,11.9,8.6,24,13,35.9c0.7,2,1.7,4,2.8,5.8c3.3,5.4,2.7,10.7-1.2,15.3
		c-5.2,6.3-12.2,10.1-20.2,11.9c-0.8,0.2-2.4-0.5-2.8-1.3c-4.7-7.4-9-14.9-9.9-24c-1.4-13.8-5.5-26.8-11.9-39.3
		c-7.3-14.2-13.2-29.1-20.7-43.2c-5.9-11.1-13.6-21.2-19.7-32.1c-6.2-11-14.9-19.9-23.5-28.9c-7.7-8.1-15-16.5-23-24.2
		c-10-9.7-15.5-21.8-20.4-34.4c-1-2.6-2.6-4.9-3.9-7.4C982.9,971.7,982.5,971.9,982.1,972z M729.2,504.8c-0.5,0.5-1,1-1.5,1.5
		c0.4,2.6,0.1,5.5,1.3,7.7c8.3,15.3,11.9,32,16,48.6c1.8,7.6,4.9,15.2,5,22.8c0.2,14.2-1.2,28.5-2,42.7c-0.3,5.1-1.2,10.3-1,15.4
		c0.1,2.3,1.6,6.1,3.2,6.6c2.4,0.7,5.6-0.5,8.2-1.7c1.6-0.8,2.5-3,3.6-4.6c2.5-3.5,4.6-7.2,7.4-10.4c7.2-8,15.2-15.4,22-23.8
		c7.4-9.1,15.5-17.3,25.1-24c4.9-3.4,9.8-6.8,14.6-10.4c10.6-7.7,21.3-15.3,31.7-23.4c7.7-6,15-12.4,22.1-19.1
		c7.3-6.9,7.8-15.3,4.1-24.3c-7.7-18.9-19.5-35-33.4-49.6c-7.4-7.9-15.3-15.4-22.9-23c-4.7-4.7-9-9.8-15.8-11.8
		c-2.1-0.6-3.9-2.5-5.8-3.8c-12.2-8.4-24.3-17.2-36.8-25.2c-8.3-5.3-17.3-9.6-26-14.1c-7.5-3.9-15.3-7.2-22.9-11
		c-9-4.6-18-9-27.9-11.5c-6.1-1.6-11.7-5.3-17.1-8.8c-5.5-3.6-10.8-7-17.7-7.3c-3.2-0.2-6.6-1-9.5-2.4
		c-17.5-8.8-34.9-17.8-52.4-26.6c-1.4-0.7-3.3-0.3-5-0.3c0.4,1.6,0.4,3.6,1.3,4.7c10.4,12.9,21.2,25.6,31.5,38.6
		c14.7,18.4,30.6,35.8,43.4,55.7c7.3,11.4,15.5,22.4,23.4,33.4c0.9,1.2,2.5,1.9,3.7,2.8c0.8-1.2,1.7-2.3,2.3-3.5
		c0.5-1.2,0.6-2.6,0.8-3.9c1.1-7.2,1-14.8,3.5-21.5c2.5-6.8,7.3-12.9,11.4-19c0.8-1.2,3.5-1,5.3-1.5c0.4,1.8,1.1,3.5,1.2,5.3
		c0.1,1.1-0.8,2.2-0.9,3.3c-0.4,3.4-1.3,6.8-1,10.1c0.6,7.6,1.9,15.2,2.6,22.8c1.1,12,4.6,23.2,12.5,32.5
		c10.8,12.8,21.6,25.6,33,37.8c12.6,13.5,26,26.2,38.7,39.5c4.3,4.5,7,10,6.2,16.7c-0.7,5.4-4,8.1-9,5.9c-4.4-2-8.5-5-12.2-8.2
		c-6.5-5.6-12.1-12.4-18.8-17.6c-14-10.8-27-22.6-38.1-36.4C734.6,508.1,731.7,506.6,729.2,504.8z M546.9,720.7
		c0.3-0.8,0.7-1.6,1-2.4c-2.4-2-4.8-4.1-7.2-6.1c-6.9-5.7-7.3-9.9-0.8-13.5c8.3-4.7,17.5-4.6,26.6-4.6c4.1,0,8.3,0.5,12.4,0.3
		c6.9-0.3,13.8-0.6,20.6-1.4c6.7-0.8,13.4-1.9,20.1-3.1c15.5-2.8,31-5.7,46.4-8.5c4.2-0.8,8.5-1.2,12.7-2.1
		c7.3-1.5,14.5-3.8,21.8-4.6c6.2-0.7,10.9-3.6,14-8.3c1.6-2.5,1.7-6.7,1-9.8c-0.4-1.5-4.2-2.8-6.5-3.1c-5.4-0.6-10.9-0.8-16.4-0.7
		c-22.6,0.4-45.2,0.7-67.8,1.6c-32.1,1.3-63.8,6.3-95.2,12.8c-27,5.6-53.8,11.9-79.6,22.1c-15.6,6.2-31.6,11.3-47.2,17.7
		c-12.1,5-23.8,11-35.6,16.8c-1.5,0.7-2.5,2.2-4.6,4c2.6,0,3.9,0.1,5.1,0c26.5-2,53-4.1,79.5-6.1c4.1-0.3,8.2-1,12.3-1.1
		c9.6-0.1,19.2,0.2,28.8,0.2c12.1,0,24.2-0.1,36.3-0.2C532.1,720.7,539.5,720.7,546.9,720.7z M473.1,937.4c0.5,0.4,0.9,0.8,1.4,1.3
		c1.5-0.2,3.2-0.1,4.6-0.6c6.5-2.5,13-5.1,19.4-7.9c6.9-3,13.5-6.9,20.6-9.4c13.6-4.8,26.2-11.2,37.4-20.4
		c9.2-7.6,18.4-15.4,28.2-22.2c11.5-7.9,19.6-18.8,27.9-29.5c7.6-9.8,14.3-20.3,21.6-30.4c7.2-9.9,14.1-19.9,22-29.2
		c7.2-8.4,15.4-15.8,23.3-23.5c5.2-5,11.5-8.9,16.1-14.4c12.1-14.5,15.1-32.8,19.7-50.5c0.4-1.5,0.2-4.5-0.6-4.8
		c-1.9-0.8-5.1-1.5-6.4-0.5c-3.1,2.5-5.5,5.9-8,9.2c-3.4,4.6-6.1,9.9-10.1,13.9c-12,12-24.3,23.5-36.7,35.1c-3.6,3.4-7.9,6-11.9,9
		c-2.4,1.8-5.1,3.2-7.1,5.3c-11.5,12-22.5,24.5-34.4,36.1c-17.5,17.1-35.5,33.5-53.3,50.3c-9.4,8.9-18.6,18-27.9,27
		c-5.7,5.5-12.5,10.3-17,16.7c-7.3,10.4-14.6,20.5-23.7,29.4C475.7,929.9,474.8,934,473.1,937.4z M892,677.8
		c0.3,0.5,0.6,0.9,0.9,1.4c0.5,0.1,1,0.4,1.4,0.4c17.2-1,34.5-1.6,51.6-3.3c11-1.1,21.9-4,32.8-6.2c17.6-3.6,35.1-7.5,52.6-11.1
		c7.4-1.6,15-2.6,22.4-4.3c10.1-2.3,20.2-4.8,30.1-7.8c4.1-1.3,8.6-3.4,11.3-6.6c6.4-7.7,12.2-16,17.6-24.5
		c6.4-9.9,12.2-20.1,18.1-30.3c1.4-2.5,1.9-5.4,2.9-8.2c-2.7-0.4-5.4-1.4-8-1.2c-12.2,1-24.4,2.4-36.6,3.5
		c-14.2,1.3-28.5,2.2-42.8,3.6c-10.7,1-15.2,9.6-20.5,17.3c-2.1,3-4.9,5.6-7.9,7.6c-4.4,2.9-9.5,4.7-14,7.6
		c-7.5,4.9-14.3,11-22.1,15.3c-14.8,8.1-30.2,15.2-45.3,22.7c-10.3,5.1-20.6,9.9-30.8,15.3C900.9,671.2,896.6,674.7,892,677.8z
		 M877.9,617.5c0.1,0.8,0.1,1.5,0.2,2.3c1.7,0.9,3.5,1.8,5,2.9c1.3,1,2.4,2.3,3.6,3.5c-1.6,1.3-3.3,3.8-4.7,3.7
		c-6.5-0.7-9.7,2.9-12.8,7.6c-1.4,2.1-3.9,3.6-6.2,4.9c-4.9,2.9-10,5.2-14.8,8.2c-10.8,6.5-21.7,12.9-32,20.1
		c-12.3,8.5-7.9,13.3,2.3,18c0.9,0.4,1.9,0.7,2.8,1c9.5,2.2,19,4.6,28.6,6.5c2.9,0.6,6.8,0.9,8.8-0.6c1.3-1,0.1-5.4,0-8.3
		c0-0.2-0.1-0.3-0.2-0.5c-2.1-5.2-1.5-10.2,1.2-14.9c5.6-9.8,14.9-15.5,24.4-20.5c12.4-6.5,25.3-12.3,38-18.1
		c8.3-3.8,16.9-6.9,25.2-10.6c8.4-3.7,16.8-7.2,24.8-11.5c8.2-4.4,15.8-9.8,23.7-14.6c3.3-2,6.7-3.7,10.1-5.5
		c-0.1-0.5-0.1-1-0.2-1.5c-2.5-0.4-5-1.2-7.5-1c-9.3,1-18.5,2.6-27.7,3.4c-7.3,0.6-13.8,2.7-20.3,6.1c-3.7,1.9-8.6,2.4-13,2.3
		c-8.1-0.2-16.6-0.1-23.1,4.6c-5.1,3.6-10.3,4.7-15.9,6C891.5,612.7,884.7,615.3,877.9,617.5z M1055.4,679.2
		c-6.9-2.2-12.1-1.9-17.1,0.3c-14.7,6.3-29.7,11.5-45.9,12.6c-6.1,0.4-12.1,1.9-18,3.1c-10,2.1-20,4.5-30,6.6
		c-3.4,0.7-6.9,0.9-10.4,1.5c-18.5,3.2-37,6.3-55.4,9.6c-5.7,1-11.4,2.2-17,3.9c-1.7,0.5-3,2.6-4.5,4c1.5,1,2.9,2.5,4.5,3
		c16.1,4.7,32.7,5.5,49.2,4.7c15.6-0.7,31.1-2.2,46.6-3.8c17.3-1.8,34-6.3,49.8-13.4c11.1-5,21.6-11.7,31.9-18.3
		C1044.7,689.3,1049.4,684.4,1055.4,679.2z M704.1,779.7c-0.2-0.4-0.3-0.7-0.5-1.1c-2.9,1.6-6.4,2.7-8.8,5
		c-14.4,13.9-25.5,30.6-37.2,46.7c-0.9,1.2-1.6,2.6-1.9,4c-0.3,1.5,0,3.1,0,4.7c1.6-0.3,3.3-0.2,4.6-0.9c10.3-5,20.6-10,30.8-15.2
		c9.6-4.9,19-10.1,28.4-15.4c2.7-1.5,5.2-3.7,7.3-6c3.4-3.7,4.2-8.4,2.6-13.1c-1.4-4.2-5.1-5.9-9.3-6.5
		C714.9,781.1,709.5,780.4,704.1,779.7z M434.4,156.7c-0.8-2.8-1.1-5.3-2.2-7.2c-4.8-8.5-9.2-17.4-14.8-25.3
		c-5.5-7.8-11.4-16-18.9-21.6c-15.1-11.2-31.5-20.8-47.3-31.1c-0.3-0.2-0.9,0.1-1.4,0.1C356.4,85.7,423.6,153.8,434.4,156.7z
		 M741.3,694.1c-0.3,6.2,1.7,8.2,7.8,8.8c5.6,0.6,10.4-0.5,15-3.7c2-1.4,5-1.8,7.5-2c3.4-0.3,6.9,0.3,10.4,0.2c1.4,0,3.3-0.4,4-1.3
		c0.6-0.8-0.1-2.6-0.5-3.9c-0.9-3.3-2.7-6.5-2.9-9.9c-0.6-8.8-3.3-11.1-11.6-8.3c-6.3,2.1-12.4,4.7-18.7,6.7
		C743.5,683.3,741.7,685.2,741.3,694.1z M605.8,721.2c1.1,0.7,1.9,1.8,2.9,1.9c6.7,0.8,13.5,2.1,20.2,2c6.1-0.1,15.3-10.3,15.4-17.3
		C631.5,712.5,617.7,712.5,605.8,721.2z"/>
	<path class="st0" d="M1135.7,1221.6c-1.2,6.7-2.9,14.3-4,22c-1.8,11.6-3.2,23.3-4.8,34.9c0,0.3-0.1,0.7-0.1,1
		c2.6,19.8-2.8,39.5,1.2,59.6c3.5,17.5,2.1,35.7-2.4,53.4c-1.3,5-0.3,10.6-1,15.9c-1.7,14.5-3.3,29.1-5.9,43.4
		c-1.8,10.4-5.2,20.5-7.5,30.8c-2.2,9.7-2.9,19.7-5.9,29.1c-2.9,8.9-5.1,17.8-6,27.1c-0.5,4.5-3,8.8-4,13.3c-1.4,6-2.9,12-3.1,18.1
		c-0.4,13.1,0.2,26.3-2.9,39.3c-1,4.1-0.6,8.7,0,12.9c1,6.9,1.5,13.5-5.1,17.9c-5.4,3.7-10.8,8.1-16.8,10
		c-9.3,2.9-15.5-2.7-15.7-12.6c-0.1-5.6-0.4-11.2,0.4-16.7c0.7-5.2,2.7-10.2,3.8-15.4c1.2-5.6,2.3-11.3,3.1-17
		c1.9-13.3,3.2-26.7,5.5-39.9c1-5.9,4.5-11.3,6.1-17.2c3.1-11.3,5.7-22.8,8.5-34.3c1.7-7.2,3.6-14.5,5-21.8c1.1-6,1.6-12.1,2.4-18.1
		c0.2-1.7,0.1-3.4,0.5-5c5.1-18.9,6.4-38.3,8-57.6c1.1-12.7,2.5-25.5,2.4-38.3c0-13.6-1.9-27.1-2.4-40.7c-0.3-8.9,0.4-17.9,0.7-26.8
		c0.4-10.1,0.5-20.3,1.3-30.3c0.8-10.3,1.4-20.7,3.7-30.6c2.5-11.1,7.7-16.8,21.2-15.9c0.8,0.1,1.7-0.1,2.4-0.4
		C1131.1,1209.6,1135.9,1213.4,1135.7,1221.6z"/>
	<path class="st0" d="M822.5,1630.3c-19-1.8-36.6-7.4-46.8-25.7c-2.9-5.2-5.2-11.7-2-18.1c2.3-4.5,6.9-5,10.6-1.5
		c3.5,3.3,6.9,6.8,10.5,9.9c6.3,5.4,13.8,7.9,22.1,7.3c15.1-0.9,30.2-1.7,45.3-2.9c5.2-0.4,10.4-2,15.6-3.3c5-1.3,7.6,1.4,9.5,5.1
		c1.9,3.5,1.1,6.9-2.4,9.1c-2.9,1.8-6.1,3.4-9.2,4.8c-3.3,1.5-7.2,2.2-9.9,4.4c-6.7,5.5-14.4,7.3-22.6,8.3
		C836.6,1628.6,829.8,1629.4,822.5,1630.3z"/>
</g>
</svg>
