<?xml version="1.0" encoding="utf-8"?>
<!-- Generator: Adobe Illustrator 27.5.0, SVG Export Plug-In . SVG Version: 6.00 Build 0)  -->
<svg version="1.1" xmlns="http://www.w3.org/2000/svg" xmlns:xlink="http://www.w3.org/1999/xlink" x="0px" y="0px"
	 viewBox="0 0 1259.5 2694.4" style="enable-background:new 0 0 1259.5 2694.4;" xml:space="preserve">
<style type="text/css">
	.st0{display:none;}
	.st1{fill:#FD1D86;}
</style>
<g id="palm_x5F_tree_x5F_large_xA0_Image_00000161616310135956341330000016299068879378364057_" class="st0">
	
		<image style="display:inline;overflow:visible;" width="1292" height="2772" id="palm_x5F_tree_x5F_large_xA0_Image" xlink:href="49EF4A7415BA44A1.png"  transform="matrix(1 0 0 1 -20.0239 -50.6551)">
	</image>
</g>
<g id="Layer_2">
	<g>
		<path class="st1" d="M570.8,371.9c0-10-0.7-20,0.3-29.9c0.6-6,3.7-11.7,6.1-17.4c0.5-1.1,2.9-1.5,4.4-2.2c0.4,1.8,1.7,3.9,1.2,5.3
			c-2.4,6.2-4.2,12.4-4,19.2c0.2,10.9-0.9,22.1,0.8,32.8c1.7,11.1,6.1,21.4,15.4,29.4c4.2,3.6,5,0.1,8.9-1.9
			c-3.1,8.8-3.1,16.2,3.4,23.2c-0.5-3.5-0.8-6.3-1.4-8.9c-2.5-10.2,0-19.9,2.1-29.8c0.9-4,0.7-8.3,2-12c1.2-3.3,3.7-6.1,6-8.8
			c0.6-0.8,2.4-0.7,3.6-1c0.3,0.4,0.6,0.7,0.9,1.1c5.4-12,10.8-24,16.2-35.9c-0.4-0.3-0.8-0.6-1.2-0.9c-1.5,1.1-3,2.1-4.2,3
			c-12.5-6.8-14.9-20.1-20.2-31.3c-4.7-9.9-8.5-20.2-13.2-31.4c3.9,15.5,8.1,30,4.2,46.5c-1.3-1.4-2.8-2.4-3.1-3.6
			c-3.6-16.8-7.1-33.6-11.1-50.3c-3.3,5.1-3.3,12.3-1.1,18.3c1.4,3.8,1.9,8,3.7,11.6c4.5,8.6,3.7,18.5,7.1,27.3
			c0.5,1.3,0.2,3,0.4,4.4c0.7,5,1.1,10.1,2.2,15.1c1.1,5.1,3.3,5.6,7.4,2.2c0.7-0.6,1.7-0.7,3.2-1.2c-0.6,2.3-0.5,4.4-1.5,5.5
			c-2.1,2.3-4.5,5.3-7.2,5.7c-2,0.4-5.6-2.2-6.9-4.3c-2.1-3.6-3.6-7.8-4.2-11.9c-1.7-10.5-2.4-21.2-4.4-31.7c-1.3-7-5-13.7-6.1-20.7
			c-1.2-7.9-0.6-16-0.9-24.1c-0.4-8-0.8-16.1-1.5-24.1c-0.6-7.9-1.7-15.7-2.2-23.5c-0.1-1.6,0.8-3.9,2-4.8
			c6.2-4.6,4.3-10.8,3.7-16.8c-0.3-2.9-0.6-5.9-0.9-8.8c-0.2-3.3,1.7-5.6,4.6-4.9c2.2,0.5,5.6,3.5,5.4,5c-2.1,15.6,5,29.2,9.6,43.2
			c3.9,12,9.1,23.6,13.7,35.3c1.4,3.6,2.9,7.3,3.8,11c0.3,1.3-0.9,2.9-1.4,4.4c-1.3-0.8-3-1.4-3.7-2.6c-2.7-4.6-5.1-9.5-7.7-14.2
			c-0.5,0.1-0.9,0.3-1.4,0.4c2.2,7.3,4,14.7,6.6,21.9c3.4,9.2,7.2,18.3,11.2,27.3c2.3,5.2,5.3,10.1,8.2,15.1c0.2,0.4,2.5,0.4,3-0.2
			c5.1-6.2,10.9-12.1,14.9-19c7-11.8,12.8-24.3,19.1-36.5c-0.7-0.5-1.4-1-2-1.6c-3.4,3.9-6.8,7.8-10.2,11.6c-5.4-3.2-5.1-5-3.6-10.1
			c1.6-5.7,2.1-12.1,1.5-18c-0.8-8.6-2.4-17.3-4.8-25.6c-2.5-8.8-5.8-17.4-9.4-25.9c-7.2-16.8-14.8-33.4-22.2-50.1
			c-2.3-5.1-4.7-10-7.5-15.8c-0.8,1.6-1.5,2.4-1.5,3.2c-0.8,11.2,0.5,22,4.7,32.6c5.5,14.1,10.7,28.3,14.8,42.8
			c3.4,12.3,4.9,25.2,7.5,37.7c1.1,5.5,3,10.9,4.2,16.5c1.7,7.7,3.5,15.5,4.6,23.4c0.7,5.1,0.1,10.4,0.1,15.9
			c-1.6,0.1-3,0.3-4.8,0.4c-0.5-2.3-1.4-4.3-1.3-6.3c0.7-17.3-5.9-32.8-10.9-48.8c-2.5-7.9-3.3-16.4-5.2-24.5
			c-1.9-8.3-3.5-16.7-6.1-24.8c-4.6-14.4-10.6-28.3-14.4-42.9c-2-7.7-1-16.4-0.5-24.6c0.3-5.1,1-5,6.7-4.4c-1.6-5.9-3.4-11.4-4.7-17
			c-1.8-7.5-3.5-15-4.9-22.5c-0.4-2.2-1-6.2,2.3-5.7c2.6,0.4,6.6,4.1,6.5,6.2c-0.5,18,7.7,33.2,14.7,48.8
			c3.9,8.7,7.8,17.3,12.2,25.8c-3.8-19.5-7.6-39.1-11.5-59.1c4.5-0.3,7.2,0.8,8,4.6c2.2,10.2,4.1,20.6,6.6,30.8
			c4,16.1,9.3,31.9,17.3,46.5c4.4,8,10.1,15.2,15.6,22.6c1.3,1.8,3.9,2.5,6,3.8c3.4-5,1.8-9.2,0.4-13.4c-3.9-11.8-8.5-23.5-12-35.4
			c-2.5-8.5-3.6-17.3-5.1-26c-2.5-14.1-5-28.1-7.2-42.3c-1-6-1.2-12.1-1.8-18.2c-1-9.8-2.3-19.7-2.7-29.5
			c-0.2-5.3,0.6-10.9,2.1-16.1c1.2-4,5.4-4.8,9.9-4.7c-1.5,3.7-3.5,6.9-3.8,10.2c-0.6,5.5-0.5,11.1-0.1,16.7
			c0.6,8.4,1.3,16.7,2.6,25c1.4,8.9,3.1,17.9,5.6,26.6c3.4,11.6,7.8,23,11.7,34.5c0.6,1.7,0.7,3.5,1.1,5.2c0.3,1.4,0.5,2.9,0.8,4.3
			c0.5,0,1,0,1.5,0c0.5-3.3,1.4-6.6,1.4-9.9c-0.1-11.1-0.6-22.2-0.9-33.4c-0.4-13.8-0.8-27.7-0.9-41.6c0-5.2,1.1-10.5,1.5-15.7
			c0.2-2.8,0-5.6-0.2-8.4c-0.5-9.2-1.2-18.4-1.4-27.6c-0.1-2.3,1.4-4.6,2.2-7.1c4.5,1.5,4.8,4.9,5.1,8.2c0.7,9.1,1.6,18.1,1.9,27.2
			c0.2,4.4-0.7,8.9-1.2,13.9c1.8-0.4,3.2-0.7,5.6-1.3c0.6,3.3,1.6,6.5,1.6,9.8c0.1,9.8-1.2,19.6,2,29.3c5,15.2,9.1,30.7,13.6,46.1
			c0.1,0.4,0.6,0.8,1.5,2c0.6-3.4,1.3-6.1,1.4-8.9c0.2-6.4,0.2-12.8,0.1-19.3c0-2.3-0.4-4.6-1-6.8c-3-11.1-4.6-22.3-3.8-33.8
			c0.7-10.6,1.4-21.2,4.2-31.6c1.2-4.7,1.5-9.8,1.8-14.7c0.5-8.1,0.7-16.2,1.1-24.4c0.2-4.3,2.9-5.9,7.6-5.9
			c-0.8,11.6-1.4,23-2.3,34.3c-0.6,8.2-1.5,16.4-2,24.7c-0.5,9.2-0.7,18.4-1.1,27.6c-0.4,10.2,2.6,19.8,5.5,29.4
			c1.1,3.6,2.3,7.2,3.6,10.7c0.6,1.7,1.7,3.2,3.1,5.7c1.2-2.5,1.8-3.8,2.5-5.2c2.6,2.5,3.2,6.4,1,8.7c-5.8,5.8-9-0.6-13.1-3.8
			c0,7.6,0.1,14.5,0,21.4c-0.1,6.1-0.4,12.2-0.8,18.3c-0.1,0.9-1.6,1.8-2.4,2.6c-0.8-1-1.8-2-2.5-3.1c-0.5-1-0.2-2.4-0.9-3.2
			c-6.9-8.8-9.5-19.5-13.1-29.6c-4.4-12.4-8.1-25-12.7-37.6c0,6.2,0.1,12.4,0,18.5c-0.1,11.2-0.3,22.4-0.4,33.6c0,3.9,0,7.9,0,11.8
			c0,3.2-0.4,6.5,0.1,9.7c0.7,4.8,2.2,9.5,3.1,14.3c0.3,1.4-0.2,3.2-0.9,4.5c-0.7,1.4-2.7,2.5-2.8,3.9c-0.3,4.6-0.1,9.2-0.1,14.8
			c7.3-6,13.3-11,19.3-15.8c6.9-5.5,10.8-13.2,15.3-20.6c5.6-9.3,11.7-18.3,17.6-27.4c3.4-5.2,6.8-10.4,10.4-15.8
			c-6,0.7-9-2.6-11-7.7c-3.1-8.1-7.4-15.8-9.5-24.1c-1.7-6.6-1.5-13.8-1.3-20.7c0.2-9.4,1.6-18.8,1.7-28.2
			c0.1-7.7,4.1-13.8,6.9-20.3c0.3-0.7,1.8-0.9,3.8-1.8c-0.5,4.6-0.9,8.1-1.3,11.7c-0.7,5.2-1.7,10.4-2,15.7
			c-0.6,9.9-1.4,19.9-0.9,29.8c0.7,13.9,5.1,26.9,11.8,40.3c1.8-3.2,3.1-5.7,4.9-9.1c0.8,2.4,1.2,3.6,2.2,6.5
			c1.3-2.6,2.8-4.2,2.8-5.7c-0.1-2-1.3-4-2.2-6c-4.1-9.2-7.7-18.8-7.7-28.8c0.1-11.2,1.5-22.4,2.9-33.5c0.6-4.6,5.1-6.5,12.5-6.3
			c1.2-3.9,2.5-7.9,3.7-11.9c3.6-0.2,5,0.3,4.3,4.5c-1.9,11.3-3.5,22.6-4.1,34c-0.3,6.3,1.6,12.7,2.6,19c0.6,3.8,1.4,7.5,2.1,11.2
			c5.9-6.7,11.6-12.8,16.7-19.5c1.9-2.4,2.9-6,3-9.1c0.1-9.5,4-17.5,8.3-25.5c0.5-0.9,1.9-1.4,2.8-2.1c0.6,0.3,1.2,0.5,1.9,0.8
			c-1.2,6-2.5,12-3.9,18.7c5-7.6,9.7-14.6,14.2-21.8c4.2-6.7,7.9-13.7,12.5-20.2c3.1-4.4,4.2-8.8,2.8-13.9c4.7-0.3,6.6,3.8,3.9,9.3
			c-4,8.3-8.1,16.6-12.7,24.6c-6.8,11.5-14.2,22.6-21,34.2c-1.6,2.8-1.8,6.5-2.4,9.9c-0.8,4.5-1.1,9.2-2.1,13.6
			c-0.4,1.6-2.1,3.3-3.7,4c-2.8,1.2-4.5,0.2-3.5-3.3c0.7-2.6,1.3-5.3,1-8.2c-22.6,27.4-43.2,56-62,85.8c0.3,0.3,0.6,0.6,0.9,1
			c4.3-3.4,8.4-7,12.8-10.2c10.9-8.2,21.9-16.3,32.9-24.5c7.3-5.4,14.3-11.3,21.9-16.1c13.3-8.5,26.9-16.5,40.5-24.5
			c9.2-5.5,18.5-10.9,28-15.8c7-3.6,14.6-5.6,22.5-4.7c0.3,0.5,0.6,1.1,0.9,1.6c-1.4,1.1-2.7,2.6-4.3,3.3
			c-7.2,3.2-14.5,6.2-22.1,9.4c4.3,3.2,4.2,4,0.3,6.3c-13.3,7.9-26.6,15.7-39.8,23.8c-10.6,6.6-21.2,13.4-31.3,20.7
			c-8.3,6-15.8,13-23.9,19.2c-6,4.6-12.6,8.4-18.8,12.7c-11.7,8.1-23.9,15.5-34.6,24.7c-5.5,4.7-8.1,12.7-12,19.2
			c-2.1,3.6-4.2,7.1-7.1,12c3.4-1.8,5.8-2.6,7.7-4.1c9.9-8,19.5-16.4,29.5-24.3c8.2-6.5,16.9-12.5,25.3-18.8c6.6-5,13-10,19.5-15.1
			c8.8-6.9,17.6-14,26.5-20.8c5.2-4,10.4-8.1,16-11.5c4.6-2.8,9.6-4.9,14.7-6.8c1.7-0.6,4.1,0.6,6.2,1c-1.1,1.8-1.8,4.3-3.3,5.2
			c-6.2,3.7-13.1,6.4-19,10.5c-10.7,7.4-20.9,15.5-31.4,23.3c-15.7,11.8-31.4,23.5-47,35.4c-11,8.4-21.6,17.4-32.6,25.9
			c-5.2,4-11,7.2-16.1,11.4c-2.3,1.9-6.6,3.8-4.2,8.5c0.1,0.2-0.7,1-1.2,1.5c-7.6,8.2-10.6,18.8-14.8,28.8c-0.4,1-0.3,2.2-0.5,4.6
			c2.1-2.5,3.5-4,4.8-5.6c3.1-3.7,5.8-7.3,11.2-9c4-1.2,7-6.1,10.4-9.4c8.7-8.6,17.2-17.5,26-25.9c12.5-11.8,25.1-23.5,38-34.9
			c4.1-3.7,9.1-6.6,13.7-9.6c1.3-0.8,3.1-1.4,4.6-1.3c1.1,0,2.5,1,3.1,1.9c0.3,0.6-0.4,2.3-1.2,2.9c-5.7,4.4-11.9,8.4-17.4,13.1
			c-8.7,7.3-17.1,15-25.3,22.7c-12.9,12.1-25.4,24.4-38.3,36.5c-8.3,7.8-16.8,15.3-25.2,23c-2.6,2.3-5.3,4.5-7.9,6.9
			c-9.4,8.4-14.6,19.3-18.9,30.8c-3.4,9.2-7.4,18.3-11.2,27.3c-3.7,8.8-7.6,17.4-11,26.3c-1.1,3-0.9,6.5-1.2,9.8
			c-0.4,4.8-1,9.5-1.1,14.3c0,2.2,0.9,4.4,1.6,7.1c2.4-1.3,4.2-2.2,6.4-3.4c-2.7-4.6-0.2-7.4,2.5-10.9c4.5-5.7,7.8-12.2,11.6-18.3
			c0.8-1.2,1.5-2.6,2.6-3.5c8.7-7.3,14-17,19.5-26.6c0.6-1,1.2-1.9,1.9-2.8c7.2-9.2,14.6-18.3,21.5-27.7c8.1-11,15.8-22.3,23.3-34.2
			c-1.3,0.8-2.8,1.3-3.8,2.3c-9.6,10-19.1,20.2-28.7,30.2c-3.9,4.1-8.3,7.7-12.3,11.7c-3.5,3.5-7,7.1-9.9,11.1
			c-1.7,2.3-3.5,3.8-5.4,2c-1-1-0.9-4.5,0-6c3.3-5.5,7.1-10.7,11-15.8c5.4-7,11-14,16.7-20.7c7-8.2,15.4-14.7,25-19.8
			c2.8-1.5,4.8-4.4,7.2-6.6c12.8-12,25.6-23.9,38.4-35.9c1.2-1.1,1.9-2.8,3.2-3.7c1.2-0.9,2.8-1.1,4.2-1.7c0.3,1.6,1.1,3.4,0.6,4.8
			c-0.5,1.6-1.9,3.1-3.2,4.3c-9.1,8.2-18.4,16.2-27.3,24.6c-3.8,3.6-6.9,8-10.2,12.1c-0.5,0.6-0.4,2.6,0.2,3
			c3.2,2.3,1.7,4.6,0.2,6.8c-3.6,5.3-7.4,10.5-10.9,15.8c-6.2,9.3-12.1,18.8-18.6,28c-5.5,7.8-11.6,15.2-17.5,22.8
			c-0.2,0.3-0.6,0.4-0.7,0.7c-5.7,13.3-16.8,22.7-25,34.2c-1.2,1.7-1.6,3.8-2.4,5.8c0.3,0.3,0.6,0.6,0.9,0.9
			c5.8-4.4,11.3-9.1,17.4-13.1c10.8-7,19.8-15.9,29-24.8c3.6-3.4,7.3-6.7,11.3-9.7c13.6-10.4,26.8-21.5,41.1-30.9
			c21.6-14.1,44.1-26.8,66.1-40.4c14.6-9.1,30.3-15.6,46.7-20.7c1.9-0.6,4.2,0,6.4,0.8c-53,22.6-100.5,53.6-145.5,88.5
			c59.4-27.3,116.4-59.9,178.6-81c0.4-0.1,1.1,0.6,2.3,1.4c-70.9,34.7-142.9,65.9-210.6,105.5c0.3,0.6,0.5,1.2,0.8,1.8
			c3.3-1.1,6.5-2.1,9.8-3.2c21.5-7,41.9-16.6,62-26.7c5.6-2.8,11-6.1,16.7-8.6c20.6-9.1,41.3-17.9,62-26.8
			c5.9-2.5,11.7-5.2,17.6-7.5c7-2.8,14.1-5.3,21.1-8c11.2-4.3,22.2-9,33.5-12.7c11.8-3.9,23.9-7,35.9-10.1c1.3-0.3,3.2,1.4,4.9,2.2
			c-1,1.4-2,2.9-3.1,4.3c-0.3,0.3-0.9,0.4-1.4,0.5c-21.8,2.2-41.2,11.5-61,19.7c-8.6,3.6-17.8,6-26.4,9.7
			c-17.4,7.5-34.4,15.6-51.7,23.2c-8.5,3.8-17.5,6.7-26,10.6c-8.2,3.7-16,8.1-24,12.2c0.2,0.5,0.3,1,0.5,1.5c2.4-0.3,4.8-0.4,7.1-1
			c12.1-3.5,24.3-6.7,36.1-11c6.3-2.3,11.6-7,17.6-9.9c7.5-3.6,15.3-6.8,23.2-9.7c11.1-4.1,22.2-8.1,33.4-11.7
			c12-3.9,23.9-8,36.2-10.9c20.3-4.8,40.8-8.9,61.3-12.6c8-1.5,16.4-1.2,24.5-1.6c1.4-0.1,3.2,0.1,4.3,0.9c1.6,1.2,3.6,2.8,3.9,4.5
			c0.2,1.2-2.1,3.2-3.7,4c-1.8,0.9-4,1-6,1.4c-0.4-0.5-0.9-1.1-1.3-1.6c1.6-0.8,3.3-1.5,5.7-2.7c-32.5-5-169.9,36.5-189.8,54.4
			c9.9-1.4,20.1-1.8,29.7-4.4c12.9-3.6,25.2-9.6,38.1-13.3c14-4,28.4-6.5,42.7-9.7c8.8-2,17.5-4.5,26.4-6.1
			c9.2-1.7,18.6-2.7,27.9-3.8c13.6-1.7,27.2-3.6,40.8-4.7c13.4-1.2,26.8-1.7,40.2-2.2c2.5-0.1,6.2,0.5,5.5,4
			c-0.3,1.7-3.7,3.9-5.6,3.9c-4.8,0-9.7-2-14.4-1.6c-12.9,1-25.8,2.8-38.7,4.4c-10.9,1.4-21.8,2.8-32.7,4.5
			c-11.4,1.7-22.7,3.7-34,5.6c-7.4,1.3-14.9,2.4-22.2,4.3c-18.7,4.9-37.3,10.1-55.8,15.3c-1.3,0.4-2.3,1.4-3.3,3.4
			c11.4,0,22.9,0.7,34.2-0.2c8.9-0.8,17.7-3.6,26.5-5.5c19.7-4.4,39.4-9,59.1-13c6.1-1.2,12.5-0.9,18.8-1.1c10-0.4,19.9-0.8,29.9-1
			c21.7-0.4,43.4-0.8,65.1-1c13.1-0.1,26.3,0,39.4,0c3.4,0,4.9,1.6,5,4.8c0.1,3.4-2.3,3.5-4.8,3.5c-6.9,0-13.8,0-20.6,0
			c0-0.1,0.2-0.8,0.5-1.6c-0.5-0.1-1-0.3-1.4-0.3c-20.5,0.3-40.9,0.6-61.4,1c-11.4,0.2-22.7,0.4-34.1,1c-15.2,0.8-30.5,1.1-45.5,3.3
			c-13.5,2-26.7,6.2-40.1,9.4c-1.7,0.4-3.4,0.5-5.3,1.5c1.1,0.3,2.3,0.8,3.4,1c14.2,1.9,28.4,4.7,42.6,5.2
			c10.4,0.3,20.9-2.4,31.3-3.9c12.9-1.8,25.7-4.4,38.6-5.5c16-1.4,32.1-1.7,48.2-2.2c22.1-0.8,44.2-1.4,66.4-1.9
			c7.6-0.2,8.7,1.1,7.8,8.8c-9,0.9-18.2,1.8-27.5,2.7c-0.1-0.6-0.2-1.2-0.4-1.9c1.9-0.5,3.7-1,5.6-1.5c0-0.2,0-0.3-0.1-0.5
			c-4.1,0.2-8.1,0.5-12.2,0.6c-17.9,0.7-35.8,1.4-53.7,2c-8.6,0.3-17.1-0.1-25.7,0.5c-8.3,0.6-16.6,2-24.9,3
			c-3.9,0.5-7.9,0.4-11.8,1.1c-5.4,1-10.7,2.5-16.1,4.5c3.3,0.5,6.6,1.2,9.9,1.6c11.4,1.7,22.8,3.7,34.2,4.7
			c7.4,0.7,15,0.4,22.4-0.1c12.8-0.9,25.6-2.9,38.4-3.5c14.4-0.6,28.8-0.7,43.2,0c16.4,0.9,33.1,0.7,49.1,5.5
			c1.2,0.4,2.6,0.2,3.9,0.4c6.9,0.9,8.3,2.7,7.5,10c-3.2-0.2-7.4,3.4-8.8-3c-0.1-0.5-2.4-0.6-3.6-0.7c-12.3-1.3-24.6-2.8-36.9-3.6
			c-13.1-0.9-26.2-1.5-39.3-1.4c-13.6,0.1-27.1,1.2-40.7,2.1c-2.2,0.1-4.4,1.2-8,2.3c3.5,1.1,5.5,2.3,7.6,2.3
			c6.9-0.1,12.2,3.2,17.4,7.1c5.7,4.2,11.2,8.6,18.7,9.3c2.2,0.2,4.2,2.7,6.3,4.2c-4,5.2-7.7,6.3-12.3,3.4
			c-6.8-4.2-13.2-9.1-20.2-13c-4.2-2.3-9.2-3.2-13.9-4.7c-1.6-0.5-3.3-0.6-4.7-1.3c-13.3-7.4-27.2-7.3-41.6-3.9
			c-5.2,1.2-10.7,1.2-16.4,2.6c3.5,1.4,7,2.8,10.6,4.1c6.3,2.3,12.6,4.6,19,6.7c3.7,1.2,7.7,1.7,11.4,2.8c12.2,3.6,24.4,7.7,36.7,11
			c8.2,2.2,16.8,3.1,25,5.2c14.4,3.7,28.5,8.3,43,11.7c11,2.6,22.3,3.8,33.5,5.7c4.5,0.8,9,1.9,13.4,3.2c1.2,0.3,2,1.8,3.1,2.7
			c-1.3,0.8-2.6,2.3-3.8,2.2c-7.7-0.9-15.3-2.1-23-3.2c-2.1-0.3-4.2-0.6-6.5-0.9c-0.3,1.8-0.6,3.2-1.1,5.8
			c-7.8-1.4-15.8-2.4-23.5-4.2c-21.3-4.9-42.3-11-63.7-14.9c-15.9-2.9-31-7.8-46.4-12.2c-13-3.7-26.8-4.8-40.1-7.5
			c-4.6-0.9-8.9-3.3-13.4-4.8c-12.1-4-24.4-7.5-36.4-12.1c-6.7-2.5-13-6.3-19.1-10.2c-1.7-1.1-1.9-4.6-2.9-7c0.4-0.3,0.9-0.7,1.3-1
			c10.9,4.7,21.7,9.7,32.8,13.9c11.2,4.2,22.6,7.8,34.1,11c11.6,3.2,23.5,5.5,35.6,7.5c-13.2-8.1-29.7-9.3-42.1-20.1
			c6.5-6.4,11.7,0.3,17.3,1.4c-0.6-6.9-0.4-7.1,6.9-5.8c1.8,0.3,3.6,0,5.7-0.6c-1.8-0.6-3.6-1.5-5.5-1.7c-9.3-1.2-18.6-2.1-27.9-3.2
			c-6.5-0.8-12.9-2.1-19.4-2.9c-2.1-0.2-4.2,0.5-6.3,0.7c-3.2,0.3-6.4,1-7.8-3.3c-0.2-0.7-1.6-1.4-2.6-1.5
			c-8.2-1.1-16.3-2.4-24.5-2.9c-8.8-0.5-17.7-0.5-26.5,0c-5.2,0.3-10.2,1.9-15.4,2.9c-1.3,0.2-3.7,0.7-3.9,0.2
			c-2.9-5.5-8.3-3.4-12.4-4c-7-0.9-14.3-0.6-21.5-0.3c-5.5,0.2-10.9,1.3-16.8,2c-0.3-3.1-2.7-2.9-6.1-2.3
			c-8.4,1.4-17.1,1.6-25.4,3.5c-4.7,1.1-9,4.3-13.3,6.9c-2.7,1.7-5,4.4-8.7,1.4c1.6-1.7,2.9-3.3,5.4-6c-7,1.4-12.6,2.4-18.1,3.7
			c-10.5,2.5-21.1,4.7-31.4,8c-6.1,2-11.8,5.7-17.4,9c-4.5,2.6-8.7,5.8-13,8.7c-2.2,1.5-4.4,3.1-6.6,4.6c-0.5-0.6-1-1.1-1.5-1.7
			c4-4,8-8.1,12-12.1c-0.3-0.5-0.6-0.9-0.9-1.4c-11.8,6-23.5,12.5-35.6,18c-13,6-18.4,18.9-26.9,29c-0.4-0.3-0.8-0.5-1.2-0.8
			c0.8-2.4,1.5-4.8,2.3-7.2c-7,0.9-13.2,8.2-12.6,15.6c10-1.6,20-3.1,30-4.7c5.5-0.9,11-2.3,16.5-2.6c20-1.1,40.1-2.2,60.1-2.4
			c8.6-0.1,17.2,2,25.7,3.4c11.2,1.8,22.4,3.4,33.4,6.1c14.1,3.6,28,8.2,41.9,12.4c10.7,3.2,21.5,6,32,9.6
			c8.1,2.8,15.7,6.6,23.7,9.8c2.6,1,5.4,1.9,8.1,2c9.6,0.5,19.3,0.7,28.9,1.1c13.6,0.6,27.2,1.3,40.8,2.1c1.3,0.1,2.7,0.4,3.7,1.2
			c0.9,0.7,1.7,2.3,1.4,3.2c-0.3,0.9-2.1,1.8-3.1,1.7c-35.1-4-70.4-2.6-105.6-2.8c-10.4-0.1-20.8,0.7-31.2,0.9
			c-18.2,0.4-36.3,0.7-54.5,1.1c-0.6,0-1.2,0.2-2,1.2c2.4,0.5,4.8,1.3,7.2,1.4c20.1,0.3,39.6,4.4,59,9.3c1.3,0.3,2.6,0.7,3.8,0.8
			c14.6,0.4,29.3,0.3,43.8,1.1c15.7,0.9,31.4,2.3,47,3.8c16.3,1.5,32.5,3.3,48.7,5.1c11.6,1.4,23.2,3.1,34.8,4.7
			c6.7,1,13.3,2.1,20,3.2c3.1,0.5,6.3,1.2,6.2,6.9c-3.8-0.9-7.3-1.7-10.7-2.5c-3.4-0.7-6.7-1.8-10.1-2.1c-12-1.2-24-1.9-36-3.2
			c-12.1-1.3-24.2-3.1-36.3-4.6c-6.9-0.8-13.8-1.9-20.7-2.3c-15.9-0.9-31.8-1.4-47.7-2.1c-0.8,0-1.5,0.1-2.4,0.7
			c10,2.1,17.9,9.4,28.9,9.3c10.3-0.1,20.6,2.3,30.8,3.8c16.4,2.5,32.8,5.1,49.2,7.9c13.1,2.2,26.2,4.6,39.3,6.9
			c13.3,2.3,26.6,4.6,39.9,7c10.7,2,21.3,3.9,31.9,6.3c3.3,0.8,6.2,3.2,9.6,5.1c-5.8,4.9-6.3,4.3-11.7,0.8
			c-3.5-2.3-8.3-3.2-12.6-3.8c-13.7-1.9-27.5-3.2-41.1-5.3c-7.4-1.1-14.6-3.8-22-5.2c-12.1-2.2-24.3-3.8-36.5-5.7
			c-9.4-1.5-18.8-3.1-28.1-4.6c-11.2-1.8-22.3-4.2-33.6-5.2c-19.6-1.8-39.3-2.8-58.9-4.2c-5.8-0.4-11.6-0.8-17.3-1
			c-13.1-0.4-26.3-0.6-39.4-1.1c-4.6-0.2-9.2-0.9-14-0.4c4.8,1.4,9.7,2.8,14.5,4.2c10.1,2.8,20.1,5.6,30.2,8.4c3.6,1,7.3,2.2,11,2.5
			c8.6,0.6,17.2,1.1,25.9,1.1c9.1,0,18.3-1.1,27.4-0.7c16.6,0.8,33.2,2.3,49.8,3.7c13.6,1.2,27.3,2.4,40.9,4.1
			c14.7,1.8,29.4,4.1,44,6.3c9.1,1.4,18.2,2.8,27.2,4.5c20.8,3.9,41.5,8,62.2,12.1c9,1.8,18,3.9,26.9,6.2c2.1,0.5,4.2,2,5.9,3.5
			c0.9,0.8,1,2.7,1.4,4.1c-1.8,0.4-5.1,1.5-5.3,1.1c-2.9-5.8-8.7-4.8-13.4-5.8c-13.8-3.1-27.6-6-41.5-8.6
			c-12.1-2.3-24.4-4.1-36.5-6.1c-19.6-3.3-39.1-7.2-58.8-9.8c-19.8-2.7-39.7-4.3-59.6-6.1c-14.2-1.3-28.3-2.3-42.5-3
			c-9.4-0.4-18.8-0.1-28.4,0.5c6,2,11.8,4.4,17.9,6c9.7,2.5,19.5,4.7,29.3,6.5c9.1,1.6,18.2,2.9,27.4,3.6
			c18.8,1.6,37.6,2.6,56.5,4.1c9.4,0.7,18.7,1.8,28,3.1c6.8,1,13.5,2.6,20.3,3.9c13.3,2.4,26.6,4.5,39.8,7.1
			c10.1,2,20.2,4.4,30.2,6.9c14.7,3.6,29.3,7.3,43.9,11.1c6,1.6,12.1,3.1,18,5.2c1.7,0.6,2.8,2.8,4.2,4.3c-1.8,0.9-3.5,2.7-5.3,2.7
			c-6.2-0.2-12.4-0.9-19.7-1.6c1.6-1.8,2.3-2.5,4-4.4c-8.1-2-15.4-4.1-22.8-5.7c-7.2-1.6-14.8-2.1-21.6-4.6
			c-16.4-6-33.5-8.2-50.6-10.6c-12.3-1.8-24.5-4.9-36.8-6.8c-13.5-2.1-27-3.7-40.6-5c-13.5-1.3-27.1-2.1-40.6-3
			c-2.5-0.2-4.9,0-7.7,0.9c4,1.5,8,3,12.1,4.4c17.2,6.3,34.2,13.4,51.8,18.5c11.4,3.4,23.6,4,35.5,5.8c7.9,1.3,15.9,2.6,23.8,3.9
			c12.8,2,25.6,4.1,38.4,6.1c20.4,3,40.7,6,61.1,8.9c4.7,0.7,9.5,0.9,14.3,1.2c7.1,0.4,14.2,0.8,21.4,1c3,0.1,4.1,1.8,3.3,4.2
			c-0.4,1.2-2.4,2.8-3.6,2.8c-8.2-0.3-16.3-0.7-24.4-1.7c-11.6-1.5-23.1-3.6-34.6-5.2c-7.8-1.1-15.7-1.7-23.6-2.7
			c-14.2-1.8-28.4-3.4-42.6-5.5c-12.8-1.9-25.6-4.3-38.4-6.4c-1.1-0.2-2.2,0-3.6,0.9c1.2,0.6,2.3,1.3,3.5,1.8
			c12.3,5.7,24.6,11.5,37,17.1c3.2,1.5,6.8,2.1,10.2,3.1c6.1,1.8,12.2,3.9,18.4,5.2c7.4,1.5,14.9,2.6,22.3,3.4
			c19.4,2.1,38.8,3.7,58.1,6c13.5,1.6,27,4,40.5,6.1c2.2,0.4,4.5,1,6.5,2.1c1.3,0.7,3,2.6,2.7,3.4c-0.4,1.4-2.2,3.3-3.5,3.4
			c-3.1,0.2-6.2-0.3-9.3-0.9c-16.4-3.2-32.7-6.9-49.2-9.6c-9.6-1.6-19.4-1.6-29.2-2.2c-9.5-0.6-18.9-1-28.6-0.8
			c8,2.5,15.9,6.3,24.1,7.3c23.4,2.8,46.8,4.4,69.9,9.8c11.6,2.7,23.9,2.9,35.8,4.5c3.5,0.5,6.9,1.7,10.2,2.9
			c0.8,0.3,1.2,1.9,1.8,2.9c-1,0.4-2,1.3-3,1.3c-5.6-0.2-11.3-0.3-16.9-1.1c-18.5-2.8-36.9-6-55.5-8.8c-10.9-1.6-21.8-2.6-32.7-3.8
			c-0.2,0.5-0.5,1-0.7,1.5c5.9,3.9,11.4,8.7,17.8,11.6c8.9,4.2,15.3,10.9,22.1,17.5c2.9,2.9,1.1,4.5-1.7,5.1
			c-3.5,0.7-6.4,0.4-8.6-3.8c-3.1-6-8.4-10.1-14.8-12.7c-0.9-0.4-2-0.7-2.9-0.4c-10.2,3-19.6-1.6-28.5-4.6
			c-17.2-5.9-33.7-13.9-50.8-20.3c-10.4-3.9-21-6.8-30.8-12.7c-9.9-5.9-21.5-8.9-31.9-14.1c-13-6.4-25.5-13.6-38.2-20.5
			c-0.3-0.2-0.6-0.3-0.8-0.6c-6.4-9.2-16.1-9.1-25.8-9.1c-1.1,0-2.3-0.1-3.4-0.1c-0.2-0.7-0.5-1.2-0.5-1.6c-0.1-1,0-1.9,0-3.4
			c3.2-0.2,6.1-0.5,9-0.5c2,0,4,0.5,5.9,0.3c1.3-0.1,2.6-1,3.9-1.5c-0.8-1.1-1.4-2.6-2.5-3.1c-5.1-2.4-10.2-4.6-15.5-6.6
			c-6.6-2.5-13.2-4.7-19.9-6.9c-1.5-0.5-3.2-0.5-5-0.7c4.9,10.6,12.1,19,20.4,26.4c1.9,1.7,4.5,2.6,6.7,4.1
			c8.5,5.7,16.5,12.1,25.4,16.9c18.3,9.9,37,19.1,55.7,28.4c7.1,3.5,14.2,6.9,21.6,9.8c16.5,6.4,33.1,12.6,49.7,18.7
			c5.5,2,11.3,3.4,16.9,5.3c2.7,0.9,6.4-2.2,8.2,2.1c0.6,1.5,1.8,3.3,1.3,4.4c-0.4,1-2.7,1.8-4.1,1.7c-2.2-0.1-4.4-0.9-6.6-1.6
			c-10.9-3.5-21.9-6.7-32.7-10.6c-10.4-3.7-20.6-7.6-30.8-11.9c-17.5-7.4-35.1-14.7-52.3-22.7c-10.7-5-21.2-10.8-31.2-17
			c-9.3-5.8-17.5-13.4-27-18.9c-7.6-4.3-13.9-9.5-18.9-16.4c-3.1-4.4-5.4-9.3-8-14.1c-0.3-0.5-0.5-1.4-0.2-1.9
			c2.8-6.2-1.7-7.1-5.8-7.7c-6.7-0.9-13.4-1.2-20.1-1.9c-2.5-0.3-5-0.8-7.4-1.2c-0.2-0.5-0.3-1-0.5-1.5c1.3-0.6,2.6-1.3,4.6-2.3
			c-1.8-1.1-2.4-1.7-3.2-1.9c-7.5-2.3-15.2-4-22.5-6.8c-9.5-3.6-18.9-5.3-29.1-3.6c-7.4,1.3-14.9,1.9-22.4,2.9
			c-0.1,0.4-0.3,0.9-0.4,1.3c5.7,4.2,11.3,8.7,17.2,12.7c8,5.5,16.2,10.7,24.5,15.8c7.4,4.5,15.2,8.5,22.7,12.9
			c8.9,5.3,17.6,10.9,26.4,16.2c10.6,6.3,21.3,12.3,31.9,18.6c19.6,11.7,39,23.8,58.8,35.2c16.4,9.5,33.2,18.2,49.7,27.4
			c3.8,2.1,7.4,4.4,11.2,6.6c-0.2,0.6-0.5,1.3-0.7,1.9c-2.6-0.6-5.4-0.9-7.9-2c-10.3-4.4-20.5-8.9-30.6-13.7c-4-1.9-7.2-2.8-9.8,1.6
			c-16.7-13.7-37.4-19-55.6-29.1c-6-3.3-12.4-6.2-18.5-9.4c-19.8-10.1-39.5-20.2-59.3-30.4c-10-5.2-20.1-10.3-30-15.8
			c-12-6.7-23.8-13.9-35.8-20.6c-9.5-5.3-19.9-9.1-28.7-15.4c-9.9-7-18.3-16.1-27.4-24.2c-0.2-0.1,0-0.6,0-2.2
			c3.4,1.6,6.6,2.7,9.2,4.5c7.9,5.5,15.1,11.8,23.3,16.8c12.8,7.7,26.2,14.6,39.3,21.8c27.4,14.8,54.8,29.6,82.3,44.2
			c18.6,9.8,37.5,19.2,56.3,28.8c2.2,1.1,4.5,1.9,7.2,2.1c-2.3-1.3-4.5-2.7-6.8-4c-15.2-8.6-30.4-17.2-45.5-25.9
			c-12.1-7-24.1-14.2-36-21.6c-11.6-7.2-22.9-14.7-34.5-22c-4.2-2.6-8.7-4.8-12.7-7.6c-9.2-6.4-18.2-13-27.3-19.6
			c-1.3-0.9-2.5-2.3-3.1-3.8c-1-2.5-1.1-4.6,2.9-5.1c7.3-0.9,14.4-2.4,22.8-3.9c-5.1-1.8-9.2-3.6-13.5-4.6
			c-16.4-3.9-33-7.4-49.4-11.2c-5.3-1.2-10.4-3.5-15.7-3.8c-8.7-0.6-17.5,0-26.2,0.1c-5.9,0-11.8,0-18.2,0c1.2-6.3,5.5-4.1,8.4-4.4
			c3.4-0.3,6.8-0.1,10.2-0.1c0-0.6,0-1.1,0.1-1.7c-7.4-1-14.8-2-22.3-3c-7.6-1-15.3-2.5-23-2.8c-7.7-0.3-15.5,0.7-23.5,1.1
			c-0.5-2-0.9-3.3-1.2-4.8c-0.5-0.2-0.9-0.5-1.4-0.4c-6.4,0.7-12.8,1.4-19.2,2c-0.9,0.1-1.9-0.5-2.8-0.8c0.8-0.9,1.4-2,2.4-2.5
			c2-1,4.2-1.6,7-2.6c-6.1-2.1-25.3-1.6-28.7,0.8c9,10.9,17.8,22.1,27.2,32.7c4,4.5,9.8,7.4,14.1,11.6c6,5.9,11.2,12.6,17,18.7
			c3.2,3.3,7.2,6,10.8,9c0.3-0.3,0.7-0.5,1-0.8c-0.3-1-0.4-2.1-0.9-3c-7.3-13.1-14.2-26.4-22.3-39c-3.2-5-9.1-8.3-13.7-12.4
			c-0.8-0.7-1.4-1.6-2.1-2.4c0.9-0.6,2-1.8,2.7-1.6c3.5,0.9,7.5,1.4,10.4,3.4c14.3,10.2,20.4,26.3,28.5,41
			c5.6,10.3,11.5,20.3,17.7,30.3c1.2,1.9,4,3.2,6.3,4.1c5.4,2.2,11,3.9,16.5,6.1c1.4,0.5,2.4,1.9,3.5,2.9c-0.2,0.5-0.4,1-0.6,1.5
			c-5.4-1.3-10.7-2.6-16.8-4.2c0.9,1.3,1.2,2.3,2,2.9c10.6,8.4,20.9,17.1,32,24.9c10.6,7.5,22,13.8,33,20.9
			c5.7,3.7,11.1,7.8,16.5,11.8c1,0.8,1.5,2.3,1.4,4.1c-15.5-7.6-31.1-15.2-47.8-23.4c0.7,4.7,1.1,7.4,1.5,10.2
			c-0.4,0.2-0.8,0.4-1.2,0.7c-1-1.1-2.1-2.1-2.9-3.2c-4-5.6-8.6-9.7-16.1-11.1c-16.1-3-32-7.3-47.9-11c-8.1-1.9-16.3-3.6-24.5-5.3
			c-0.3,0.4-0.5,0.8-0.8,1.1c2.2,2,4.1,4.7,6.7,5.9c12.4,6,24.8,12.2,37.6,17.3c13.4,5.3,27.2,9.4,40.9,14.1
			c17.7,6,35.4,11.8,53.1,17.9c3.2,1.1,6.3,2.9,9.1,4.9c1.2,0.9,1.5,3,2.5,5.2c-10.7-3.5-20.3-6.8-29.9-9.8
			c-14.1-4.4-28.2-8.5-42.2-13.1c-8.8-2.9-17.4-6.5-26.3-9.6c-4.3-1.5-9-1.9-13.3-3.5c-6-2.2-11.8-5-17.5-7.7
			c-4.3-2-8.4-4.4-12.6-6.6c-6.8-3.6-12.8-7.7-13.9-16.4c-0.2-1.4-2.7-2.7-4.3-3.7c-5.5-3.3-11.2-6.2-16.6-9.6
			c-0.8-0.5-0.6-2.7-0.9-4.1c1.3-0.1,2.7-0.5,3.9-0.1c10.7,3.7,21.1,8,31.9,11.2c14.6,4.4,29.3,8.2,44.1,12
			c6.1,1.6,12.5,2.5,18.2,3.6c-2.9-3.2-5.8-6.8-8.9-10c-6.3-6.5-12.6-13-19.3-19.1c-2.2-2-5.4-3.3-8.4-4.2c-3.4-1-7-1.5-10.6-1.8
			c-4.2-0.3-8.5-0.2-12.7-0.3c-13.5-0.3-27-0.7-40.5-1c-4.4-0.1-8.9,0-13.8,0c-1.1,2.4-0.2,4.9,2.4,7c11.7,9.7,20.4,22,29.9,33.6
			c5.5,6.8,12.4,12.4,18.4,18.8c7.3,7.7,14.3,15.8,21.7,23.5c5,5.3,10.2,10.4,15.5,15.3c6,5.7,12.3,11,18.3,16.6
			c9.7,9.1,19.3,18.3,28.9,27.5c4.9,4.7,9.6,9.6,14.4,14.3c6,5.9,12.2,11.6,17.8,17c-0.7-5.4-1.5-11.2-2.4-18.3
			c-9-6-16.6-15-19.9-27.1c-0.4-1.6,1.2-3.8,2.2-6.8c1.5,2.1,2.6,3,3.1,4.3c7,16.4,19.5,26.5,36.2,32.1c6.5,2.2,12.5,5.9,19.1,8
			c6,1.9,12.4,2.7,18.7,3.7c1.3,0.2,2.7-1.9,4.2-2.1c3.9-0.7,8,3.5,8.2,9.4c-6.1,0-12.1,0.4-18.1-0.1c-12.2-0.9-23-6-33.7-11.8
			c-4.1-2.2-9-3-13.5-4.5c-0.3,0.5-0.7,0.9-1,1.4c3.3,5.2,6.6,10.5,9.9,15.7c4.3,6.7,11.9,7.3,18.4,9.4c6,2,12.2,3.3,18.4,4.5
			c2.2,0.4,5.1,0.1,4.4,3c-0.4,1.7-3.2,4.3-4.6,4.1c-6.6-0.7-13.2-2-19.7-3.6c-4.4-1-8.6-2.8-14.2-4.7c2.6,4.6,4.5,8,6.4,11.5
			c5.7,10.5,9,21.9,10.5,33.7c0.6,4.4,0.2,9.2-0.9,13.5c-3.5,13.6-11.5,24.7-20.9,34.8c-3.6,3.9-5.1,8.3-5.5,13.4
			c-0.2,2.2-1,5.3-2.5,6.1c-1.4,0.8-4.2-0.9-7.7-1.8c-7.9,8.9-16.6,18.9-25.4,29c-0.7-0.4-1.4-0.7-2.1-1.1c1.1-3,1.6-6.3,3.4-8.8
			c5.3-7.2,11-14,16.7-20.8c3-3.6,6.7-6.6,9.2-10.5c2.1-3.3,3.8-7.5,4.1-11.4c0.8-10.9,0.3-21.9,1.3-32.7c0.9-9.5,3.3-18.8,5.1-28.1
			c0.3-1.6,0.7-3.2,2.2-5.2c0.6,1.4,1.8,2.9,1.7,4.3c-0.9,9.6-1.9,19.3-3.1,28.8c-1.2,9.8-1.4,19.6,0.5,29.7
			c9-7.3,13-17.4,15.8-27.3c1.7-5.9,0-13.1-1.6-19.4c-4.8-18.9-13.9-35.6-28.3-49.1c-5.9-5.5-12.2-10.7-18.1-16.3
			c-5.5-5.2-10.6-10.8-16.1-16.1c-12.6-12.3-25.2-24.6-38-36.7c-6.6-6.2-13.8-11.8-20.6-17.8c-2.4-2.1-4.3-4.7-7.1-7.8
			c-1.2,42.8-8.1,84-4.7,125.8c3.3,0.7,4.9-0.6,7-6.6c1.3-3.5,2.4-7.1,4.1-11.9c1.1,2,2.3,3.3,2.1,3.9c-2.4,6.6-4.7,13.2-7.7,19.5
			c-0.7,1.5-4.3,3.2-5.6,2.6c-2.3-1-5.1-3.4-5.6-5.6c-2.9-14.3-4.2-28.7-1.5-43.2c0.6-3.2,0-6.7,0.3-10c0.5-6.7,1.3-13.5,1.9-20.2
			c0.4-5.1,0.8-10.2,1.1-15.3c0.7-13.4,1.3-26.8,2-40.2c0.2-4.5-1.2-8.2-4.6-11.4c-6.7-6.2-12.9-12.9-19.7-19.3
			c2.3,6.7,0.6,12.8-1.2,19.1c-1.4,4.8-1.7,10-2.1,15.1c-1.4,14.5-2.7,29.1-3.8,43.6c-0.2,2.1,1,4.3,0.7,6.3
			c-1,8.3-2.4,16.5-3.5,24.8c-0.2,1.8-0.1,3.6,0.1,5.4c0.4,3.8,0.7,7.6,1.6,11.2c0.5,2,1.9,4,3.4,5.4c0.5,0.4,3-1.2,4.3-2.1
			c1.4-1,2.6-2.4,4.8-4.5c0.6,6.3-2.9,9.2-5.9,11.6c-3.1,2.4-6.9,1-8.7-2c-2.4-4.1-3.9-8.9-5.3-13.5c-0.8-2.8-1.2-5.9-1-8.8
			c0.3-4.9,1.2-9.7,1.7-14.6c0.5-5.4,0.8-10.9,1.3-16.3c0.9-10.4,1.8-20.7,2.9-31.1c1-9.9,1.9-19.7,3.1-29.5
			c0.9-7.7,2.3-15.4,3.7-25.1c-7.7-9.3-17-20.4-27-32.4c-1.3,4.4-2.9,7.9-3.4,11.6c-1.6,10.4-2.7,20.9-4,31.3
			c-1,8.2-2.2,16.3-2.9,24.5c-1.5,15.9-3,31.9-4.1,47.8c-0.3,5.3,1.9,10.9,1,16c-0.8,4.6-0.3,8,2.7,11.2c1.1,1.1,2.8,1.5,4.1,2.3
			c1.1,0.7,2.9,1.5,2.9,2.2c0,1.1-1.1,2.7-2.1,3.2c-4.2,2.2-8.1,1.2-9.8-3.2c-2.2-5.7-3.8-11.8-5-17.9c-2.5-12.9-0.5-25.6,1.7-38.4
			c0.8-4.4-0.1-9,0.3-13.5c0.4-4.9,1.3-9.8,1.9-14.7c1-7.7,1.9-15.4,3.1-23c0.8-5.5,2.2-10.9,3.1-16.3c0.8-5.7,1.3-11.5,1.9-17.2
			c0.2-1.5-0.3-3.4,0.5-4.4c4.2-5.3,0.4-9-2.3-12.7c-8.4-11.5-17.1-22.9-25.6-34.3c0,0.4-0.1,1.4-0.2,2.4c-0.2,3.1-0.3,6.3-0.7,9.4
			c-0.7,5.9-1.7,11.7-2.3,17.6c-0.8,8.3-1.2,16.6-1.9,24.9c-0.7,8.2-1.3,16.4-2.2,24.6c-1.6,15.6-3.5,31.1-4.9,46.6
			c-0.4,4.7,0.5,9.6,0.5,14.3c0,3.1-0.1,6.3-0.8,9.3c-2.2,9.5-0.4,18.8,1.5,27.9c1.7,8.2,7.5,11.5,16.3,10.3
			c0.7-0.1,1.5,0.2,2.9,0.5c-3.6,4.3-8.1,5.8-12.2,4.4c-3.9-1.3-7.2-4.8-11.3-7.8c0,4.5-0.2,9,0,13.5c0.6,12.7,1.4,25.5,1.9,38.2
			c0.7,15.9,4.5,30.9,12,44.9c1.8,3.3,4.3,6.3,6.5,9.3c5.4,7.6,6.8,16.1,6.6,25.2c-0.2,8,0.2,16.1-0.2,24.1c-0.2,4.7-0.8,9.6-2,14.1
			c-4.1,16-3.8,32.3-1.7,48.4c1,7.2,4.1,14.1,6.4,21.2c2,6.4,2.9,12.6,1.6,19.4c-1.5,8.1-1.6,16.4-2.1,24.7
			c-1.1,17.2-2.8,34.4-2.8,51.6c-0.1,13.5,2.4,27,2.8,40.5c0.4,12.4-0.7,24.8-0.8,37.1c-0.1,5.3,0.8,10.6,0.7,15.9
			c-0.1,9.8-1.1,19.6-0.7,29.4c0.4,8.5,2,16.9,3.3,25.4c1.6,10.4,4.7,20.7,5,31.1c0.4,10.5-2.1,21-2.9,31.5
			c-0.4,5.7,0.3,11.5,0.2,17.2c-0.3,17.6,0.4,35.3-1.3,52.7c-1.5,14.6-0.1,29-0.5,43.5c-0.2,5.9,0.8,11.9,2.2,17.6
			c2.2,8.7,1.9,17.3,0.8,26.1c-0.8,6.9-0.7,13.9-1.2,20.8c-0.4,4.9-1.4,9.8-1.8,14.7c-0.3,4.9,0,9.8-0.3,14.7
			c-0.5,7.6-1.4,15.1-1.9,22.6c-1,13.8-3.1,27.7-2.7,41.5c0.4,16.8,3.1,33.5,4.5,50.2c0.6,7.2,0.1,14.5,0.4,21.7
			c0.5,13.9,1.3,27.8,1.8,41.6c0.5,12.7,1.1,25.3,0.9,38c-0.2,12.7-0.7,25.5-2,38.2c-1.4,13.2-4.1,26.3-5.6,39.5
			c-0.6,5.4,0.4,10.9,0.4,16.4c0,5.3-0.6,10.5-0.8,15.8c-0.2,8.8-0.1,17.5-0.2,26.3c-0.1,5.4-0.6,10.9-0.7,16.3
			c-0.1,5.4,0.1,10.8,0,16.2c-0.2,6.6-0.7,13.2-0.9,19.9c-0.1,3.4,0.1,6.8,0,10.1c-0.2,8.6-0.5,17.2-0.7,25.8
			c-0.1,5.7-0.2,11.3-0.2,17c0,6.1,0,12.1,0,18.2c0,5.7,0,11.4,0,17.1c0,12.1-0.4,24.2,0.1,36.2c0.6,15.5,1.4,31.1,3.2,46.5
			c0.9,8.2,4.5,16,6.3,24.1c1.5,6.9,2,14,3.5,20.8c2.8,12.3,6.1,24.4,9.1,36.7c2.4,9.7,5.3,19.3,6.7,29.2
			c2.9,21.3,8.6,41.8,17.4,61.3c9.4,20.8,19.5,41.3,30.2,61.5c20.5,38.5,41.5,76.8,62.5,115c14.1,25.5,28.5,50.8,43,76
			c7.3,12.6,16.5,23.8,25.9,34.8c10.4,12.1,20,24.9,29.6,37.6c8.6,11.5,17.2,22.8,28.7,31.9c7.3,5.8,12.5,14,18.9,20.9
			c9.8,10.6,20.1,20.7,29.7,31.4c6.1,6.9,11.3,14.6,17,21.8c4.2,5.4,7.9,11.2,15.5,12.8c1.9,0.4,4.5,4.1,4.4,6
			c-0.2,2.4-2.5,5.7-4.7,6.6c-1.9,0.8-6-0.2-7.4-1.8c-7.5-9.1-14.1-19-21.7-28.1c-6.8-8.1-14.7-15.4-21.7-23.3
			c-8.1-9.1-15.6-18.8-23.6-28c-4.7-5.4-9.6-10.6-15.1-15.2c-11.4-9.5-20.4-20.9-28.8-33.2c-7.2-10.6-15.2-20.8-23.8-30.3
			c-14.9-16.3-27.2-34.4-38-53.5c-11.4-20.2-23.2-40.1-34.5-60.4c-8.1-14.5-15.7-29.3-23.6-44c-6.7-12.3-13.8-24.4-20.2-36.8
			c-17.9-34.8-38.3-68.3-52.3-105.1c-3.8-10.1-7.9-20.2-11-30.5c-1.7-5.4-2-11.3-2.2-17.1c-0.6-13.6-6.1-25.9-9.8-38.6
			c-3.8-13.2-7.9-26.4-8.6-40.4c-0.4-7.7-3-15.4-4.7-23c-2.5-10.6-6.3-20.8-6.1-32.1c0.2-11.5-1.4-23.1-1.9-34.6
			c-0.2-4.3,1.1-8.6,0.9-12.8c-0.4-9.6-1.4-19.1-1.8-28.7c-0.2-3.4,0.8-6.9,0.9-10.4c0.1-6.4-0.1-12.8,0.1-19.1
			c0.2-6.2,0.8-12.3,1-18.5c0.2-5.7,0.1-11.5,0.2-17.2c0.2-8,0.4-15.9,0.6-23.8c0-1.3,0.2-2.7,0.2-4c0.1-10.7-1.4-21.3,0.7-32.1
			c1.4-7.1-0.6-14.8-0.6-22.3c0-9.9,1.6-19.9,0.7-29.7c-1-10.6,1.8-20.5,3.1-30.7c1.9-15.5,2.8-31.2,4.2-46.8
			c0.5-5.8,1.4-11.5,1.6-17.3c0.2-4.3-0.5-8.5-0.6-12.8c-0.4-8.6-0.5-17.3-1-25.9c-0.4-7.1-1.6-14.1-1.8-21.2
			c-0.2-6.3,1-12.6,0.7-18.8c-0.6-11.2-1.9-22.3-2.9-33.5c-0.9-10.2-2.4-20.3-2.7-30.5c-0.2-7.5,1.1-15.1,1.5-22.6
			c0.5-8,0.7-16.1,1.2-24.1c0.5-7.7,2.6-15.6,1.7-23.1c-1.2-10.5,1.7-20.2,3.1-30.2c1-7.4,0.2-15,1.4-22.3c2-12.8-2.9-24.8-3.5-37.2
			c-0.1-3.3,0.2-6.5,0.1-9.8c-0.1-4.1-0.7-8.2-0.6-12.4c0.2-10.9,0.8-21.9,1.1-32.8c0.1-3.1-0.4-6.2-0.2-9.3
			c0.5-8.4,1.5-16.8,1.8-25.2c0.2-5.6-0.8-11.2-0.9-16.8c-0.1-6.4,0.3-12.8,0.6-19.1c0.5-11.3,2.1-22.7,1.3-33.9
			c-0.8-11.2-4.2-22.2-6-33.4c-0.8-5-0.7-10.2-0.9-15.4c-0.4-10.4-1-20.9-0.9-31.3c0.1-14.6,0-29.3,1.1-43.8c1-12.5-1.3-24.5-3-36.7
			c-0.5-3.4-0.3-7-0.2-10.5c0.3-8,0.4-15.9,1-23.8c0.5-7.1,1.6-14.1,2.5-21.1c0.1-0.5,0.3-1,0.4-1.4c0.7-12,2.2-24.1,1.9-36.1
			c-0.2-7.2-3.2-14.3-4.9-21.5c-1.7-7.6-4.4-15.3-4.7-23c-0.4-11.4,0.1-23,2-34.2c1.5-9.2,3.5-18,1.9-27.4c-0.5-2.6,0.3-5.6,0.9-8.3
			c2.5-11.2-0.1-21.4-6.4-30.5c-10.7-15.6-16-33-18.6-51.3c-0.6-4.3,1-8.9,0.8-13.3c-0.5-10.7-1.4-21.4-2.1-32.2
			c-0.3-4.9-0.7-9.8-0.7-14.7c0-1.3,1.1-3.5,2.1-3.9c3.6-1.2,3.6-2.8,3.1-6.3c-0.9-5.6-0.4-11.4-0.4-17.1c0-7.2,0.1-14.3,0.1-21.5
			c0-3.8-0.2-7.1-3.3-10.4c-1.8-1.9-2.2-6.5-1.5-9.4c2.3-8.7-2.4-14.4-8.3-18.5c-7.6-5.2-16.2-9.1-25.1-13.9
			c0.8,8.3,1.5,15.9,2.1,23.5c0.1,1.9-0.6,3.9-0.5,5.8c0.2,9.3,0.6,18.6,1,27.8c0,1,0.9,2.8,1.2,2.8c7.2-1,6.2,7.8,11.9,9.7
			c5.2,1.8,9.5,6.9,13.8,11c2.9,2.7,5.1,6.2,7.6,9.3c-0.3,0.4-0.6,0.9-0.9,1.3c-1.5-0.4-3.3-0.5-4.5-1.4c-8.9-6.2-17.8-12.7-26.6-19
			c-0.6,0.4-1.3,0.8-1.9,1.3c0.6,5.8,1.1,11.6,1.8,17.4c1,8.3,2.1,16.6,3,24.9c1.5,13.7-0.1,27.7,4.3,41.2c1.8,5.7,1.7,12,2.4,18
			c1.1,9.5,2.5,18.9,3.3,28.4c0.7,8,0.7,16.1,1.1,24.2c0.1,1.9,0.5,3.9,0.5,5.8c0.1,20.7,0.7,41.5-0.2,62.2
			c-0.7,14.8,2.1,29.1,3,43.7c0.4,6.7-0.3,13.6-0.9,20.4c-0.9,9,1,16.9,7.3,23.6c0.4,0.5,0.8,1.1,0.9,1.7c0.3,2.3,0.5,4.7,0.8,7.1
			c-1.8-1.3-3.7-2.4-5.3-3.8c-1.6-1.4-2.9-3.1-4.4-4.6c-0.6,0.1-1.1,0.1-1.7,0.2c0,5.6-0.4,11.2,0.1,16.7c0.1,1.7,2.1,3.5,3.6,4.9
			c5.9,5.6,12.6,10.5,13,19.6c0.1,1.5-1,3-1.5,4.6c-1.3-1.2-3.3-2.3-3.6-3.7c-1.5-5.9-5.5-9.5-10.8-13c-0.4,11.7-1.9,23.2,3.5,33.5
			c3.5,6.6,8.8,12.2,13.1,18.5c3,4.3,5.8,8.8,8.3,13.5c0.8,1.4,0.3,3.4,0.5,5.1c-0.6,0.2-1.1,0.4-1.7,0.6
			c-6.4-7.4-12.8-14.8-19.8-22.9c-0.4,2.9-1,5-1,7.1c-0.1,19,0,38.1-0.1,57.1c0,10.1-0.3,20.1,0.1,30.2c0.7,16.4,2.2,32.7,2.8,49.1
			c0.3,9.8-0.7,19.6-0.7,29.3c0,5.9,0.8,11.9,0.9,17.8c0.2,6.1-0.1,12.1,0,18.2c0.2,7.9,0.7,15.9,0.7,23.8c0,9.1-0.7,18.2-0.7,27.3
			c0,5.1,0.9,10.2,0.8,15.3c-0.1,9.6-1.1,19.2-0.8,28.8c0.4,10.5-0.9,20.7-1.9,31c-0.7,7.2,0.7,14.6,0.5,21.8
			c-0.3,16.9-1,33.8-1.3,50.7c-0.1,7.9,0.7,15.8,0.5,23.6c-0.2,7.4-1.3,14.8-1.7,22.2c-0.3,5.4,0.2,10.8-0.2,16.1
			c-1.2,16.1-2.7,32.3-3.8,48.4c-0.4,6.2,0.3,12.6-0.2,18.8c-1.3,13.4-3.1,26.8-4.7,40.2c-0.8,6.4-1.7,12.7-2.2,19.1
			c-1.4,18.9-2.7,37.9-4,56.9c-0.5,6.8-0.5,13.6-1.1,20.3c-1.2,14.7-2.6,29.3-3.9,43.9c-0.3,3.9-0.1,7.9-0.4,11.9
			c-0.7,9.3-1.7,18.7-2.5,28c-0.3,3.7,0.1,7.5-0.2,11.2c-0.8,10.5-1.8,21-2.7,31.5c-0.8,9.9-1.5,19.8-2.4,29.7
			c-1.2,13.1-2.5,26.3-3.7,39.4c-0.8,8.4-1.1,16.8-2.3,25.1c-1.8,12.7-4,25.3-6.4,37.9c-3,16-6.3,31.9-9.5,47.8
			c-1.8,9.3-3.7,18.7-5.4,28c-1.4,7.6-1.8,15.4-3.8,22.8c-3.9,15.1-8.5,30-13,44.9c-3.7,12.2-7.9,24.2-11.8,36.3
			c-4.4,13.4-8.3,26.9-13.2,40.1c-7.3,19.8-15.2,39.4-22.7,59.1c-4.5,11.9-8.4,24.1-13,36c-4.1,10.4-9.1,20.4-13.3,30.7
			c-4.5,11.1-8.5,22.3-12.9,33.5c-2.6,6.6-5.6,13-8,19.6c-3,8.1-6.1,16.3-8.3,24.6c-3,11.4-7.4,22.4-7.7,34.5
			c-0.1,4.3-2.2,7.9-8,8.5c0-2.6-0.4-5.2,0.1-7.5c2.2-11.1,4.5-22.2,7.1-33.2c1-4.3,2.3-8.8,4.5-12.5c13.6-22.7,22.7-46.9,27.6-72.9
			c1.5-8,6.3-15.5,9.4-23.2c5.4-13.9,10.6-27.9,16-41.8c3.8-9.6,7.9-19.2,11.5-28.8c6.4-17,12.8-34.1,18.9-51.3
			c3.3-9.2,6.2-18.6,9-28c5.5-18.2,11.6-36.3,16-54.7c5.3-21.6,9.1-43.6,13.6-65.5c2.1-10.3,4.5-20.5,6.4-30.8
			c3-16.6,5.8-33.3,8.6-50c1.4-8.3,2.9-16.5,3.7-24.9c0.8-7.7,0.7-15.4,1.3-23.1c1.1-13,2.6-25.9,3.8-38.9c0.5-5.4,0.6-10.9,1-16.4
			c0.7-9.7,1.4-19.5,2.2-29.2c1.3-15.6,2.6-31.2,3.9-46.8c0.4-4.8,0.8-9.6,1.1-14.4c0.7-11.4,1.4-22.8,2.1-34.2
			c1-16.3,1.6-32.6,3-48.8c1.2-14.1,3.2-28.1,4.8-42.2c0.8-7.7,1.4-15.5,2.1-23.2c1.6-18.1,3.3-36.1,4.9-54.2c0-0.3,0-0.7,0-1
			c0.7-15.2,1.2-30.4,2.1-45.6c0.4-6.9,1.6-13.8,1.8-20.7c0.2-5.3-0.7-10.6-0.8-15.8c-0.1-14.9-0.1-29.8,0-44.7
			c0.1-7,0.8-13.9,0.9-20.9c0.4-21.2,0.7-42.3,1-63.5c0.1-7.7-0.1-15.5,0.1-23.2c0.2-7.5,0.9-14.9,0.9-22.4c0-7.3-0.7-14.6-0.8-21.9
			c0-5.1,0.9-10.3,0.7-15.4c-0.3-8.1-1.3-16.2-1.6-24.3c-0.2-4.3,0.8-8.6,0.7-12.9c-0.2-19.3-0.5-38.6-1-57.9
			c-0.4-14.6-1.6-29.1-1.8-43.7c-0.2-12.7,0.8-25.4,0.8-38.1c0.1-18,0-35.9-3.6-53.8c-1.6-7.8-0.1-16.3-0.4-24.4
			c-0.1-2.5-1.1-5-2.1-7.3c-1.4-3-3.2-5.4,0.4-8.6c1.7-1.5,1.6-5.2,1.8-8c0.8-11.6,0.5-23.4,2.3-34.9c2.4-15.2-2-29.5-3-44.3
			c-0.2-2.4,0.6-4.9,0.7-7.4c0.4-18.1,0.9-36.2,0.9-54.4c0-7.9-2.2-15.9-1.7-23.7c0.9-13.2-2.3-25.8-3.8-38.6c-1.2-10-2.3-20-3.4-30
			c-1.1-9.5-2.2-19-3.1-28.5c-1.7-18.5-3.6-37.1-4.9-55.6c-1.1-15-1.1-30.1-2.1-45.2c-0.7-10.3-2.3-20.6-3.1-31
			c-0.3-3.9,0.3-7.8,0.2-11.7c-0.1-6.5-0.5-13-0.5-19.6c0-2.4,0.7-4.9,2-7.3c5.7,5.2,7.2,11.6,7.3,18.3c0,4.9-0.9,9.9-1.5,14.8
			c-0.3,3,0.6,4.8,3.9,5.8c4.7,1.4,9.5,3.1,13.7,5.7c7.3,4.5,14.1,9.8,21.4,14.9c1.5-13.5,3.2-27.9,4.8-42.4
			c1.7-14.9,3.8-29.8,4.7-44.7c0.7-12.6,2-25.6-6.6-36.7c-1.7-2.1-2.7-4.7-4-7.1c-7.4,2.9-12,8.2-16.5,13.9
			c-3.5,4.5-5.3,9.5-7.5,14.6c-2.8,6.2-7.5,11.5-10.8,17.6c-5.7,10.6-10.9,21.4-16.2,32.1c-0.5,1-0.1,2.4-0.3,3.6
			c-0.4,1.7-0.6,4.5-1.6,4.8c-2.1,0.7-4.8,0.6-6.7-0.3c-0.9-0.4-1.2-4-0.4-5.5c8.5-16.2,17.2-32.3,25.8-48.4
			c1.9-3.5,3.5-7.2,5.2-10.9c-0.5-0.3-1-0.6-1.4-0.9c-2.8,4.2-5.8,8.4-8.5,12.7c-3.5,5.7-7,11.5-10.2,17.4
			c-3.1,5.6-5.6,11.5-8.7,17.1c-2.9,5.1-6.4,9.9-9.4,15c-2,3.4-4.2,6.3-4.1,11.1c0.1,5.8-4.4,10.5-9.5,13.7
			c-1.2,0.7-4.3,0.2-5.2-0.9c-0.9-1.1-0.9-3.9-0.1-5.3c3.1-5.8,6.6-11.4,9.9-17.1c7.1-11.8,14.3-23.6,21.4-35.5
			c3.5-5.8,6.8-11.6,10.5-17.9c-1.1,0.3-2.1,0.3-2.9,0.7c-8.3,4.8-13.5,12.5-18.2,20.4c-6.3,10.5-11.9,21.4-18.3,31.9
			c-5.8,9.6-12.1,18.8-18.2,28.3c-0.9,1.4-1.6,2.8-2.6,4.6c1.4,0.5,2.4,0.8,4.1,1.4c-2.8,4-5.1,8.1-8.2,11.5c-1.1,1.1-5,1.2-6.2,0.2
			c-1.2-1-1.3-4.5-0.5-6.2c2.8-5.8,6-11.3,9.4-16.8c10.1-16.4,20.4-32.6,30.6-49c0.6-1,0.8-2.3,0.4-4.1c-5.1,4-10.5,7.7-15.4,12
			c-10.4,9-20.9,18-30.5,27.7c-5.5,5.6-10.3,12.3-13.9,19.3c-11.6,22.6-22.3,45.6-33.6,68.4c-3.1,6.2-6.2,12.5-10.2,18.1
			c-6.9,9.7-10,20.9-13.5,31.9c-0.8,2.6-3.1,4.7-4.7,7c-0.8-0.3-1.7-0.6-2.5-1c0.3-2.8-0.1-5.9,1-8.5c5.5-12.8,11.1-25.6,17.1-38.2
			c8.8-18.5,17.9-36.8,27-55.1c3.4-6.7,7.3-13.1,10.2-20.3c-1.6,1.3-3.2,2.5-4.7,3.9c-12.7,11.6-25.8,23.1-34.9,37.8
			c-6.9,11.2-12.9,23-16.6,35.8c-1.9,6.8-5.3,13.1-7.7,19.8c-7.4,20.2-14.7,40.4-22.1,60.5c-1.5,4.1-3,8.2-4.8,13.1
			c2.2-0.6,3.3-0.9,5.7-1.5c-2.5,4.6-4.3,8.5-6.6,12c-0.5,0.8-2.9,1.3-3.9,0.8c-1.2-0.5-2.7-2.4-2.5-3.5c0.7-4.5,1.4-9.2,3-13.5
			c3.4-9.4,7.4-18.6,10.8-28c4.1-11.4,7.8-22.9,11.9-34.4c3.8-10.6,7.8-21.2,11.7-31.7c0.5-1.4,0.9-2.8,1.8-5.6
			c-7.4,8.9-12.8,17.3-16.1,26.8c-5.7,17-13.6,33-22.1,48.7c-0.6,1.1-2.7,2.3-3.9,2.1c-1-0.2-2.3-2.3-2.3-3.6
			c0.1-2.2,0.8-4.5,1.7-6.5c4.8-9.9,9.8-19.7,14.5-29.7c1.2-2.6,1.5-5.6,1.3-8.9c-6.9,8.3-13.9,16.5-20.7,24.9
			c-6.7,8.3-13.3,16.8-19.6,25.4c-6.5,8.7-12.9,17.5-19,26.6c-5.9,8.9-11.1,18.3-17.2,27.1c-6.1,8.6-8.6,19.4-15.2,27.6
			c-0.7-0.3-1.5-0.7-2.2-1c0.7-2.7,1-5.7,2.3-8.1c6.8-13.7,13.4-27.5,21.1-40.7c6-10.4,13.1-20.2,20.4-29.7
			c13.8-18.3,27.9-36.4,42.3-54.2c8.2-10.1,17.5-19.3,25.9-29.2c5.5-6.5,10.2-13.8,15.6-20.5c4.8-5.9,10.1-11.4,15.1-17.2
			c1.2-1.4,2.1-3,3.2-4.5c-0.4-0.4-0.7-0.7-1.1-1.1c-2.4,1.7-4.9,3.3-7.1,5.2c-12.8,11.3-25.7,22.4-38.1,34.2
			c-9,8.6-17,18.1-25.5,27.3c-12.4,13.4-24.9,26.7-37.2,40.3c-2.8,3.1-4.9,7-7.2,10.6c-0.5,0.7-0.6,1.8-1.2,2.1
			c-2.2,1.3-4.6,2.4-6.9,3.6c0-2.8-1.1-6.2,0.2-8.1c3.9-5.9,8.5-11.4,13.2-16.7c8.6-9.6,17.5-19,26.4-28.5
			c12.9-13.8,25.6-27.8,39-41.1c8.8-8.7,18.6-16.4,28-24.5c3-2.6,6-5.1,9.1-7.6c2.9-2.3,5.8-4.2,8.8,0.6c2.1-3.8,3.7-7.4,5.9-10.6
			c1.2-1.7,3.3-2.8,5-4.2c0.7,1.7,1.3,3.5,2.4,6.2c12.3-11.4,24.6-22.9,36.9-34.3c-0.2-0.4-0.5-0.7-0.7-1.1c-1.8,1-3.6,2.1-5.5,3
			c-6.1,2.9-12.2,5.7-18.2,8.6c-4.3,2.1-8.8,3.9-12.7,6.5c-14.2,9.3-28.6,18.2-42,28.5c-16.4,12.6-32.5,25.7-45.6,42
			c-3.3,4.1-6.9,8-10.1,12.3c-1.4,1.9-1.8,4.5-3.1,6.5c-0.8,1.3-2.5,2-3.8,2.9c-0.5-1.1-1.6-2.4-1.4-3.4c0.8-2.9,1.5-6.1,3.3-8.4
			c8.2-10.3,16.4-20.8,25.4-30.4c13-13.8,28-25.5,43.7-36.2c11.3-7.7,22.7-15.3,34.4-22.2c8.1-4.8,16.8-8.4,25.2-12.5
			c1.8-0.9,3.5-1.8,5.3-2.7c1.9-1,3.7-2.7,5.7-2.9c13.7-0.8,20.9-12,30.6-19c9.6-6.9,18.9-14.4,28.3-21.7c1.3-1,2.2-2.4,3.3-3.6
			c-0.3-0.4-0.5-0.8-0.8-1.2c-2.7,0.9-5.6,1.4-8.2,2.6c-11.2,5.1-22.6,10-33.5,15.7c-12.2,6.5-24.1,13.6-35.8,21
			c-11,6.9-21.8,14.3-32.5,21.8c-9,6.3-17.8,13-26.6,19.7c-9.9,7.7-19.6,15.6-29.5,23.4c-0.9,0.7-2.4,0.8-3.7,1.1
			c0.1-1.4-0.3-3.4,0.5-4.2c3.9-4.3,7.8-8.7,12.3-12.3c14.4-11.4,28.9-22.6,43.7-33.4c8.5-6.2,17.7-11.5,26.4-17.4
			c22.5-15.4,46.2-28.5,71.1-39.5c7.2-3.2,14.6-4.5,22.5-4.8c4.1-0.2,8.2-3.4,12-5.8c6.9-4.2,13.6-8.8,20.3-13.3
			c2.4-1.7,4.5-4,6.9-5.7c4.3-2.9,8.6-5.8,13.1-8.3c2.4-1.3,3.8-2.6,3.3-5.3c-0.6-3.6,1.6-4.9,4.4-5.4c3.4-0.6,3.2,2.3,3.9,4.4
			c1.4,4.3,3.1,8.6,4.7,12.8c0.3,0.9,1.3,1.5,2,2.4c1.1-3.3,1.8-6.2,3-8.8c1.8-3.6,7.3-5.4,10.8-3.9c0.6,0.3,1.1,1.1,1.2,1.8
			c0.1,0.4-0.8,1.3-1.1,1.2c-4.8-0.7-4.9,3.3-6.3,6.6c1.5,0.2,2.8,0.4,4.9,0.7c-0.8,4.3-1.3,8.5-2.4,12.5c-0.9,3.2-0.8,5.5,0.7,8.8
			c5.1,11,14.3,14.3,25.1,15.3c16.6,1.5,33.3,2.7,49.9,4.1c3.2,0.3,6.4,0.8,9.6,1.2c0.2-0.4,0.5-0.9,0.7-1.3
			c-6.6-6.8-13.2-13.7-19.8-20.5c-7.1-7.3-14.7-14.2-21.5-21.7c-5.8-6.5-11.2-13.4-16.2-20.5c-3.1-4.4-6.9-3.3-10.9-2.6
			c-3,0.6-6,1.2-9.1,1.7c-0.1-0.5-0.2-1-0.4-1.4c1.5-0.7,3.1-1.5,4.6-2.2c0-0.4-0.1-0.9-0.1-1.3c-5.9-0.7-11.9-1.4-17.8-2
			c-0.1-0.8-0.2-1.6-0.3-2.4c3.4-1,6.8-2.5,10.2-2.8c12.3-1.1,24.7-1.8,37-2.7c0.9-0.1,1.8-0.5,2-0.6c-4.1-7.3-7.9-14.7-12.2-21.8
			c-0.6-1-3.5-1.7-4.7-1.2c-10.4,5-20.7,10.2-31,15.4c-0.1,0.1-0.3,0.1-0.5,0.2c-7.4,6.8-14.8,13.5-22,21c1.5-0.8,3-1.5,4.5-2.3
			c0.7,2.7-1,6.2-4.9,7.9c-1.9,0.8-6,1-6.4,0.2c-1.1-2.3-1.6-5.7-0.7-7.9c1.1-2.7,3.6-5.3,6.1-7c14.8-10.6,26.2-24.5,37.7-38.4
			c0.9-1.1,2.1-2.1,3.2-3c1-0.9,2.1-1.6,3.3-2.6c1.7,4.6,3.8,2.3,5.6,0.8c-1.6-3.4-3.6-6.5-4.6-9.9c-2-6.4-6.3-11-10.7-15.8
			c-4.2-4.6-6.9-10.6-11.3-14.9c-12-11.7-24-23.5-37-33.9c-16.2-13-32.5-25.9-51.6-34.7c-1.3-0.6-2.7-1-5.1-0.7
			c2.4,3.4,4.3,7.6,7.4,10.1c2.9,2.4,7.2,3.1,10.9,4.5c0.1,0.5,0.2,1,0.4,1.5c-3.5,0.9-7.1,1.9-11,2.9c-0.1,1.1-0.3,2.7-0.4,3.6
			c-14.1,3.8-27.6,9.1-41.6,10.8c-18.2,2.1-34.3,9.7-51,15.8c-4.7,1.7-9.7,3-14.5,4.5c0.1,0.5,0.2,0.9,0.3,1.4
			c6.1-1.4,12.3-2.8,18.4-4.3c9.1-2.3,18.3-4.7,27.4-7.1c0.5-0.1,1-0.1,1.5-0.3c12.1-5.8,25.5-6.2,38.4-8.4c8.9-1.5,18-1.8,27.1-2.4
			c1.1-0.1,3,1.1,3.1,1.9c0.2,1.1-0.7,2.7-1.6,3.6c-0.7,0.7-2.1,0.8-3.2,0.9c-9.2,1-18.4,1.4-27.4,3.2c-16.6,3.2-33.1,6.7-49.4,10.9
			c-12.3,3.3-24.3,8-36.4,12c-4.5,1.5-8.9,3-14.3,4.8c1.8,1.2,2.8,1.9,4.5,3c-6.4,2.1-12.1,4.1-17.8,6c-3,0.9-6,1.6-9,2.3
			c-1.6,0.4-3.3,0.9-4.8,0.6c-1.2-0.2-3-1.4-3.1-2.2c-0.1-1.3,0.8-3.4,1.8-3.9c11.6-5.4,23.3-10.6,35.1-15.5c2.9-1.2,6.2-1.4,9.3-2
			c-0.1-0.6-0.2-1.2-0.4-1.7c-6.9,1.6-13.9,2.8-20.6,4.7c-13.8,4.1-27.6,8.2-41.3,12.9c-6.4,2.2-12.4,5.7-18.6,8.6
			c-0.9,0.4-1.8,1.2-2.7,1.2c-2.4,0-6.1,0.4-6.8-0.8c-1.8-3.1,0.4-5.9,3.4-7.1c9.4-3.8,18.9-7.5,28.4-11
			c13.4-4.8,26.8-9.5,40.3-14.1c4.2-1.4,8.6-2,12.8-3.5c12.9-4.5,25.7-9.2,38.5-13.8c13.3-4.8,27.1-7.6,41-10.1
			c9.9-1.8,19.6-4.4,29.1-6.6c-3.4-6.5-7.2-14.3-11.6-21.8c-1-1.7-4.2-2.3-6.4-3.2c-2-0.8-4.1-1.1-6.1-1.8c-11.8-4-23.5-8-35.3-12
			c-0.8-0.3-1.9-0.5-2.4-0.1c-4.4,3.7-7.8,0-11.8-1c-6.8-1.7-13.7-3-20.7-3.5c-8.8-0.7-17.7-0.4-26.5-0.7
			c-5.8-0.2-11.5-0.8-18.5-1.2c1.6,1.9,2.4,3.1,4.4,5.6c-3.2-0.6-5.5-0.3-6.8-1.3c-6-4.6-12.6-2.8-19.1-2.5c-0.3,0-0.6,0.3-0.9,0.3
			c-11.3,1.1-22.6,2.1-34,3.2c-16.1,1.6-32.1,3.7-48.2,4.8c-8.7,0.6-16.1,3-22.4,9c-1.2,1.1-3.2,1.5-5.2,2.4
			c-1.2-4.6,1.5-7.6,3.9-9.7c7.2-6.2,15.8-9.3,25.4-9.7c4.4-0.2,8.8-0.7,13.8-2.1c-4.8-2.9-9.7-5.6-14.4-8.6
			c-14-8.9-28.6-17-41.8-26.9c-11.2-8.4-19.1-20.3-25.4-33c-1.5-3.1-4.4-5.6-5.8-8.8c-0.7-1.6,0.6-4,0.9-6c2,0.4,5,0.1,5.9,1.4
			c2.3,3.1,3.7,6.9,5.4,10.5c6.3,13.4,14.9,25.1,27,33.6c16,11.2,33.3,20.6,49.1,32c9.3,6.8,18.7,5,28.8,4.5
			c-6.7-6.9-12.9-13.9-19.8-20.2c-10.1-9.3-21.1-17.6-30.9-27.2c-18.6-18.2-32.7-39.5-40.6-64.4c-2.9-9-4.1-18.5-6-27.8
			c-0.2-1.1,0.2-2.3,0.3-3.9c3.8,1,6.3,1.9,7.1,6.6c3,18.8,8.5,36.8,20,52.4c6.5,8.8,12.1,18.1,18.9,26.6c4,5.1,9.5,9.1,14.4,13.5
			c6.4,5.8,13.2,11.1,19.2,17.3c7.4,7.7,14,16.2,21.5,23.7c1.7,1.8,5.9,1.7,8.9,1.5c3.3-0.2,6.6-1.6,10.3-2.6
			c-3.8-3.1-7.9-5.9-11.3-9.3c-14.6-14.4-29.2-28.7-43.4-43.4c-16.8-17.5-28.9-38.3-38.7-60.4c-7.6-16.9-14.4-34.2-21.4-51.4
			c-2.6-6.4-2.3-6.6,0.5-10.3c7.4,4.2,7.2,12.7,9.9,19.2c10,24.9,21.1,49.2,35.1,72.2c6.2,10.3,13.9,19.3,22.1,27.9
			c12.5,13.1,24.8,26.3,37.3,39.2c5,5.1,9.9,10.5,15.7,14.5c3.4,2.3,8.6,2.1,13.1,2.5c2,0.2,4.2-0.7,7.1-1.3c-1.6-2.4-3-4.7-4.4-6.9
			c-13.7-21.7-27.4-43.5-41-65.2c-6.9-11-13.8-22-20.5-33c-1.6-2.7-4-6.8-0.6-8.8c4-2.3,5.5,2.6,7,5.1c4.8,7.9,8.8,16.2,13.8,24
			c5.7,9,12.3,17.5,18,26.5c7.5,11.8,14.7,23.8,21.9,35.8c3.7,6.2,6.9,12.8,10.7,18.9c1,1.6,3.5,2.9,5.4,3.1
			c5.6,0.4,11.2,0.1,17.2,0.1c-4-5-8.1-10.3-12.2-15.5c-6.9-8.8-14.1-17.3-20.4-26.6c-6.5-9.5-12.3-19.5-17.6-29.6
			c-3.1-5.9-4.9-12.4-6.9-18.8c-0.5-1.6,0.6-3.8,0.9-5.7c0.6,0,1.1,0,1.7,0c1,1.1,2.2,2,2.8,3.2c3.5,7.1,6.5,14.4,10.2,21.3
			c5.1,9.4,10.3,18.9,16.4,27.6c9.4,13.3,19.5,26.1,29.4,39.1c3.1,4,6.7,6.9,12.4,6.1c4.3-0.6,8.7-0.1,13.4-0.1
			c-4.9-7.3-9.9-14.2-14.2-21.5c-11.5-19.1-24-37.8-28-60.5c-0.8-4.7-1.8-9.4-2.4-14.1c-0.2-1.5,0.4-3.1,0.8-5.6
			c9.2,6.3,6.3,17.4,11.5,24.5c5.4-2.4,7.4-1.6,6.2,2.6c-1.9,6.7,0.5,12.2,3.1,18c9,19.5,20.8,37.3,34.2,54.1
			c2.8,3.5,6.1,5.4,11,5.6c4.4,0.1,8.8,2,15,3.5c-14.2-27.6-18.1-56.8-22.7-86.7c5,0.9,6.7,2.4,7.7,6.4c5.3,21,7.1,42.8,16.1,62.8
			c1.4,3.1,1.7,6.6,2.8,9.8c0.4,1.4,1.3,3.4,2.3,3.6c3.9,0.9,4.1,3.2,2.2,7c10.7,3.6,20.8,7.1,31.6,10.7c-3-12-6.2-23.2-8.4-34.5
			c-2.1-11.3-3.2-22.7-4.7-33.9c5.9-2.4,7.1,1,7.7,4.6c1.2,7.1,1.8,14.4,3.2,21.5c1.9,9.8,4.3,19.5,6.5,29.2c0.8,3.7,1.4,7.4,2.5,11
			c0.6,1.9,1.6,4.4,3.1,5.3c7.9,4.3,16,8.2,23.1,11.8c0.5-5.2,1-10.8,1.5-16.3c0.3-3.8,1.1-7.6,0.9-11.3c-0.4-7.7,0.9-15,3.3-22.4
			c1.4-4.5,1-9.5,1.9-14.2c0.6-3.3,1.5-6.7,3.1-9.7c0.7-1.3,3.4-1.6,5.3-2.3c0.4,1.7,1.4,3.5,1.2,5.1c-1.3,8.6-3,17.2-4.2,25.8
			c-0.9,6.2-1.3,12.4-2.1,18.6c-0.6,4.2-1.3,8.4-2.3,12.5c-1.7,6.6-0.4,12.8,2.4,18.7c0.3,0.7,2.7,0.7,4.1,0.5
			c2.2-0.3,3.6-0.3,3.1,2.7c-0.2,1.1,0.2,2.8,1,3.5c5.8,5.4,11.7,10.5,18.3,16.4c0-2,0.4-3.3-0.1-4.1c-5.5-10.7-6.6-22.5-8.9-34.1
			c-1.7-9-5-17.6-7.3-26.5c-0.7-2.7-1-5.8-0.3-8.3c0.4-1.6,2.9-3,4.8-3.6c0.6-0.2,2.8,2.2,3.1,3.7c1.6,6.7,2.7,13.5,4,20.2
			c1.4,7.4,2.6,14.8,4.2,22.2c1,4.8,2.3,9.5,3.8,14.2c1.6,5.1,3.4,10,5.4,15c0.5,1.3,1.5,2.8,2.7,3.3c2.6,1.1,2.7,2.9,3.2,5.3
			c0.7,3,3.2,5.6,4.9,8.3c0.7-0.3,1.4-0.6,2-1c-1.1-3.4-1.9-7-3.2-10.3c-3.6-9.2-1.7-18.6-1-28c0.5-7.2,1.4-14.4,1.8-21.7
			c0.4-7.4,4.1-13.2,7.7-19.1c0.6,0,1.2,0.1,1.8,0.1c0.2,2.7,0.8,5.4,0.5,8c-0.3,3.2-1.4,6.4-1.7,9.6c-1.1,11.5-2.7,23-2.8,34.6
			c0,8,2.1,16.1,3.3,24.1C569.4,372,570.1,372,570.8,371.9z M878.1,471.5c-7.2-2.7-14.2-5.8-21.5-7.9c-17.1-4.9-34.4-9.5-51.7-14
			c-22.7-6-46-8.9-69.4-9.9c-23.2-1-46.4-0.3-69.7,0c-13.6,0.2-26.8,2.8-38.7,9.9c-1.9,1.1-3.5,3.8-3.9,6c-0.5,2.4,0.6,5.2,1.3,9.3
			c3.1-4.2,5.3-7.1,7.4-10c1,2.2,1,3.8,0.7,5.4c-0.9,4.5-1.8,8.9-2.8,13.4c-0.9,3.6,0,4.2,3.4,2.8c6.4-2.6,12.7-5.8,19.4-7.1
			c18.6-3.6,36.6-9.5,55.8-10.5c20.2-1,40.3-4.5,60.4-4c19.7,0.5,39.4,4.4,59.1,7.4c7.7,1.2,15.4,3.3,22.9,5.8
			C859.7,471,868.7,472,878.1,471.5z M649.6,476.5c0,0.7,0.1,1.4,0.1,2c5-0.4,10-1.1,15.1-1.3c15.9-0.5,31.8-0.6,47.7-1.2
			c6.2-0.2,12.4-1.5,18.7-1.8c11.9-0.5,23.9-0.7,35.8-1.1c13.3-0.4,26.6-0.7,39.8-1c5.5-0.1,11,0,16.5,0c6.7,0,13.4,0,20,0
			C778.2,455.1,713.7,459.5,649.6,476.5z M594.4,560.8c-0.1,0.5-0.2,1.1-0.3,1.6c1.1,1.2,2.5,2.2,3.2,3.6c2.9,5.8,6.8,8.4,13.8,8.4
			c11.5,0,23,1.7,34.5,2.5c7.2,0.5,14.5,0.7,21.7,1.2c6.8,0.4,13.6,1.1,21.8,1.7c-6.8-5.5-11-12.6-19.3-13.2
			c-18.6-1.3-37.3-2.1-56-3.2c-2.2-0.1-4.4-1-6.7-1.3C602.9,561.6,598.7,561.2,594.4,560.8z M882.4,508.5c0.1-0.2,0.1-0.5,0.2-0.7
			c-1.3-0.5-2.6-1-3.9-1.3c-7.8-1.7-15.6-4.2-23.6-5c-16.9-1.5-33.9-2.3-50.9-2.9c-8.8-0.3-17.7,0.6-26.6,0.8
			c-9.6,0.2-19.1,0-28.7,0.1c-1.1,0-2.1,0.4-3.1,0.7c0,0.4,0,0.8,0,1.2c5.9,0.7,11.8,1.7,17.7,2.1c16.7,1,33.4,1.9,50.1,2.6
			c12.7,0.5,25.4,0.7,38.2,1.1C862,507.6,872.2,508.1,882.4,508.5z M985.4,586c24.5,15.2,49.6,28.4,80.2,28.8
			c-1.2-1.1-1.8-1.9-2.6-2.3c-13.5-6.4-27-12.9-40.5-19.1c-5-2.3-10.2-4.8-15.6-5.8C999.8,586.4,992.6,586.5,985.4,586z
			 M639.9,184.1c0.4,1.7,0.7,3.5,1.3,5.1c4.7,12.7,9.7,25.4,14.3,38.2c4.2,11.6,3.8,23.8,3.4,36.4c6.1-7.2,15.3-11,19.7-19.8
			c-3.2,1.4-5.7,3.7-8.7,5.1c-1.7,0.8-4.6,1-6.1,0.1c-1-0.6-1-3.6-0.8-5.5c0.2-1.5,1.4-2.9,2.3-4.3c3.2-5.3,6.5-10.5,10-16.3
			C656,215.9,648.6,199.8,639.9,184.1z M805.5,492.2c-11.3-7.4-107.4-7.2-114.2,0C729.3,492.2,766.9,492.2,805.5,492.2z M760.7,52.3
			c-10.5,4.9-8.3,49.8,3.4,60.6C759.1,92.4,751.7,73.1,760.7,52.3z M583.5,213.8c0,4.8-0.9,9.9,0.2,14.4c1.7,6.7,7.7,12.2,6,20.1
			c-0.2,0.9,1.1,2,1.4,3.1c0.5,1.7,0.8,3.4,1.3,5.1c0.7,2.8,1.4,5.6,2.2,8.5c0.5-0.1,1-0.3,1.5-0.4C594.8,247,589,230.5,583.5,213.8
			z M1096.3,631.6c-8.2-8.9-31.2-13.8-39.5-8.7C1070.8,626,1083.6,628.8,1096.3,631.6z M675.7,183.3c0.5-0.1,1.1-0.3,1.6-0.4
			c0-6.2-6.7-26.9-11.6-33.1C669,160.9,672.3,172.1,675.7,183.3z M1124.3,651.3c8.8,2.8,17.2,5.4,26,8.1
			C1147.5,651.5,1132.6,649.1,1124.3,651.3z M745.9,171c0.5,0.6,0.9,1.2,1.4,1.8c8.2-6.2,16.4-12.4,24.6-18.7
			c-0.4-0.6-0.8-1.1-1.3-1.7C762.3,158.7,754.1,164.9,745.9,171z M691.9,485.5c0-0.6,0-1.2,0-1.8c-5,0-10.1-0.1-15.1,0
			c-4.9,0.2-9.8,0.7-14.7,1.1c0,0.2,0,0.4,0,0.6C672,485.5,682,485.5,691.9,485.5z M680.9,231.4c-0.5-0.3-0.9-0.6-1.4-0.9
			c-3.9,4.7-7.8,9.4-11.7,14.1c0.4,0.4,0.9,0.7,1.3,1.1C672.5,240.5,682,240.3,680.9,231.4z M607.8,449.8c-0.2-0.5-0.4-1-0.6-1.6
			c-1.6,0.6-3.1,1.2-4.7,1.9c-2.2,0.9-4.3,2.6-6.6,2.8c-4.8,0.3-6.7,1.5-7.9,6.6C594.9,456.1,601.3,452.9,607.8,449.8z
			 M1103.1,636.6c0,0.4-0.1,0.9-0.1,1.3c6.4,1.9,12.8,3.9,19.2,5.8c0.2-0.6,0.3-1.1,0.5-1.7C1116.9,637.5,1109.9,637.6,1103.1,636.6
			z M1046.2,405.7c-0.1,0.3-0.2,0.7-0.3,1c7.6,2.3,15.2,4.6,22.8,6.9c0.2-0.7,0.4-1.3,0.6-2C1061.5,409.7,1053.8,407.7,1046.2,405.7
			z M694.5,219.4c-7.3,4.2-7.3,4.2-6.5,8.6C690.4,224.8,692.5,222.1,694.5,219.4z M1123.6,427.1c0.1-0.4,0.2-0.7,0.3-1.1
			c-5.3-1.4-10.7-2.8-16-4.2c-0.1,0.4-0.2,0.8-0.3,1.2C1112.9,424.3,1118.2,425.7,1123.6,427.1z"/>
		<path class="st1" d="M362.4,532.2c-13.5,8.4-27.6,16-40.3,25.5c-12.2,9.1-22.9,20.1-34.2,30.4c-12.5,11.4-25.2,22.6-37.2,34.5
			c-9.5,9.4-18.3,19.6-27.1,29.7c-4.1,4.6-5.7,11.3-11.6,14.5c-1.7,0.9-4.1,0.8-6.1,1.1c0.3-2-0.1-4.6,1.1-6
			c7.4-8.9,14.9-17.6,22.8-26.1c9.3-10.1,18.9-20,28.7-29.6c10.9-10.7,22.2-21,33.3-31.4c3.6-3.4,7.4-6.6,10.9-10.5
			c-2.8,1.4-5.8,2.6-8.5,4.2c-12.5,7-25.3,13.6-37.3,21.3c-6.9,4.4-12.8,10.5-18.8,16.3c-18.1,17.5-35.8,35.2-53.9,52.6
			c-15,14.4-29.3,29.2-41.3,46.3c-1.5,2.1-3.6,4-5.7,5.6c-0.8,0.6-2.6,0-3.9,0c0.1-1.2-0.2-2.7,0.4-3.5c14.7-20.1,30.7-39,48.8-56.1
			c12.5-11.8,24.3-24.3,36.6-36.3c4.2-4.2,8.8-8,13.2-11.9c-0.3-0.4-0.6-0.8-0.9-1.2c-3,2-6.1,3.9-9,6c-8.3,5.9-17.1,11.3-24.7,18.1
			c-8.8,7.8-16.7,16.6-24.5,25.4c-8.7,9.7-16.8,19.9-25.1,30c-17.1,20.7-34.1,41.3-51,62.1c-3.6,4.5-6.5,9.6-9.5,14.5
			c-0.6,1.1,0.2,3-0.4,4.2c-1.1,2.1-2.5,4.1-4.3,5.7c-0.5,0.5-3.4-0.2-3.4-0.6c-0.3-2-0.8-4.5,0.1-6c6.8-10.7,13.4-21.5,21-31.6
			c9.5-12.7,19.9-24.7,30-36.9c11.2-13.5,22.4-26.9,33.9-40.2c6.6-7.6,13.7-14.8,21.1-22.6c-1.2-0.1-2.2-0.5-2.7-0.1
			c-7.1,5-14.3,10-21.3,15.2c-2.1,1.6-4.6,3.7-6.1,0.8c-0.9-1.7-0.1-6.2,1.4-7.3c8.8-6.1,17.9-11.7,27.1-17.2
			c6.8-4,14-7.3,20.8-11.2c2.4-1.4,4.3-3.5,6.4-5.4c6.4-6,12.7-12.1,19.1-18c1.5-1.4,3.5-2.2,4.9-4.1c-8.3,3.4-16.6,6.8-24.9,10.3
			c-23.1,9.7-46.2,19.2-69.1,29.1c-15.7,6.8-31.3,14-46.7,21.3c-12.5,5.9-24.6,12.7-37.2,18.4c-14.4,6.5-29,12.4-43.7,18.2
			c-3.1,1.2-6.8,1-10.2,0.9c-1.2,0-2.9-1.5-3.4-2.7c-0.3-0.8,0.9-2.8,1.9-3.4c8.8-5.3,17.4-10.2,28.6-9.5c5,0.3,10.4-2.9,15.2-5.2
			c12.8-6,25.5-12.3,38.2-18.5c15.2-7.4,30.4-15,45.7-22.1c14.9-6.9,29.9-13.6,45.1-19.8c23.1-9.4,46.3-18.3,69.6-27.2
			c12.4-4.7,25-8.9,37.4-13.5c2.1-0.8,3.8-2.4,6.1-3.9c-1-0.5-1.7-1.1-2.1-0.9c-12.1,3.2-24.4,6.3-36.4,9.9
			c-12.1,3.7-24,7.8-36,11.9c-17.7,6.2-35.4,12.3-52.9,19c-13.7,5.2-27.1,11.1-40.6,16.6c-10.9,4.5-21.7,9.8-32.9,13.1
			c-13.9,4.1-26.4,10.9-39.1,17.5c-3.8,2-5.6,0.8-7.4-5.4c15.6-6.5,31.3-13,47.1-19.6c6.2-2.6,12.4-5.3,18.6-7.8
			c10.7-4.3,21.4-8.4,32-12.8c8.9-3.7,17.6-8.1,26.7-11.4c12.6-4.6,25.5-8.5,38.3-12.6c2.3-0.8,4.7-1.5,7-2.2
			c17-5.3,34.1-10.7,51.2-15.7c14.8-4.4,29.9-7.5,44.4-12.7c8.5-3.1,16-9,23.9-13.7c3.8-2.2,7.6-4.5,11.4-6.7
			c1.5-0.9,2.9-1.8,3.9-3.8c-6.3,1.6-12.7,3-19,4.7c-19.9,5.4-39.8,10.7-59.6,16.6c-16.4,4.8-32.6,10.1-48.7,15.6
			c-30.4,10.4-60.2,22.1-88.8,36.7c-3.8,1.9-8.1,2.9-11.8,5c-5.3,2.9-10.3,6.3-15.5,9.4c-1.7,1-3.7,2.1-5.4,2
			c-1.5-0.1-3.3-1.8-4.2-3.2c-0.3-0.5,1.1-3,2.2-3.5c24.1-11.3,48.1-22.9,72.4-33.6c18.1-8,36.6-15.3,55.3-22.1
			c13.7-4.9,27.9-8.6,41.9-12.5c17.8-5,35.9-9.2,53.6-14.6c15.2-4.6,30.6-7.2,46.2-9.6c9.1-1.4,18.3-3.1,26.9-6.1
			c11.1-3.9,21.7-9.4,34-14.8c-7,1-12.7,1.6-18.2,2.8c-19.6,4-39.1,8.4-58.8,12.3c-7.7,1.5-15.8,1.5-23.4,3.4
			c-18.4,4.5-36.7,9.7-55,14.7c-21.8,6-44,10.8-65.3,18.4c-27,9.7-53.4,21.2-79.7,32.9c-9,4-16.8,10.9-25.2,16.3
			c-1.2,0.8-2.8,1.1-4.2,1.6c-2.2-5.3,0.5-8.2,3.9-10.1c14.5-7.8,29.1-15.4,43.7-22.9c4.1-2.1,8.7-3.2,7.7-9.5
			c-0.2-1.1,1.7-3.2,3.1-3.9c11.8-6.4,23.5-13.3,35.7-18.8c13.2-5.9,26.8-10.8,40.6-15.2c14.3-4.6,29-8.2,43.5-12.1
			c18.4-4.9,36.7-10,55.2-14.4c9.7-2.3,19.8-3.1,29.7-4.5c10.1-1.4,20.2-2.7,30.3-4.2c14.5-2.2,28.8-4.9,43.3-6.7
			c9.9-1.3,20-1.4,30-2.1c1.1-0.1,2.1-0.5,3.2-1.1c-9.4-2.4-18.8-1.7-28.3-1.1c-5.1,0.3-10.2,1.1-15.3,1.6
			c-10.8,1.1-21.7,2-32.5,3.3c-8.7,1-17.3,2.4-25.9,3.7c-3.6,0.5-7.1,1.3-10.7,2c-16.2,3.3-32.5,6.5-48.6,10.2
			c-15.2,3.4-30.3,6.9-45.3,11.1c-11.5,3.2-22.7,7.6-34.1,11.3c-7.4,2.4-14.9,4.7-22.5,6.6c-1.6,0.4-3.6-0.9-5.4-1.4
			c1.3-1.3,2.4-3.2,3.9-3.8c4.6-1.6,9.4-2.7,14.1-4.1c16.3-5,32.4-10.6,48.9-15.1c19-5.2,38.2-9.4,57.4-14.1
			c7.2-1.7,14.2-3.9,21.4-5.3c9.8-1.9,19.8-3.2,29.7-4.7c5.8-0.9,11.7-1.5,17.4-3.3c-9.4,0.7-18.8,1.4-28.2,2.2
			c-7.1,0.6-14.1,1.5-21.1,2.4c-8.3,1-16.7,1.9-25,3.1c-10.9,1.5-21.8,3.3-32.7,4.9c-8.1,1.1-16.3,2.2-24.5,2.9
			c-1.3,0.1-2.8-1.7-4.2-2.7c1.4-0.7,2.8-1.9,4.3-2.2c4.9-1,9.9-1.8,14.9-2.5c12-1.9,24-3.9,36-5.7c11.6-1.7,23.1-3.4,34.7-4.8
			c11.5-1.3,23-2.6,34.5-3.1c21.2-1,42.5-1.5,63.7-2.2c11.6-0.4,23.3-1.1,34.9-0.8c15.2,0.4,30.4,1.8,45.6,2.6
			c3.3,0.2,6.6-0.5,9.9-1c11.2-1.6,22.5-3.2,33.7-4.8c0.8-0.1,1.7,0,2.5-0.3c2.7-1,5-1.4,5.5,2.4c0.4,3.6-1.7,5.2-5,5.5
			c-4.4,0.4-8.9,0.2-13.2,0.8c-11,1.5-22.2,2.6-32.9,5.3c-8.2,2.1-15.6,7.1-23.8,9.5c-17.2,4.9-29.8,16.7-42.9,27.6
			c-13.7,11.4-27,23.5-40.4,35.3c-19.7,17.3-39.3,34.6-58.9,52c-1.9,1.7-3.8,3.4-5.2,5.4c-0.6,0.9-0.1,2.5-0.4,3.8
			c-0.3,1.3-0.6,2.9-1.4,3.7c-5.2,4.7-10.5,9.4-15.9,13.8c-1.1,0.9-3,0.5-4.8,0.8c-1.6-6.7,3.6-9.8,6.5-13.4
			c13.7-17.4,30.1-32.1,46.9-46.4c13.4-11.4,26-23.7,39.4-35.1c12.3-10.5,25.1-20.3,37.7-30.4c0.6-0.5,1.1-0.9,2.7-2.2
			c-2.6,0.3-3.9,0.2-5,0.6c-23.3,9.3-46.2,19.5-67.1,33.4c-11.4,7.6-21.7,16.7-32.1,25.7c-7.9,6.8-15.2,14.2-22.6,21.5
			c-13.9,13.7-26.6,28.4-38.4,44c-4,5.3-8.2,10.3-12.2,15.6c-1.4,1.8-2.4,3.8-3.2,6.1c5.8-5,11.7-10,17.7-15.2
			c0.8,1.4,1.1,1.9,1.1,1.9c-7.5,7-14.9,14-22.6,20.7c-1,0.9-4.3,0.9-5.1,0c-1-1-1.1-4-0.3-5.2c5.4-8.5,10.9-16.8,16.8-25
			c5.1-7.1,10.7-13.8,16.2-20.6c4.1-5,8.3-9.9,12.8-14.5c13.9-14.2,26.6-29.7,43.5-40.7c0.8-0.5,1.3-1.4,1.9-2
			C362.9,532.9,362.7,532.6,362.4,532.2z M472.9,463.6c-1.7,7.1-15.4,12.8-26,11.6c0.9-0.8,1.6-1.5,3-2.8c-3-0.4-5.3-1.2-7.5-0.9
			c-14.5,2.1-28.9,4.3-43.3,6.7c-15.4,2.6-30.7,5.4-46.1,8.1c-14.2,2.5-28.5,4.5-42.6,7.6c-16.3,3.6-32.5,7.8-48.6,12.4
			c-18,5.1-35.8,10.6-53.5,16.6c-10.7,3.6-21.2,7.9-31.4,12.8c-7.4,3.6-14.1,8.6-21.1,13c22.3-7.2,43.8-15.5,65.8-22.3
			c21.5-6.6,43.4-11.6,65.1-17.4c11.6-3.1,23.1-6.5,34.6-9.4c5.7-1.5,11.6-2.5,17.4-3.4c10.9-1.7,21.8-3,32.7-4.9
			c19.6-3.5,39-7.7,58.6-10.8c4.9-0.8,11.3-3,15.4,3.3c0.2,0.4,2.1-0.1,3.1-0.5c8.8-3.7,17.5-7.3,26.2-11.2c2.2-1,4-3,6-4.6
			C478.3,466.3,475.8,465.1,472.9,463.6z M330,534.5c20.3,0.9,31.4-15.4,47.1-23.3c-4.6,0.4-8.9,1.3-13.1,2.3
			c-1,0.2-2.7,1.4-2.6,1.6c1.8,5-2.8,4.1-4.9,5.3C347.7,525.2,338.8,529.8,330,534.5z M488.1,467.8c6.3-1.2,13.7-3.4,20.5-8.8
			c-10.2,0-19.4,0-28.5,0C482.7,461.7,485.1,464.4,488.1,467.8z M261.4,577.7c-0.4-0.8-0.9-1.7-1.3-2.5
			c-9.3,5.9-18.6,11.8-27.9,17.8c0.5,0.8,1,1.5,1.4,2.3C242.8,589.4,252.1,583.6,261.4,577.7z M294.9,558.7c0.2,0.5,0.5,1,0.7,1.5
			c3.4-1.6,6.8-3.1,10.2-4.7c-0.3-0.6-0.5-1.1-0.8-1.7C301.7,555.5,298.3,557.1,294.9,558.7z M323.6,545.4c-6-0.7-7.3,0.2-7.6,4.3
			C318.7,548.1,321.2,546.8,323.6,545.4z"/>
		<path class="st1" d="M429.1,2357.5c5.8-5.2,13.2-6.1,20.5-7.2c5.9-0.8,11.9-0.6,17.8-1.2c1.2-0.1,3.1-1.6,3.3-2.7
			c2.2-11.6,3.9-23.3,6.4-34.8c1.4-6.6,4-12.9,5.9-19.4c3.3-11.1,6.5-22.3,9.9-33.4c3-10.1,6.3-20,9.2-30.1
			c4.4-15.3,8.5-30.7,12.8-46c4.6-16.2,9.4-32.4,14.1-48.7c4-14,7.8-28.1,12-42.1c4-13.5,5.5-27.8,13.5-39.9c0.9-1.4,2.1-2.7,3.2-4
			c0.6,0.2,1.1,0.4,1.7,0.6c-0.9,4.3-1.5,8.6-2.7,12.8c-3,10.4-6.5,20.6-9.4,31.1c-5,18-9.7,36.1-14.5,54.1
			c-3.7,13.7-7.4,27.5-11.3,41.2c-3.6,12.6-7.6,25.1-11.2,37.7c-4.8,16.5-9.2,33.2-14,49.7c-2.9,9.9-6.9,19.6-9.6,29.5
			c-3.8,13.7-6.9,27.7-10.2,41.5c-0.1,0.4,0.1,1,0.2,1.9c5.6-0.4,11.1-0.8,16.7-1.1c10.4-0.5,20.9-0.9,31.3-1.2
			c7.2-0.2,14.4-0.6,21.6-0.5c16.6,0.2,33.2,0.5,49.9,0.9c2.7,0.1,5.8,0.7,8,2.2c1.6,1,2,3.8,3.5,7.3c-4.2-0.6-6.7-1.2-9.3-1.2
			c-10.5-0.2-21-0.2-31.5-0.3c-11.4-0.2-22.7-0.9-34.1-0.6c-16.6,0.3-33.1,1.2-49.7,1.9c-11.1,0.5-22.2,1.2-33.3,2
			c-4.4,0.3-8.7,1.6-13.1,2.1c-2.4,0.3-4.9-0.3-7.3-0.4C429.2,2358.7,429.1,2358.1,429.1,2357.5z"/>
		<path class="st1" d="M268.8,408c13.3-5.2,13.3-5.2,18.6-3.4c-5.1,2.5-9.5,4.9-14,6.7c-6.5,2.7-12.7,5.5-20.2,5.7
			c-5.7,0.1-11.3,4.4-17,6.9c-1.8,0.8-3.6,2.5-5.2,2.3c-2-0.2-4.2-1.6-5.6-3.1c-0.5-0.6,0.8-3.8,2.1-4.6
			c15.6-10.3,31.2-20.3,49.2-26.6c15.6-5.4,30.3-13.3,45.5-20.1c4.8-2.1,9.7-3.9,14.6-6c15.9-6.7,31.6-13.9,47.6-20.1
			c7.3-2.8,15.2-3.7,22.9-5.6c9.5-2.4,19-5,28.5-7.3c2.9-0.7,6-0.6,8.9-0.4c1.2,0.1,2.2,1.7,3.3,2.7c-1,0.8-2,2.1-3.1,2.4
			c-8.9,2.4-17.8,4.5-26.6,7c15.5-1.2,30.5-7.4,47.4-3.6c-1.8,1.4-3.4,3.8-5.4,4.2c-17.7,3.1-35.6,5.1-53.2,8.8
			c-11.7,2.4-22.8,7.1-34.3,10.6c-28.4,8.9-55.4,21.4-82.7,33c-5.4,2.3-10.9,4.6-16.2,7.1C272.1,405.4,270.5,406.8,268.8,408z"/>
		<path class="st1" d="M889.2,661.9c-18-5.3-33.8-15.9-50.7-23.6c-16.9-7.7-33-17.4-49-27c-16-9.6-31.3-20.1-47.3-30
			c3.7,3.9,7.1,8.2,11.2,11.6c6.8,5.5,14.1,10.2,21.1,15.4c11.6,8.7,23,17.7,34.6,26.4c7.3,5.4,14.9,10.3,22.2,15.6
			c2.9,2.1,6.7,4,5.4,9.5c-1.7-0.6-3.3-0.8-4.6-1.6c-14.1-9.4-28.3-18.6-42.1-28.4c-15.7-11.3-31.4-22.8-46.2-35.3
			c-10-8.4-17.9-19.1-27.6-27.9c-10.3-9.5-19-20.1-26.7-31.7c-0.8-1.2-1.3-2.6-2-4c0.4-0.3,0.7-0.6,1.1-0.9c4.5,3.4,9,6.8,13.5,10.2
			c0.7-1,1.6-3,2.1-2.9c1.4,0.3,2.7,1.3,3.9,2.3c7,6.2,14,12.5,21,18.7c1.1,1,2.4,1.8,3.4,2.9c6.7,6.9,14.1,12.7,22.3,17.9
			c11.7,7.5,23.5,15.1,35,22.9c16.3,11,33.6,19.9,50.7,29.3c15.6,8.6,31.1,17.2,46.6,25.9c1.2,0.7,2,2.3,3,3.4
			C889.8,661.1,889.5,661.5,889.2,661.9z"/>
		<path class="st1" d="M718.5,671.8c-11.9-0.2-21.1-6.7-30.1-13.4c-2.9-2.2-3.8-5.7-1.5-8.3c2.4-2.7,4.5,0.2,6.6,1.9
			c7.2,5.7,14.7,10.5,24.2,12.4c17.3,3.5,34.4,8.4,51.6,12.3c8.8,2,17.9,2.8,26.6,5c11.4,2.9,22.6,6.7,33.7,10.4
			c4,1.3,7.8,3.3,11.5,5.3c0.9,0.5,1.9,2.6,1.6,3.5c-0.4,1.4-1.8,2.8-3.1,3.3c-0.7,0.3-2.1-1.6-3.3-2.1c-4.3-2-8.7-3.9-13.1-5.6
			c-2.4-1-4.9-1.7-7.3-2.5c-3-0.9-5.9-1.8-8.9-2.6c-0.8-0.2-1.8,0.1-2.4-0.3c-12.2-6.3-26.1-4.1-38.9-7.7
			c-6.1-1.7-12.2-3.7-18.4-5.3c-5.2-1.4-10.5-2.4-15.5-3.5c-1.1,1.3-2.2,2.6-3.4,4.1c6.1,6.4,13.4,10.9,21.9,13.5
			c13.6,4.1,27.2,8.5,40.9,12.3c10.1,2.8,20.4,4.6,30.4,7.8c12.4,3.9,24.4,8.7,36.6,13.3c1.6,0.6,3.3,1.9,4.2,3.3
			c1,1.7,1.2,3.9,1.8,5.9c-2.4-0.4-5.1-0.4-7.3-1.3c-5.5-2.2-10.7-5.2-16.3-7.2c-8.5-3-17-5.7-25.7-8.1c-8.5-2.3-17.2-3.9-25.8-5.8
			c-0.6-0.1-1.3-0.2-1.9-0.6c-8.8-5.6-18.9-6.9-28.6-9.3c-12.5-3.2-24.4-8-34.2-16.8C720.1,682.2,718,677.4,718.5,671.8z"/>
		<path class="st1" d="M801.1,374.3c9.7,0,19.5-0.4,29.2,0.1c8.7,0.4,17.4,1.6,26.1,2.9c9.3,1.3,18.5,3.1,27.7,4.5
			c10.2,1.6,20.6,2.6,30.7,4.6c9.8,1.9,19.4,4.8,29.1,7.2c11.9,3,23.9,5.6,35.8,8.9c7.1,2,13.7,5.2,20.8,7.4
			c8.7,2.7,17.7,4.9,26.5,7.4c2.1,0.6,4.1,1.3,6.1,1.9c19.1,6.4,38.3,12.5,57.3,19.2c9.8,3.4,19.3,7.5,28.8,11.6
			c1.5,0.7,2.4,2.8,3.7,4.2c-1.8,0.1-3.8,0.7-5.4,0.2c-13.5-4.6-26.8-9.6-40.4-14c-19.5-6.3-39.1-12.1-58.7-18.1
			c-14.9-4.6-29.7-9.3-44.7-13.5c-12.6-3.5-25.5-6.1-38.2-9.2c-8.1-2-16.1-4.6-24.3-6.2c-8.4-1.7-16.9-2.4-25.3-3.8
			c-8.9-1.5-17.7-3.6-26.5-5.1c-7-1.2-14-2.1-21-2.8c-9.9-0.9-19.9-1.2-29.8-2.1c-2.6-0.2-5.1-1.7-7.6-2.6
			C800.9,376,801,375.1,801.1,374.3z"/>
		<path class="st1" d="M444.9,2312.9c-0.4-0.8-1-1.6-1-2.5c-0.8-16.1,0.6-32,5-47.6c2.9-10.1,5.1-20.3,8-30.4c1.4-4.7,4-9,5.6-13.7
			c6.6-18.7,13.4-37.4,19.6-56.2c6.2-18.5,11.9-37.2,17.6-55.9c6.1-19.9,12.2-39.9,18-59.8c4.9-16.7,9-33.5,14.2-50.1
			c2.4-7.6,6.4-14.7,10.8-21.8c0,2.3,0.5,4.7-0.1,6.8c-3.8,15.1-7.8,30.1-11.9,45.2c-4.6,16.9-9.1,33.9-14.1,50.7
			c-5.3,17.8-11,35.4-16.8,53c-7.6,22.9-15.5,45.6-23.3,68.4c-4.8,14-9.8,27.9-14.4,42c-3.4,10.4-7.1,20.8-9.4,31.5
			c-2.6,12-3.9,24.3-5.7,36.4c-0.2,1.3-0.4,2.7-0.7,4C445.9,2312.9,445.4,2312.9,444.9,2312.9z"/>
		<path class="st1" d="M714.7,384.2c2.3-1,4.6-2.9,6.9-2.9c23.4,0.4,46.8,1.2,70.1,1.9c7,0.2,13.9,0.6,20.9,1
			c23.2,1.3,46.2,2.7,68.8,9.4c13.6,4,27.9,5.7,41.7,9.2c15.6,3.9,31,8.2,46.4,12.9c16.5,4.9,32.8,10.3,49.1,15.7
			c3.4,1.1,6.8,2.9,9.5,5.2c1.9,1.6,2.8,4.5,3.9,6.9c0.2,0.4-0.7,1.6-1.2,1.8c-0.8,0.2-2.2,0.1-2.6-0.5c-5.6-7.7-14.7-8.7-22.6-11.8
			c-7.4-2.9-15.2-5-22.9-7.1c-10-2.7-20-4.9-30-7.4c-4-1-8.1-1.7-11.9-3.2c-15.8-6.1-32.5-7.5-48.9-11c-8.6-1.8-16.9-5.3-25.6-7
			c-10.6-2.1-21.4-3.9-32.1-4.7c-16.6-1.2-33.5-0.3-50-2.5c-20.7-2.7-41.3-2.5-62-2.7c-2.3,0-4.5-0.8-6.8-1.3
			C715.2,385.5,714.9,384.9,714.7,384.2z"/>
		<path class="st1" d="M303.6,329.6c-12.9,3.6-25.9,7.1-38.8,10.7c-0.2-0.7-0.4-1.4-0.6-2.1c5.4-1.9,10.9-3.8,16.3-5.6
			c14.9-5,29.8-10.2,44.8-15c10.6-3.4,21.3-6.2,32.1-9c1.3-0.3,3.1,1,4.6,1.6c-1.1,1.7-1.9,4.2-3.5,4.9c-6.4,2.9-13.1,5.2-19.6,7.9
			c-7.2,3-14.3,6.6-21.6,9.4c-12.5,4.9-25.1,9.2-37.6,14c-5.5,2.1-10.8,4.7-16.3,7.1c-18.9,8-37.9,15.8-56.7,24.2
			c-18.9,8.4-37.6,17.4-56.4,26.2c-7,3.3-13.8,7.1-20.8,10.4c-1.6,0.7-3.8,0.2-5.7,0.3c0.9-1.6,1.4-4,2.8-4.7
			c9-4.8,18.2-9.2,27.3-13.8c14.7-7.3,29.4-15,44.3-21.9c15-7,30.3-13.4,45.6-19.9c16.2-6.8,32.5-13.4,48.8-20
			c3.6-1.5,7.4-2.6,11.1-3.9C303.7,330.1,303.6,329.8,303.6,329.6z"/>
		<path class="st1" d="M861.8,538.3c3.5,3.9,6.8,7.9,10.4,11.7c2.4,2.4,5,4.6,7.7,6.7c4.5,3.6,9,7.2,13.8,10.4
			c8,5.4,16.4,10.3,24.4,15.7c14.7,9.9,29.2,20.1,44,30c7.4,5,15.7,8.7,22.4,14.4c9.1,7.7,20.2,11.6,30,17.7
			c16.9,10.6,34,20.7,51,31c1.2,0.7,3,0.6,4.1,1.4c1.3,0.8,2.2,2.2,3.3,3.3c-1.6,0.9-3.6,2.8-4.7,2.4c-7-2.9-13.8-6.2-20.5-9.7
			c-7.6-4.1-15.1-8.5-22.6-13c-17.9-10.8-35.7-21.7-53.5-32.5c-4.1-2.5-8.4-4.6-12.3-7.4c-5.2-3.7-9.7-8.3-15-11.7
			c-15.1-9.6-30.9-18.2-45.6-28.4c-12.9-9-26.4-17.7-36.1-30.6c-2-2.6-2.6-6.3-3.9-9.5C859.9,539.5,860.8,538.9,861.8,538.3z"/>
		<path class="st1" d="M716.1,518.7c1.6,1.2,3.4,2.3,4.6,3.8c12.3,15.1,27.7,26.2,44.7,35.5c15.1,8.3,29.9,17.3,44.9,25.7
			c10.2,5.7,20.7,10.9,30.8,16.6c17.3,9.8,34.5,19.8,51.8,29.8c15.1,8.7,30.2,17.5,45.3,26.2c0.9,0.5,1.8,1,2.4,1.8
			c0.7,1,1.1,2.3,1.7,3.4c-1.2,0-2.5,0.4-3.4-0.1c-19.2-10.2-38.3-20.5-57.4-30.8c-16-8.7-32-17.5-48-26.2
			c-6.1-3.3-12.2-6.5-18.2-9.8c-5.7-3.2-11.3-6.7-17-9.9c-3.7-2.1-7.6-3.8-11.4-5.7c-20.1-10.1-39.8-21-56.7-36
			c-7-6.2-13.3-13.3-15.2-23C715.3,519.5,715.7,519.1,716.1,518.7z"/>
		<path class="st1" d="M109.4,399.7c8.6-3.7,17.2-7.5,25.9-11.2c0.4,0.8,0.8,1.6,1.2,2.4c-2.3,1.5-4.5,3.2-7,4.4
			c-10.8,5.3-21.6,10.5-32.4,15.7c-1.5,0.7-3,1.7-4.6,1.8c-1.7,0.1-4.4-0.4-4.9-1.4c-0.6-1.4-0.2-4.5,0.9-5.2
			c8.3-5.9,16.6-12.1,25.6-16.8c20.2-10.4,40.5-20.6,61.3-29.8c22.1-9.8,44.7-18.3,67.1-27.4c8.2-3.3,16.5-6.6,24.6-10.1
			c9.6-4.1,19.5-6.4,29.9-5.7c1.6,0.1,3.1,1.8,4.4,3.9c-4.5,1-9,2.4-13.6,3c-10.5,1.3-19.7,6-29.3,10.1c-9.5,4.1-19.4,7.1-29,11
			c-27.3,11.2-54.7,22.4-81.7,34.2c-13.4,5.8-26.2,13-39.2,19.5C109,398.7,109.2,399.2,109.4,399.7z"/>
		<path class="st1" d="M411.6,329.3c-1.9,1-3.8,2.8-5.8,3c-21.2,2.2-40.5,10.7-60.1,18.3c-8.9,3.4-18,6.1-26.7,9.9
			c-27.3,11.7-54.6,23.6-81.8,35.6c-2.6,1.1-6.1,1.7-6,6.1c0,1-2.2,2.4-3.6,3.1c-6.8,3.8-13.7,7.6-20.6,11.3
			c-1.7,0.9-3.7,1.9-5.5,1.8c-1.5-0.1-3.2-1.4-4.2-2.7c-0.3-0.4,0.8-2.6,1.8-3.4c10.9-8.6,22.7-15.9,35.3-21.7
			c20.8-9.5,41.5-19.1,62.5-28.2c16.6-7.2,33.2-14.3,50.2-20.4c16.5-5.9,33.4-10.7,50.3-15.4c4.3-1.2,9.2,0.2,13.9,0.4
			C411.2,327.7,411.4,328.5,411.6,329.3z"/>
		<path class="st1" d="M395.6,319.6c-2.4,1.6-3.3,2.6-4.3,2.8c-20.4,2.9-39.7,10.2-59,16.7c-11.9,4-23.2,10.1-34.8,15.2
			c-30.9,13.5-60.4,29.6-89.1,47.4c-3.5,2.2-7,4.4-10.2,6.9c-1.3,1-1.8,2.9-2.9,4.3c-1.1,1.3-2.3,3-3.8,3.4c-1,0.2-3.2-1.5-3.4-2.7
			c-0.3-1.6,0.1-4.2,1.3-5.1c7.1-5.6,14.4-11.1,21.9-16.1c10-6.7,20.2-13,30.5-19.3c3.2-2,6.9-3.1,10.3-4.8
			c18.3-8.7,36.5-17.5,54.9-26c6.4-3,12.9-5.6,19.6-7.8c14.9-5,29.8-9.8,44.9-14.2c5.9-1.7,12.3-2.2,18.5-2.9
			C391.2,317.2,392.7,318.4,395.6,319.6z"/>
		<path class="st1" d="M694.5,408.8c2.1-0.5,4.1-1.3,6.2-1.6c10.1-1.4,20.2-3.3,30.3-3.8c23-1.1,46.1-2.3,69.2-1.8
			c14.9,0.3,29.8,2.8,44.6,5.3c17.9,3,35.8,6.4,53.5,10.7c10.9,2.6,21.4,7.2,32,11c0.3,0.1,0.5,0.7,1.1,1.8c-2,0-3.6,0.3-5,0
			c-18.9-3.9-37.9-7.7-56.8-11.8c-7.7-1.6-15.2-4-22.9-5.4c-9.2-1.6-18.5-3.1-27.9-3.4c-23.9-0.7-47.9-1.1-71.8-1
			c-10.7,0.1-21.3,2-32,2.7c-6.7,0.4-13.4,0.1-20.1,0.1C694.8,410.5,694.6,409.6,694.5,408.8z"/>
		<path class="st1" d="M540.8,463.6c-2.7,6.4-8.7,8-13.7,10.9c-3.9,2.3-8,4.4-11.7,7c-13.4,9.2-27.1,18.2-40,28.1
			c-15.5,11.8-30.3,24.3-45.4,36.6c-4.9,4-9.6,8.1-14.2,12.3c-1.1,1-4.4,2.1-1.2,4.5c-1.9,2.2-3.6,4.6-5.7,6.6
			c-3.9,3.7-8,7.1-12,10.6c-0.9,0.8-1.7,2-2.6,2.2c-1.7,0.3-3.5-0.1-5.2-0.3c0.2-1.6-0.1-3.7,0.7-4.9c4.2-5.3,8.5-10.6,13.3-15.4
			c11.6-11.3,22.9-23,35.4-33.2c15.8-12.8,32.7-24.4,49.2-36.3c8.8-6.4,17.6-12.7,26.6-18.7C522.1,468.3,530.7,464,540.8,463.6z"/>
		<path class="st1" d="M409,2409.2c7-2.3,13.3-4.9,19.7-6.2c9.2-1.8,18.6-2.5,27.9-3.8c8.2-1.1,16.3-2.3,24.5-3.4
			c4.7-0.6,9.5-1.2,14.2-1.5c14.2-1.1,28.3-2.1,42.5-3c8.4-0.5,16.9-1.1,25.3-0.8c16.4,0.6,32.7,1.5,49,2.9
			c6.6,0.6,13.2,2.5,19.7,3.9c1.2,0.3,2.3,1.1,3.4,1.7c-0.1,0.5-0.3,1-0.4,1.5c-2.5,0-5,0.2-7.5,0c-11.5-0.9-23-2.2-34.5-2.9
			c-9.9-0.6-19.9-1.3-29.8-0.8c-22,1.1-43.9,3-65.8,4.6c-8.9,0.7-17.8,1.2-26.7,2.3c-13.2,1.6-26.2,4-39.4,5.6
			c-6.6,0.8-13.1,4.1-19.9,1.3C410.7,2410.2,410,2409.8,409,2409.2z"/>
		<path class="st1" d="M628.7,2424.2c-11.3-0.7-22.5-1.8-33.8-2.1c-13.9-0.5-27.8-0.4-41.7-0.6c-16.8-0.3-33.6-1.4-50.3-0.8
			c-19.5,0.8-38.9,3-58.3,4.7c-9.4,0.8-18.8,1.6-28,3.2c-5,0.9-9.8,3.6-14.7,5.4c-1.8,0.7-3.7,1.3-5.8,1.4
			c3.8-5.9,9.6-8.6,15.7-10.2c20.5-5.2,41.3-8.5,62.4-9.1c20.9-0.6,41.8-1.8,62.7-1.7c16.6,0.1,33.3,1.6,49.9,2.7
			c12,0.8,24.1,1.9,36.1,3.1c2.2,0.2,4.3,1.5,6.4,2.2C629.1,2423.1,628.9,2423.7,628.7,2424.2z"/>
		<path class="st1" d="M415.5,401c-2.1,2.3-3,4.4-4.6,4.9c-5.6,1.8-11.3,3-16.9,4.6c-1.7,0.5-3.2,1.5-4.8,2.3
			c-1.9,0.9-3.8,2.3-5.7,2.4c-1.5,0.1-3.9-1.3-4.3-2.5c-0.3-1.3,0.9-3.9,2.2-4.5c12.2-6.3,24.4-12.4,38.1-15.6
			c12.4-2.9,24.3-7.7,36.6-11.4c13.6-4.2,27.4-7.8,41.7-9c4.4-0.4,8.7-1.6,13.1-1.8c1.6-0.1,3.4,1.7,5.1,2.6c-1.4,1.2-2.6,3-4.1,3.3
			c-9.3,1.9-18.8,3-28,5.2c-12.2,2.9-24.3,6.4-36.4,9.9C436.3,394.6,425.2,398.1,415.5,401z"/>
		<path class="st1" d="M780.1,815.6c-0.4,2.5-0.5,5-1.1,7.4c-2.9,11.2-5.6,22.3-8.9,33.4c-1.8,6-4.1,11.8-6.8,17.4
			c-0.8,1.7-3.7,2.4-5.7,3.6c-0.9-1.9-2.6-3.8-2.7-5.8c-0.2-3.8,0.5-7.6,0.9-11.3c0.9-8.6,1.8-17.2,2.9-25.7
			c1-7.6,2.5-15.2,3.4-22.9c2-16.5,7-32.9,2.8-49.8c5.1,0.7,8.3,4.4,8,9.8c-0.3,7.6-1.2,15.1-2,22.6c-0.5,5.1-1.2,10.1-1.9,15.2
			c-1.1,8-2.6,15.9-3.2,23.9c-0.5,7.4-0.1,14.8-0.1,23.7c4.2-14.7,8-28.2,11.9-41.7C778.5,815.2,779.3,815.4,780.1,815.6z"/>
		<path class="st1" d="M733.9,729.3c5.6,5.5,1.3,10.1-0.1,13.9c-3.4,9.6-4.3,19.5-5.6,29.3c-1.6,11.2-3.6,22.4-4.7,33.7
			c-0.7,6.7-0.1,13.6-0.1,19.3c7.3-13.5,14.2-29,23.3-43.2c0.5,0.2,1.1,0.5,1.6,0.7c-0.3,1.1-0.5,2.3-1,3.3
			c-6.3,14.1-12.6,28.2-19.2,42.2c-1.4,2.9-3.5,5.6-5.7,7.9c-1,1.1-3.6,2.1-4.6,1.6c-1.7-0.9-3.3-2.9-3.7-4.7
			c-0.5-2.7,0.1-5.6,0.4-8.3c0.7-5.9,1.6-11.7,2.4-17.6c1.3-9.3,2.4-18.5,3.8-27.8c1.6-10.4,3.2-20.8,5.3-31
			c1-5.3,2.8-10.4,4.6-15.5C731,731.7,732.7,730.6,733.9,729.3z"/>
		<path class="st1" d="M436.8,413.6c7.5-2.1,15-4.1,22.5-6.2c0.2,0.5,0.5,1.1,0.7,1.6c-1.1,0.8-2.1,1.9-3.3,2.4
			c-9,3-17.9,6.1-27.1,8.6c-1.7,0.5-4.4-1.1-5.9-2.6c-0.8-0.8-0.5-3.5,0.2-4.9c2.9-5.6,8.7-6.6,13.9-8.3c2-0.7,4.2-0.8,6.1-1.7
			c11.7-5.4,23.7-9.2,36.4-11.5c15.6-2.8,31.1-6.7,46.6-9.9c2.9-0.6,5.9-0.9,8.8-0.8c1.4,0.1,2.8,1.6,4.1,2.4
			c-1.2,1.2-2.2,3-3.7,3.5c-5.6,1.6-11.4,2.9-17.2,4.2c-12,2.7-23.8,6.2-35.9,7.7c-14.9,1.8-28.4,7.9-42.3,12.5
			c-1.5,0.5-2.9,1.5-4.3,2.2C436.6,413,436.7,413.3,436.8,413.6z"/>
		<path class="st1" d="M459.4,603c-16.4,30.7-32.7,61.5-49.1,92.2c0.5,0.3,1.1,0.7,1.6,1c1.8-2,3.6-3.9,5.4-5.9
			c0.4,0.2,0.8,0.5,1.2,0.7c-0.9,1.9-1.5,4-2.6,5.8c-4.9,7.8-9.8,15.5-15,23.1c-0.8,1.2-3,1.5-4.5,2.3c-0.9-1.8-2-3.6-2.5-5.5
			c-0.3-1.1,0.2-2.6,0.7-3.7c4.1-8.2,8.4-16.4,12.5-24.6c2.8-5.6,5.1-11.4,8.1-16.9c8.6-15.8,17.4-31.4,26.2-47.1
			c3.7-6.6,7.3-13.2,11.3-19.6c1-1.5,3.5-2.1,5.3-3.1C458.6,602.1,459,602.6,459.4,603z"/>
		<path class="st1" d="M320.2,292.3c-5.1-6.2-10.3-12.3-15.2-18.7c-7-8.9-14.1-17.8-20.7-27.1c-15.2-21.3-29.5-43.1-37.4-68.5
			c-0.4-1.3,0.4-3,0.7-4.6c1.4,0.6,3.5,0.8,4.2,1.9c2.6,4.1,5,8.4,6.9,12.8c7.3,17.1,16.4,33,27.6,47.7c7.9,10.3,14.9,21.3,22.3,32
			c3.9,5.7,8,11.3,11.7,17.1c1.1,1.8,1.3,4.2,2,6.3C321.6,291.7,320.9,292,320.2,292.3z"/>
		<path class="st1" d="M562.4,461.8c-1.1,1.6-1.6,3.1-2.7,3.7c-8.2,4.7-14.9,10.7-20.9,18.3c-9.1,11.4-20.5,20.5-33.4,27.7
			c-6.7,3.8-12.7,8.8-18.9,13.4c-0.7,0.5-1,1.5-0.8,3.3c4-2.6,8.1-5.2,12.1-7.8c0.5,0.7,0.9,1.3,1.4,2c-4,3.1-8,6.3-12.1,9.3
			c-3.3,2.5-6.5,5-10,7.1c-1.4,0.9-3.5,0.8-5.2,1.1c0.2-1.9-0.1-4,0.6-5.6c1.2-2.5,2.9-4.8,4.7-6.9c3.5-4.1,6.8-8.4,10.9-11.8
			c6.1-5,13.2-8.7,19.1-13.8c9.9-8.4,19.6-17.2,28.9-26.4C543.3,468.4,549.6,460.4,562.4,461.8z"/>
		<path class="st1" d="M459.9,429.2c-1.3-1.3-3.3-2.3-3.8-3.8c-0.3-1.1,1-3.6,2.1-4.1c9.4-4.2,18.7-8.9,28.5-11.8
			c12.8-3.8,26-6.2,39.1-9.1c7-1.6,14.1-2.9,21.2-4.1c1.2-0.2,2.7,0.6,4,1c-0.8,1.3-1.4,3.5-2.5,3.9c-9.8,3-19.8,5.6-29.7,8.5
			c-6.1,1.8-12.1,3.9-18.2,5.7c-2.5,0.8-5.1,1.1-7.6,1.7c-9.4,2.4-18.9,4.7-27.4,9.7C464,427.5,462.3,428.1,459.9,429.2z"/>
		<path class="st1" d="M702.3,703.7c5.6,2.4,3.8,6.4,3.6,9.4c-1.4,14.7-2.9,29.4-4.9,44.1c-1,7.7,0.9,15.5-2.5,23.2
			c-1.4,3.2,0.5,7.8,0.9,11.7c0.8,0.1,1.5,0.3,2.3,0.4c2.3-4.8,4.5-9.6,6.8-14.4c0.6,0.2,1.1,0.5,1.7,0.7
			c-1.1,6.7-1.9,13.6-6.3,19.1c-3.4,4.2-7.1,3.2-9.7-1.6c-3.5-6.4-2.9-13.2-2.2-20.1c0.6-6.2,1.2-12.4,1.9-18.6c0.8-7,1.9-14,2.8-21
			c0.8-6.7,1.2-13.4,2.3-20.1C699.6,712.5,701,708.5,702.3,703.7z"/>
		<path class="st1" d="M427.3,231.5c3.8,8.3,6.9,15.6,10.4,22.8c7.9,16,16,32,23.8,48c0.8,1.6,0.3,3.8,0.5,5.7c-2-0.7-4.4-0.9-6-2.1
			c-1.7-1.3-3.1-3.5-4.1-5.5c-9.2-17.9-18.5-35.9-27.5-54c-1.4-2.9-2.3-6.2-2.5-9.4C421.5,231,422.1,230.7,427.3,231.5z"/>
		<path class="st1" d="M543.8,428.6c0.3,0-0.7,0.3-1.3,0c-7.9-3.6-15.2-1.4-22.5,1.9c-1.6,0.7-3.5,1.1-5.2,0.9
			c-1.3-0.1-3.7-1.5-3.6-2.1c0.1-1.6,1-4.2,2.2-4.6c7.3-2.4,14.8-4.1,22.1-6.4c5-1.7,9.9-3.9,14.6-6.3c2.3-1.2,5.1-0.5,6.1,2.5
			C559.2,424.3,556.4,427.9,543.8,428.6z"/>
		<path class="st1" d="M520.8,589.1c2.1,1.5,3.3,2.2,4.2,3.1c7.4,7.2,14.7,14.5,22.2,21.6c3.4,3.2,7.4,5.9,10.8,9.2c1,1,1,3,1.5,4.5
			c-1.8,0.1-4.2,1-5.4,0.1c-8.1-5.8-16.1-11.8-23.8-18.2C524.6,604.8,521.4,598.4,520.8,589.1z"/>
	</g>
</g>
</svg>
