<?xml version="1.0" encoding="utf-8"?>
<!-- Generator: Adobe Illustrator 27.5.0, SVG Export Plug-In . SVG Version: 6.00 Build 0)  -->
<svg version="1.1" id="Layer_1" xmlns="http://www.w3.org/2000/svg" xmlns:xlink="http://www.w3.org/1999/xlink" x="0px" y="0px"
	 viewBox="0 0 270.2 404" style="enable-background:new 0 0 270.2 404;" xml:space="preserve">
<style type="text/css">
	.st0{fill:#EABFBA;}
</style>
<path class="st0" d="M245.9,19.5c5.2-4.1,11.4-7,17.3-10.3c2.2-1.2,4.7-2,7-2.9c-0.2-1-0.4-1.9-0.7-2.7c-3.9,0.4-8.1,0.1-11.7,1.5
	c-8.5,3.2-15.6,8.6-21.3,15.9c-3.8,4.9-8.2,8.2-15.2,7.4c-4.7-0.5-9.7,0.3-14.4,1.2c-17.8,3.5-29.4,17-29.3,35.2
	c0.1,7.3,1.7,14.9,3.7,22c2.7,9.4,3.4,18.7-0.6,27.4c-11.9,25.7-29.8,45.5-57.3,55.1c-1.4,0.5-3.5,0.6-4.6-0.1
	c-7.4-4.6-15.2-8.9-19.2-17c-9.1-18.4-18-36.8-26.3-55.5c-4.2-9.4-4.9-19.6-1.2-29.7c3-8.1,5.9-16.2,8.9-24.3
	c0.3-0.9,1.2-1.5,1.6-2.4c1.1-2.5,2.9-5.2,2.5-7.4c-0.3-1.5-3.8-2.5-5.9-3.7c-0.8,0.1-1.1-0.5-1.3-1.1C68.9,5.3,51.5-4,27.8,1.5
	C17.3,4,8.6,9,4,19.4C-6.8,43.8,5,70.2,30.6,78.5c8,2.6,15.6,5.9,21.8,11.8c9.4,8.9,15.3,20,18.5,32.1c7.7,29.1,14.7,58.4,21.8,87.7
	c0.5,2-0.2,4.6-1,6.6c-4,9.7-8.4,19.2-12.6,28.8c-16.2,36.9-32.7,73.6-41.4,113.2c-2.3,10.5-4.9,20.9-7.4,31.3
	c0.5,0.2,1,0.5,1.5,0.7c24.3-40.8,48.6-81.5,72.8-122.1c9.1,45.2,18.1,90.4,27.2,135.5c0.7-0.1,1.3-0.1,2-0.2
	c0.6-11.1,1.8-22.2,1.6-33.3c-1.1-49.4-2.7-98.9-3.9-148.3c0-2.7,0.5-5.6,1.7-8c6.6-13.4,13.5-26.7,20.4-40
	c4.7-9.1,9.7-18.8,19.6-22.4c9.2-3.4,11.2-9.3,13.1-17.8c4.1-18,14.6-30.6,34.2-33.9c5.4-0.9,11.1-3,15.5-6.2
	c10.5-7.7,13.4-19.3,11.8-31.6c-1.2-9-4.1-17.8-6.5-26.6C239.5,29.3,240.9,23.4,245.9,19.5z M42.1,68.9c-5.7-0.8-11.1-3.1-16.6-4.7
	C15.5,55.8,9.1,36.4,13,24.5C17.8,10,35.5,3.1,50.7,9.8C61,14.3,75.2,34.2,70.1,49.9C65.7,63.5,56.2,70.9,42.1,68.9z M237.2,68.9
	c-0.4,3.6-0.8,7.3-2.1,10.7c-5.7,15.1-28.8,18.8-40.6,6.6c-8.5-8.8-10-28.6-3.4-39.4c3.1-2,6-4.7,9.4-6.1
	C221.2,32.5,239.8,46.9,237.2,68.9z"/>
</svg>
