<?xml version="1.0" encoding="utf-8"?>
<!-- Generator: Adobe Illustrator 27.5.0, SVG Export Plug-In . SVG Version: 6.00 Build 0)  -->
<svg version="1.1" id="Layer_1" xmlns="http://www.w3.org/2000/svg" xmlns:xlink="http://www.w3.org/1999/xlink" x="0px" y="0px"
	 viewBox="0 0 270.2 404" style="enable-background:new 0 0 270.2 404;" xml:space="preserve">
<g>
	<path d="M270.2,6.3c-2.3,0.9-4.8,1.7-7,2.9c-5.9,3.3-12.1,6.2-17.3,10.3c-5,3.9-6.4,9.8-4.6,16.3c2.4,8.8,5.3,17.6,6.5,26.6
		c1.6,12.3-1.3,23.9-11.8,31.6c-4.4,3.2-10.1,5.3-15.5,6.2c-19.6,3.3-30.1,15.9-34.2,33.9c-1.9,8.5-3.9,14.4-13.1,17.8
		c-9.9,3.6-14.9,13.3-19.6,22.4c-6.9,13.3-13.8,26.6-20.4,40c-1.2,2.4-1.7,5.3-1.7,8c1.2,49.4,2.8,98.9,3.9,148.3
		c0.2,11.1-1,22.2-1.6,33.3c-0.7,0.1-1.3,0.1-2,0.2c-9.1-45.1-18.1-90.3-27.2-135.5c-24.2,40.6-48.5,81.3-72.8,122.1
		c-0.5-0.2-1-0.5-1.5-0.7c2.5-10.4,5.1-20.8,7.4-31.3c8.7-39.6,25.2-76.3,41.4-113.2c4.2-9.6,8.6-19.1,12.6-28.8
		c0.8-2,1.5-4.6,1-6.6c-7.1-29.3-14.1-58.6-21.8-87.7c-3.2-12.1-9.1-23.2-18.5-32.1c-6.2-5.9-13.8-9.2-21.8-11.8
		C5,70.2-6.8,43.8,4,19.4C8.6,9,17.3,4,27.8,1.5c23.7-5.5,41.1,3.8,50.1,26.6c0.2,0.6,0.5,1.2,1.3,1.1c2.1,1.2,5.6,2.2,5.9,3.7
		c0.4,2.2-1.4,4.9-2.5,7.4c-0.4,0.9-1.3,1.5-1.6,2.4c-3,8.1-5.9,16.2-8.9,24.3c-3.7,10.1-3,20.3,1.2,29.7
		c8.3,18.7,17.2,37.1,26.3,55.5c4,8.1,11.8,12.4,19.2,17c1.1,0.7,3.2,0.6,4.6,0.1c27.5-9.6,45.4-29.4,57.3-55.1
		c4-8.7,3.3-18,0.6-27.4c-2-7.1-3.6-14.7-3.7-22c-0.1-18.2,11.5-31.7,29.3-35.2c4.7-0.9,9.7-1.7,14.4-1.2c7,0.8,11.4-2.5,15.2-7.4
		c5.7-7.3,12.8-12.7,21.3-15.9c3.6-1.4,7.8-1.1,11.7-1.5C269.8,4.4,270,5.3,270.2,6.3z M25.5,64.2c5.5,1.6,10.9,3.9,16.6,4.7
		c14.1,2,23.6-5.4,28-19C75.2,34.2,61,14.3,50.7,9.8C35.5,3.1,17.8,10,13,24.5C9.1,36.4,15.5,55.8,25.5,64.2z M191.1,46.8
		c-6.6,10.8-5.1,30.6,3.4,39.4c11.8,12.2,34.9,8.5,40.6-6.6c1.3-3.4,1.7-7.1,2.1-10.7c2.6-22-16-36.4-36.7-28.2
		C197.1,42.1,194.2,44.8,191.1,46.8z"/>
</g>
</svg>
