<?xml version="1.0" encoding="UTF-8"?>
<svg id="Layer_1" xmlns="http://www.w3.org/2000/svg" version="1.1" viewBox="0 0 290.6080322 134.3637695">
  <!-- Generator: Adobe Illustrator 29.4.0, SVG Export Plug-In . SVG Version: 2.1.0 Build 152)  -->
  <defs>
    <style>
      .st0 {
        fill: #fd1d86;
      }
    </style>
  </defs>
  <path class="st0" d="M75.3833008,97.3525391h-23.90625v.2158203c5.6884766.9365234,6.6245117,4.0327148,6.6245117,9.2890625v2.5200195c0,5.0405273-2.0878906,10.152832-6.984375,10.152832-5.8325195,0-8.3530273-9.2167969-8.3530273-19.5854492,0-12.6010742.9360352-24.6259766,10.2250977-24.6259766,5.1123047,0,10.2246094,8.1367188,14.9052734,17.6411133h.2158203l-.9714966-16.6455078h26.3582153v-.2880859c-5.6635742-.8637695-8.0629883-4.2236328-8.0629883-11.519043V28.3178711c0-17.0869141,4.5112305-27.4541016,18.1425781-27.4541016,2.1118164,0,4.9916992.8642578,4.9916992,2.2080078,0,1.7280273-4.7036133,2.5917969-4.7036133,7.9672852,0,4.6079102,3.5517578,8.0634766,8.1591797,8.0634766,4.7998047,0,8.2553711-3.8398438,8.2553711-8.2553711,0-8.2553711-10.7509766-10.847168-16.7026367-10.847168-7.871582,0-14.3989258,1.9199219-21.4067383,5.7597656-8.3510742,4.6074219-14.3989258,12.0947266-14.3989258,23.1342773v16.1264648h-16.1264648v-17.6625977c0-7.6791992,4.1274414-9.503418,9.215332-9.887207v-.2880859H21.6943359C9.215332,17.1826172,0,24.3823242,0,35.7094727c0,8.8310547,7.5834961,15.2626953,16.8950195,15.2626953,6.4311523,0,12.574707-3.4555664,12.574707-10.4628906,0-4.9916992-4.1274414-9.0234375-9.1191406-9.0234375-5.0874023,0-9.1191406,3.9355469-9.1191406,9.3110352,0,3.4560547,1.8237305,5.7597656,4.4155273,7.5834961.5756836.3842773,1.1518555,1.5361328-.671875,1.5361328-5.7597656,0-8.831543-7.5834961-8.831543-14.1113281,0-10.0791016,5.2797852-17.7583008,16.7026367-17.7583008,7.7758789,0,11.1352539,4.2236328,11.1352539,16.7983398v34.4619141c0,14.9746094-4.9916992,22.078125-18.6225586,22.078125-2.7836914,0-5.3754883-.9599609-5.3754883-1.9199219,0-1.0556641,1.5356445.0961914,4.7036133-1.9199219,1.8237305-1.1518555,3.5517578-3.359375,3.5517578-6.9111328,0-5.2797852-3.6479492-8.9277344-8.543457-8.9277344-5.3754883,0-9.1191406,4.6079102-9.1191406,9.4077148,0,7.5834961,8.0634766,11.1352539,15.1669922,11.1352539,5.1119995,0,9.8265381-.9383545,14.1693726-2.456543-.9065552,2.4841309-1.4052124,5.1908569-1.4052124,8.0634766,0,12.2412109,8.7124023,22.394043,21.9619141,22.394043,6.4804688,0,10.8007812-3.5283203,19.3696289-3.5283203v-10.8730469c0-3.9599609.5756836-6.6245117,5.5444336-8.2807617v-.2158203ZM51.6445312,45.8847656h16.1264648v18.0463867c0,8.1417236-2.1987915,11.258606-7.5560913,12.032959-2.4954834-.4921265-4.4067383-1.4377441-7.6577759-1.4377441-1.3584595,0-2.6903687.1104736-3.9904175.3132935,1.9862061-4.1973267,3.0778198-9.2924194,3.0778198-15.4202271v-13.534668Z"/>
  <path class="st0" d="M90.0673828,91.0161133c-7.4165039,0-15.5532227,5.328125-15.5532227,14.6889648s7.5605469,14.6176758,15.4814453,14.6176758c7.4165039,0,15.3374023-5.2568359,15.3374023-14.6176758s-7.4165039-14.6889648-15.265625-14.6889648ZM89.9956055,119.8183594c-2.4482422,0-3.8164062-2.6640625-3.8164062-14.1132812,0-11.4487305,1.4404297-14.1850586,3.8881836-14.1850586,2.5205078,0,3.6005859,2.7363281,3.6005859,14.1850586,0,11.4492188-1.1523438,14.1132812-3.6723633,14.1132812Z"/>
  <path class="st0" d="M128.7324219,90.512207c-4.8964844,0-7.4165039,4.9682617-8.2807617,9.0004883v-8.784668l-14.7612305,5.0405273v.2158203c2.5922852.4321289,4.0322266,1.4399414,4.0322266,5.4003906v11.6650391c0,3.9604492-1.5839844,5.3286133-4.4643555,6.0488281v.2158203h19.8017578v-.2158203c-3.0239258-.5043945-4.3920898-2.2324219-4.3920898-5.6884766v-11.5209961c0-3.3125,1.0078125-4.96875,1.7280273-4.96875,1.7280273,0,1.2241211,5.1845703,6.7685547,5.1845703,3.6000977,0,5.6166992-3.168457,5.6166992-6.1206055,0-2.2319336-1.800293-5.472168-6.0488281-5.472168Z"/>
  <path class="st0" d="M155.7319336,112.2578125c-2.5922852,0-5.8325195.2880859-9.5766602.2880859-1.8725586,0-2.7363281-.3598633-2.7363281-1.512207,0-1.0078125,2.9521484-1.800293,7.128418-2.0161133,6.5527344-.3598633,13.465332-3.2402344,13.465332-9.4326172,0-2.6645508-1.2963867-4.6806641-3.7446289-6.1928711-1.1518555-.7197266-2.8081055-1.3681641-2.8081055-2.6640625,0-.6479492.5039062-1.0083008,1.0800781-1.0083008.6479492,0,1.0800781.4321289,1.65625,1.0083008.7202148.6479492,1.5839844,1.1518555,2.8803711,1.1518555,2.1601562,0,3.815918-1.7998047,3.815918-3.9599609,0-2.5205078-2.3037109-4.1767578-4.8242188-4.1767578-3.3120117,0-5.6162109,2.1606445-5.6162109,5.1845703,0,1.2241211.1435547,2.0883789.7919922,3.0244141-2.2324219-.7202148-4.6806641-1.1523438-7.0566406-1.1523438-6.6245117,0-14.0415039,2.8085938-14.0415039,9.4331055,0,5.4003906,4.4643555,8.0644531,10.5131836,8.640625-5.3286133,1.1523438-10.8730469,2.5922852-10.8730469,8.0649414,0,3.1679688,1.65625,5.184082,5.4003906,5.9760742-1.0800781.144043-2.2319336.3603516-3.3842773.7924805-1.9443359.6479492-3.8881836,2.0878906-3.8881836,4.3203125,0,4.6083984,7.7763672,6.3364258,13.8969727,6.3364258,9.6489258,0,18.8657227-3.8164062,18.8657227-12.7451172,0-5.2563477-3.3842773-9.3608398-10.9448242-9.3608398ZM150.1152344,91.3041992c2.2324219,0,3.3842773,4.2480469,3.3842773,8.4248047,0,4.2480469-.5756836,8.8564453-3.2402344,8.8564453-2.8803711,0-3.6000977-4.2480469-3.6000977-8.5688477,0-4.1040039.5039062-8.7124023,3.4560547-8.7124023ZM148.8911133,133.7158203c-5.1123047,0-9.0004883-1.1523438-9.0004883-6.0488281,0-3.4560547,2.3041992-4.6083984,6.984375-4.6083984,1.800293,0,3.9604492-.0717773,6.4804688-.0717773,4.0327148,0,6.7685547,1.1518555,6.7685547,4.5361328,0,4.96875-5.7602539,6.1928711-11.2329102,6.1928711Z"/>
  <path class="st0" d="M184.6757812,113.9858398c-5.6884766,0-9.0009766-5.5444336-8.784668-11.3046875.8637695,0,2.0878906-.0722656,3.4560547-.0722656h14.1132812c.0722656-6.4082031-4.9682617-11.5927734-13.1772461-11.5927734-8.2807617,0-14.6889648,6.5522461-14.6889648,14.9770508,0,8.7128906,5.8325195,14.3295898,13.5371094,14.3295898,8.7128906,0,12.9609375-7.4887695,14.7612305-12.6010742l-.2880859-.0722656c-1.5839844,3.6000977-4.9682617,6.3364258-8.9287109,6.3364258ZM179.8515625,91.5200195c2.7358398,0,3.1679688,5.5444336,3.1679688,10.6567383h-7.2006836c-.2158203-5.1123047,1.0800781-10.6567383,4.0327148-10.6567383Z"/>
  <path class="st0" d="M211.3867188,91.0161133c-7.4165039,0-15.5532227,5.328125-15.5532227,14.6889648s7.5605469,14.6176758,15.4814453,14.6176758c7.4165039,0,15.3374023-5.2568359,15.3374023-14.6176758s-7.4165039-14.6889648-15.265625-14.6889648ZM211.3149414,119.8183594c-2.4482422,0-3.8164062-2.6640625-3.8164062-14.1132812,0-11.4487305,1.4404297-14.1850586,3.8881836-14.1850586,2.5205078,0,3.6005859,2.7363281,3.6005859,14.1850586,0,11.4492188-1.1523438,14.1132812-3.6723633,14.1132812Z"/>
  <path class="st0" d="M264.2363281,114.3461914v-.2163086c-2.7358398-.4321289-4.1762695-1.4399414-4.1762695-5.4003906v-17.0654297h-14.9052734v.2158203c2.5205078.6484375,3.9604492,2.5922852,3.9604492,5.6884766v12.2412109c0,3.456543-2.1601562,5.1123047-4.3203125,5.1123047-2.8081055,0-3.6723633-2.2319336-3.6723633-5.4003906v-17.8574219h-15.1210938v.2158203c2.0161133.4321289,4.1762695,2.5205078,4.1762695,6.0488281v12.2407227c0,6.1928711,2.5200195,10.0092773,8.2807617,10.0092773,4.9682617,0,10.0087891-4.3925781,10.8725586-8.4248047v8.0644531l14.9052734-5.472168Z"/>
  <path class="st0" d="M90.2392578,58.5556641c0,11.6152344,7.7753906,19.1025391,18.046875,19.1025391,11.6147461,0,17.2783203-9.9829102,19.6782227-16.7988281l-.3837891-.0957031c-2.1118164,4.7993164-6.6235352,8.4472656-11.9033203,8.4472656-7.5834961,0-11.9990234-7.3916016-11.7109375-15.0708008,1.1518555,0,2.7836914-.0961914,4.6074219-.0961914h18.8149414c.0957031-8.543457-6.6235352-15.4545898-17.5668945-15.4545898-11.0390625,0-19.5825195,8.7353516-19.5825195,19.9663086ZM113.4697266,53.4682617h-9.5996094c-.2880859-6.8154297,1.4399414-14.2070312,5.3759766-14.2070312,3.6474609,0,4.2236328,7.3916016,4.2236328,14.2070312Z"/>
  <path class="st0" d="M132.8632812,30.4296875v37.5332031c0,5.2797852-2.0161133,7.2954102-5.1835938,8.0634766v.2880859h49.2451172v-.2880859c-2.9755859-.2880859-5.1835938-2.4956055-5.1835938-8.0634766V15.5507812l-20.3505859,7.1035156v.2880859c3.2636719.7680664,5.7597656,2.2080078,5.7597656,7.4873047v37.5332031c0,5.1507568-1.9221191,7.1912842-4.9567871,8.0012817-2.7478027-.4614258-4.739502-2.7150879-4.739502-8.0012817V15.5507812l-20.3505859,7.1035156v.2880859c3.2636719.7680664,5.7597656,2.2080078,5.7597656,7.4873047Z"/>
  <path class="st0" d="M196.8925781,77.6582031c9.887207,0,20.4462891-7.0073242,20.4462891-19.4863281s-9.887207-19.5825195-20.3500977-19.5825195c-9.8876953,0-20.7348633,7.1035156-20.7348633,19.5825195s10.0795898,19.4863281,20.6386719,19.4863281ZM196.9887695,39.2612305c3.359375,0,4.7993164,3.6474609,4.7993164,18.9106445,0,15.2626953-1.5356445,18.8144531-4.8955078,18.8144531-3.2636719,0-5.0874023-3.5517578-5.0874023-18.8144531,0-15.2631836,1.9194336-18.9106445,5.1835938-18.9106445Z"/>
  <path class="st0" d="M279.2449341,101.7373047c-4.0634155-1.6558228-7.0496826-2.3759766-7.0496826-5.1123047,0-2.3041992.9908447-5.0327148,3.8807373-5.0327148,4.7529297,0,7.6328125,4.6801758,9.6494141,9.0004883h.2158203v-9.5766602c-1.4404297.5039062-2.3046875.7919922-3.8164062.7919922-2.5205078,0-3.8886719-.8642578-6.7685547-.8642578-6.4082031,0-12.3129883,4.0327148-12.3129883,10.440918,0,5.7607422,3.8164062,7.4169922,7.5605469,8.9287109,4.9682617,2.0883789,13.151062,3.6745605,13.151062,10.0092773,0,6.7111816-3.6881104,11.5122681-10.3256226,11.5122681-6.2914429,0-9.5719604-2.8669434-9.5734253-8.2346191-.0012207-4.4869385,2.2706299-6.8049927,4.5777588-7.4102173,2.2469482-.5894775,3.2532349.0491333,3.253418.8504639.0001831.7209473-.7211914.9613037-1.6815186,1.7628784-.7213135.6412964-1.6825562,1.9231567-1.6820679,3.7659912.0009766,3.6856079,2.7255859,5.6075439,5.9309692,5.6066895,3.0445557-.0007935,5.6071167-2.4049683,5.6061401-5.8499756-.0012207-4.5668335-5.5461426-7.6395264-11.4587402-7.2078857-4.8762207.355957-8.1147461,3.5761108-8.1147461,7.8765869,0,5.4013672,5.9219971,10.8508911,14.7088623,10.1490479,7.3552856-.5780029,15.6121216-4.9541016,15.6121216-16.2659912,0-10.0734253-5.614624-12.7981567-11.3630981-15.140686Z"/>
</svg>