<?xml version="1.0" encoding="UTF-8"?>
<svg id="Layer_1" xmlns="http://www.w3.org/2000/svg" version="1.1" viewBox="0 0 236.609375 188.3300781">
  <!-- Generator: Adobe Illustrator 29.4.0, SVG Export Plug-In . SVG Version: 2.1.0 Build 152)  -->
  <defs>
    <style>
      .st0 {
        fill: #fff;
      }
    </style>
  </defs>
  <g>
    <path class="st0" d="M33.7046814,16.4609375h-6.1308594c-.1123047-.8535156-.3984375-1.6235352-.8603516-2.3095703-.671875-.9238281-1.7148438-1.3857422-3.1289062-1.3857422-2.015625,0-3.3945312,1.0009766-4.1357422,3.0024414-.3925781,1.0639648-.5878906,2.4775391-.5878906,4.2412109,0,1.6796875.1953125,3.0307617.5878906,4.0522461.7138672,1.9038086,2.0576172,2.8554688,4.03125,2.8554688,1.3994141,0,2.3935547-.3779297,2.9814453-1.1337891s.9443359-1.7353516,1.0703125-2.9394531h6.1103516c-.140625,1.8198242-.7978516,3.5415039-1.9736328,5.1650391-1.8759766,2.6176758-4.6542969,3.9262695-8.3359375,3.9262695s-6.3896484-1.0917969-8.125-3.2753906c-1.7363281-2.1835938-2.6035156-5.0180664-2.6035156-8.503418,0-3.9331055.9580078-6.9916992,2.8759766-9.175293s4.5634766-3.2753906,7.9365234-3.2753906c2.8691406,0,5.2177734.644043,7.0439453,1.9316406,1.8271484,1.2880859,2.9082031,3.5625,3.2441406,6.8237305Z"/>
    <path class="st0" d="M37.9458923.1889648h5.984375v30.9482422h-5.984375V.1889648Z"/>
    <path class="st0" d="M55.9185486,0v5.5219727h-6.0673828V0h6.0673828ZM55.9185486,8.2514648v22.8857422h-6.0673828V8.2514648h6.0673828Z"/>
    <path class="st0" d="M81.5132751,16.4609375h-6.1308594c-.1123047-.8535156-.3994141-1.6235352-.8613281-2.3095703-.671875-.9238281-1.7148438-1.3857422-3.1279297-1.3857422-2.015625,0-3.3945312,1.0009766-4.1367188,3.0024414-.3916016,1.0639648-.5878906,2.4775391-.5878906,4.2412109,0,1.6796875.1962891,3.0307617.5878906,4.0522461.7138672,1.9038086,2.0576172,2.8554688,4.03125,2.8554688,1.3994141,0,2.3935547-.3779297,2.9814453-1.1337891s.9453125-1.7353516,1.0712891-2.9394531h6.109375c-.1396484,1.8198242-.7978516,3.5415039-1.9736328,5.1650391-1.8759766,2.6176758-4.6542969,3.9262695-8.3349609,3.9262695-3.6816406,0-6.390625-1.0917969-8.1259766-3.2753906s-2.6035156-5.0180664-2.6035156-8.503418c0-3.9331055.9589844-6.9916992,2.8769531-9.175293,1.9169922-2.1835938,4.5625-3.2753906,7.9365234-3.2753906,2.8691406,0,5.2177734.644043,7.0439453,1.9316406,1.8271484,1.2880859,2.9082031,3.5625,3.2441406,6.8237305Z"/>
    <path class="st0" d="M106.6246033,31.137207h-7.2226562l-5.4804688-9.7841797-2.4775391,2.5825195v7.2016602h-5.8789062V.2939453h5.8789062v16.6708984l7.4541016-8.6083984h7.4111328l-7.9990234,8.7553711,8.3144531,14.0253906Z"/>
  </g>
  <path class="st0" d="M83.7603455,59.5317383c-.1542969,1.3579102-.8603516,2.7368164-2.1201172,4.1362305-1.9599609,2.2255859-4.703125,3.3383789-8.2304688,3.3383789-2.9121094,0-5.4804688-.9375-7.7060547-2.8134766-2.2255859-1.8754883-3.3378906-4.9267578-3.3378906-9.1542969,0-3.9609375,1.0039062-6.9985352,3.0126953-9.1123047,2.0087891-2.1132812,4.6152344-3.1704102,7.8212891-3.1704102,1.9033203,0,3.6181641.3569336,5.1435547,1.0708008s2.7851562,1.8408203,3.7792969,3.3803711c.8955078,1.3579102,1.4765625,2.9326172,1.7431641,4.7241211.1533203,1.0498047.2167969,2.5615234.1884766,4.5351562h-15.6630859c.0839844,2.2958984.8046875,3.9052734,2.1630859,4.8291016.8251953.5742188,1.8193359.8608398,2.9814453.8608398,1.2314453,0,2.2324219-.3496094,3.0019531-1.0498047.4199219-.3779297.7910156-.902832,1.1132812-1.574707h6.109375ZM77.839447,52.519043c-.0976562-1.581543-.5771484-2.7822266-1.4384766-3.6005859-.8603516-.8193359-1.9277344-1.2285156-3.2011719-1.2285156-1.3857422,0-2.4599609.434082-3.2236328,1.3017578-.7626953.8681641-1.2421875,2.0439453-1.4375,3.5273438h9.3007812Z"/>
  <path class="st0" d="M99.5914001,48.8867188c-2.4072266,0-4.0244141.7841797-4.8496094,2.3515625-.4619141.8818359-.6933594,2.2397461-.6933594,4.0732422v10.9389648h-6.0253906v-22.8857422h5.7109375v3.9892578c.9238281-1.5253906,1.7285156-2.5683594,2.4140625-3.128418,1.1201172-.9375,2.5751953-1.4067383,4.3671875-1.4067383.1123047,0,.2070312.003418.2841797.0107422.0761719.0068359.2480469.0175781.5136719.03125v6.1308594c-.3779297-.0419922-.7138672-.0698242-1.0078125-.0839844-.2939453-.0136719-.5322266-.0209961-.7138672-.0209961Z"/>
  <path class="st0" d="M124.408783,59.5317383c-.1542969,1.3579102-.859375,2.7368164-2.1191406,4.1362305-1.9609375,2.2255859-4.7041016,3.3383789-8.2314453,3.3383789-2.9121094,0-5.4804688-.9375-7.7060547-2.8134766-2.2255859-1.8754883-3.3378906-4.9267578-3.3378906-9.1542969,0-3.9609375,1.0039062-6.9985352,3.0126953-9.1123047,2.0087891-2.1132812,4.6152344-3.1704102,7.8212891-3.1704102,1.9033203,0,3.6181641.3569336,5.1435547,1.0708008,1.5263672.7138672,2.7861328,1.8408203,3.7802734,3.3803711.8945312,1.3579102,1.4765625,2.9326172,1.7421875,4.7241211.1542969,1.0498047.2167969,2.5615234.1894531,4.5351562h-15.6640625c.0839844,2.2958984.8046875,3.9052734,2.1630859,4.8291016.8251953.5742188,1.8193359.8608398,2.9814453.8608398,1.2314453,0,2.2324219-.3496094,3.0019531-1.0498047.4199219-.3779297.7910156-.902832,1.1132812-1.574707h6.109375ZM118.4878845,52.519043c-.0976562-1.581543-.5771484-2.7822266-1.4384766-3.6005859-.8603516-.8193359-1.9277344-1.2285156-3.2011719-1.2285156-1.3857422,0-2.4599609.434082-3.2236328,1.3017578-.7626953.8681641-1.2421875,2.0439453-1.4375,3.5273438h9.3007812Z"/>
  <path class="st0" d="M13.8203764,125.3284149c-7.5147419,0-13.8203764-6.4778595-13.8203764-13.4735794,0-9.0694733,6.5657334-14.2515335,13.3892221-18.4834061-1.7293043-2.3326874-3.9741201-6.2189331-3.9741201-10.1051865,0-7.51474,7.2546425-13.4735794,14.5092869-13.4735794,4.3185749,0,8.8105507,2.0725861,8.8105507,6.2177658,0,4.2330475-4.3185749,7.3413391-7.3413429,8.89608l13.9047318,17.6199265c2.8517113-5.6143799.1734009-14.4237595,1.7293053-22.974205,1.4668617-8.1192932,7.8591957-14.9416122,16.583046-14.9416122,7.4280396,0,15.8050919,6.9957199,15.8050919,18.1366043,0,5.6143799-2.7626724,9.6740265-7.51474,9.6740265-4.318573,0-7.3413429-3.2816925-7.3413429-7.4280396,0-3.8862457,2.9384117-7.1691132,6.8234901-7.1691132,2.6783142,0,3.4562683,1.5547333,4.8364258,1.5547333,1.0380478,0,1.4692078-.9501801,1.4692078-2.3315125,0-2.3315125-3.5406189-4.9231262-6.8234863-4.9231262-5.9588356,0-11.0553627,4.318573-14.8560829,10.8831329-3.2805214,5.6999054-5.6143799,12.8690262-10.1063576,20.2970657l5.3566246,6.7367859c2.3315163,2.9360657,4.5786743,5.7866058,7.6857986,5.7866058,3.7140198,0,4.7520714-4.9231262,4.8387718-8.2059937h.6045532c-.0867004,7.6869659-5.269928,17.7066269-14.1648331,17.7066269-6.1345787,0-9.8485985-4.146347-13.9070759-9.5006256-3.8007202,3.6273193-9.5861568,9.5006256-16.4963484,9.5006256ZM29.8855686,115.2232361l-15.9784918-21.2472458c-1.3825064.8634796-2.5916128,2.5049133-2.5916128,4.8364258,0,3.5417938,1.4692059,6.7367859,3.2828665,9.6740265,3.2805223,5.2675858,7.167943,7.7724991,11.3998194,7.7724991,1.6402626,0,2.849369-.4311523,3.8874187-1.0357056ZM25.049139,84.4753571c1.4668617-1.7281342,2.3315144-3.1094666,2.3315144-7.8603668,0-2.8493652-1.3825054-5.9588394-4.1451759-5.9588394-1.9870605,0-3.6296654,1.7269592-3.6296654,3.9729462,0,2.4182129,2.7650127,6.3911591,5.443327,9.8462601Z"/>
  <path class="st0" d="M43.9097595,53.862793c0-1.9594727.4101562-3.4677734,1.2285156-4.5244141.8193359-1.0571289,2.0185547-1.5854492,3.6005859-1.5854492,1.5253906,0,2.5615234.5322266,3.1074219,1.5957031.4199219.7558594.6298828,1.75.6298828,2.9814453v11.0327148c1.6333618-.4873047,3.3535767-.7521973,5.1345215-.7521973.3250122,0,.6504517.0333862.9758301.0556641v-9.8532715c0-2.043457-.0703125-3.5166016-.2099609-4.4199219-.140625-.9023438-.5253906-1.7807617-1.1552734-2.6347656-.7421875-1.0078125-1.6894531-1.7563477-2.8447266-2.246582-1.1542969-.4897461-2.4394531-.7348633-3.8525391-.7348633-1.2597656,0-2.4599609.2626953-3.6005859.7871094-1.1416016.5253906-2.1455078,1.4526367-3.0136719,2.7822266v-10.9389648h-5.9628906v30.8432617h5.9628906v-12.3876953Z"/>
  <g>
    <path class="st0" d="M82.2905273,91.9941406v-17.2797852h1.4394531v17.2797852h-1.4394531Z"/>
    <path class="st0" d="M88.2905273,86.1142578c0,.671875.0878906,1.3081055.2636719,1.9077148.1757812.6000977.4355469,1.1201172.7802734,1.5600586.34375.4404297.7802734.7919922,1.3076172,1.0561523.5283203.2641602,1.1357422.3959961,1.8242188.3959961.9443359,0,1.7519531-.2480469,2.4238281-.7441406.671875-.4956055,1.1201172-1.199707,1.34375-2.1118164h1.6083984c-.1757812.5922852-.4082031,1.1401367-.6962891,1.644043s-.6474609.9443359-1.0800781,1.3198242c-.4316406.3759766-.9443359.668457-1.5351562.8764648-.5927734.2070312-1.2802734.3115234-2.0644531.3115234-.9921875,0-1.8476562-.1679688-2.5683594-.5039062-.7197266-.3359375-1.3115234-.7958984-1.7753906-1.3798828-.4648438-.5839844-.8085938-1.2719727-1.0322266-2.0639648-.2246094-.7919922-.3359375-1.644043-.3359375-2.5561523s.1318359-1.7675781.3955078-2.5678711c.2646484-.7998047.640625-1.5,1.1279297-2.1000977.4882812-.6000977,1.0839844-1.0717773,1.7880859-1.4160156.7041016-.34375,1.5039062-.5161133,2.4003906-.5161133,1.7119141,0,3.0556641.5878906,4.0322266,1.7641602.9755859,1.1757812,1.4550781,2.8837891,1.4394531,5.1240234h-9.6474609ZM96.4018555,84.9140625c0-.6079102-.0839844-1.1796875-.2519531-1.7158203s-.4160156-1-.7431641-1.3920898c-.328125-.3920898-.7402344-.7041016-1.2363281-.9360352s-1.0644531-.3481445-1.7041016-.3481445-1.2041016.1201172-1.6923828.3603516c-.4882812.2397461-.9033203.5600586-1.2480469.9599609-.34375.3999023-.6201172.8637695-.8271484,1.3920898-.2089844.527832-.3447266,1.0878906-.4082031,1.6796875h8.1113281Z"/>
    <path class="st0" d="M105.1137695,92.0419922c-.1757812.0322266-.4072266.0878906-.6953125.1679688s-.6083984.1201172-.9599609.1201172c-.7207031,0-1.2685547-.1796875-1.6445312-.5400391-.3759766-.3598633-.5634766-1.0039062-.5634766-1.9321289v-9.0957031h-1.7519531v-1.2001953h1.7519531v-3.4560547h1.4394531v3.4560547h2.328125v1.2001953h-2.328125v8.5200195c0,.3041992.0078125.5678711.0244141.7919922.015625.2241211.0634766.4077148.1435547.5517578s.2041016.2485352.3720703.3120117c.1679688.0644531.4042969.0961914.7080078.0961914.1923828,0,.3876953-.015625.5878906-.0478516s.3964844-.0722656.5878906-.1201172v1.1757812Z"/>
    <path class="st0" d="M108.2583008,88.105957c.2236328,1.0722656.6269531,1.828125,1.2119141,2.2680664.5839844.4404297,1.4199219.6601562,2.5078125.6601562.5283203,0,.984375-.0639648,1.3681641-.1918945s.6992188-.300293.9472656-.5161133.4365234-.4599609.5644531-.7319336.1923828-.5600586.1923828-.8642578c0-.6079102-.1962891-1.0595703-.5878906-1.355957-.3925781-.2958984-.8847656-.527832-1.4765625-.6958008s-1.2324219-.3120117-1.9199219-.4321289c-.6884766-.1201172-1.328125-.2998047-1.9199219-.5400391-.5917969-.2397461-1.0839844-.5839844-1.4755859-1.0317383-.3925781-.4477539-.5888672-1.0800781-.5888672-1.8959961,0-1.0400391.3798828-1.8920898,1.140625-2.5561523.7597656-.6635742,1.8359375-.9960938,3.2275391-.9960938,1.34375,0,2.4365234.300293,3.2763672.8999023.8398438.6000977,1.3476562,1.6044922,1.5234375,3.012207h-1.4638672c-.1279297-.9599609-.4921875-1.6357422-1.0917969-2.027832s-1.3554688-.5883789-2.2675781-.5883789-1.6083984.1962891-2.0878906.5883789c-.4804688.3920898-.7207031.9082031-.7207031,1.5478516,0,.5600586.1962891.9882812.5878906,1.2841797.3925781.2958984.8837891.5361328,1.4765625.7197266.5917969.184082,1.2314453.3481445,1.9199219.4921875.6875.144043,1.328125.3476562,1.9199219.6118164s1.0839844.6201172,1.4755859,1.0678711c.3925781.4482422.5888672,1.0722656.5888672,1.8720703,0,.5922852-.1289062,1.1162109-.3847656,1.5722656s-.6083984.8359375-1.0556641,1.1396484c-.4482422.3041992-.9804688.5322266-1.5957031.6845703-.6162109.1513672-1.2929688.2275391-2.0283203.2275391-.7363281,0-1.3886719-.1083984-1.9560547-.3242188-.5683594-.2158203-1.0517578-.515625-1.4521484-.8999023-.4003906-.3837891-.7119141-.831543-.9355469-1.34375-.2246094-.5117188-.3525391-1.0639648-.3847656-1.65625h1.4648438Z"/>
    <path class="st0" d="M126.9296875,88.105957c.2236328,1.0722656.6269531,1.828125,1.2119141,2.2680664.5839844.4404297,1.4199219.6601562,2.5078125.6601562.5283203,0,.984375-.0639648,1.3681641-.1918945s.6992188-.300293.9472656-.5161133.4365234-.4599609.5644531-.7319336.1923828-.5600586.1923828-.8642578c0-.6079102-.1962891-1.0595703-.5878906-1.355957-.3925781-.2958984-.8847656-.527832-1.4765625-.6958008s-1.2324219-.3120117-1.9199219-.4321289c-.6884766-.1201172-1.328125-.2998047-1.9199219-.5400391-.5917969-.2397461-1.0839844-.5839844-1.4755859-1.0317383-.3925781-.4477539-.5888672-1.0800781-.5888672-1.8959961,0-1.0400391.3798828-1.8920898,1.140625-2.5561523.7597656-.6635742,1.8359375-.9960938,3.2275391-.9960938,1.34375,0,2.4365234.300293,3.2763672.8999023.8398438.6000977,1.3476562,1.6044922,1.5234375,3.012207h-1.4638672c-.1279297-.9599609-.4921875-1.6357422-1.0917969-2.027832s-1.3554688-.5883789-2.2675781-.5883789-1.6083984.1962891-2.0878906.5883789c-.4804688.3920898-.7207031.9082031-.7207031,1.5478516,0,.5600586.1962891.9882812.5878906,1.2841797.3925781.2958984.8837891.5361328,1.4765625.7197266.5917969.184082,1.2314453.3481445,1.9199219.4921875.6875.144043,1.328125.3476562,1.9199219.6118164s1.0839844.6201172,1.4755859,1.0678711c.3925781.4482422.5888672,1.0722656.5888672,1.8720703,0,.5922852-.1289062,1.1162109-.3847656,1.5722656s-.6083984.8359375-1.0556641,1.1396484c-.4482422.3041992-.9804688.5322266-1.5957031.6845703-.6162109.1513672-1.2929688.2275391-2.0283203.2275391-.7363281,0-1.3886719-.1083984-1.9560547-.3242188-.5683594-.2158203-1.0517578-.515625-1.4521484-.8999023-.4003906-.3837891-.7119141-.831543-.9355469-1.34375-.2246094-.5117188-.3525391-1.0639648-.3847656-1.65625h1.4648438Z"/>
    <path class="st0" d="M142.4570312,92.0419922c-.1757812.0322266-.4072266.0878906-.6953125.1679688s-.6083984.1201172-.9599609.1201172c-.7207031,0-1.2685547-.1796875-1.6445312-.5400391-.3759766-.3598633-.5634766-1.0039062-.5634766-1.9321289v-9.0957031h-1.7519531v-1.2001953h1.7519531v-3.4560547h1.4394531v3.4560547h2.328125v1.2001953h-2.328125v8.5200195c0,.3041992.0078125.5678711.0244141.7919922.015625.2241211.0634766.4077148.1435547.5517578s.2041016.2485352.3720703.3120117c.1679688.0644531.4042969.0961914.7080078.0961914.1923828,0,.3876953-.015625.5878906-.0478516s.3964844-.0722656.5878906-.1201172v1.1757812Z"/>
    <path class="st0" d="M150.4736328,84.7460938c.2714844-.0317383.5957031-.0795898.9716797-.144043.3759766-.0634766.6835938-.1518555.9238281-.2636719s.3876953-.300293.4443359-.5644531c.0556641-.2636719.0839844-.5073242.0839844-.7319336,0-.7358398-.2363281-1.3398438-.7080078-1.8120117-.4726562-.4716797-1.2685547-.7080078-2.3886719-.7080078-.4960938,0-.9521484.0444336-1.3671875.1323242-.4169922.0878906-.7802734.2397461-1.0927734.4560547-.3115234.2158203-.5673828.5039062-.7675781.8637695s-.3320312.8125-.3964844,1.355957h-1.4638672c.0478516-.7358398.2167969-1.3637695.5039062-1.8837891.2880859-.5200195.6601562-.9438477,1.1162109-1.2719727s.984375-.5678711,1.5839844-.7202148c.6005859-.1518555,1.2363281-.2280273,1.9082031-.2280273.6240234,0,1.2119141.0683594,1.7636719.2041016.5527344.1362305,1.0322266.3520508,1.4404297.6479492.4082031.2963867.7275391.6923828.9599609,1.1879883.2314453.4960938.3476562,1.1040039.3476562,1.8242188v6.7675781c0,.5605469.0996094.9165039.2998047,1.0683594.2001953.1523438.6044922.1162109,1.2128906-.1079102v1.1279297c-.1123047.0322266-.2763672.0800781-.4921875.1435547-.2158203.0644531-.4287109.0966797-.6357422.0966797-.2246094,0-.4404297-.0244141-.6484375-.0722656-.2402344-.0322266-.4316406-.1083984-.5761719-.2280273-.1435547-.1201172-.2597656-.2641602-.3476562-.4321289s-.1484375-.3515625-.1806641-.5517578-.0478516-.4121094-.0478516-.6362305c-.6083984.671875-1.3037109,1.184082-2.0878906,1.5361328s-1.6318359.527832-2.5439453.527832c-.5439453,0-1.0673828-.0722656-1.5722656-.2158203-.5039062-.144043-.9472656-.3681641-1.3320312-.671875-.3837891-.3041992-.6875-.6757812-.9111328-1.1162109-.2246094-.4399414-.3369141-.9638672-.3369141-1.5722656,0-2.1118164,1.4482422-3.3598633,4.3447266-3.7436523l1.9921875-.2641602ZM152.8974609,85.4663086c-.6083984.2558594-1.2246094.4238281-1.8486328.5039062s-1.2480469.144043-1.8720703.1918945c-1.1035156.0800781-1.9638672.328125-2.5791016.7441406-.6162109.4160156-.9248047,1.0478516-.9248047,1.8959961,0,.3837891.0761719.7163086.2285156.9960938.1513672.2797852.3515625.512207.5996094.6958008.2480469.184082.5361328.3203125.8642578.4082031s.6601562.1318359.9960938.1318359c.5761719,0,1.1357422-.0722656,1.6796875-.2158203.5439453-.144043,1.0283203-.3637695,1.4521484-.6601562.4238281-.2958984.7636719-.671875,1.0205078-1.1279297.2548828-.4560547.3837891-.9960938.3837891-1.6201172v-1.9438477Z"/>
    <path class="st0" d="M159.6181641,91.9941406h-1.4404297v-12.4321289h1.4404297v2.328125h.0478516c.3994141-.9916992.9160156-1.6835938,1.5478516-2.0761719.6318359-.3916016,1.4677734-.5878906,2.5078125-.5878906v1.5600586c-.8154297-.015625-1.4873047.1123047-2.015625.3837891-.5283203.2724609-.9482422.6401367-1.2597656,1.1040039-.3125.4643555-.5283203,1.012207-.6484375,1.644043-.1201172.6323242-.1796875,1.2924805-.1796875,1.9799805v6.0961914Z"/>
    <path class="st0" d="M170.4648438,92.0419922c-.1757812.0322266-.4072266.0878906-.6953125.1679688s-.6083984.1201172-.9599609.1201172c-.7207031,0-1.2685547-.1796875-1.6445312-.5400391-.3759766-.3598633-.5634766-1.0039062-.5634766-1.9321289v-9.0957031h-1.7519531v-1.2001953h1.7519531v-3.4560547h1.4394531v3.4560547h2.328125v1.2001953h-2.328125v8.5200195c0,.3041992.0078125.5678711.0244141.7919922.015625.2241211.0634766.4077148.1435547.5517578s.2041016.2485352.3720703.3120117c.1679688.0644531.4042969.0961914.7080078.0961914.1923828,0,.3876953-.015625.5878906-.0478516s.3964844-.0722656.5878906-.1201172v1.1757812Z"/>
    <path class="st0" d="M179.3447266,95.3544922c.1923828.03125.3876953.0634766.5878906.0957031s.4042969.0478516.6123047.0478516c.3994141,0,.7275391-.1279297.984375-.3828125.2548828-.2568359.4677734-.5644531.6357422-.9228516.1679688-.3603516.3076172-.7353516.4199219-1.1269531.1113281-.3916016.2402344-.7226562.3837891-.9941406l-4.8242188-12.5092773h1.6083984l3.984375,10.6801758,3.9833984-10.6801758h1.5605469l-4.6328125,12.2641602c-.2871094.7841797-.5634766,1.4882812-.8271484,2.1123047-.2646484.6240234-.5449219,1.1552734-.8408203,1.5957031-.2958984.4394531-.6240234.7753906-.9833984,1.0078125-.3603516.2314453-.7880859.3486328-1.2841797.3486328-.2558594,0-.5-.0166016-.7324219-.0488281-.2314453-.0322266-.4433594-.0712891-.6357422-.1201172v-1.3671875Z"/>
    <path class="st0" d="M196.3847656,92.3300781c-.7998047-.015625-1.5478516-.1601562-2.2441406-.4321289-.6953125-.2714844-1.3037109-.6796875-1.8242188-1.2236328-.5195312-.5439453-.9316406-1.2241211-1.2353516-2.0400391-.3046875-.815918-.4560547-1.7680664-.4560547-2.855957,0-.9121094.1201172-1.7641602.3603516-2.5561523.2392578-.7919922.5996094-1.4838867,1.0791016-2.0761719.4804688-.5917969,1.0800781-1.0595703,1.8007812-1.4038086.7197266-.34375,1.5595703-.5161133,2.5195312-.5161133.9755859,0,1.8242188.1723633,2.5439453.5161133.7197266.3442383,1.3203125.8081055,1.7998047,1.3920898.4804688.5839844.8359375,1.2758789,1.0683594,2.0756836.2314453.800293.3476562,1.65625.3476562,2.5683594,0,.9921875-.1357422,1.8881836-.4072266,2.6879883-.2724609.800293-.6601562,1.487793-1.1640625,2.0639648-.5039062.5756836-1.1123047,1.0200195-1.8242188,1.3320312-.7119141.3115234-1.5.4677734-2.3642578.4677734ZM200.609375,85.7783203c0-.7358398-.0810547-1.4238281-.2402344-2.0639648-.1601562-.6401367-.4082031-1.1962891-.7441406-1.668457-.3359375-.4716797-.7685547-.84375-1.2958984-1.1157227-.5283203-.2719727-1.1757812-.4082031-1.9443359-.4082031-.7519531,0-1.3964844.1484375-1.9316406.4443359-.5361328.2958984-.9726562.6879883-1.3085938,1.1757812-.3359375.4882812-.5839844,1.0483398-.7431641,1.6801758-.1601562.6323242-.2402344,1.2836914-.2402344,1.9560547,0,.7675781.0917969,1.4755859.2753906,2.1240234.1845703.6479492.4521484,1.2041016.8046875,1.6679688.3515625.4638672.7919922.8242188,1.3193359,1.0795898.5283203.2563477,1.1357422.3842773,1.8242188.3842773.7519531,0,1.3955078-.1479492,1.9316406-.4438477s.9726562-.6918945,1.3085938-1.1879883.5839844-1.0561523.7441406-1.6801758c.1591797-.6240234.2402344-1.2719727.2402344-1.9438477Z"/>
    <path class="st0" d="M213.2099609,79.5620117h1.4394531v12.4321289h-1.4394531v-1.7280273c-.1923828.2241211-.4082031.4560547-.6484375.6958008-.2402344.2402344-.515625.4604492-.828125.6601562-.3115234.2001953-.6757812.3681641-1.0917969.5039062s-.8964844.2041016-1.4404297.2041016c-.8320312,0-1.5273438-.1162109-2.0878906-.3481445-.5595703-.2314453-1.0117188-.5556641-1.3554688-.9716797-.3447266-.4160156-.5927734-.8999023-.7441406-1.4521484-.1523438-.5517578-.2285156-1.1557617-.2285156-1.8120117v-8.184082h1.4404297v8.1601562c0,1.0722656.2480469,1.8920898.7441406,2.4599609.4960938.5683594,1.3115234.8520508,2.4482422.8520508.5917969,0,1.1230469-.1157227,1.5957031-.3481445.4716797-.2314453.8681641-.5556641,1.1875-.9716797.3203125-.4160156.5683594-.9121094.7441406-1.4882812s.2646484-1.2080078.2646484-1.8959961v-6.7680664Z"/>
    <path class="st0" d="M219.6416016,91.9941406h-1.4404297v-12.4321289h1.4404297v2.328125h.0478516c.3994141-.9916992.9160156-1.6835938,1.5478516-2.0761719.6318359-.3916016,1.4677734-.5878906,2.5078125-.5878906v1.5600586c-.8154297-.015625-1.4873047.1123047-2.015625.3837891-.5283203.2724609-.9482422.6401367-1.2597656,1.1040039-.3125.4643555-.5283203,1.012207-.6484375,1.644043-.1201172.6323242-.1796875,1.2924805-.1796875,1.9799805v6.0961914Z"/>
    <path class="st0" d="M70.5541992,103.5625v14.0878906c0,.5273438-.0234375.9912109-.0712891,1.3916016-.0488281.3994141-.15625.7402344-.3242188,1.0205078-.1679688.2792969-.4160156.4873047-.7441406.6240234-.328125.1357422-.7802734.2041016-1.3564453.2041016-.3515625,0-.6640625-.0332031-.9355469-.0966797v-1.2714844c.4160156.0478516.7519531.0517578,1.0078125.0117188s.4560547-.1318359.5996094-.2763672c.1445312-.1435547.2441406-.3359375.3007812-.5751953.0556641-.2402344.0839844-.5205078.0839844-.8408203v-14.2792969h1.4394531ZM70.6264648,100.8505859h-1.5839844v-2.1367188h1.5839844v2.1367188Z"/>
    <path class="st0" d="M79.0024414,116.3300781c-.7998047-.015625-1.5478516-.1601562-2.2441406-.4316406-.6953125-.2724609-1.3037109-.6796875-1.8242188-1.2246094-.5195312-.5429688-.9316406-1.2236328-1.2353516-2.0400391-.3046875-.8154297-.4560547-1.7675781-.4560547-2.8554688,0-.9121094.1201172-1.7646484.3603516-2.5566406.2392578-.7919922.5996094-1.4833984,1.0791016-2.0751953.4804688-.5917969,1.0800781-1.0605469,1.8007812-1.4042969.7197266-.34375,1.5595703-.515625,2.5195312-.515625.9755859,0,1.8242188.171875,2.5439453.515625s1.3203125.8076172,1.7998047,1.3916016c.4804688.5849609.8359375,1.2763672,1.0683594,2.0761719.2314453.8007812.3476562,1.65625.3476562,2.5683594,0,.9921875-.1357422,1.8876953-.4072266,2.6875-.2724609.8007812-.6601562,1.4882812-1.1640625,2.0644531s-1.1123047,1.0195312-1.8242188,1.3320312c-.7119141.3115234-1.5.4677734-2.3642578.4677734ZM83.2270508,109.7783203c0-.7363281-.0810547-1.4238281-.2402344-2.0644531-.1601562-.6396484-.4082031-1.1953125-.7441406-1.6679688-.3359375-.4716797-.7685547-.84375-1.2958984-1.1162109-.5283203-.2714844-1.1757812-.4072266-1.9443359-.4072266-.7519531,0-1.3964844.1474609-1.9316406.4433594-.5361328.296875-.9726562.6884766-1.3085938,1.1767578s-.5839844,1.0478516-.7431641,1.6796875c-.1601562.6318359-.2402344,1.2841797-.2402344,1.9560547,0,.7675781.0917969,1.4755859.2753906,2.1240234.1845703.6474609.4521484,1.2041016.8046875,1.6679688.3515625.4638672.7919922.8242188,1.3193359,1.0800781.5283203.2558594,1.1357422.3837891,1.8242188.3837891.7519531,0,1.3955078-.1474609,1.9316406-.4443359.5361328-.2958984.9726562-.6914062,1.3085938-1.1875s.5839844-1.0566406.7441406-1.6806641c.1591797-.6240234.2402344-1.2714844.2402344-1.9433594Z"/>
    <path class="st0" d="M95.8266602,103.5625h1.4394531v12.4316406h-1.4394531v-1.7275391c-.1923828.2236328-.4082031.4550781-.6484375.6953125s-.515625.4599609-.828125.6601562c-.3115234.2001953-.6757812.3681641-1.0917969.5039062s-.8964844.2041016-1.4404297.2041016c-.8320312,0-1.5273438-.1162109-2.0878906-.3476562-.5595703-.2324219-1.0117188-.5556641-1.3554688-.9726562-.3447266-.4150391-.5927734-.8994141-.7441406-1.4511719-.1523438-.5527344-.2285156-1.15625-.2285156-1.8125v-8.1835938h1.4404297v8.1591797c0,1.0722656.2480469,1.8925781.7441406,2.4609375.4960938.5673828,1.3115234.8515625,2.4482422.8515625.5917969,0,1.1230469-.1162109,1.5957031-.3476562.4716797-.2324219.8681641-.5556641,1.1875-.9726562.3203125-.4160156.5683594-.9121094.7441406-1.4873047.1757812-.5761719.2646484-1.2080078.2646484-1.8964844v-6.7675781Z"/>
    <path class="st0" d="M102.2583008,115.9941406h-1.4404297v-12.4316406h1.4404297v2.328125h.0478516c.3994141-.9921875.9160156-1.6845703,1.5478516-2.0761719.6318359-.3925781,1.4677734-.5878906,2.5078125-.5878906v1.5595703c-.8154297-.015625-1.4873047.1123047-2.015625.3837891-.5283203.2724609-.9482422.640625-1.2597656,1.1044922-.3125.4638672-.5283203,1.0117188-.6484375,1.6435547-.1201172.6328125-.1796875,1.2919922-.1796875,1.9804688v6.0957031Z"/>
    <path class="st0" d="M110.1782227,115.9941406h-1.4404297v-12.4316406h1.4404297v1.7275391c.5761719-.6074219,1.171875-1.1035156,1.7880859-1.4882812.6152344-.3837891,1.3554688-.5751953,2.2197266-.5751953.7685547,0,1.4794922.1318359,2.1357422.3955078s1.2080078.7246094,1.65625,1.3798828c.3037109.4482422.484375.9082031.5400391,1.3798828.0556641.4726562.0839844.9648438.0839844,1.4765625v8.1357422h-1.4394531v-8.1123047c0-1.1191406-.2490234-1.9589844-.7441406-2.5195312-.4960938-.5595703-1.3203125-.8398438-2.4726562-.8398438-.4472656,0-.8554688.0683594-1.2236328.2041016s-.7001953.3154297-.9960938.5400391c-.2958984.2236328-.5478516.4794922-.7558594.7675781s-.3681641.5917969-.4794922.9121094c-.1445312.4003906-.2324219.7841797-.2646484,1.1513672-.0322266.3691406-.0478516.7685547-.0478516,1.2001953v6.6962891Z"/>
    <path class="st0" d="M122.9702148,110.1142578c0,.671875.0878906,1.3076172.2636719,1.9082031.1757812.5996094.4355469,1.1201172.7802734,1.5595703.34375.4404297.7802734.7919922,1.3071289,1.0556641.5283203.2646484,1.1357422.3964844,1.8242188.3964844.9443359,0,1.7519531-.2480469,2.4238281-.7441406s1.1201172-1.2001953,1.34375-2.1123047h1.6083984c-.1757812.5927734-.4082031,1.140625-.6962891,1.6445312s-.6474609.9443359-1.0800781,1.3203125c-.4316406.3759766-.9443359.6679688-1.5351562.8759766-.5927734.2070312-1.2802734.3115234-2.0644531.3115234-.9921875,0-1.8476562-.1679688-2.5678711-.5039062-.7197266-.3359375-1.3115234-.7958984-1.7753906-1.3798828-.4648438-.5839844-.8085938-1.2724609-1.0322266-2.0644531-.2246094-.7919922-.3359375-1.6435547-.3359375-2.5556641s.1318359-1.7675781.3955078-2.5683594c.2646484-.7998047.640625-1.5,1.1279297-2.0996094.4882812-.5996094,1.0839844-1.0722656,1.7880859-1.4160156.7036133-.34375,1.503418-.515625,2.3999023-.515625,1.7119141,0,3.0556641.5878906,4.0322266,1.7636719.9755859,1.1757812,1.4550781,2.8837891,1.4394531,5.1240234h-9.6469727ZM131.0810547,108.9140625c0-.6074219-.0839844-1.1796875-.2519531-1.7158203s-.4160156-1-.7431641-1.3925781c-.328125-.3916016-.7402344-.703125-1.2363281-.9355469-.4960938-.2314453-1.0644531-.3476562-1.7041016-.3476562s-1.2041016.1201172-1.6923828.359375c-.487793.2402344-.902832.5605469-1.2475586.9599609-.34375.4003906-.6201172.8642578-.8271484,1.3925781-.2089844.5273438-.3447266,1.0878906-.4082031,1.6796875h8.1108398Z"/>
    <path class="st0" d="M135.3291016,119.3544922c.1923828.03125.3876953.0634766.5878906.0957031s.4042969.0478516.6123047.0478516c.3994141,0,.7275391-.1279297.984375-.3828125.2548828-.2568359.4677734-.5644531.6357422-.9228516.1679688-.3603516.3076172-.7353516.4199219-1.1269531.1113281-.3916016.2402344-.7226562.3837891-.9941406l-4.8242188-12.5087891h1.6083984l3.984375,10.6796875,3.9833984-10.6796875h1.5605469l-4.6328125,12.2636719c-.2871094.7841797-.5634766,1.4882812-.8271484,2.1123047-.2646484.6240234-.5449219,1.1552734-.8408203,1.5957031-.2958984.4394531-.6240234.7753906-.9833984,1.0078125-.3603516.2314453-.7880859.3486328-1.2841797.3486328-.2558594,0-.5-.0166016-.7324219-.0488281-.2314453-.0322266-.4433594-.0712891-.6357422-.1201172v-1.3671875Z"/>
    <path class="st0" d="M158.4648438,116.0419922c-.1757812.0322266-.4072266.0878906-.6953125.1679688s-.6083984.1201172-.9599609.1201172c-.7207031,0-1.2685547-.1796875-1.6445312-.5400391s-.5634766-1.0039062-.5634766-1.9316406v-9.0966797h-1.7519531v-1.1992188h1.7519531v-3.4560547h1.4394531v3.4560547h2.328125v1.1992188h-2.328125v8.5205078c0,.3037109.0078125.5683594.0244141.7919922.015625.2246094.0634766.4082031.1435547.5517578.0800781.1445312.2041016.2480469.3720703.3125.1679688.0634766.4042969.0957031.7080078.0957031.1923828,0,.3876953-.015625.5878906-.0478516s.3964844-.0722656.5878906-.1201172v1.1757812Z"/>
    <path class="st0" d="M165.7128906,116.3300781c-.7998047-.015625-1.5478516-.1601562-2.2441406-.4316406-.6953125-.2724609-1.3037109-.6796875-1.8242188-1.2246094-.5195312-.5429688-.9316406-1.2236328-1.2353516-2.0400391-.3046875-.8154297-.4560547-1.7675781-.4560547-2.8554688,0-.9121094.1201172-1.7646484.3603516-2.5566406.2392578-.7919922.5996094-1.4833984,1.0791016-2.0751953.4804688-.5917969,1.0800781-1.0605469,1.8007812-1.4042969.7197266-.34375,1.5595703-.515625,2.5195312-.515625.9755859,0,1.8242188.171875,2.5439453.515625s1.3203125.8076172,1.7998047,1.3916016c.4804688.5849609.8359375,1.2763672,1.0683594,2.0761719.2314453.8007812.3476562,1.65625.3476562,2.5683594,0,.9921875-.1357422,1.8876953-.4072266,2.6875-.2724609.8007812-.6601562,1.4882812-1.1640625,2.0644531s-1.1123047,1.0195312-1.8242188,1.3320312c-.7119141.3115234-1.5.4677734-2.3642578.4677734ZM169.9375,109.7783203c0-.7363281-.0810547-1.4238281-.2402344-2.0644531-.1601562-.6396484-.4082031-1.1953125-.7441406-1.6679688-.3359375-.4716797-.7685547-.84375-1.2958984-1.1162109-.5283203-.2714844-1.1757812-.4072266-1.9443359-.4072266-.7519531,0-1.3964844.1474609-1.9316406.4433594-.5361328.296875-.9726562.6884766-1.3085938,1.1767578s-.5839844,1.0478516-.7431641,1.6796875c-.1601562.6318359-.2402344,1.2841797-.2402344,1.9560547,0,.7675781.0917969,1.4755859.2753906,2.1240234.1845703.6474609.4521484,1.2041016.8046875,1.6679688.3515625.4638672.7919922.8242188,1.3193359,1.0800781.5283203.2558594,1.1357422.3837891,1.8242188.3837891.7519531,0,1.3955078-.1474609,1.9316406-.4443359.5361328-.2958984.9726562-.6914062,1.3085938-1.1875s.5839844-1.0566406.7441406-1.6806641c.1591797-.6240234.2402344-1.2714844.2402344-1.9433594Z"/>
    <path class="st0" d="M184.6259766,114.0742188l3.2636719-10.5117188h1.4638672l-4.0322266,12.4316406h-1.5351562l-2.7119141-10.4404297h-.0488281l-2.7597656,10.4404297h-1.7275391l-3.7919922-12.4316406h1.4394531l3.2158203,10.6074219,2.8808594-10.6074219h1.6074219l2.7363281,10.5117188Z"/>
    <path class="st0" d="M197.1533203,108.7460938c.2714844-.0322266.5957031-.0800781.9716797-.1435547.3759766-.0644531.6835938-.1523438.9238281-.2646484.2402344-.1113281.3876953-.2998047.4443359-.5634766.0556641-.2646484.0839844-.5078125.0839844-.7324219,0-.7353516-.2363281-1.3398438-.7080078-1.8115234-.4726562-.4716797-1.2685547-.7080078-2.3886719-.7080078-.4960938,0-.9521484.0439453-1.3671875.1318359-.4169922.0878906-.7802734.2402344-1.0927734.4560547-.3115234.2158203-.5673828.5039062-.7675781.8642578-.2001953.359375-.3320312.8115234-.3964844,1.3554688h-1.4638672c.0478516-.7353516.2167969-1.3642578.5039062-1.8837891.2880859-.5195312.6601562-.9443359,1.1162109-1.2724609.4560547-.3271484.984375-.5673828,1.5839844-.7197266.6005859-.1513672,1.2363281-.2275391,1.9082031-.2275391.6240234,0,1.2119141.0673828,1.7636719.203125.5527344.1367188,1.0322266.3525391,1.4404297.6484375s.7275391.6923828.9599609,1.1884766c.2314453.4960938.3476562,1.1035156.3476562,1.8232422v6.7685547c0,.5595703.0996094.9160156.2998047,1.0673828.2001953.1523438.6044922.1162109,1.2128906-.1074219v1.1279297c-.1123047.0322266-.2763672.0800781-.4921875.1435547-.2158203.0644531-.4287109.0966797-.6357422.0966797-.2246094,0-.4404297-.0244141-.6484375-.0722656-.2402344-.0322266-.4316406-.1083984-.5761719-.2285156-.1435547-.1191406-.2597656-.2636719-.3476562-.4316406s-.1484375-.3515625-.1806641-.5517578-.0478516-.4121094-.0478516-.6357422c-.6083984.671875-1.3037109,1.1835938-2.0878906,1.5351562-.7841797.3525391-1.6318359.5283203-2.5439453.5283203-.5439453,0-1.0673828-.0722656-1.5722656-.2158203-.5039062-.1445312-.9472656-.3681641-1.3320312-.671875-.3837891-.3037109-.6875-.6757812-.9111328-1.1162109-.2246094-.4394531-.3369141-.9638672-.3369141-1.5722656,0-2.1113281,1.4482422-3.359375,4.3447266-3.7441406l1.9921875-.2636719ZM199.5771484,109.4658203c-.6083984.2568359-1.2246094.4248047-1.8486328.5039062-.6240234.0810547-1.2480469.1445312-1.8720703.1923828-1.1035156.0800781-1.9638672.328125-2.5791016.7441406-.6162109.4160156-.9248047,1.0478516-.9248047,1.8955078,0,.3847656.0761719.7167969.2285156.9960938.1513672.2802734.3515625.5126953.5996094.6962891.2480469.1845703.5361328.3203125.8642578.4082031s.6601562.1318359.9960938.1318359c.5761719,0,1.1357422-.0722656,1.6796875-.2158203.5439453-.1445312,1.0283203-.3642578,1.4521484-.6601562s.7636719-.671875,1.0205078-1.1279297c.2548828-.4560547.3837891-.9960938.3837891-1.6201172v-1.9443359Z"/>
    <path class="st0" d="M206.296875,115.9941406h-1.4404297v-12.4316406h1.4404297v2.328125h.0478516c.3994141-.9921875.9160156-1.6845703,1.5478516-2.0761719.6318359-.3925781,1.4677734-.5878906,2.5078125-.5878906v1.5595703c-.8154297-.015625-1.4873047.1123047-2.015625.3837891-.5283203.2724609-.9482422.640625-1.2597656,1.1044922-.3125.4638672-.5283203,1.0117188-.6484375,1.6435547-.1201172.6328125-.1796875,1.2919922-.1796875,1.9804688v6.0957031Z"/>
    <path class="st0" d="M222.3769531,98.7138672h1.4394531v17.2802734h-1.4394531v-2.1835938h-.0478516c-.2080078.4160156-.4765625.7792969-.8046875,1.0917969-.328125.3115234-.6875.5722656-1.0791016.7802734-.3925781.2080078-.796875.3671875-1.2128906.4794922-.4160156.1113281-.8242188.1679688-1.2236328.1679688-1.0078125,0-1.8642578-.1679688-2.5683594-.5039062s-1.2832031-.7958984-1.7392578-1.3798828-.7890625-1.2763672-.9960938-2.0761719c-.2080078-.7998047-.3125-1.65625-.3125-2.5683594,0-.8632812.1123047-1.6953125.3359375-2.4960938.2246094-.7998047.5644531-1.5,1.0205078-2.0996094s1.0322266-1.0800781,1.7275391-1.4394531c.6962891-.3603516,1.515625-.5400391,2.4599609-.5400391.8798828,0,1.7246094.1953125,2.5322266.5878906.8076172.3916016,1.4433594.9716797,1.9082031,1.7392578v-6.8398438ZM222.3769531,109.7304688c0-.7041016-.0957031-1.3720703-.2880859-2.0039062s-.4677734-1.1845703-.828125-1.65625-.7998047-.8476562-1.3203125-1.1279297c-.5195312-.2802734-1.1074219-.4199219-1.7636719-.4199219-.7519531,0-1.4003906.1474609-1.9443359.4433594-.5439453.296875-.9921875.7001953-1.34375,1.2119141-.3515625.5126953-.6083984,1.1083984-.7675781,1.7880859-.1601562.6806641-.2246094,1.4121094-.1923828,2.1962891,0,.7841797.1083984,1.4755859.3242188,2.0761719.2158203.5996094.515625,1.1083984.8994141,1.5234375.3847656.4169922.8320312.7324219,1.3447266.9482422.5117188.2158203,1.0712891.3242188,1.6796875.3242188.671875,0,1.2724609-.1357422,1.7998047-.4082031.5283203-.2714844.9677734-.6435547,1.3203125-1.1162109.3515625-.4716797.6201172-1.03125.8037109-1.6796875.1835938-.6474609.2763672-1.3476562.2763672-2.0996094Z"/>
    <path class="st0" d="M228.28125,112.1064453c.2236328,1.0722656.6269531,1.828125,1.2119141,2.2675781.5839844.4404297,1.4199219.6601562,2.5078125.6601562.5283203,0,.984375-.0634766,1.3681641-.1923828.3837891-.1279297.6992188-.2998047.9472656-.515625s.4365234-.4599609.5644531-.7324219c.1279297-.2714844.1923828-.5595703.1923828-.8632812,0-.6083984-.1962891-1.0605469-.5878906-1.3564453-.3925781-.2958984-.8847656-.5283203-1.4765625-.6962891s-1.2324219-.3115234-1.9199219-.4316406c-.6884766-.1201172-1.328125-.2998047-1.9199219-.5400391s-1.0839844-.5839844-1.4755859-1.0322266c-.3925781-.4472656-.5888672-1.0800781-.5888672-1.8955078,0-1.0400391.3798828-1.8916016,1.140625-2.5566406.7597656-.6630859,1.8359375-.9951172,3.2275391-.9951172,1.34375,0,2.4365234.2998047,3.2763672.8994141.8398438.6005859,1.3476562,1.6044922,1.5234375,3.0117188h-1.4638672c-.1279297-.9599609-.4921875-1.6357422-1.0917969-2.0273438s-1.3554688-.5878906-2.2675781-.5878906-1.6083984.1962891-2.0878906.5878906c-.4804688.3916016-.7207031.9082031-.7207031,1.5478516,0,.5605469.1962891.9882812.5878906,1.2841797.3925781.2958984.8837891.5361328,1.4765625.7197266.5917969.1845703,1.2314453.3476562,1.9199219.4921875.6875.1435547,1.328125.3476562,1.9199219.6123047.5917969.2636719,1.0839844.6201172,1.4755859,1.0673828.3925781.4482422.5888672,1.0722656.5888672,1.8720703,0,.5917969-.1289062,1.1162109-.3847656,1.5722656s-.6083984.8359375-1.0556641,1.1396484c-.4482422.3046875-.9804688.5322266-1.5957031.6845703-.6162109.1513672-1.2929688.2275391-2.0283203.2275391-.7363281,0-1.3886719-.1083984-1.9560547-.3242188-.5683594-.2158203-1.0517578-.515625-1.4521484-.8994141-.4003906-.3847656-.7119141-.8320312-.9355469-1.3447266-.2246094-.5117188-.3525391-1.0634766-.3847656-1.6552734h1.4648438Z"/>
    <path class="st0" d="M73.6743164,140.3300781c-.7998047-.015625-1.5478516-.1601562-2.2441406-.4316406-.6953125-.2724609-1.3037109-.6796875-1.8242188-1.2246094-.5195312-.5429688-.9316406-1.2236328-1.2353516-2.0400391-.3046875-.8154297-.4560547-1.7675781-.4560547-2.8554688,0-.9121094.1201172-1.7646484.3603516-2.5566406.2392578-.7919922.5996094-1.4833984,1.0791016-2.0751953.4804688-.5917969,1.0800781-1.0605469,1.8007812-1.4042969.7197266-.34375,1.5595703-.515625,2.5195312-.515625.9755859,0,1.8242188.171875,2.5439453.515625s1.3203125.8076172,1.7998047,1.3916016c.4804688.5849609.8359375,1.2763672,1.0683594,2.0761719.2314453.8007812.3476562,1.65625.3476562,2.5683594,0,.9921875-.1357422,1.8876953-.4072266,2.6875-.2724609.8007812-.6601562,1.4882812-1.1640625,2.0644531s-1.1123047,1.0195312-1.8242188,1.3320312c-.7119141.3115234-1.5.4677734-2.3642578.4677734ZM77.8989258,133.7783203c0-.7363281-.0810547-1.4238281-.2402344-2.0644531-.1601562-.6396484-.4082031-1.1953125-.7441406-1.6679688-.3359375-.4716797-.7685547-.84375-1.2958984-1.1162109-.5283203-.2714844-1.1757812-.4072266-1.9443359-.4072266-.7519531,0-1.3964844.1474609-1.9316406.4433594-.5361328.296875-.9726562.6884766-1.3085938,1.1767578s-.5839844,1.0478516-.7431641,1.6796875c-.1601562.6318359-.2402344,1.2841797-.2402344,1.9560547,0,.7675781.0917969,1.4755859.2753906,2.1240234.1845703.6474609.4521484,1.2041016.8046875,1.6679688.3515625.4638672.7919922.8242188,1.3193359,1.0800781.5283203.2558594,1.1357422.3837891,1.8242188.3837891.7519531,0,1.3955078-.1474609,1.9316406-.4443359.5361328-.2958984.9726562-.6914062,1.3085938-1.1875s.5839844-1.0566406.7441406-1.6806641c.1591797-.6240234.2402344-1.2714844.2402344-1.9433594Z"/>
    <path class="st0" d="M92.5864258,138.0742188l3.2636719-10.5117188h1.4638672l-4.0322266,12.4316406h-1.5351562l-2.7119141-10.4404297h-.0488281l-2.7597656,10.4404297h-1.7275391l-3.7919922-12.4316406h1.4394531l3.2158203,10.6074219,2.8808594-10.6074219h1.6074219l2.7363281,10.5117188Z"/>
    <path class="st0" d="M100.8422852,139.9941406h-1.4404297v-12.4316406h1.4404297v1.7275391c.5761719-.6074219,1.171875-1.1035156,1.7880859-1.4882812.6152344-.3837891,1.3554688-.5751953,2.2197266-.5751953.7685547,0,1.4794922.1318359,2.1357422.3955078s1.2080078.7246094,1.65625,1.3798828c.3037109.4482422.484375.9082031.5400391,1.3798828.0556641.4726562.0839844.9648438.0839844,1.4765625v8.1357422h-1.4394531v-8.1123047c0-1.1191406-.2490234-1.9589844-.7441406-2.5195312-.4960938-.5595703-1.3203125-.8398438-2.4726562-.8398438-.4472656,0-.8554688.0683594-1.2236328.2041016s-.7001953.3154297-.9960938.5400391c-.2958984.2236328-.5478516.4794922-.7558594.7675781s-.3681641.5917969-.4794922.9121094c-.1445312.4003906-.2324219.7841797-.2646484,1.1513672-.0322266.3691406-.0478516.7685547-.0478516,1.2001953v6.6962891Z"/>
    <path class="st0" d="M112.8901367,124.8505859v-2.1367188h1.5839844v2.1367188h-1.5839844ZM112.9624023,139.9941406v-12.4316406h1.4394531v12.4316406h-1.4394531Z"/>
    <path class="st0" d="M119.5141602,139.9941406h-1.4404297v-12.4316406h1.4404297v1.7275391c.5761719-.6074219,1.171875-1.1035156,1.7880859-1.4882812.6152344-.3837891,1.3554688-.5751953,2.2197266-.5751953.7685547,0,1.4790039.1318359,2.1352539.3955078s1.2080078.7246094,1.65625,1.3798828c.3037109.4482422.484375.9082031.5400391,1.3798828.0556641.4726562.0839844.9648438.0839844,1.4765625v8.1357422h-1.4394531v-8.1123047c0-1.1191406-.2490234-1.9589844-.7441406-2.5195312-.4960938-.5595703-1.3198242-.8398438-2.472168-.8398438-.4472656,0-.8554688.0683594-1.2236328.2041016s-.7001953.3154297-.9960938.5400391c-.2958984.2236328-.5478516.4794922-.7558594.7675781s-.3681641.5917969-.4794922.9121094c-.1445312.4003906-.2324219.7841797-.2646484,1.1513672-.0322266.3691406-.0478516.7685547-.0478516,1.2001953v6.6962891Z"/>
    <path class="st0" d="M141.0175781,127.5625h1.4394531v11.2314453c0,.8320312-.0839844,1.6279297-.2519531,2.3886719-.1679688.7587891-.4677734,1.4277344-.8994141,2.0039062-.4326172.5751953-1.0244141,1.0351562-1.7763672,1.3798828-.7519531.34375-1.7197266.515625-2.9042969.515625-.9111328,0-1.6953125-.1162109-2.3515625-.3476562-.65625-.2324219-1.1923828-.5244141-1.6083984-.8759766-.4160156-.3525391-.7314453-.7402344-.9472656-1.1640625-.2167969-.4248047-.3330078-.8203125-.3486328-1.1884766h1.5361328c.1123047.4638672.2880859.84375.5283203,1.140625.2402344.2958984.5234375.5273438.8515625.6953125s.6923828.2841797,1.0927734.3486328c.3994141.0634766.8154297.0957031,1.2470703.0957031.9765625,0,1.7607422-.1679688,2.3525391-.5039062s1.0400391-.7763672,1.34375-1.3203125.5-1.1601562.5878906-1.8476562.1240234-1.3925781.1083984-2.1123047c-.4648438.7685547-1.1005859,1.3486328-1.9082031,1.7402344s-1.6523438.5878906-2.5322266.5878906c-.9443359,0-1.7636719-.1796875-2.4599609-.5400391-.6953125-.3603516-1.2714844-.8398438-1.7275391-1.4394531-.4560547-.6005859-.7958984-1.2998047-1.0205078-2.1005859-.2236328-.7998047-.3359375-1.6318359-.3359375-2.4960938,0-.9121094.1044922-1.7675781.3125-2.5673828.2070312-.7998047.5400391-1.4921875.9960938-2.0761719s1.0351562-1.0439453,1.7392578-1.3798828,1.5605469-.5039062,2.5683594-.5039062c.3994141,0,.8076172.0556641,1.2236328.1679688.4160156.1113281.8203125.2714844,1.2128906.4794922.3916016.2080078.7509766.4726562,1.0791016.7919922.328125.3203125.5966797.6806641.8046875,1.0800781h.0478516v-2.1835938ZM141.0175781,133.8261719c0-.7519531-.0927734-1.4521484-.2763672-2.0996094-.1835938-.6484375-.4521484-1.2080078-.8037109-1.6806641-.3525391-.4716797-.7919922-.84375-1.3203125-1.1162109-.5273438-.2714844-1.1279297-.4072266-1.7998047-.4072266-.6083984,0-1.1679688.1074219-1.6796875.3232422-.5126953.2167969-.9599609.5322266-1.3447266.9482422-.3837891.4160156-.6835938.9238281-.8994141,1.5244141-.2158203.5996094-.3242188,1.2919922-.3242188,2.0761719-.0322266.7841797.0322266,1.515625.1923828,2.1953125.1591797.6806641.4160156,1.2763672.7675781,1.7880859.3515625.5126953.7998047.9160156,1.34375,1.2119141.5439453.296875,1.1923828.4443359,1.9443359.4443359.65625,0,1.2441406-.1396484,1.7636719-.4199219.5205078-.2802734.9599609-.65625,1.3203125-1.1279297s.6357422-1.0244141.828125-1.65625.2880859-1.2998047.2880859-2.0039062Z"/>
    <path class="st0" d="M152.6572266,143.3544922c.1923828.03125.3876953.0634766.5878906.0957031s.4042969.0478516.6123047.0478516c.3994141,0,.7275391-.1279297.984375-.3828125.2548828-.2568359.4677734-.5644531.6357422-.9228516.1679688-.3603516.3076172-.7353516.4199219-1.1269531.1113281-.3916016.2402344-.7226562.3837891-.9941406l-4.8242188-12.5087891h1.6083984l3.984375,10.6796875,3.9833984-10.6796875h1.5605469l-4.6328125,12.2636719c-.2871094.7841797-.5634766,1.4882812-.8271484,2.1123047-.2646484.6240234-.5449219,1.1552734-.8408203,1.5957031-.2958984.4394531-.6240234.7753906-.9833984,1.0078125-.3603516.2314453-.7880859.3486328-1.2841797.3486328-.2558594,0-.5-.0166016-.7324219-.0488281-.2314453-.0322266-.4433594-.0712891-.6357422-.1201172v-1.3671875Z"/>
    <path class="st0" d="M169.6972656,140.3300781c-.7998047-.015625-1.5478516-.1601562-2.2441406-.4316406-.6953125-.2724609-1.3037109-.6796875-1.8242188-1.2246094-.5195312-.5429688-.9316406-1.2236328-1.2353516-2.0400391-.3046875-.8154297-.4560547-1.7675781-.4560547-2.8554688,0-.9121094.1201172-1.7646484.3603516-2.5566406.2392578-.7919922.5996094-1.4833984,1.0791016-2.0751953.4804688-.5917969,1.0800781-1.0605469,1.8007812-1.4042969.7197266-.34375,1.5595703-.515625,2.5195312-.515625.9755859,0,1.8242188.171875,2.5439453.515625s1.3203125.8076172,1.7998047,1.3916016c.4804688.5849609.8359375,1.2763672,1.0683594,2.0761719.2314453.8007812.3476562,1.65625.3476562,2.5683594,0,.9921875-.1357422,1.8876953-.4072266,2.6875-.2724609.8007812-.6601562,1.4882812-1.1640625,2.0644531s-1.1123047,1.0195312-1.8242188,1.3320312c-.7119141.3115234-1.5.4677734-2.3642578.4677734ZM173.921875,133.7783203c0-.7363281-.0810547-1.4238281-.2402344-2.0644531-.1601562-.6396484-.4082031-1.1953125-.7441406-1.6679688-.3359375-.4716797-.7685547-.84375-1.2958984-1.1162109-.5283203-.2714844-1.1757812-.4072266-1.9443359-.4072266-.7519531,0-1.3964844.1474609-1.9316406.4433594-.5361328.296875-.9726562.6884766-1.3085938,1.1767578s-.5839844,1.0478516-.7431641,1.6796875c-.1601562.6318359-.2402344,1.2841797-.2402344,1.9560547,0,.7675781.0917969,1.4755859.2753906,2.1240234.1845703.6474609.4521484,1.2041016.8046875,1.6679688.3515625.4638672.7919922.8242188,1.3193359,1.0800781.5283203.2558594,1.1357422.3837891,1.8242188.3837891.7519531,0,1.3955078-.1474609,1.9316406-.4443359.5361328-.2958984.9726562-.6914062,1.3085938-1.1875s.5839844-1.0566406.7441406-1.6806641c.1591797-.6240234.2402344-1.2714844.2402344-1.9433594Z"/>
    <path class="st0" d="M186.5214844,127.5625h1.4394531v12.4316406h-1.4394531v-1.7275391c-.1923828.2236328-.4082031.4550781-.6484375.6953125s-.515625.4599609-.828125.6601562c-.3115234.2001953-.6757812.3681641-1.0917969.5039062s-.8964844.2041016-1.4404297.2041016c-.8320312,0-1.5273438-.1162109-2.0878906-.3476562-.5595703-.2324219-1.0117188-.5556641-1.3554688-.9726562-.3447266-.4150391-.5927734-.8994141-.7441406-1.4511719-.1523438-.5527344-.2285156-1.15625-.2285156-1.8125v-8.1835938h1.4404297v8.1591797c0,1.0722656.2480469,1.8925781.7441406,2.4609375.4960938.5673828,1.3115234.8515625,2.4482422.8515625.5917969,0,1.1230469-.1162109,1.5957031-.3476562.4716797-.2324219.8681641-.5556641,1.1875-.9726562.3203125-.4160156.5683594-.9121094.7441406-1.4873047.1757812-.5761719.2646484-1.2080078.2646484-1.8964844v-6.7675781Z"/>
    <path class="st0" d="M192.953125,139.9941406h-1.4404297v-12.4316406h1.4404297v2.328125h.0478516c.3994141-.9921875.9160156-1.6845703,1.5478516-2.0761719.6318359-.3925781,1.4677734-.5878906,2.5078125-.5878906v1.5595703c-.8154297-.015625-1.4873047.1123047-2.015625.3837891-.5283203.2724609-.9482422.640625-1.2597656,1.1044922-.3125.4638672-.5283203,1.0117188-.6484375,1.6435547-.1201172.6328125-.1796875,1.2919922-.1796875,1.9804688v6.0957031Z"/>
    <path class="st0" d="M67.4106445,151.5625h1.5595703l4.0322266,10.6552734,4.0322266-10.6552734h1.5595703l-4.8242188,12.4316406h-1.6074219l-4.7519531-12.4316406Z"/>
    <path class="st0" d="M81.6186523,158.1142578c0,.671875.0878906,1.3076172.2636719,1.9082031.1757812.5996094.4355469,1.1201172.7802734,1.5595703.34375.4404297.7802734.7919922,1.3076172,1.0556641.5283203.2646484,1.1357422.3964844,1.8242188.3964844.9443359,0,1.7519531-.2480469,2.4238281-.7441406s1.1201172-1.2001953,1.34375-2.1123047h1.6083984c-.1757812.5927734-.4082031,1.140625-.6962891,1.6445312s-.6474609.9443359-1.0800781,1.3203125c-.4316406.3759766-.9443359.6679688-1.5351562.8759766-.5927734.2070312-1.2802734.3115234-2.0644531.3115234-.9921875,0-1.8476562-.1679688-2.5683594-.5039062-.7197266-.3359375-1.3115234-.7958984-1.7753906-1.3798828-.4648438-.5839844-.8085938-1.2724609-1.0322266-2.0644531-.2246094-.7919922-.3359375-1.6435547-.3359375-2.5556641s.1318359-1.7675781.3955078-2.5683594c.2646484-.7998047.640625-1.5,1.1279297-2.0996094.4882812-.5996094,1.0839844-1.0722656,1.7880859-1.4160156s1.5039062-.515625,2.4003906-.515625c1.7119141,0,3.0556641.5878906,4.0322266,1.7636719.9755859,1.1757812,1.4550781,2.8837891,1.4394531,5.1240234h-9.6474609ZM89.7299805,156.9140625c0-.6074219-.0839844-1.1796875-.2519531-1.7158203s-.4160156-1-.7431641-1.3925781c-.328125-.3916016-.7402344-.703125-1.2363281-.9355469-.4960938-.2314453-1.0644531-.3476562-1.7041016-.3476562s-1.2041016.1201172-1.6923828.359375c-.4882812.2402344-.9033203.5605469-1.2480469.9599609-.34375.4003906-.6201172.8642578-.8271484,1.3925781-.2089844.5273438-.3447266,1.0878906-.4082031,1.6796875h8.1113281Z"/>
    <path class="st0" d="M95.5864258,163.9941406h-1.4404297v-12.4316406h1.4404297v2.328125h.0478516c.3994141-.9921875.9160156-1.6845703,1.5478516-2.0761719.6318359-.3925781,1.4677734-.5878906,2.5078125-.5878906v1.5595703c-.8154297-.015625-1.4873047.1123047-2.015625.3837891-.5283203.2724609-.9482422.640625-1.2597656,1.1044922-.3125.4638672-.5283203,1.0117188-.6484375,1.6435547-.1201172.6328125-.1796875,1.2919922-.1796875,1.9804688v6.0957031Z"/>
    <path class="st0" d="M101.9702148,167.3544922c.1923828.03125.3876953.0634766.5878906.0957031s.4042969.0478516.6123047.0478516c.3994141,0,.7275391-.1279297.984375-.3828125.2548828-.2568359.4677734-.5644531.6357422-.9228516.1679688-.3603516.3076172-.7353516.4199219-1.1269531.1113281-.3916016.2402344-.7226562.3837891-.9941406l-4.8242188-12.5087891h1.6083984l3.984375,10.6796875,3.9833984-10.6796875h1.5605469l-4.6328125,12.2636719c-.2871094.7841797-.5634766,1.4882812-.8271484,2.1123047-.2646484.6240234-.5449219,1.1552734-.8408203,1.5957031-.2958984.4394531-.6240234.7753906-.9833984,1.0078125-.3603516.2314453-.7880859.3486328-1.2841797.3486328-.2558594,0-.5-.0166016-.7324219-.0488281-.2314453-.0322266-.4433594-.0712891-.6357422-.1201172v-1.3671875Z"/>
    <path class="st0" d="M125.6816406,164.3300781c-.7993164-.015625-1.5473633-.1601562-2.2436523-.4316406-.6953125-.2724609-1.3037109-.6796875-1.8242188-1.2246094-.5195312-.5429688-.9316406-1.2236328-1.2353516-2.0400391-.3046875-.8154297-.4560547-1.7675781-.4560547-2.8554688,0-.9121094.1201172-1.7646484.3603516-2.5566406.2392578-.7919922.5996094-1.4833984,1.0791016-2.0751953.4804688-.5917969,1.0800781-1.0605469,1.8007812-1.4042969.7197266-.34375,1.5595703-.515625,2.519043-.515625.9755859,0,1.8242188.171875,2.5439453.515625s1.3203125.8076172,1.7998047,1.3916016c.4804688.5849609.8359375,1.2763672,1.0683594,2.0761719.2314453.8007812.3476562,1.65625.3476562,2.5683594,0,.9921875-.1357422,1.8876953-.4072266,2.6875-.2724609.8007812-.6601562,1.4882812-1.1640625,2.0644531s-1.1123047,1.0195312-1.8242188,1.3320312c-.7119141.3115234-1.5.4677734-2.3642578.4677734ZM129.90625,157.7783203c0-.7363281-.0810547-1.4238281-.2402344-2.0644531-.1601562-.6396484-.4082031-1.1953125-.7441406-1.6679688-.3359375-.4716797-.7685547-.84375-1.2958984-1.1162109-.5283203-.2714844-1.1757812-.4072266-1.9443359-.4072266-.7514648,0-1.3959961.1474609-1.9311523.4433594-.5361328.296875-.9726562.6884766-1.3085938,1.1767578s-.5839844,1.0478516-.7431641,1.6796875c-.1601562.6318359-.2402344,1.2841797-.2402344,1.9560547,0,.7675781.0917969,1.4755859.2753906,2.1240234.1845703.6474609.4521484,1.2041016.8046875,1.6679688.3515625.4638672.7919922.8242188,1.3193359,1.0800781.5283203.2558594,1.1357422.3837891,1.8237305.3837891.7519531,0,1.3955078-.1474609,1.9316406-.4443359.5361328-.2958984.9726562-.6914062,1.3085938-1.1875s.5839844-1.0566406.7441406-1.6806641c.1591797-.6240234.2402344-1.2714844.2402344-1.9433594Z"/>
    <path class="st0" d="M144.59375,162.0742188l3.2636719-10.5117188h1.4638672l-4.0322266,12.4316406h-1.5351562l-2.7119141-10.4404297h-.0488281l-2.7597656,10.4404297h-1.7275391l-3.7919922-12.4316406h1.4394531l3.2158203,10.6074219,2.8808594-10.6074219h1.6074219l2.7363281,10.5117188Z"/>
    <path class="st0" d="M152.8496094,163.9941406h-1.4404297v-12.4316406h1.4404297v1.7275391c.5761719-.6074219,1.171875-1.1035156,1.7880859-1.4882812.6152344-.3837891,1.3554688-.5751953,2.2197266-.5751953.7685547,0,1.4794922.1318359,2.1357422.3955078s1.2080078.7246094,1.65625,1.3798828c.3037109.4482422.484375.9082031.5400391,1.3798828.0556641.4726562.0839844.9648438.0839844,1.4765625v8.1357422h-1.4394531v-8.1123047c0-1.1191406-.2490234-1.9589844-.7441406-2.5195312-.4960938-.5595703-1.3203125-.8398438-2.4726562-.8398438-.4472656,0-.8554688.0683594-1.2236328.2041016s-.7001953.3154297-.9960938.5400391c-.2958984.2236328-.5478516.4794922-.7558594.7675781s-.3681641.5917969-.4794922.9121094c-.1445312.4003906-.2324219.7841797-.2646484,1.1513672-.0322266.3691406-.0478516.7685547-.0478516,1.2001953v6.6962891Z"/>
    <path class="st0" d="M177.1376953,156.7460938c.2714844-.0322266.5957031-.0800781.9716797-.1435547.3759766-.0644531.6835938-.1523438.9238281-.2646484.2402344-.1113281.3876953-.2998047.4443359-.5634766.0556641-.2646484.0839844-.5078125.0839844-.7324219,0-.7353516-.2363281-1.3398438-.7080078-1.8115234-.4726562-.4716797-1.2685547-.7080078-2.3886719-.7080078-.4960938,0-.9521484.0439453-1.3671875.1318359-.4169922.0878906-.7802734.2402344-1.0927734.4560547-.3115234.2158203-.5673828.5039062-.7675781.8642578-.2001953.359375-.3320312.8115234-.3964844,1.3554688h-1.4638672c.0478516-.7353516.2167969-1.3642578.5039062-1.8837891.2880859-.5195312.6601562-.9443359,1.1162109-1.2724609.4560547-.3271484.984375-.5673828,1.5839844-.7197266.6005859-.1513672,1.2363281-.2275391,1.9082031-.2275391.6240234,0,1.2119141.0673828,1.7636719.203125.5527344.1367188,1.0322266.3525391,1.4404297.6484375s.7275391.6923828.9599609,1.1884766c.2314453.4960938.3476562,1.1035156.3476562,1.8232422v6.7685547c0,.5595703.0996094.9160156.2998047,1.0673828.2001953.1523438.6044922.1162109,1.2128906-.1074219v1.1279297c-.1123047.0322266-.2763672.0800781-.4921875.1435547-.2158203.0644531-.4287109.0966797-.6357422.0966797-.2246094,0-.4404297-.0244141-.6484375-.0722656-.2402344-.0322266-.4316406-.1083984-.5761719-.2285156-.1435547-.1191406-.2597656-.2636719-.3476562-.4316406s-.1484375-.3515625-.1806641-.5517578-.0478516-.4121094-.0478516-.6357422c-.6083984.671875-1.3037109,1.1835938-2.0878906,1.5351562-.7841797.3525391-1.6318359.5283203-2.5439453.5283203-.5439453,0-1.0673828-.0722656-1.5722656-.2158203-.5039062-.1445312-.9472656-.3681641-1.3320312-.671875-.3837891-.3037109-.6875-.6757812-.9111328-1.1162109-.2246094-.4394531-.3369141-.9638672-.3369141-1.5722656,0-2.1113281,1.4482422-3.359375,4.3447266-3.7441406l1.9921875-.2636719ZM179.5615234,157.4658203c-.6083984.2568359-1.2246094.4248047-1.8486328.5039062-.6240234.0810547-1.2480469.1445312-1.8720703.1923828-1.1035156.0800781-1.9638672.328125-2.5791016.7441406-.6162109.4160156-.9248047,1.0478516-.9248047,1.8955078,0,.3847656.0761719.7167969.2285156.9960938.1513672.2802734.3515625.5126953.5996094.6962891.2480469.1845703.5361328.3203125.8642578.4082031s.6601562.1318359.9960938.1318359c.5761719,0,1.1357422-.0722656,1.6796875-.2158203.5439453-.1445312,1.0283203-.3642578,1.4521484-.6601562s.7636719-.671875,1.0205078-1.1279297c.2548828-.4560547.3837891-.9960938.3837891-1.6201172v-1.9443359Z"/>
    <path class="st0" d="M189.1367188,164.0419922c-.1757812.0322266-.4072266.0878906-.6953125.1679688s-.6083984.1201172-.9599609.1201172c-.7207031,0-1.2685547-.1796875-1.6445312-.5400391s-.5634766-1.0039062-.5634766-1.9316406v-9.0966797h-1.7519531v-1.1992188h1.7519531v-3.4560547h1.4394531v3.4560547h2.328125v1.1992188h-2.328125v8.5205078c0,.3037109.0078125.5683594.0244141.7919922.015625.2246094.0634766.4082031.1435547.5517578.0800781.1445312.2041016.2480469.3720703.3125.1679688.0634766.4042969.0957031.7080078.0957031.1923828,0,.3876953-.015625.5878906-.0478516s.3964844-.0722656.5878906-.1201172v1.1757812Z"/>
    <path class="st0" d="M192.3291016,158.1142578c0,.671875.0878906,1.3076172.2636719,1.9082031.1757812.5996094.4355469,1.1201172.7802734,1.5595703.34375.4404297.7802734.7919922,1.3076172,1.0556641.5283203.2646484,1.1357422.3964844,1.8242188.3964844.9443359,0,1.7519531-.2480469,2.4238281-.7441406s1.1201172-1.2001953,1.34375-2.1123047h1.6083984c-.1757812.5927734-.4082031,1.140625-.6962891,1.6445312s-.6474609.9443359-1.0800781,1.3203125c-.4316406.3759766-.9443359.6679688-1.5351562.8759766-.5927734.2070312-1.2802734.3115234-2.0644531.3115234-.9921875,0-1.8476562-.1679688-2.5683594-.5039062-.7197266-.3359375-1.3115234-.7958984-1.7753906-1.3798828-.4648438-.5839844-.8085938-1.2724609-1.0322266-2.0644531-.2246094-.7919922-.3359375-1.6435547-.3359375-2.5556641s.1318359-1.7675781.3955078-2.5683594c.2646484-.7998047.640625-1.5,1.1279297-2.0996094.4882812-.5996094,1.0839844-1.0722656,1.7880859-1.4160156s1.5039062-.515625,2.4003906-.515625c1.7119141,0,3.0556641.5878906,4.0322266,1.7636719.9755859,1.1757812,1.4550781,2.8837891,1.4394531,5.1240234h-9.6474609ZM200.4404297,156.9140625c0-.6074219-.0839844-1.1796875-.2519531-1.7158203s-.4160156-1-.7431641-1.3925781c-.328125-.3916016-.7402344-.703125-1.2363281-.9355469-.4960938-.2314453-1.0644531-.3476562-1.7041016-.3476562s-1.2041016.1201172-1.6923828.359375c-.4882812.2402344-.9033203.5605469-1.2480469.9599609-.34375.4003906-.6201172.8642578-.8271484,1.3925781-.2089844.5273438-.3447266,1.0878906-.4082031,1.6796875h8.1113281Z"/>
    <path class="st0" d="M205.0019531,163.9941406v-17.2802734h1.4394531v17.2802734h-1.4394531Z"/>
    <path class="st0" d="M210.2568359,148.8505859v-2.1367188h1.5839844v2.1367188h-1.5839844ZM210.3291016,163.9941406v-12.4316406h1.4394531v12.4316406h-1.4394531Z"/>
    <path class="st0" d="M216.3291016,158.1142578c0,.671875.0878906,1.3076172.2636719,1.9082031.1757812.5996094.4355469,1.1201172.7802734,1.5595703.34375.4404297.7802734.7919922,1.3076172,1.0556641.5283203.2646484,1.1357422.3964844,1.8242188.3964844.9443359,0,1.7519531-.2480469,2.4238281-.7441406s1.1201172-1.2001953,1.34375-2.1123047h1.6083984c-.1757812.5927734-.4082031,1.140625-.6962891,1.6445312s-.6474609.9443359-1.0800781,1.3203125c-.4316406.3759766-.9443359.6679688-1.5351562.8759766-.5927734.2070312-1.2802734.3115234-2.0644531.3115234-.9921875,0-1.8476562-.1679688-2.5683594-.5039062-.7197266-.3359375-1.3115234-.7958984-1.7753906-1.3798828-.4648438-.5839844-.8085938-1.2724609-1.0322266-2.0644531-.2246094-.7919922-.3359375-1.6435547-.3359375-2.5556641s.1318359-1.7675781.3955078-2.5683594c.2646484-.7998047.640625-1.5,1.1279297-2.0996094.4882812-.5996094,1.0839844-1.0722656,1.7880859-1.4160156s1.5039062-.515625,2.4003906-.515625c1.7119141,0,3.0556641.5878906,4.0322266,1.7636719.9755859,1.1757812,1.4550781,2.8837891,1.4394531,5.1240234h-9.6474609ZM224.4404297,156.9140625c0-.6074219-.0839844-1.1796875-.2519531-1.7158203s-.4160156-1-.7431641-1.3925781c-.328125-.3916016-.7402344-.703125-1.2363281-.9355469-.4960938-.2314453-1.0644531-.3476562-1.7041016-.3476562s-1.2041016.1201172-1.6923828.359375c-.4882812.2402344-.9033203.5605469-1.2480469.9599609-.34375.4003906-.6201172.8642578-.8271484,1.3925781-.2089844.5273438-.3447266,1.0878906-.4082031,1.6796875h8.1113281Z"/>
    <path class="st0" d="M230.296875,163.9941406h-1.4404297v-12.4316406h1.4404297v2.328125h.0478516c.3994141-.9921875.9160156-1.6845703,1.5478516-2.0761719.6318359-.3925781,1.4677734-.5878906,2.5078125-.5878906v1.5595703c-.8154297-.015625-1.4873047.1123047-2.015625.3837891-.5283203.2724609-.9482422.640625-1.2597656,1.1044922-.3125.4638672-.5283203,1.0117188-.6484375,1.6435547-.1201172.6328125-.1796875,1.2919922-.1796875,1.9804688v6.0957031Z"/>
    <path class="st0" d="M79.2426758,186.0742188l3.2636719-10.5117188h1.4638672l-4.0322266,12.4316406h-1.5351562l-2.7119141-10.4404297h-.0488281l-2.7597656,10.4404297h-1.7275391l-3.7919922-12.4316406h1.4394531l3.2158203,10.6074219,2.8808594-10.6074219h1.6074219l2.7363281,10.5117188Z"/>
    <path class="st0" d="M91.0024414,188.3300781c-.7998047-.015625-1.5478516-.1601562-2.2441406-.4316406-.6953125-.2724609-1.3037109-.6796875-1.8242188-1.2246094-.5195312-.5429688-.9316406-1.2236328-1.2353516-2.0400391-.3046875-.8154297-.4560547-1.7675781-.4560547-2.8554688,0-.9121094.1201172-1.7646484.3603516-2.5566406.2392578-.7919922.5996094-1.4833984,1.0791016-2.0751953.4804688-.5917969,1.0800781-1.0605469,1.8007812-1.4042969.7197266-.34375,1.5595703-.515625,2.5195312-.515625.9755859,0,1.8242188.171875,2.5439453.515625s1.3203125.8076172,1.7998047,1.3916016c.4804688.5849609.8359375,1.2763672,1.0683594,2.0761719.2314453.8007812.3476562,1.65625.3476562,2.5683594,0,.9921875-.1357422,1.8876953-.4072266,2.6875-.2724609.8007812-.6601562,1.4882812-1.1640625,2.0644531s-1.1123047,1.0195312-1.8242188,1.3320312c-.7119141.3115234-1.5.4677734-2.3642578.4677734ZM95.2270508,181.7783203c0-.7363281-.0810547-1.4238281-.2402344-2.0644531-.1601562-.6396484-.4082031-1.1953125-.7441406-1.6679688-.3359375-.4716797-.7685547-.84375-1.2958984-1.1162109-.5283203-.2714844-1.1757812-.4072266-1.9443359-.4072266-.7519531,0-1.3964844.1474609-1.9316406.4433594-.5361328.296875-.9726562.6884766-1.3085938,1.1767578s-.5839844,1.0478516-.7431641,1.6796875c-.1601562.6318359-.2402344,1.2841797-.2402344,1.9560547,0,.7675781.0917969,1.4755859.2753906,2.1240234.1845703.6474609.4521484,1.2041016.8046875,1.6679688.3515625.4638672.7919922.8242188,1.3193359,1.0800781.5283203.2558594,1.1357422.3837891,1.8242188.3837891.7519531,0,1.3955078-.1474609,1.9316406-.4443359.5361328-.2958984.9726562-.6914062,1.3085938-1.1875s.5839844-1.0566406.7441406-1.6806641c.1591797-.6240234.2402344-1.2714844.2402344-1.9433594Z"/>
    <path class="st0" d="M100.9145508,187.9941406h-1.4404297v-12.4316406h1.4404297v2.328125h.0478516c.3994141-.9921875.9160156-1.6845703,1.5478516-2.0761719.6318359-.3925781,1.4677734-.5878906,2.5078125-.5878906v1.5595703c-.8154297-.015625-1.4873047.1123047-2.015625.3837891-.5283203.2724609-.9482422.640625-1.2597656,1.1044922-.3125.4638672-.5283203,1.0117188-.6484375,1.6435547-.1201172.6328125-.1796875,1.2919922-.1796875,1.9804688v6.0957031Z"/>
    <path class="st0" d="M107.2973633,187.9941406v-17.2802734h1.4404297v10.7519531l6.0957031-5.9033203h1.9677734l-4.6552734,4.4873047,5.2080078,7.9443359h-1.6083984l-4.65625-6.9355469-2.3515625,2.2314453v4.7041016h-1.4404297Z"/>
    <path class="st0" d="M131.0097656,188.3300781c-.7998047-.015625-1.5478516-.1601562-2.2441406-.4316406-.6953125-.2724609-1.3037109-.6796875-1.8242188-1.2246094-.5195312-.5429688-.9316406-1.2236328-1.2353516-2.0400391-.3046875-.8154297-.4560547-1.7675781-.4560547-2.8554688,0-.9121094.1201172-1.7646484.3603516-2.5566406.2392578-.7919922.5996094-1.4833984,1.0791016-2.0751953.4804688-.5917969,1.0800781-1.0605469,1.8007812-1.4042969.7197266-.34375,1.5595703-.515625,2.5195312-.515625.9755859,0,1.8242188.171875,2.5439453.515625s1.3203125.8076172,1.7998047,1.3916016c.4804688.5849609.8359375,1.2763672,1.0683594,2.0761719.2314453.8007812.3476562,1.65625.3476562,2.5683594,0,.9921875-.1357422,1.8876953-.4072266,2.6875-.2724609.8007812-.6601562,1.4882812-1.1640625,2.0644531s-1.1123047,1.0195312-1.8242188,1.3320312c-.7119141.3115234-1.5.4677734-2.3642578.4677734ZM135.234375,181.7783203c0-.7363281-.0810547-1.4238281-.2402344-2.0644531-.1601562-.6396484-.4082031-1.1953125-.7441406-1.6679688-.3359375-.4716797-.7685547-.84375-1.2958984-1.1162109-.5283203-.2714844-1.1757812-.4072266-1.9443359-.4072266-.7519531,0-1.3964844.1474609-1.9316406.4433594-.5361328.296875-.9726562.6884766-1.3085938,1.1767578s-.5839844,1.0478516-.7431641,1.6796875c-.1601562.6318359-.2402344,1.2841797-.2402344,1.9560547,0,.7675781.0917969,1.4755859.2753906,2.1240234.1845703.6474609.4521484,1.2041016.8046875,1.6679688.3515625.4638672.7919922.8242188,1.3193359,1.0800781.5283203.2558594,1.1357422.3837891,1.8242188.3837891.7519531,0,1.3955078-.1474609,1.9316406-.4443359.5361328-.2958984.9726562-.6914062,1.3085938-1.1875s.5839844-1.0566406.7441406-1.6806641c.1591797-.6240234.2402344-1.2714844.2402344-1.9433594Z"/>
    <path class="st0" d="M138.1621094,176.7617188v-1.1992188h1.8476562v-1.96875c0-.9912109.2001953-1.7753906.5996094-2.3515625.4003906-.5761719,1.0800781-.8642578,2.0400391-.8642578.2236328,0,.4326172.0087891.6240234.0244141.1923828.015625.3837891.0400391.5761719.0722656v1.3193359c-.3203125-.0800781-.6083984-.1201172-.8642578-.1201172-.3681641,0-.65625.0683594-.8632812.2041016-.2089844.1367188-.3603516.3164062-.4560547.5400391-.0966797.2246094-.15625.4765625-.1806641.7558594-.0234375.2802734-.0361328.5644531-.0361328.8525391v1.5361328h2.4003906v1.1992188h-2.4003906v11.2324219h-1.4394531v-11.2324219h-1.8476562Z"/>
    <path class="st0" d="M158.4658203,180.7460938c.2714844-.0322266.5957031-.0800781.9716797-.1435547.3759766-.0644531.6835938-.1523438.9238281-.2646484.2402344-.1113281.3876953-.2998047.4443359-.5634766.0556641-.2646484.0839844-.5078125.0839844-.7324219,0-.7353516-.2363281-1.3398438-.7080078-1.8115234-.4726562-.4716797-1.2685547-.7080078-2.3886719-.7080078-.4960938,0-.9521484.0439453-1.3671875.1318359-.4169922.0878906-.7802734.2402344-1.0927734.4560547-.3115234.2158203-.5673828.5039062-.7675781.8642578-.2001953.359375-.3320312.8115234-.3964844,1.3554688h-1.4638672c.0478516-.7353516.2167969-1.3642578.5039062-1.8837891.2880859-.5195312.6601562-.9443359,1.1162109-1.2724609.4560547-.3271484.984375-.5673828,1.5839844-.7197266.6005859-.1513672,1.2363281-.2275391,1.9082031-.2275391.6240234,0,1.2119141.0673828,1.7636719.203125.5527344.1367188,1.0322266.3525391,1.4404297.6484375s.7275391.6923828.9599609,1.1884766c.2314453.4960938.3476562,1.1035156.3476562,1.8232422v6.7685547c0,.5595703.0996094.9160156.2998047,1.0673828.2001953.1523438.6044922.1162109,1.2128906-.1074219v1.1279297c-.1123047.0322266-.2763672.0800781-.4921875.1435547-.2158203.0644531-.4287109.0966797-.6357422.0966797-.2246094,0-.4404297-.0244141-.6484375-.0722656-.2402344-.0322266-.4316406-.1083984-.5761719-.2285156-.1435547-.1191406-.2597656-.2636719-.3476562-.4316406s-.1484375-.3515625-.1806641-.5517578-.0478516-.4121094-.0478516-.6357422c-.6083984.671875-1.3037109,1.1835938-2.0878906,1.5351562-.7841797.3525391-1.6318359.5283203-2.5439453.5283203-.5439453,0-1.0673828-.0722656-1.5722656-.2158203-.5039062-.1445312-.9472656-.3681641-1.3320312-.671875-.3837891-.3037109-.6875-.6757812-.9111328-1.1162109-.2246094-.4394531-.3369141-.9638672-.3369141-1.5722656,0-2.1113281,1.4482422-3.359375,4.3447266-3.7441406l1.9921875-.2636719ZM160.8896484,181.4658203c-.6083984.2568359-1.2246094.4248047-1.8486328.5039062-.6240234.0810547-1.2480469.1445312-1.8720703.1923828-1.1035156.0800781-1.9638672.328125-2.5791016.7441406-.6162109.4160156-.9248047,1.0478516-.9248047,1.8955078,0,.3847656.0761719.7167969.2285156.9960938.1513672.2802734.3515625.5126953.5996094.6962891.2480469.1845703.5361328.3203125.8642578.4082031s.6601562.1318359.9960938.1318359c.5761719,0,1.1357422-.0722656,1.6796875-.2158203.5439453-.1445312,1.0283203-.3642578,1.4521484-.6601562s.7636719-.671875,1.0205078-1.1279297c.2548828-.4560547.3837891-.9960938.3837891-1.6201172v-1.9443359Z"/>
    <path class="st0" d="M167.609375,187.9941406h-1.4404297v-12.4316406h1.4404297v2.328125h.0478516c.3994141-.9921875.9160156-1.6845703,1.5478516-2.0761719.6318359-.3925781,1.4677734-.5878906,2.5078125-.5878906v1.5595703c-.8154297-.015625-1.4873047.1123047-2.015625.3837891-.5283203.2724609-.9482422.640625-1.2597656,1.1044922-.3125.4638672-.5283203,1.0117188-.6484375,1.6435547-.1201172.6328125-.1796875,1.2919922-.1796875,1.9804688v6.0957031Z"/>
    <path class="st0" d="M178.4570312,188.0419922c-.1757812.0322266-.4072266.0878906-.6953125.1679688s-.6083984.1201172-.9599609.1201172c-.7207031,0-1.2685547-.1796875-1.6445312-.5400391s-.5634766-1.0039062-.5634766-1.9316406v-9.0966797h-1.7519531v-1.1992188h1.7519531v-3.4560547h1.4394531v3.4560547h2.328125v1.1992188h-2.328125v8.5205078c0,.3037109.0078125.5683594.0244141.7919922.015625.2246094.0634766.4082031.1435547.5517578.0800781.1445312.2041016.2480469.3720703.3125.1679688.0634766.4042969.0957031.7080078.0957031.1923828,0,.3876953-.015625.5878906-.0478516s.3964844-.0722656.5878906-.1201172v1.1757812Z"/>
    <path class="st0" d="M181.4814453,187.9941406v-2.1123047h1.7519531v2.1123047h-1.7519531Z"/>
  </g>
</svg>