<?xml version="1.0" encoding="UTF-8"?>
<svg id="Layer_1" xmlns="http://www.w3.org/2000/svg" version="1.1" viewBox="0 0 134.3710938 43.2631836">
  <!-- Generator: Adobe Illustrator 29.3.1, SVG Export Plug-In . SVG Version: 2.1.0 Build 151)  -->
  <defs>
    <style>
      .st0 {
        fill: #fff;
      }
    </style>
  </defs>
  <path class="st0" d="M55.3417969,29.53125c-3.6547852,0-6.7211914-3.1503906-6.7211914-6.5527344,0-4.4111328,3.1928711-6.9316406,6.5112305-8.9897461-.840332-1.1342773-1.9321289-3.0244141-1.9321289-4.9150391,0-3.6542969,3.5283203-6.5532227,7.0571289-6.5532227,2.1000977,0,4.284668,1.0083008,4.284668,3.0249023,0,2.0581055-2.1005859,3.5703125-3.5708008,4.3266602l6.7636719,8.5693359c1.3857422-2.7304688.0839844-7.0151367.8398438-11.1738281.7138672-3.9487305,3.8222656-7.2675781,8.0654297-7.2675781,3.6123047,0,7.6875,3.402832,7.6875,8.8217773,0,2.7304688-1.3447266,4.7050781-3.6542969,4.7050781-2.1005859,0-3.5712891-1.5966797-3.5712891-3.612793,0-1.890625,1.4287109-3.4868164,3.3183594-3.4868164,1.3027344,0,1.6806641.7563477,2.3525391.7563477.5039062,0,.7148438-.4619141.7148438-1.1342773,0-1.1342773-1.7226562-2.3945312-3.3193359-2.3945312-2.8984375,0-5.3769531,2.1005859-7.2246094,5.2929688-1.5966797,2.7724609-2.7304688,6.2592773-4.9150391,9.871582l2.6044922,3.2768555c1.1337891,1.4282227,2.2265625,2.8144531,3.7382812,2.8144531,1.8066406,0,2.3105469-2.3945312,2.3525391-3.9907227h.2939453c-.0419922,3.7387695-2.5625,8.6113281-6.8886719,8.6113281-2.9833984,0-4.7890625-2.0161133-6.7636719-4.6206055-1.8481445,1.7641602-4.6625977,4.6206055-8.0234375,4.6206055ZM63.1552734,24.6166992l-7.7714844-10.3339844c-.671875.4199219-1.2602539,1.2182617-1.2602539,2.3525391,0,1.722168.7143555,3.2763672,1.5961914,4.7045898,1.5966797,2.5625,3.4868164,3.7807617,5.5454102,3.7807617.7978516,0,1.3862305-.2099609,1.8901367-.5039062ZM60.8027344,9.6621094c.7143555-.840332,1.1342773-1.512207,1.1342773-3.8227539,0-1.3862305-.671875-2.8984375-2.0161133-2.8984375-.9663086,0-1.7646484.8398438-1.7646484,1.9321289,0,1.1762695,1.3442383,3.1083984,2.6464844,4.7890625Z"/>
  <g>
    <path class="st0" d="M8.2807617,28.9492188c2.472168,0,4.2485352-3.984375,4.8964844-6.6962891h.0717773v6.3842773h-.0717773c-.1918945-.2636719-.5039062-.527832-.9838867-.527832-.9121094,0-2.4003906,1.1518555-4.2006836,1.1518555-5.0883789,0-7.9926758-3-7.9926758-7.5366211,0-4.4160156,3.5283203-7.7524414,8.0166016-7.7524414,1.9682617,0,2.5444336.6479492,3.6723633.6479492.7202148,0,1.0800781-.2641602,1.3920898-.5522461h.0722656v6.2885742h-.0722656c-1.2480469-3.984375-2.9042969-6.1201172-4.8242188-6.1201172-2.8803711,0-3.2880859,3.9599609-3.2880859,8.0644531,0,3.5522461.4555664,6.6484375,3.3120117,6.6484375Z"/>
    <path class="st0" d="M20.5922852,28.8295898v.0717773h-6.2402344v-.0717773c.7919922-.1923828,1.2958984-.6962891,1.2958984-2.0166016v-9.3847656c0-1.3198242-.6240234-1.6801758-1.4399414-1.8720703v-.0717773l5.0883789-1.7763672v13.1049805c0,1.3920898.5517578,1.9443359,1.2958984,2.0166016Z"/>
    <path class="st0" d="M27.6479492,28.8295898v.0717773h-6.4804688v-.0717773c.7919922-.1923828,1.2963867-.6962891,1.2963867-2.0166016v-3.840332c0-1.3198242-.5043945-1.6318359-1.512207-1.8481445v-.0717773l5.2802734-1.800293v7.5605469c0,1.3920898.6962891,1.8481445,1.4160156,2.0166016ZM26.2080078,16.4443359c0,1.1762695-.9360352,2.1362305-2.1123047,2.1362305-1.1757812,0-2.0878906-.9599609-2.0878906-2.1362305s.9121094-2.1123047,2.0878906-2.1123047c1.1762695,0,2.1123047.9360352,2.1123047,2.1123047Z"/>
    <path class="st0" d="M34.3203125,23.4287109c-.9838867,0-1.8242188-.7436523-1.8242188-1.7280273,0-.5761719.1923828-.8881836.5283203-1.2719727.144043-.1679688.3598633-.2402344.3598633-.4560547,0-.2163086-.1918945-.3598633-.4560547-.3598633-1.2241211,0-2.0639648,1.7758789-2.0639648,3.4321289,0,1.8959961,1.0800781,4.0083008,3,4.0083008,1.3203125,0,2.1362305-.7202148,2.5922852-1.8242188h.1201172c-.5039062,1.7041016-1.7041016,4.0322266-4.6083984,4.0322266-2.5683594,0-4.512207-1.9921875-4.512207-4.7041016,0-2.8564453,2.3759766-5.112793,5.4482422-5.112793,1.6323242,0,3.1923828.7441406,3.1923828,2.2324219,0,1.0322266-.7919922,1.7519531-1.7763672,1.7519531Z"/>
    <path class="st0" d="M42.6240234,19.6845703h5.2084961v.0717773c-1.1757812.1201172-3.3359375,1.4882812-3.8164062,2.1123047l2.9521484,5.1367188c.6962891,1.199707,1.1289062,1.7519531,2.1845703,1.8242188v.0717773h-12.8652344v-.0717773c.7919922-.1923828,1.2963867-.6962891,1.2963867-2.0166016v-9.3847656c0-1.3198242-.6245117-1.6801758-1.4404297-1.8720703v-.0717773l5.0883789-1.7763672v13.2250977c0,1.1523438.2880859,1.8242188,1.128418,1.8242188.4316406,0,.7436523-.1918945.7436523-.6240234,0-.2402344-.0717773-.4321289-.2636719-.7919922l-1.4404297-2.8564453,1.7041016-1.7998047c.4804688-.5043945.840332-1.0561523.840332-1.5605469,0-.7919922-.5522461-1.2719727-1.3203125-1.3681641v-.0717773Z"/>
  </g>
  <g>
    <path class="st0" d="M47.8168945,38.2236328c.5322266,1.8198242,1.7636719,4.7036133,4.3115234,4.7036133,1.0361328,0,1.8203125-.4755859,1.8203125-1.4560547,0-.9799805-1.4003906-1.34375-3.3320312-2.1557617-1.4560547-.5878906-2.9404297-1.2319336-2.9404297-3.472168,0-2.4916992,2.2958984-4.0595703,4.7880859-4.0595703,1.1201172,0,1.6523438.3359375,2.6318359.3359375.5888672,0,.9248047-.1123047,1.484375-.3081055v3.7241211h-.0839844c-.7841797-1.6801758-1.9042969-3.5-3.7519531-3.5-.8964844,0-1.7080078.5039062-1.7080078,1.3999023,0,1.0639648,1.3720703,1.315918,2.9404297,1.987793,1.9033203.8120117,3.4160156,1.4838867,3.4160156,3.6401367,0,2.4921875-2.4082031,4.1157227-5.0683594,4.1157227-1.3164062,0-1.7363281-.3637695-2.8837891-.3637695-.7285156,0-1.0917969.1401367-1.7080078.3637695v-4.9555664h.0839844Z"/>
    <path class="st0" d="M62.824707,32.0634766h2.9960938l-.7558594,1.512207h-2.2402344v5.8515625c0,1.1484375.4482422,2.0161133,1.4003906,2.0161133.7832031,0,1.3994141-.699707,1.7636719-1.4838867l.0839844.027832c-.6162109,1.6801758-2.0996094,3.2758789-4.2001953,3.2758789-2.2675781,0-3.3037109-1.315918-3.3037109-3.6396484v-6.0478516h-1.1757812l5.4316406-5.0400391v3.527832Z"/>
    <path class="st0" d="M73.0996094,31.7275391c1.9599609,0,3.0244141,1.1201172,3.0244141,3.1357422v5.0683594c0,.7558594,0,1.371582.5595703,1.371582.4482422,0,.7285156-.6435547.9238281-1.2597656h.0839844c-.3359375,1.6801758-1.5117188,3.2197266-3.3876953,3.2197266-1.1757812,0-2.4355469-.5595703-2.4355469-2.4355469-.2797852,1.3999023-1.5395508,2.4355469-3.0522461,2.4355469-1.4833984,0-2.9677734-.9238281-2.9677734-2.4077148,0-2.5761719,2.5478516-2.7158203,4.6201172-3.5.5039062-.1958008.9521484-.4482422,1.2875977-.7558594v-2.3520508c0-1.0083008-.4760742-1.7363281-1.4555664-1.7363281-.4482422,0-1.0078125.2524414-1.0078125.7001953,0,.5600586,1.0078125.5878906,1.0078125,1.7080078,0,1.2319336-1.4003906,2.4082031-2.6884766,2.4082031-.8955078,0-1.4560547-.5322266-1.4560547-1.4282227,0-2.2958984,4.2841797-4.171875,6.9438477-4.171875ZM69.9360352,39.5112305c0,1.0083008.1962891,2.0161133,1.1201172,2.0161133.699707,0,.699707-.9238281.699707-2.2119141v-2.4638672l-.4760742.3081055c-.9238281.5595703-1.34375,1.0078125-1.34375,2.3515625Z"/>
    <path class="st0" d="M83.7949219,34.1074219c-.2802734,0-.671875.644043-.671875,1.9321289v4.4799805c0,1.34375.5322266,2.0161133,1.7080078,2.2119141v.0839844h-7.7001953v-.0839844c1.1201172-.2797852,1.7363281-.8120117,1.7363281-2.3520508v-4.5361328c0-1.5400391-.5605469-1.9316406-1.5683594-2.0996094v-.0839844l5.7402344-1.9599609v3.4155273c.3359375-1.5678711,1.3164062-3.4995117,3.2197266-3.4995117,1.6523438,0,2.3525391,1.2597656,2.3525391,2.1279297,0,1.1479492-.7841797,2.3798828-2.1845703,2.3798828-2.1552734,0-1.9599609-2.0161133-2.6318359-2.0161133Z"/>
    <path class="st0" d="M93.3710938,32.0634766h2.9960938l-.7558594,1.512207h-2.2402344v5.8515625c0,1.1484375.4482422,2.0161133,1.4003906,2.0161133.7832031,0,1.3994141-.699707,1.7636719-1.4838867l.0839844.027832c-.6162109,1.6801758-2.0996094,3.2758789-4.2001953,3.2758789-2.2675781,0-3.3037109-1.315918-3.3037109-3.6396484v-6.0478516h-1.1757812l5.4316406-5.0400391v3.527832Z"/>
    <path class="st0" d="M102.4433594,31.8115234c3.1914062,0,5.1513672,2.0161133,5.1240234,4.5078125h-5.4882812c-.5322266,0-1.0078125.0283203-1.34375.0283203-.0839844,2.2397461,1.2041016,4.3959961,3.4160156,4.3959961,1.5400391,0,2.8554688-1.0644531,3.4716797-2.4643555l.1123047.0283203c-.7001953,1.987793-2.3525391,4.8999023-5.7402344,4.8999023-2.9960938,0-5.2636719-2.184082-5.2636719-5.5722656,0-3.2758789,2.4921875-5.8237305,5.7119141-5.8237305ZM100.7070312,36.1513672h2.7998047c0-1.987793-.1679688-4.144043-1.2314453-4.144043-1.1484375,0-1.6523438,2.15625-1.5683594,4.144043Z"/>
    <path class="st0" d="M115.8828125,40.043457c-.2802734,1.9321289-1.4833984,3.1640625-3.1640625,3.1640625-2.8554688,0-4.4521484-2.5200195-4.4521484-5.3481445,0-3.1918945,2.2685547-6.1040039,5.4326172-6.1040039,1.0634766,0,1.9316406.3642578,2.1279297,1.5961914l-.0839844-3.7802734c-.0283203-1.5117188-.8125-1.9316406-1.7919922-2.1279297v-.0839844l6.0761719-2.2680664v13.4960938c0,1.5961914.3916016,2.0439453,1.4833984,2.2958984v.0839844l-5.6279297,2.0722656v-2.9960938ZM114.4833984,32.1196289c-1.5966797,0-1.7363281,2.4916992-1.7363281,4.6757812,0,2.0439453.2519531,4.7319336,1.9316406,4.7319336.9521484,0,1.1484375-1.7636719,1.1484375-3.9477539v-1.7919922c0-1.3720703-.1123047-3.6679688-1.34375-3.6679688Z"/>
  </g>
  <path class="st0" d="M123.2490234,38.0444336l2.8427734-6.4428711-2.8427734-6.4794922.0712891-.0361328,5.6513672,5.543457c.3242188.3242188.4677734.6479492.4677734.972168,0,.3237305-.1435547.6118164-.4677734.9716797l-5.6513672,5.543457-.0712891-.0722656ZM128.2880859,37.324707l2.7353516-5.7231445-2.7353516-5.7592773.0722656-.0361328,5.5429688,4.8232422c.3242188.3242188.4677734.6479492.4677734.972168,0,.3237305-.1435547.6118164-.4677734.9716797l-5.5429688,4.8232422-.0722656-.0717773Z"/>
  <g>
    <path class="st0" d="M85.1279297,17.2231445c-.1894531-.2729492-.2304688-.5249023-.2304688-.8818359,0-.8818359.671875-1.5117188,1.6367188-1.5117188.7353516,0,1.4072266.4829102,1.4072266,1.2177734,0,.6298828-.4833984,1.1547852-1.1123047,1.1547852-.3789062,0-.6308594-.1469727-.8398438-.3359375-.1679688-.1679688-.2949219-.2939453-.4833984-.2939453-.1679688,0-.3154297.1049805-.3154297.2939453,0,.3779297.4833984.5668945.8193359.7768555.7138672.440918,1.0917969,1.0288086,1.0917969,1.8056641,0,1.8056641-2.015625,2.6455078-3.9267578,2.7504883-1.2167969.0629883-2.078125.2939453-2.078125.5878906,0,.3359375.2519531.440918.7978516.440918,1.0917969,0,2.0361328-.0839844,2.7919922-.0839844,2.2050781,0,3.1914062,1.1967773,3.1914062,2.7294922,0,2.6035156-2.6875,3.7163086-5.5,3.7163086-1.7851562,0-4.0527344-.5039062-4.0527344-1.8476562,0-.6508789.5664062-1.0708008,1.1337891-1.2597656.3359375-.1259766.671875-.1889648.9873047-.230957-1.0917969-.230957-1.5751953-.8188477-1.5751953-1.7426758,0-1.5957031,1.6162109-2.015625,3.1708984-2.3515625-1.7636719-.1679688-3.0664062-.9448242-3.0664062-2.5195312,0-1.9316406,2.1630859-2.7504883,4.0947266-2.7504883.6923828,0,1.4072266.1259766,2.0576172.3359375ZM80.0673828,27.637207c0,1.4277344,1.1347656,1.7636719,2.625,1.7636719,1.5957031,0,3.2753906-.3569336,3.2753906-1.8056641,0-.9868164-.7978516-1.3227539-1.9736328-1.3227539-.7353516,0-1.3642578.0209961-1.8896484.0209961-1.3652344,0-2.0371094.3359375-2.0371094,1.34375ZM83.0908203,22.0732422c.7773438,0,.9453125-1.34375.9453125-2.5825195,0-1.2177734-.3359375-2.456543-.9863281-2.456543-.8613281,0-1.0078125,1.34375-1.0078125,2.5405273,0,1.2597656.2089844,2.4985352,1.0488281,2.4985352Z"/>
    <path class="st0" d="M92.1630859,16.9501953c2.3935547,0,3.8632812,1.5117188,3.8417969,3.3803711h-4.1152344c-.3984375,0-.7558594.0209961-1.0078125.0209961-.0625,1.6796875.9033203,3.2963867,2.5625,3.2963867,1.1542969,0,2.140625-.7978516,2.6035156-1.8476562l.0839844.0209961c-.5253906,1.4907227-1.7636719,3.6743164-4.3046875,3.6743164-2.2460938,0-3.9472656-1.6376953-3.9472656-4.1782227,0-2.456543,1.8691406-4.3671875,4.2832031-4.3671875ZM90.8613281,20.2045898h2.0996094c0-1.4907227-.1259766-3.1074219-.9238281-3.1074219-.8603516,0-1.2392578,1.6166992-1.1757812,3.1074219Z"/>
    <path class="st0" d="M100.4160156,17.1391602h2.2470703l-.5673828,1.1337891h-1.6796875v4.3881836c0,.8608398.3359375,1.5117188,1.0498047,1.5117188.5878906,0,1.0498047-.5249023,1.3222656-1.112793l.0634766.0209961c-.4619141,1.2597656-1.5751953,2.456543-3.1494141,2.456543-1.7011719,0-2.4775391-.9868164-2.4775391-2.7294922v-4.5351562h-.8818359l4.0732422-3.7792969v2.6455078Z"/>
  </g>
</svg>