<?xml version="1.0" encoding="UTF-8"?>
<svg id="katman_1" xmlns="http://www.w3.org/2000/svg" xmlns:xlink="http://www.w3.org/1999/xlink" version="1.1" viewBox="0 0 237.39999 237.39999">
  <!-- Generator: Adobe Illustrator 29.3.1, SVG Export Plug-In . SVG Version: 2.1.0 Build 151)  -->
  <defs>
    <style>
      .st0 {
        fill: #010202;
      }
    </style>
  </defs>
  <path class="st0" d="M118.70001-.00003C53.09998-.00003,0,53.10001,0,118.69998s53.09998,118.70001,118.70001,118.70001,118.70001-53.10004,118.70001-118.70001S184.20001-.00003,118.70001-.00003ZM87.72479,183.61728h-27.99396v-90.38574h27.99396v90.38574ZM73.5932,81.39627c-9.14447,0-16.5545-7.4682-16.5545-16.67883s7.41003-16.67877,16.5545-16.67877,16.55011,7.4682,16.55011,16.67877-7.40558,16.67883-16.55011,16.67883ZM192.61731,183.61728h-27.85718v-47.44696c0-13.00867-4.94299-20.27838-15.23938-20.27838-11.20111,0-17.05322,7.56525-17.05322,20.27838v47.44696h-26.8465v-90.38574h26.8465v12.17499s8.07202-14.9364,27.2525-14.9364c19.17169,0,32.89728,11.70734,32.89728,35.92053v57.22662Z"/>
</svg>